<svg width="24" height="24" viewBox="0 0 24 24" fill="none" xmlns="http://www.w3.org/2000/svg">
<path fill-rule="evenodd" clip-rule="evenodd" d="M8.4 3H19.6C20.9255 3 22 4.07452 22 5.4V16.6C22 17.9255 20.9255 19 19.6 19H8.4C7.07452 19 6 17.9255 6 16.6V5.4C6 4.07452 7.07452 3 8.4 3ZM14 6C14.5523 6 15 6.44772 15 7V10H18C18.5523 10 19 10.4477 19 11C19 11.5523 18.5523 12 18 12H15V15C15 15.5523 14.5523 16 14 16C13.4477 16 13 15.5523 13 15V12H10C9.44772 12 9 11.5523 9 11C9 10.4477 9.44772 10 10 10H13V7C13 6.44772 13.4477 6 14 6Z" fill="black"/>
<path d="M4 5C4 4.44772 3.55228 4 3 4C2.44772 4 2 4.44772 2 5V16.6C2 20.1323 4.86772 23 8.4 23H20C20.5523 23 21 22.5523 21 22C21 21.4477 20.5523 21 20 21H8.4C5.97228 21 4 19.0277 4 16.6V5Z" fill="black"/>
</svg>
