<svg width="24" height="24" viewBox="0 0 24 24" fill="none" xmlns="http://www.w3.org/2000/svg">
<path fill-rule="evenodd" clip-rule="evenodd" d="M4.4 4H19.6C20.9255 4 22 5.07452 22 6.4V17.6C22 18.9255 20.9255 20 19.6 20H4.4C3.07452 20 2 18.9255 2 17.6V6.4C2 5.07452 3.07452 4 4.4 4ZM8 8C7.44772 8 7 8.44772 7 9C7 9.55228 7.44772 10 8 10H16C16.5523 10 17 9.55228 17 9C17 8.44772 16.5523 8 16 8H8ZM7 12C7 11.4477 7.44772 11 8 11H16C16.5523 11 17 11.4477 17 12C17 12.5523 16.5523 13 16 13H8C7.44772 13 7 12.5523 7 12ZM8 14C7.44772 14 7 14.4477 7 15C7 15.5523 7.44772 16 8 16H12C12.5523 16 13 15.5523 13 15C13 14.4477 12.5523 14 12 14H8Z" fill="black"/>
</svg>
