<svg width="24" height="24" viewBox="0 0 24 24" fill="none" xmlns="http://www.w3.org/2000/svg">
<path d="M4 5.6C4 4.16406 5.16406 3 6.6 3H8.4C9.83594 3 11 4.16406 11 5.6V11H13V9.6C13 8.16406 14.1641 7 15.6 7H17.4C18.8359 7 20 8.16406 20 9.6V11H22C22.5523 11 23 11.4477 23 12C23 12.5523 22.5523 13 22 13H20V14.4C20 15.8359 18.8359 17 17.4 17H15.6C14.1641 17 13 15.8359 13 14.4V13H11V18.4C11 19.8359 9.83594 21 8.4 21H6.6C5.16406 21 4 19.8359 4 18.4V13H2C1.44772 13 1 12.5523 1 12C1 11.4477 1.44772 11 2 11H4V5.6Z" fill="black"/>
</svg>
