<svg width="24" height="24" viewBox="0 0 24 24" fill="none" xmlns="http://www.w3.org/2000/svg">
<path d="M4 3.6C4 2.16406 5.16406 1 6.6 1H8.4C9.83594 1 11 2.16406 11 3.6V16.4C11 17.8359 9.83594 19 8.4 19H6.6C5.16406 19 4 17.8359 4 16.4V3.6Z" fill="black"/>
<path d="M13 11.6C13 10.1641 14.1641 9 15.6 9H17.4C18.8359 9 20 10.1641 20 11.6V16.4C20 17.8359 18.8359 19 17.4 19H15.6C14.1641 19 13 17.8359 13 16.4V11.6Z" fill="black"/>
<path d="M2 21C1.44772 21 1 21.4477 1 22C1 22.5523 1.44772 23 2 23H22C22.5523 23 23 22.5523 23 22C23 21.4477 22.5523 21 22 21H2Z" fill="black"/>
</svg>
