<svg width="24" height="24" viewBox="0 0 24 24" fill="none" xmlns="http://www.w3.org/2000/svg">
<path d="M23 2C23 1.44772 22.5523 1 22 1C21.4477 1 21 1.44772 21 2V22C21 22.5523 21.4477 23 22 23C22.5523 23 23 22.5523 23 22V2Z" fill="black"/>
<path d="M1 6.6C1 5.16406 2.16406 4 3.6 4L16.4 4C17.8359 4 19 5.16406 19 6.6V8.4C19 9.83594 17.8359 11 16.4 11H3.6C2.16406 11 1 9.83594 1 8.4V6.6Z" fill="black"/>
<path d="M9 15.6C9 14.1641 10.1641 13 11.6 13H16.4C17.8359 13 19 14.1641 19 15.6V17.4C19 18.8359 17.8359 20 16.4 20H11.6C10.1641 20 9 18.8359 9 17.4V15.6Z" fill="black"/>
</svg>
