<svg width="24" height="24" viewBox="0 0 24 24" fill="none" xmlns="http://www.w3.org/2000/svg">
<path d="M16.1452 2.40204C16.1452 3.42614 15.7052 4.45024 15.0831 5.18832C14.423 6.0064 13.2809 6.61446 12.3728 6.61446C12.2688 6.61446 12.1648 6.60046 12.1008 6.58846C12.0888 6.53845 12.0628 6.38244 12.0628 6.22642C12.0628 5.18832 12.5949 4.16422 13.1649 3.51615C13.891 2.67407 15.0951 2.038 16.1072 2C16.1332 2.11601 16.1452 2.26003 16.1452 2.40204Z" fill="black"/>
<path d="M19.7137 8.85234C19.7386 8.83603 19.7556 8.82485 19.7636 8.81867C18.4154 6.88648 16.3672 6.83447 15.7972 6.83447C14.9251 6.83447 14.1444 7.14377 13.4884 7.40371C13.0129 7.5921 12.6028 7.75456 12.2708 7.75456C11.9039 7.75456 11.4837 7.58491 11.0149 7.39561C10.4233 7.15669 9.75415 6.88648 9.0165 6.88648C6.52825 6.88648 4 8.94868 4 12.8371C4 15.2613 4.93409 17.8156 6.09021 19.4597C7.08831 20.8599 7.9564 22 9.20052 22C9.79043 22 10.2229 21.8165 10.6778 21.6236C11.1823 21.4096 11.7142 21.1839 12.5189 21.1839C13.3321 21.1839 13.818 21.3959 14.2865 21.6002C14.7226 21.7904 15.1435 21.974 15.7992 21.974C17.1593 21.974 18.0534 20.7439 18.9095 19.5117C19.8696 18.1116 20.2716 16.7375 20.2836 16.6735C20.2056 16.6475 17.5994 15.5973 17.5994 12.6291C17.5994 10.2389 19.3761 9.07372 19.7137 8.85234Z" fill="black"/>
</svg>
