<svg width="24" height="24" viewBox="0 0 24 24" fill="none" xmlns="http://www.w3.org/2000/svg">
<path d="M3 2C3 1.44772 2.55229 1 2 1C1.44772 1 1 1.44772 1 2V22C1 22.5523 1.44772 23 2 23C2.55228 23 3 22.5523 3 22L3 2Z" fill="black"/>
<path d="M5 6.6C5 5.16406 6.16406 4 7.6 4L20.4 4C21.8359 4 23 5.16406 23 6.6V8.4C23 9.83594 21.8359 11 20.4 11H7.6C6.16406 11 5 9.83594 5 8.4V6.6Z" fill="black"/>
<path d="M5 15.6C5 14.1641 6.16406 13 7.6 13H12.4C13.8359 13 15 14.1641 15 15.6V17.4C15 18.8359 13.8359 20 12.4 20H7.6C6.16406 20 5 18.8359 5 17.4V15.6Z" fill="black"/>
</svg>
