<svg width="24" height="24" viewBox="0 0 24 24" fill="none" xmlns="http://www.w3.org/2000/svg">
<path fill-rule="evenodd" clip-rule="evenodd" d="M3 5.4V18.6C3 19.9255 4.07452 21 5.4 21H18.6C19.9255 21 21 19.9255 21 18.6V5.4C21 4.07452 19.9255 3 18.6 3L5.4 3C4.07452 3 3 4.07452 3 5.4ZM7.29289 11.2929C6.90237 11.6834 6.90237 12.3166 7.29289 12.7071L11.2929 16.7071C11.6834 17.0976 12.3166 17.0976 12.7071 16.7071C13.0976 16.3166 13.0976 15.6834 12.7071 15.2929L10.4142 13H16C16.5523 13 17 12.5523 17 12C17 11.4477 16.5523 11 16 11H10.4142L12.7071 8.70711C13.0976 8.31658 13.0976 7.68342 12.7071 7.29289C12.3166 6.90237 11.6834 6.90237 11.2929 7.29289L7.29289 11.2929Z" fill="black"/>
</svg>
