<svg width="24" height="24" viewBox="0 0 24 24" fill="none" xmlns="http://www.w3.org/2000/svg">
<path fill-rule="evenodd" clip-rule="evenodd" d="M0 4.6C0 3.16406 1.16406 2 2.6 2H21.4C22.8359 2 24 3.16406 24 4.6V5.4C24 6.83594 22.8359 8 21.4 8H20.9138L20 18.6C20 19.93 18.93 21 17.6 21H6.4C5.07 21 4 19.93 4 18.6L3.08621 8H2.6C1.16406 8 0 6.83594 0 5.4V4.6ZM2.6 4C2.26863 4 2 4.26863 2 4.6V5.4C2 5.73137 2.26863 6 2.6 6H21.4C21.7314 6 22 5.73137 22 5.4V4.6C22 4.26863 21.7314 4 21.4 4H2.6ZM15 9H9V7H7V9.2C7 10.1941 7.80589 11 8.8 11H15.2C16.1941 11 17 10.1941 17 9.2V7H15V9Z" fill="black"/>
</svg>
