<svg width="24" height="24" viewBox="0 0 24 24" fill="none" xmlns="http://www.w3.org/2000/svg">
<path fill-rule="evenodd" clip-rule="evenodd" d="M3.51681 16.9999L10.5751 5.21659C10.7237 4.97168 10.9329 4.76919 11.1825 4.62866C11.4321 4.48813 11.7137 4.41431 12.0001 4.41431C12.2866 4.41431 12.5682 4.48813 12.8178 4.62866C13.0674 4.76919 13.2766 4.97168 13.4251 5.21659L20.4835 16.9999C20.629 17.2519 20.706 17.5377 20.7068 17.8287C20.7076 18.1197 20.6322 18.4059 20.4881 18.6587C20.344 18.9115 20.1362 19.1222 19.8854 19.2698C19.6346 19.4174 19.3495 19.4967 19.0585 19.4999H4.94181C4.65081 19.4967 4.36571 19.4174 4.1149 19.2698C3.86408 19.1222 3.65627 18.9115 3.51216 18.6587C3.36805 18.4059 3.29265 18.1197 3.29346 17.8287C3.29428 17.5377 3.37128 17.2519 3.51681 16.9999ZM12 9C12.5523 9 13 9.44772 13 10V13C13 13.5523 12.5523 14 12 14C11.4477 14 11 13.5523 11 13V10C11 9.44772 11.4477 9 12 9ZM11 16C11 15.4477 11.4477 15 12 15H12.0083C12.5606 15 13.0083 15.4477 13.0083 16C13.0083 16.5523 12.5606 17 12.0083 17H12C11.4477 17 11 16.5523 11 16Z" fill="black"/>
</svg>
