<svg width="24" height="24" viewBox="0 0 24 24" fill="none" xmlns="http://www.w3.org/2000/svg">
<path d="M2 1C1.44772 1 1 1.44772 1 2C1 2.55228 1.44772 3 2 3H22C22.5523 3 23 2.55228 23 2C23 1.44772 22.5523 1 22 1H2Z" fill="black"/>
<path d="M4 7.6C4 6.16406 5.16406 5 6.6 5H8.4C9.83594 5 11 6.16406 11 7.6V20.4C11 21.8359 9.83594 23 8.4 23H6.6C5.16406 23 4 21.8359 4 20.4V7.6Z" fill="black"/>
<path d="M13 7.6C13 6.16406 14.1641 5 15.6 5H17.4C18.8359 5 20 6.16406 20 7.6V12.4C20 13.8359 18.8359 15 17.4 15H15.6C14.1641 15 13 13.8359 13 12.4V7.6Z" fill="black"/>
</svg>
