<svg width="24" height="24" viewBox="0 0 24 24" fill="none" xmlns="http://www.w3.org/2000/svg">
<path d="M10.5751 5.21659L3.51681 16.9999C3.37128 17.2519 3.29428 17.5377 3.29346 17.8287C3.29265 18.1197 3.36805 18.4059 3.51216 18.6587C3.65627 18.9115 3.86408 19.1222 4.1149 19.2698C4.36571 19.4174 4.65081 19.4967 4.94181 19.4999H19.0585C19.3495 19.4967 19.6346 19.4174 19.8854 19.2698C20.1362 19.1222 20.344 18.9115 20.4881 18.6587C20.6322 18.4059 20.7076 18.1197 20.7068 17.8287C20.706 17.5377 20.629 17.2519 20.4835 16.9999L13.4251 5.21659C13.2766 4.97168 13.0674 4.76919 12.8178 4.62866C12.5682 4.48813 12.2866 4.41431 12.0001 4.41431C11.7137 4.41431 11.4321 4.48813 11.1825 4.62866C10.9329 4.76919 10.7237 4.97168 10.5751 5.21659V5.21659Z" fill="black" stroke="black" stroke-width="1.5" stroke-miterlimit="10"/>
<path d="M12 16H12.0083" stroke="white" stroke-width="1.5" stroke-miterlimit="10" stroke-linecap="round"/>
<path d="M12 10V13" stroke="white" stroke-width="1.5" stroke-miterlimit="10" stroke-linecap="round"/>
</svg>
