<svg width="24" height="24" viewBox="0 0 24 24" fill="none" xmlns="http://www.w3.org/2000/svg">
<path d="M13 2C13 1.44772 12.5523 1 12 1C11.4477 1 11 1.44771 11 2L11 4L5.6 4C4.16406 4 3 5.16406 3 6.6V8.4C3 9.83594 4.16406 11 5.6 11H11L11 13H9.6C8.16406 13 7 14.1641 7 15.6V17.4C7 18.8359 8.16406 20 9.6 20H11L11 22C11 22.5523 11.4477 23 12 23C12.5523 23 13 22.5523 13 22L13 20H14.4C15.8359 20 17 18.8359 17 17.4V15.6C17 14.1641 15.8359 13 14.4 13H13L13 11H18.4C19.8359 11 21 9.83594 21 8.4V6.6C21 5.16406 19.8359 4 18.4 4L13 4L13 2Z" fill="black"/>
</svg>
