<svg width="24" height="24" viewBox="0 0 24 24" fill="none" xmlns="http://www.w3.org/2000/svg">
<path fill-rule="evenodd" clip-rule="evenodd" d="M0 4.6C0 3.16406 1.16406 2 2.6 2H21.4C22.8359 2 24 3.16406 24 4.6V5.4C24 6.83594 22.8359 8 21.4 8H20.9138L20 18.6C20 19.93 18.93 21 17.6 21H6.4C5.07 21 4 19.93 4 18.6L3.08621 8H2.6C1.16406 8 0 6.83594 0 5.4V4.6ZM2.6 4C2.26863 4 2 4.26863 2 4.6V5.4C2 5.73137 2.26863 6 2.6 6H21.4C21.7314 6 22 5.73137 22 5.4V4.6C22 4.26863 21.7314 4 21.4 4H2.6ZM8.29289 10.2929C8.68342 9.90237 9.31658 9.90237 9.70711 10.2929L12 12.5858L14.2929 10.2929C14.6834 9.90237 15.3166 9.90237 15.7071 10.2929C16.0976 10.6834 16.0976 11.3166 15.7071 11.7071L13.4142 14L15.7071 16.2929C16.0976 16.6834 16.0976 17.3166 15.7071 17.7071C15.3166 18.0976 14.6834 18.0976 14.2929 17.7071L12 15.4142L9.70711 17.7071C9.31658 18.0976 8.68342 18.0976 8.29289 17.7071C7.90237 17.3166 7.90237 16.6834 8.29289 16.2929L10.5858 14L8.29289 11.7071C7.90237 11.3166 7.90237 10.6834 8.29289 10.2929Z" fill="black"/>
</svg>
