<svg width="24" height="24" viewBox="0 0 24 24" fill="none" xmlns="http://www.w3.org/2000/svg">
<g clip-path="url(#clip0_503_4629)">
<path d="M3.4 2C2.6268 2 2 2.6268 2 3.4V5C2 5.55228 1.55228 6 1 6C0.447715 6 0 5.55228 0 5V3.4C0 1.52223 1.52223 0 3.4 0H5C5.55228 0 6 0.447715 6 1C6 1.55228 5.55228 2 5 2H3.4Z" fill="black"/>
<path d="M18 1C18 0.447715 18.4477 0 19 0H20.6C22.4778 0 24 1.52223 24 3.4V5C24 5.55228 23.5523 6 23 6C22.4477 6 22 5.55228 22 5V3.4C22 2.6268 21.3732 2 20.6 2H19C18.4477 2 18 1.55228 18 1Z" fill="black"/>
<path d="M1 18C1.55228 18 2 18.4477 2 19V20.6C2 21.3732 2.6268 22 3.4 22H5C5.55228 22 6 22.4477 6 23C6 23.5523 5.55228 24 5 24H3.4C1.52223 24 0 22.4778 0 20.6V19C0 18.4477 0.447715 18 1 18Z" fill="black"/>
<path d="M23 18C23.5523 18 24 18.4477 24 19V20.6C24 22.4778 22.4778 24 20.6 24H19C18.4477 24 18 23.5523 18 23C18 22.4477 18.4477 22 19 22H20.6C21.3732 22 22 21.3732 22 20.6V19C22 18.4477 22.4477 18 23 18Z" fill="black"/>
<path d="M9.4 5H6.6C5.71634 5 5 5.71634 5 6.6V9.4C5 10.2837 5.71634 11 6.6 11H9.4C10.2837 11 11 10.2837 11 9.4V6.6C11 5.71634 10.2837 5 9.4 5Z" fill="black"/>
<path d="M6.6 13H9.4C10.2837 13 11 13.7163 11 14.6V17.4C11 18.2837 10.2837 19 9.4 19H6.6C5.71634 19 5 18.2837 5 17.4V14.6C5 13.7163 5.71634 13 6.6 13Z" fill="black"/>
<path d="M17.4 5H14.6C13.7163 5 13 5.71634 13 6.6V9.4C13 10.2837 13.7163 11 14.6 11H17.4C18.2837 11 19 10.2837 19 9.4V6.6C19 5.71634 18.2837 5 17.4 5Z" fill="black"/>
<path d="M14.6 13H17.4C18.2837 13 19 13.7163 19 14.6V17.4C19 18.2837 18.2837 19 17.4 19H14.6C13.7163 19 13 18.2837 13 17.4V14.6C13 13.7163 13.7163 13 14.6 13Z" fill="black"/>
</g>
<defs>
<clipPath id="clip0_503_4629">
<rect width="24" height="24" fill="white"/>
</clipPath>
</defs>
</svg>
