<svg width="24" height="24" viewBox="0 0 24 24" fill="none" xmlns="http://www.w3.org/2000/svg">
<path fill-rule="evenodd" clip-rule="evenodd" d="M8 4.8V7H4.4C3.07452 7 2 8.07452 2 9.4V18.6C2 19.9255 3.07452 21 4.4 21H19.6C20.9255 21 22 19.9255 22 18.6V9.4C22 8.07452 20.9255 7 19.6 7H16V4.8C16 3.80589 15.1941 3 14.2 3H9.8C8.80589 3 8 3.80589 8 4.8ZM10 5V7H14V5H10ZM10.8 11.5C10.082 11.5 9.5 12.082 9.5 12.8V13H3V15H9.5V15.2C9.5 15.918 10.082 16.5 10.8 16.5H13.2C13.918 16.5 14.5 15.918 14.5 15.2V15H21V13H14.5V12.8C14.5 12.082 13.918 11.5 13.2 11.5H10.8Z" fill="black"/>
</svg>
