<svg width="24" height="24" viewBox="0 0 24 24" fill="none" xmlns="http://www.w3.org/2000/svg">
<path fill-rule="evenodd" clip-rule="evenodd" d="M5.4 3H18.6C19.9255 3 21 4.07452 21 5.4V18.6C21 19.9255 19.9255 21 18.6 21H5.4C4.07452 21 3 19.9255 3 18.6V5.4C3 4.07452 4.07452 3 5.4 3ZM8 7C6.89543 7 6 7.89543 6 9C6 10.1046 6.89543 11 8 11C9.10457 11 10 10.1046 10 9C10 7.89543 9.10457 7 8 7ZM13 8C12.4477 8 12 8.44772 12 9C12 9.55228 12.4477 10 13 10H17C17.5523 10 18 9.55228 18 9C18 8.44772 17.5523 8 17 8H13ZM13 14C12.4477 14 12 14.4477 12 15C12 15.5523 12.4477 16 13 16H17C17.5523 16 18 15.5523 18 15C18 14.4477 17.5523 14 17 14H13ZM6 15C6 13.8954 6.89543 13 8 13C9.10457 13 10 13.8954 10 15C10 16.1046 9.10457 17 8 17C6.89543 17 6 16.1046 6 15Z" fill="black"/>
</svg>
