<svg width="24" height="24" viewBox="0 0 24 24" fill="none" xmlns="http://www.w3.org/2000/svg">
<path fill-rule="evenodd" clip-rule="evenodd" d="M8 4.8V7H4.4C3.07452 7 2 8.07452 2 9.4V18.6C2 19.9255 3.07452 21 4.4 21H19.6C20.9255 21 22 19.9255 22 18.6V9.4C22 8.07452 20.9255 7 19.6 7H16V4.8C16 3.80589 15.1941 3 14.2 3H9.8C8.80589 3 8 3.80589 8 4.8ZM10 5V7H14V5H10ZM12 10C12.5523 10 13 10.4477 13 11V13H15C15.5523 13 16 13.4477 16 14C16 14.5523 15.5523 15 15 15H13V17C13 17.5523 12.5523 18 12 18C11.4477 18 11 17.5523 11 17V15H9C8.44772 15 8 14.5523 8 14C8 13.4477 8.44772 13 9 13H11V11C11 10.4477 11.4477 10 12 10Z" fill="black"/>
</svg>
