<svg width="24" height="24" viewBox="0 0 24 24" fill="none" xmlns="http://www.w3.org/2000/svg">
<path d="M4 5.4C4 4.6268 4.6268 4 5.4 4H7C7.55228 4 8 3.55228 8 3C8 2.44772 7.55228 2 7 2H5.4C3.52223 2 2 3.52223 2 5.4V7C2 7.55228 2.44772 8 3 8C3.55228 8 4 7.55228 4 7V5.4Z" fill="black"/>
<path d="M17 2C16.4477 2 16 2.44772 16 3C16 3.55228 16.4477 4 17 4H18.6C19.3732 4 20 4.6268 20 5.4V7C20 7.55228 20.4477 8 21 8C21.5523 8 22 7.55228 22 7V5.4C22 3.52223 20.4778 2 18.6 2H17Z" fill="black"/>
<path d="M4 17C4 16.4477 3.55228 16 3 16C2.44772 16 2 16.4477 2 17V18.6C2 20.4778 3.52223 22 5.4 22H7C7.55228 22 8 21.5523 8 21C8 20.4477 7.55228 20 7 20H5.4C4.6268 20 4 19.3732 4 18.6V17Z" fill="black"/>
<path d="M22 17C22 16.4477 21.5523 16 21 16C20.4477 16 20 16.4477 20 17V18.6C20 19.3732 19.3732 20 18.6 20H17C16.4477 20 16 20.4477 16 21C16 21.5523 16.4477 22 17 22H18.6C20.4778 22 22 20.4778 22 18.6V17Z" fill="black"/>
<path d="M1 11C0.447715 11 0 11.4477 0 12C0 12.5523 0.447715 13 1 13H23C23.5523 13 24 12.5523 24 12C24 11.4477 23.5523 11 23 11H1Z" fill="black"/>
</svg>
