<svg width="24" height="24" viewBox="0 0 24 24" fill="none" xmlns="http://www.w3.org/2000/svg">
<path d="M4.4 3C3.6268 3 3 3.6268 3 4.4V6C3 6.55228 2.55228 7 2 7C1.44772 7 1 6.55228 1 6V4.4C1 2.52223 2.52223 1 4.4 1H6C6.55228 1 7 1.44772 7 2C7 2.55228 6.55228 3 6 3H4.4Z" fill="black"/>
<path d="M17 2C17 1.44772 17.4477 1 18 1H19.6C21.4778 1 23 2.52223 23 4.4V6C23 6.55228 22.5523 7 22 7C21.4477 7 21 6.55228 21 6V4.4C21 3.6268 20.3732 3 19.6 3H18C17.4477 3 17 2.55228 17 2Z" fill="black"/>
<path d="M2 17C2.55228 17 3 17.4477 3 18V19.6C3 20.3732 3.6268 21 4.4 21H6C6.55228 21 7 21.4477 7 22C7 22.5523 6.55228 23 6 23H4.4C2.52223 23 1 21.4778 1 19.6V18C1 17.4477 1.44772 17 2 17Z" fill="black"/>
<path d="M22 17C22.5523 17 23 17.4477 23 18V19.6C23 21.4778 21.4778 23 19.6 23H18C17.4477 23 17 22.5523 17 22C17 21.4477 17.4477 21 18 21H19.6C20.3732 21 21 20.3732 21 19.6V18C21 17.4477 21.4477 17 22 17Z" fill="black"/>
<path d="M18 8C18.5523 8 19 8.44772 19 9V15C19 15.5523 18.5523 16 18 16C17.4477 16 17 15.5523 17 15V9C17 8.44772 17.4477 8 18 8Z" fill="black"/>
<path d="M15 9C15 8.44772 14.5523 8 14 8C13.4477 8 13 8.44772 13 9L13 15C13 15.5523 13.4477 16 14 16C14.5523 16 15 15.5523 15 15L15 9Z" fill="black"/>
<path d="M10 8C10.5523 8 11 8.44772 11 9L11 15C11 15.5523 10.5523 16 10 16C9.44771 16 9 15.5523 9 15L9 9C9 8.44772 9.44772 8 10 8Z" fill="black"/>
<path d="M7 9C7 8.44772 6.55229 8 6 8C5.44772 8 5 8.44772 5 9L5 15C5 15.5523 5.44772 16 6 16C6.55228 16 7 15.5523 7 15L7 9Z" fill="black"/>
</svg>
