<svg width="24" height="24" viewBox="0 0 24 24" fill="none" xmlns="http://www.w3.org/2000/svg">
<path d="M8.70711 6.70711C9.09763 6.31658 9.09763 5.68342 8.70711 5.29289C8.31658 4.90237 7.68342 4.90237 7.29289 5.29289L4 8.58579L2.70711 7.29289C2.31658 6.90237 1.68342 6.90237 1.29289 7.29289C0.902369 7.68342 0.902369 8.31658 1.29289 8.70711L3.29289 10.7071C3.68342 11.0976 4.31658 11.0976 4.70711 10.7071L8.70711 6.70711Z" fill="black"/>
<path d="M12 7C11.4477 7 11 7.44772 11 8C11 8.55228 11.4477 9 12 9H22C22.5523 9 23 8.55228 23 8C23 7.44772 22.5523 7 22 7H12Z" fill="black"/>
<path d="M8.70711 13.2929C9.09763 13.6834 9.09763 14.3166 8.70711 14.7071L4.70711 18.7071C4.31658 19.0976 3.68342 19.0976 3.29289 18.7071L1.29289 16.7071C0.902369 16.3166 0.902369 15.6834 1.29289 15.2929C1.68342 14.9024 2.31658 14.9024 2.70711 15.2929L4 16.5858L7.29289 13.2929C7.68342 12.9024 8.31658 12.9024 8.70711 13.2929Z" fill="black"/>
<path d="M12 15C11.4477 15 11 15.4477 11 16C11 16.5523 11.4477 17 12 17H22C22.5523 17 23 16.5523 23 16C23 15.4477 22.5523 15 22 15H12Z" fill="black"/>
</svg>
