<svg width="24" height="24" viewBox="0 0 24 24" fill="none" xmlns="http://www.w3.org/2000/svg">
<path d="M4 5.4C4 4.62228 4.62228 4 5.4 4H12.6C13.3777 4 14 4.62228 14 5.4V6C14 6.55228 14.4477 7 15 7C15.5523 7 16 6.55228 16 6V5.4C16 3.51772 14.4823 2 12.6 2H5.4C3.51772 2 2 3.51772 2 5.4V12.6C2 14.4823 3.51772 16 5.4 16H6C6.55228 16 7 15.5523 7 15C7 14.4477 6.55228 14 6 14H5.4C4.62228 14 4 13.3777 4 12.6V5.4Z" fill="black"/>
<path d="M9 11.4C9 10.0745 10.0745 9 11.4 9H18.6C19.9255 9 21 10.0745 21 11.4V18.6C21 19.9255 19.9255 21 18.6 21H11.4C10.0745 21 9 19.9255 9 18.6V11.4Z" fill="black"/>
</svg>
