<svg width="24" height="24" viewBox="0 0 24 24" fill="none" xmlns="http://www.w3.org/2000/svg">
<path d="M22.7071 6.70711C23.0976 6.31658 23.0976 5.68342 22.7071 5.29289C22.3166 4.90237 21.6834 4.90237 21.2929 5.29289L18 8.58579L16.7071 7.29289C16.3166 6.90237 15.6834 6.90237 15.2929 7.29289C14.9024 7.68342 14.9024 8.31658 15.2929 8.70711L17.2929 10.7071C17.6834 11.0976 18.3166 11.0976 18.7071 10.7071L22.7071 6.70711Z" fill="black"/>
<path d="M2 7C1.44772 7 1 7.44772 1 8C1 8.55228 1.44772 9 2 9H12C12.5523 9 13 8.55228 13 8C13 7.44772 12.5523 7 12 7H2Z" fill="black"/>
<path d="M22.7071 13.2929C23.0976 13.6834 23.0976 14.3166 22.7071 14.7071L18.7071 18.7071C18.3166 19.0976 17.6834 19.0976 17.2929 18.7071L15.2929 16.7071C14.9024 16.3166 14.9024 15.6834 15.2929 15.2929C15.6834 14.9024 16.3166 14.9024 16.7071 15.2929L18 16.5858L21.2929 13.2929C21.6834 12.9024 22.3166 12.9024 22.7071 13.2929Z" fill="black"/>
<path d="M2 15C1.44772 15 1 15.4477 1 16C1 16.5523 1.44772 17 2 17H12C12.5523 17 13 16.5523 13 16C13 15.4477 12.5523 15 12 15H2Z" fill="black"/>
</svg>
