<svg width="24" height="24" viewBox="0 0 24 24" fill="none" xmlns="http://www.w3.org/2000/svg">
<path d="M5.4 3H12.6C13.9255 3 15 4.07452 15 5.4V12.6C15 13.9255 13.9255 15 12.6 15H5.4C4.07452 15 3 13.9255 3 12.6V5.4C3 4.07452 4.07452 3 5.4 3Z" fill="black"/>
<path d="M18 10H18.6C19.3777 10 20 10.6223 20 11.4V18.6C20 19.3777 19.3777 20 18.6 20H11.4C10.6223 20 10 19.3777 10 18.6V18C10 17.4477 9.55228 17 9 17C8.44772 17 8 17.4477 8 18V18.6C8 20.4823 9.51771 22 11.4 22H18.6C20.4823 22 22 20.4823 22 18.6V11.4C22 9.51771 20.4823 8 18.6 8H18C17.4477 8 17 8.44772 17 9C17 9.55228 17.4477 10 18 10Z" fill="black"/>
</svg>
