<svg width="24" height="24" viewBox="0 0 24 24" fill="none" xmlns="http://www.w3.org/2000/svg">
<path fill-rule="evenodd" clip-rule="evenodd" d="M5.4 3H18.6C19.9255 3 21 4.07452 21 5.4V18.6C21 19.9255 19.9255 21 18.6 21H5.4C4.07452 21 3 19.9255 3 18.6V5.4C3 4.07452 4.07452 3 5.4 3ZM16.9498 7.05025C17.3403 7.44077 17.3403 8.07394 16.9498 8.46446L13.4142 12L16.9498 15.5355C17.3403 15.9261 17.3403 16.5592 16.9498 16.9497C16.5592 17.3403 15.9261 17.3403 15.5356 16.9497L12 13.4142L8.46449 16.9497C8.07397 17.3403 7.4408 17.3403 7.05028 16.9497C6.65975 16.5592 6.65975 15.9261 7.05028 15.5355L10.5858 12L7.05028 8.46446C6.65975 8.07394 6.65975 7.44077 7.05028 7.05025C7.4408 6.65972 8.07397 6.65972 8.46449 7.05025L12 10.5858L15.5356 7.05025C15.9261 6.65972 16.5592 6.65972 16.9498 7.05025Z" fill="black"/>
</svg>
