<svg width="24" height="24" viewBox="0 0 24 24" fill="none" xmlns="http://www.w3.org/2000/svg">
<path fill-rule="evenodd" clip-rule="evenodd" d="M7 1.8V3H5.4C4.07452 3 3 4.07452 3 5.4V20.6C3 21.9255 4.07452 23 5.4 23H18.6C19.9255 23 21 21.9255 21 20.6V5.4C21 4.07452 19.9255 3 18.6 3H17V1.8C17 0.805887 16.1941 0 15.2 0H8.8C7.80589 0 7 0.805887 7 1.8ZM15 2H9V4H15V2ZM16.8137 10.5813C17.1347 10.1318 17.0307 9.50729 16.5812 9.18628C16.1318 8.86527 15.5073 8.96937 15.1863 9.41878L10.8724 15.4582L8.70711 13.2929C8.31658 12.9024 7.68342 12.9024 7.29289 13.2929C6.90237 13.6834 6.90237 14.3166 7.29289 14.7071L10.2929 17.7071C10.5007 17.915 10.7895 18.0209 11.0825 17.9966C11.3754 17.9724 11.6429 17.8205 11.8137 17.5813L16.8137 10.5813Z" fill="black"/>
</svg>
