<svg width="24" height="24" viewBox="0 0 24 24" fill="none" xmlns="http://www.w3.org/2000/svg">
<path d="M12.6 3H5.4C4.07452 3 3 4.07452 3 5.4V12.6C3 13.9255 4.07452 15 5.4 15H12.6C13.9255 15 15 13.9255 15 12.6V5.4C15 4.07452 13.9255 3 12.6 3Z" fill="black" stroke="black" stroke-width="1.5" stroke-miterlimit="10"/>
<path d="M18 9L18.6 9C19.93 9 21 10.07 21 11.4L21 18.6C21 19.93 19.93 21 18.6 21L11.4 21C10.07 21 9 19.93 9 18.6L9 18" stroke="black" stroke-width="1.5" stroke-miterlimit="10" stroke-linecap="round"/>
</svg>
