<svg width="24" height="24" viewBox="0 0 24 24" fill="none" xmlns="http://www.w3.org/2000/svg">
<path fill-rule="evenodd" clip-rule="evenodd" d="M3.4 4H20.6C21.9255 4 23 5.07452 23 6.4V17.6C23 18.9255 21.9255 20 20.6 20H3.4C2.07452 20 1 18.9255 1 17.6V6.4C1 5.07452 2.07452 4 3.4 4ZM16.9497 7.05022C17.3402 7.44074 17.3402 8.07391 16.9497 8.46443L13.4142 12L16.9497 15.5355C17.3402 15.926 17.3402 16.5592 16.9497 16.9497C16.5592 17.3402 15.926 17.3402 15.5355 16.9497L12 13.4142L8.46443 16.9497C8.07391 17.3402 7.44074 17.3402 7.05022 16.9497C6.65969 16.5592 6.65969 15.926 7.05022 15.5355L10.5858 12L7.05022 8.46443C6.65969 8.07391 6.65969 7.44074 7.05022 7.05022C7.44074 6.65969 8.07391 6.65969 8.46443 7.05022L12 10.5858L15.5355 7.05022C15.926 6.65969 16.5592 6.65969 16.9497 7.05022Z" fill="black"/>
</svg>
