<svg width="24" height="24" viewBox="0 0 24 24" fill="none" xmlns="http://www.w3.org/2000/svg">
<path fill-rule="evenodd" clip-rule="evenodd" d="M1 12C1 5.92487 5.92487 1 12 1C18.0751 1 23 5.92487 23 12C23 18.0751 18.0751 23 12 23C5.92487 23 1 18.0751 1 12ZM13 2V6C13 6.55228 12.5523 7 12 7C11.4477 7 11 6.55228 11 6V2H13ZM2 11H6C6.55228 11 7 11.4477 7 12C7 12.5523 6.55228 13 6 13H2V11ZM18 11C17.4477 11 17 11.4477 17 12C17 12.5523 17.4477 13 18 13H22V11H18ZM13 18C13 17.4477 12.5523 17 12 17C11.4477 17 11 17.4477 11 18V22H13V18Z" fill="black"/>
</svg>
