<svg width="24" height="24" viewBox="0 0 24 24" fill="none" xmlns="http://www.w3.org/2000/svg">
<path d="M12 1C12.5523 1 13 1.44772 13 2V4C13 4.55228 12.5523 5 12 5C11.4477 5 11 4.55228 11 4V2C11 1.44772 11.4477 1 12 1Z" fill="black"/>
<path d="M12 19C12.5523 19 13 19.4477 13 20V22C13 22.5523 12.5523 23 12 23C11.4477 23 11 22.5523 11 22V20C11 19.4477 11.4477 19 12 19Z" fill="black"/>
<path d="M1 12C1 11.4477 1.44772 11 2 11H4C4.55228 11 5 11.4477 5 12C5 12.5523 4.55228 13 4 13H2C1.44772 13 1 12.5523 1 12Z" fill="black"/>
<path d="M19 12C19 11.4477 19.4477 11 20 11H22C22.5523 11 23 11.4477 23 12C23 12.5523 22.5523 13 22 13H20C19.4477 13 19 12.5523 19 12Z" fill="black"/>
<path d="M7.0471 16.9529C7.43762 17.3435 7.43762 17.9766 7.0471 18.3671L5.6371 19.7771C5.24657 20.1677 4.61341 20.1677 4.22289 19.7771C3.83236 19.3866 3.83236 18.7535 4.22289 18.3629L5.63289 16.9529C6.02341 16.5624 6.65658 16.5624 7.0471 16.9529Z" fill="black"/>
<path d="M19.7771 4.22295C20.1677 4.61347 20.1677 5.24664 19.7771 5.63716L18.3671 7.04716C17.9766 7.43769 17.3435 7.43769 16.9529 7.04716C16.5624 6.65664 16.5624 6.02347 16.9529 5.63295L18.3629 4.22295C18.7535 3.83242 19.3866 3.83242 19.7771 4.22295Z" fill="black"/>
<path d="M16.9529 16.9529C17.3435 16.5624 17.9766 16.5624 18.3671 16.9529L19.7771 18.3629C20.1677 18.7535 20.1677 19.3866 19.7771 19.7771C19.3866 20.1677 18.7535 20.1677 18.3629 19.7771L16.9529 18.3671C16.5624 17.9766 16.5624 17.3435 16.9529 16.9529Z" fill="black"/>
<path d="M4.22289 4.22295C4.61341 3.83242 5.24658 3.83242 5.6371 4.22295L7.0471 5.63295C7.43762 6.02347 7.43762 6.65664 7.0471 7.04716C6.65658 7.43769 6.02341 7.43769 5.63289 7.04716L4.22289 5.63716C3.83236 5.24664 3.83236 4.61347 4.22289 4.22295Z" fill="black"/>
<path d="M12 7C9.23858 7 7 9.23858 7 12C7 14.7614 9.23858 17 12 17C14.7614 17 17 14.7614 17 12C17 9.23858 14.7614 7 12 7Z" fill="black"/>
</svg>
