<svg width="24" height="24" viewBox="0 0 24 24" fill="none" xmlns="http://www.w3.org/2000/svg">
<path fill-rule="evenodd" clip-rule="evenodd" d="M22 12C22 17.5228 17.5228 22 12 22C6.47715 22 2 17.5228 2 12C2 6.47715 6.47715 2 12 2C17.5228 2 22 6.47715 22 12ZM16.8137 9.58125C17.1347 9.13184 17.0307 8.50729 16.5812 8.18628C16.1318 7.86527 15.5073 7.96937 15.1863 8.41878L10.8724 14.4582L8.70711 12.2929C8.31658 11.9024 7.68342 11.9024 7.29289 12.2929C6.90237 12.6834 6.90237 13.3166 7.29289 13.7071L10.2929 16.7071C10.5007 16.915 10.7895 17.0209 11.0825 16.9966C11.3754 16.9724 11.6429 16.8205 11.8137 16.5813L16.8137 9.58125Z" fill="black"/>
</svg>
