<svg width="24" height="24" viewBox="0 0 24 24" fill="none" xmlns="http://www.w3.org/2000/svg">
<path d="M8.70711 6.70711C9.09763 6.31658 9.09763 5.68342 8.70711 5.29289C8.31658 4.90237 7.68342 4.90237 7.29289 5.29289L1.29289 11.2929C0.902369 11.6834 0.902369 12.3166 1.29289 12.7071L7.29289 18.7071C7.68342 19.0976 8.31658 19.0976 8.70711 18.7071C9.09763 18.3166 9.09763 17.6834 8.70711 17.2929L3.41421 12L8.70711 6.70711Z" fill="black"/>
<path d="M16.7071 5.29289C16.3166 4.90237 15.6834 4.90237 15.2929 5.29289C14.9024 5.68342 14.9024 6.31658 15.2929 6.70711L20.5858 12L15.2929 17.2929C14.9024 17.6834 14.9024 18.3166 15.2929 18.7071C15.6834 19.0976 16.3166 19.0976 16.7071 18.7071L22.7071 12.7071C23.0976 12.3166 23.0976 11.6834 22.7071 11.2929L16.7071 5.29289Z" fill="black"/>
</svg>
