<svg width="24" height="24" viewBox="0 0 24 24" fill="none" xmlns="http://www.w3.org/2000/svg">
<path fill-rule="evenodd" clip-rule="evenodd" d="M22 12C22 17.5228 17.5228 22 12 22C6.47715 22 2 17.5228 2 12C2 6.47715 6.47715 2 12 2C17.5228 2 22 6.47715 22 12ZM13 6C13 5.44772 12.5523 5 12 5C11.4477 5 11 5.44772 11 6V11.8438C11 12.3945 11.3748 12.8745 11.909 13.008L15.7575 13.9701C16.2933 14.1041 16.8362 13.7783 16.9701 13.2425C17.1041 12.7067 16.7783 12.1638 16.2425 12.0299L13 11.2192V6Z" fill="black"/>
</svg>
