<svg width="24" height="24" viewBox="0 0 24 24" fill="none" xmlns="http://www.w3.org/2000/svg">
<path fill-rule="evenodd" clip-rule="evenodd" d="M22 12C22 17.5228 17.5228 22 12 22C6.47715 22 2 17.5228 2 12C2 6.47715 6.47715 2 12 2C17.5228 2 22 6.47715 22 12ZM16.9498 7.05025C17.3403 7.44077 17.3403 8.07394 16.9498 8.46446L13.4142 12L16.9498 15.5355C17.3403 15.9261 17.3403 16.5592 16.9498 16.9497C16.5592 17.3403 15.9261 17.3403 15.5356 16.9497L12 13.4142L8.46449 16.9497C8.07397 17.3403 7.4408 17.3403 7.05028 16.9497C6.65975 16.5592 6.65975 15.9261 7.05028 15.5355L10.5858 12L7.05028 8.46446C6.65975 8.07394 6.65975 7.44077 7.05028 7.05025C7.4408 6.65972 8.07397 6.65972 8.46449 7.05025L12 10.5858L15.5356 7.05025C15.9261 6.65972 16.5592 6.65972 16.9498 7.05025Z" fill="black"/>
</svg>
