<svg width="24" height="24" viewBox="0 0 24 24" fill="none" xmlns="http://www.w3.org/2000/svg">
<path fill-rule="evenodd" clip-rule="evenodd" d="M8.4 3H19.6C20.9255 3 22 4.07452 22 5.4V16.6C22 17.9255 20.9255 19 19.6 19H8.4C7.07452 19 6 17.9255 6 16.6V5.4C6 4.07452 7.07452 3 8.4 3ZM11.8787 7.46446C11.4882 7.07394 10.855 7.07394 10.4645 7.46446C10.074 7.85499 10.074 8.48815 10.4645 8.87868L12.5858 11L10.4645 13.1213C10.074 13.5118 10.074 14.145 10.4645 14.5355C10.855 14.9261 11.4882 14.9261 11.8787 14.5355L14.0001 12.4142L16.1214 14.5355C16.5119 14.9261 17.1451 14.9261 17.5356 14.5355C17.9261 14.145 17.9261 13.5118 17.5356 13.1213L15.4143 11L17.5356 8.87868C17.9261 8.48815 17.9261 7.85499 17.5356 7.46446C17.1451 7.07394 16.5119 7.07394 16.1214 7.46446L14.0001 9.58578L11.8787 7.46446Z" fill="black"/>
<path d="M4 5C4 4.44772 3.55228 4 3 4C2.44772 4 2 4.44772 2 5V16.6C2 20.1323 4.86772 23 8.4 23H20C20.5523 23 21 22.5523 21 22C21 21.4477 20.5523 21 20 21H8.4C5.97228 21 4 19.0277 4 16.6V5Z" fill="black"/>
</svg>
