<svg width="24" height="24" viewBox="0 0 24 24" fill="none" xmlns="http://www.w3.org/2000/svg">
<path fill-rule="evenodd" clip-rule="evenodd" d="M9 3C9 1.34315 10.3431 0 12 0C13.6569 0 15 1.34315 15 3H18.6C19.9255 3 21 4.07452 21 5.4V20.6C21 21.9255 19.9255 23 18.6 23H5.4C4.07452 23 3 21.9255 3 20.6V5.4C3 4.07452 4.07452 3 5.4 3H9ZM12 2C11.4477 2 11 2.44772 11 3C11 3.55228 11.4477 4 12 4C12.5523 4 13 3.55228 13 3C13 2.44772 12.5523 2 12 2ZM16.8137 10.5813C17.1347 10.1318 17.0307 9.50729 16.5812 9.18628C16.1318 8.86527 15.5073 8.96937 15.1863 9.41878L10.8724 15.4582L8.70711 13.2929C8.31658 12.9024 7.68342 12.9024 7.29289 13.2929C6.90237 13.6834 6.90237 14.3166 7.29289 14.7071L10.2929 17.7071C10.5007 17.915 10.7895 18.0209 11.0825 17.9966C11.3754 17.9724 11.6429 17.8205 11.8137 17.5813L16.8137 10.5813Z" fill="black"/>
</svg>
