<svg width="24" height="24" viewBox="0 0 24 24" fill="none" xmlns="http://www.w3.org/2000/svg">
<path d="M8 7C7.44772 7 7 7.44772 7 8C7 8.55228 7.44772 9 8 9H20C20.5523 9 21 8.55228 21 8C21 7.44772 20.5523 7 20 7H8Z" fill="black"/>
<path d="M5 12C5 11.4477 5.44772 11 6 11H18C18.5523 11 19 11.4477 19 12C19 12.5523 18.5523 13 18 13H6C5.44772 13 5 12.5523 5 12Z" fill="black"/>
<path d="M3 16C3 15.4477 3.44772 15 4 15H16C16.5523 15 17 15.4477 17 16C17 16.5523 16.5523 17 16 17H4C3.44772 17 3 16.5523 3 16Z" fill="black"/>
</svg>
