<svg width="24" height="24" viewBox="0 0 24 24" fill="none" xmlns="http://www.w3.org/2000/svg">
<path fill-rule="evenodd" clip-rule="evenodd" d="M16.475 16H19C20.6625 16 22 14.6625 22 13V6C22 4.3375 20.6625 3 19 3H5C3.3375 3 2 4.3375 2 6V13C2 14.6625 3.3375 16 5 16H7.5125C7.8125 16 8.1 16.1375 8.2875 16.375L11.2125 20.025C11.6125 20.525 12.375 20.525 12.775 20.025L15.7 16.375C15.8875 16.1375 16.175 16 16.475 16ZM7 8C7 7.44772 7.44772 7 8 7H16C16.5523 7 17 7.44772 17 8C17 8.55228 16.5523 9 16 9H8C7.44772 9 7 8.55228 7 8ZM7 11C7 10.4477 7.44772 10 8 10H16C16.5523 10 17 10.4477 17 11C17 11.5523 16.5523 12 16 12H8C7.44772 12 7 11.5523 7 11Z" fill="black"/>
</svg>
