<svg width="24" height="24" viewBox="0 0 24 24" fill="none" xmlns="http://www.w3.org/2000/svg">
<path d="M13 2C13 1.44772 12.5523 1 12 1C11.4477 1 11 1.44772 11 2V3H13V2Z" fill="black"/>
<path d="M10 12C10 10.8954 10.8954 10 12 10C13.1046 10 14 10.8954 14 12C14 13.1046 13.1046 14 12 14C10.8954 14 10 13.1046 10 12Z" fill="black"/>
<path fill-rule="evenodd" clip-rule="evenodd" d="M13 3.05493V5C13 5.55228 12.5523 6 12 6C11.4477 6 11 5.55229 11 5V3.05493C6.82838 3.51608 3.51608 6.82838 3.05493 11H5C5.55228 11 6 11.4477 6 12C6 12.5523 5.55228 13 5 13H3.05493C3.51608 17.1716 6.82838 20.4839 11 20.9451V19C11 18.4477 11.4477 18 12 18C12.5523 18 13 18.4477 13 19V20.9451C17.1716 20.4839 20.4839 17.1716 20.9451 13H19C18.4477 13 18 12.5523 18 12C18 11.4477 18.4477 11 19 11H20.9451C20.4839 6.82838 17.1716 3.51608 13 3.05493ZM12 8C9.79086 8 8 9.79086 8 12C8 14.2091 9.79086 16 12 16C14.2091 16 16 14.2091 16 12C16 9.79086 14.2091 8 12 8Z" fill="black"/>
<path d="M21 11V13H22C22.5523 13 23 12.5523 23 12C23 11.4477 22.5523 11 22 11H21Z" fill="black"/>
<path d="M13 21H11V22C11 22.5523 11.4477 23 12 23C12.5523 23 13 22.5523 13 22V21Z" fill="black"/>
<path d="M3 13V11H2C1.44772 11 1 11.4477 1 12C1 12.5523 1.44772 13 2 13H3Z" fill="black"/>
</svg>
