<svg width="24" height="24" viewBox="0 0 24 24" fill="none" xmlns="http://www.w3.org/2000/svg">
<path fill-rule="evenodd" clip-rule="evenodd" d="M5.4 3H18.6C19.9255 3 21 4.07452 21 5.4V18.6C21 19.9255 19.9255 21 18.6 21H5.4C4.07452 21 3 19.9255 3 18.6V5.4C3 4.07452 4.07452 3 5.4 3ZM13.7071 8.70711C14.0976 8.31658 14.0976 7.68342 13.7071 7.29289C13.3166 6.90237 12.6834 6.90237 12.2929 7.29289L8.29289 11.2929C7.90237 11.6834 7.90237 12.3166 8.29289 12.7071L12.2929 16.7071C12.6834 17.0976 13.3166 17.0976 13.7071 16.7071C14.0976 16.3166 14.0976 15.6834 13.7071 15.2929L10.4142 12L13.7071 8.70711Z" fill="black"/>
</svg>
