<svg width="24" height="24" viewBox="0 0 24 24" fill="none" xmlns="http://www.w3.org/2000/svg">
<path fill-rule="evenodd" clip-rule="evenodd" d="M7 1.8V3H5.4C4.07452 3 3 4.07452 3 5.4V20.6C3 21.9255 4.07452 23 5.4 23H18.6C19.9255 23 21 21.9255 21 20.6V5.4C21 4.07452 19.9255 3 18.6 3H17V1.8C17 0.805887 16.1941 0 15.2 0H8.8C7.80589 0 7 0.805887 7 1.8ZM15 2H9V4H15V2ZM6 10C6 9.44771 6.44772 9 7 9H17C17.5523 9 18 9.44771 18 10C18 10.5523 17.5523 11 17 11H7C6.44772 11 6 10.5523 6 10ZM6 13C6 12.4477 6.44772 12 7 12H17C17.5523 12 18 12.4477 18 13C18 13.5523 17.5523 14 17 14H7C6.44772 14 6 13.5523 6 13ZM6 16C6 15.4477 6.44772 15 7 15H13C13.5523 15 14 15.4477 14 16C14 16.5523 13.5523 17 13 17H7C6.44772 17 6 16.5523 6 16Z" fill="black"/>
</svg>
