<svg width="24" height="24" viewBox="0 0 24 24" fill="none" xmlns="http://www.w3.org/2000/svg">
<path d="M5.6 2C4.16406 2 3 3.16406 3 4.6V9.4C3 10.8359 4.16406 12 5.6 12H8.4C9.83594 12 11 10.8359 11 9.4V4.6C11 3.16406 9.83594 2 8.4 2H5.6Z" fill="black"/>
<path d="M5.6 14C4.16406 14 3 15.1641 3 16.6V19.4C3 20.8359 4.16406 22 5.6 22H8.4C9.83594 22 11 20.8359 11 19.4V16.6C11 15.1641 9.83594 14 8.4 14H5.6Z" fill="black"/>
<path d="M15.6 2C14.1641 2 13 3.16406 13 4.6V7.4C13 8.83594 14.1641 10 15.6 10H18.4C19.8359 10 21 8.83594 21 7.4V4.6C21 3.16406 19.8359 2 18.4 2H15.6Z" fill="black"/>
<path d="M15.6 12C14.1641 12 13 13.1641 13 14.6V19.4C13 20.8359 14.1641 22 15.6 22H18.4C19.8359 22 21 20.8359 21 19.4V14.6C21 13.1641 19.8359 12 18.4 12H15.6Z" fill="black"/>
</svg>
