<svg width="24" height="24" viewBox="0 0 24 24" fill="none" xmlns="http://www.w3.org/2000/svg">
<path d="M20 5C20 4.44772 19.5523 4 19 4C18.4477 4 18 4.44772 18 5V10.6C18 12.4777 16.4777 14 14.6 14H7.41421L9.70711 11.7071C10.0976 11.3166 10.0976 10.6834 9.70711 10.2929C9.31658 9.90237 8.68342 9.90237 8.29289 10.2929L4.29289 14.2929C3.90237 14.6834 3.90237 15.3166 4.29289 15.7071L8.29289 19.7071C8.68342 20.0976 9.31658 20.0976 9.70711 19.7071C10.0976 19.3166 10.0976 18.6834 9.70711 18.2929L7.41421 16H14.6C17.5823 16 20 13.5823 20 10.6V5Z" fill="black"/>
</svg>
