<svg width="24" height="24" viewBox="0 0 24 24" fill="none" xmlns="http://www.w3.org/2000/svg">
<g clip-path="url(#clip0_503_4782)">
<path d="M13.8385 1.11052C12.8232 0.0951582 11.177 0.0951583 10.1616 1.11052L8.18169 3.09042C7.16633 4.10578 7.16633 5.75201 8.18169 6.76738L10.1616 8.74727C11.177 9.76264 12.8232 9.76264 13.8385 8.74727L15.8184 6.76738C16.8338 5.75201 16.8338 4.10578 15.8184 3.09042L13.8385 1.11052Z" fill="black"/>
<path d="M6.7675 8.18163C5.75213 7.16626 4.10591 7.16626 3.09054 8.18163L1.11064 10.1615C0.0952803 11.1769 0.0952803 12.8231 1.11064 13.8385L3.09054 15.8184C4.10591 16.8337 5.75213 16.8337 6.7675 15.8184L8.7474 13.8385C9.76276 12.8231 9.76276 11.1769 8.7474 10.1615L6.7675 8.18163Z" fill="black"/>
<path d="M13.8385 15.2527C12.8232 14.2373 11.177 14.2373 10.1616 15.2527L8.18169 17.2326C7.16633 18.2479 7.16633 19.8942 8.18169 20.9095L10.1616 22.8894C11.177 23.9048 12.8232 23.9048 13.8385 22.8894L15.8184 20.9095C16.8338 19.8942 16.8338 18.2479 15.8184 17.2326L13.8385 15.2527Z" fill="black"/>
<path d="M20.9096 8.18163C19.8942 7.16626 18.248 7.16626 17.2326 8.18163L15.2527 10.1615C14.2374 11.1769 14.2374 12.8231 15.2527 13.8385L17.2326 15.8184C18.248 16.8337 19.8942 16.8337 20.9096 15.8184L22.8895 13.8385C23.9049 12.8231 23.9049 11.1769 22.8895 10.1615L20.9096 8.18163Z" fill="black"/>
</g>
<defs>
<clipPath id="clip0_503_4782">
<rect width="24" height="24" fill="white"/>
</clipPath>
</defs>
</svg>
