<svg width="24" height="24" viewBox="0 0 24 24" fill="none" xmlns="http://www.w3.org/2000/svg">
<path d="M3 5.6C3 4.16406 4.16406 3 5.6 3H8.4C9.83594 3 11 4.16406 11 5.6V8.4C11 9.83594 9.83594 11 8.4 11H5.6C4.16406 11 3 9.83594 3 8.4V5.6Z" fill="black"/>
<path d="M3 15.6C3 14.1641 4.16406 13 5.6 13H8.4C9.83594 13 11 14.1641 11 15.6V18.4C11 19.8359 9.83594 21 8.4 21H5.6C4.16406 21 3 19.8359 3 18.4V15.6Z" fill="black"/>
<path d="M13 5.6C13 4.16406 14.1641 3 15.6 3H18.4C19.8359 3 21 4.16406 21 5.6V8.4C21 9.83594 19.8359 11 18.4 11H15.6C14.1641 11 13 9.83594 13 8.4V5.6Z" fill="black"/>
<path d="M17 13C17.5523 13 18 13.4477 18 14V16H20C20.5523 16 21 16.4477 21 17C21 17.5523 20.5523 18 20 18H18V20C18 20.5523 17.5523 21 17 21C16.4477 21 16 20.5523 16 20V18H14C13.4477 18 13 17.5523 13 17C13 16.4477 13.4477 16 14 16H16V14C16 13.4477 16.4477 13 17 13Z" fill="black"/>
</svg>
