<svg width="24" height="24" viewBox="0 0 24 24" fill="none" xmlns="http://www.w3.org/2000/svg">
<path d="M6.7071 2.29289C7.09763 2.68342 7.09763 3.31658 6.7071 3.70711L3.70711 6.70711C3.31658 7.09763 2.68342 7.09763 2.29289 6.70711C1.90237 6.31658 1.90237 5.68342 2.29289 5.29289L5.29289 2.29289C5.68341 1.90237 6.31658 1.90237 6.7071 2.29289Z" fill="black"/>
<path d="M17.2929 2.29289C17.6834 1.90237 18.3166 1.90237 18.7071 2.29289L21.7071 5.29289C22.0976 5.68342 22.0976 6.31658 21.7071 6.70711C21.3166 7.09763 20.6834 7.09763 20.2929 6.70711L17.2929 3.70711C16.9024 3.31658 16.9024 2.68342 17.2929 2.29289Z" fill="black"/>
<path fill-rule="evenodd" clip-rule="evenodd" d="M12 21C16.4183 21 20 17.4183 20 13C20 8.58172 16.4183 5 12 5C7.58172 5 4 8.58172 4 13C4 17.4183 7.58172 21 12 21ZM15.5355 10.8787C15.9261 10.4882 15.9261 9.85505 15.5355 9.46452C15.145 9.074 14.5118 9.074 14.1213 9.46452L12 11.5858L9.87868 9.46452C9.48815 9.074 8.85499 9.074 8.46446 9.46452C8.07394 9.85505 8.07394 10.4882 8.46446 10.8787L10.5858 13.0001L8.46446 15.1214C8.07394 15.5119 8.07394 16.1451 8.46446 16.5356C8.85499 16.9261 9.48815 16.9261 9.87868 16.5356L12 14.4143L14.1213 16.5356C14.5118 16.9261 15.145 16.9261 15.5355 16.5356C15.9261 16.1451 15.9261 15.5119 15.5355 15.1214L13.4142 13.0001L15.5355 10.8787Z" fill="black"/>
</svg>
