<svg width="24" height="24" viewBox="0 0 24 24" fill="none" xmlns="http://www.w3.org/2000/svg">
<path d="M6 5C6 4.44772 5.55228 4 5 4C4.44772 4 4 4.44772 4 5V10.6C4 13.5823 6.41772 16 9.4 16H16.5858L14.2929 18.2929C13.9024 18.6834 13.9024 19.3166 14.2929 19.7071C14.6834 20.0976 15.3166 20.0976 15.7071 19.7071L19.7071 15.7071C20.0976 15.3166 20.0976 14.6834 19.7071 14.2929L15.7071 10.2929C15.3166 9.90237 14.6834 9.90237 14.2929 10.2929C13.9024 10.6834 13.9024 11.3166 14.2929 11.7071L16.5858 14H9.4C7.52228 14 6 12.4777 6 10.6V5Z" fill="black"/>
</svg>
