<svg width="24" height="24" viewBox="0 0 24 24" fill="none" xmlns="http://www.w3.org/2000/svg">
<path d="M14 6C14 5.44772 14.4477 5 15 5H16C16.5523 5 17 5.44772 17 6C17 6.55228 16.5523 7 16 7H15C14.4477 7 14 6.55228 14 6Z" fill="black"/>
<path d="M15 9C14.4477 9 14 9.44772 14 10C14 10.5523 14.4477 11 15 11H16C16.5523 11 17 10.5523 17 10C17 9.44772 16.5523 9 16 9H15Z" fill="black"/>
<path d="M15 13C14.4477 13 14 13.4477 14 14C14 14.5523 14.4477 15 15 15H16C16.5523 15 17 14.5523 17 14C17 13.4477 16.5523 13 16 13H15Z" fill="black"/>
<path d="M9 9C8.44772 9 8 9.44772 8 10C8 10.5523 8.44772 11 9 11H10C10.5523 11 11 10.5523 11 10C11 9.44772 10.5523 9 10 9H9Z" fill="black"/>
<path d="M8 14C8 13.4477 8.44772 13 9 13H10C10.5523 13 11 13.4477 11 14C11 14.5523 10.5523 15 10 15H9C8.44772 15 8 14.5523 8 14Z" fill="black"/>
<path d="M15 17C14.4477 17 14 17.4477 14 18C14 18.5523 14.4477 19 15 19H16C16.5523 19 17 18.5523 17 18C17 17.4477 16.5523 17 16 17H15Z" fill="black"/>
<path d="M8 18C8 17.4477 8.44772 17 9 17H10C10.5523 17 11 17.4477 11 18C11 18.5523 10.5523 19 10 19H9C8.44772 19 8 18.5523 8 18Z" fill="black"/>
<path d="M9 5C8.44772 5 8 5.44772 8 6C8 6.55228 8.44772 7 9 7H10C10.5523 7 11 6.55228 11 6C11 5.44772 10.5523 5 10 5H9Z" fill="black"/>
</svg>
