<svg width="24" height="24" viewBox="0 0 24 24" fill="none" xmlns="http://www.w3.org/2000/svg">
<path fill-rule="evenodd" clip-rule="evenodd" d="M7.91 3.23013L3.23 7.91273V7.90272C3.08 8.05281 3 8.26292 3 8.47304V15.527C3 15.7471 3.08 15.9472 3.23 16.0973L7.9 20.7699C8.05 20.92 8.26 21 8.47 21H15.53C15.75 21 15.95 20.92 16.1 20.7699L20.77 16.0973C20.92 15.9472 21 15.7371 21 15.527V8.47304C21 8.25292 20.92 8.05281 20.77 7.90272L16.1 3.23013C15.95 3.08004 15.74 3 15.53 3H8.48C8.26 3 8.06 3.08004 7.91 3.23013ZM15.364 8.29289C15.7545 8.68342 15.7545 9.31658 15.364 9.70711L13.2426 11.8284L15.364 13.9497C15.7545 14.3403 15.7545 14.9734 15.364 15.364C14.9734 15.7545 14.3403 15.7545 13.9497 15.364L11.8284 13.2426L9.70711 15.364C9.31658 15.7545 8.68342 15.7545 8.29289 15.364C7.90237 14.9734 7.90237 14.3403 8.29289 13.9497L10.4142 11.8284L8.29289 9.70711C7.90237 9.31658 7.90237 8.68342 8.29289 8.29289C8.68342 7.90237 9.31658 7.90237 9.70711 8.29289L11.8284 10.4142L13.9497 8.29289C14.3403 7.90237 14.9734 7.90237 15.364 8.29289Z" fill="black"/>
</svg>
