<svg width="24" height="24" viewBox="0 0 24 24" fill="none" xmlns="http://www.w3.org/2000/svg">
<path d="M18 3C17.4477 3 17 3.44772 17 4C17 4.55228 17.4477 5 18 5H22C22.5523 5 23 4.55228 23 4C23 3.44772 22.5523 3 22 3H18Z" fill="black"/>
<path d="M2 7C1.44772 7 1 7.44772 1 8C1 8.55228 1.44772 9 2 9H6C6.55228 9 7 8.55228 7 8C7 7.44772 6.55228 7 6 7H2Z" fill="black"/>
<path d="M2 11C1.44772 11 1 11.4477 1 12C1 12.5523 1.44772 13 2 13H6C6.55228 13 7 12.5523 7 12C7 11.4477 6.55228 11 6 11H2Z" fill="black"/>
<path d="M10 11C9.44771 11 9 11.4477 9 12C9 12.5523 9.44771 13 10 13H14C14.5523 13 15 12.5523 15 12C15 11.4477 14.5523 11 14 11H10Z" fill="black"/>
<path d="M17 12C17 11.4477 17.4477 11 18 11H22C22.5523 11 23 11.4477 23 12C23 12.5523 22.5523 13 22 13H18C17.4477 13 17 12.5523 17 12Z" fill="black"/>
<path d="M2 15C1.44772 15 1 15.4477 1 16C1 16.5523 1.44772 17 2 17H6C6.55228 17 7 16.5523 7 16C7 15.4477 6.55228 15 6 15H2Z" fill="black"/>
<path d="M9 16C9 15.4477 9.44771 15 10 15H14C14.5523 15 15 15.4477 15 16C15 16.5523 14.5523 17 14 17H10C9.44771 17 9 16.5523 9 16Z" fill="black"/>
<path d="M18 15C17.4477 15 17 15.4477 17 16C17 16.5523 17.4477 17 18 17H22C22.5523 17 23 16.5523 23 16C23 15.4477 22.5523 15 22 15H18Z" fill="black"/>
<path d="M1 20C1 19.4477 1.44772 19 2 19H6C6.55228 19 7 19.4477 7 20C7 20.5523 6.55228 21 6 21H2C1.44772 21 1 20.5523 1 20Z" fill="black"/>
<path d="M10 19C9.44771 19 9 19.4477 9 20C9 20.5523 9.44771 21 10 21H14C14.5523 21 15 20.5523 15 20C15 19.4477 14.5523 19 14 19H10Z" fill="black"/>
<path d="M17 20C17 19.4477 17.4477 19 18 19H22C22.5523 19 23 19.4477 23 20C23 20.5523 22.5523 21 22 21H18C17.4477 21 17 20.5523 17 20Z" fill="black"/>
<path d="M17 8C17 7.44772 17.4477 7 18 7H22C22.5523 7 23 7.44772 23 8C23 8.55228 22.5523 9 22 9H18C17.4477 9 17 8.55228 17 8Z" fill="black"/>
</svg>
