<svg width="24" height="24" viewBox="0 0 24 24" fill="none" xmlns="http://www.w3.org/2000/svg">
<path fill-rule="evenodd" clip-rule="evenodd" d="M5.4 3H18.6C19.9255 3 21 4.07452 21 5.4V18.6C21 19.9255 19.9255 21 18.6 21H5.4C4.07452 21 3 19.9255 3 18.6V5.4C3 4.07452 4.07452 3 5.4 3ZM12.7071 8.29289C12.3166 7.90237 11.6834 7.90237 11.2929 8.29289L7.29289 12.2929C6.90237 12.6834 6.90237 13.3166 7.29289 13.7071C7.68342 14.0976 8.31658 14.0976 8.70711 13.7071L12 10.4142L15.2929 13.7071C15.6834 14.0976 16.3166 14.0976 16.7071 13.7071C17.0976 13.3166 17.0976 12.6834 16.7071 12.2929L12.7071 8.29289Z" fill="black"/>
</svg>
