<svg width="24" height="24" viewBox="0 0 24 24" fill="none" xmlns="http://www.w3.org/2000/svg">
<path fill-rule="evenodd" clip-rule="evenodd" d="M7.91 3.23013L3.23 7.91273V7.90272C3.08 8.05281 3 8.26292 3 8.47304V15.527C3 15.7471 3.08 15.9472 3.23 16.0973L7.9 20.7699C8.05 20.92 8.26 21 8.47 21H15.53C15.75 21 15.95 20.92 16.1 20.7699L20.77 16.0973C20.92 15.9472 21 15.7371 21 15.527V8.47304C21 8.25292 20.92 8.05281 20.77 7.90272L16.1 3.23013C15.95 3.08004 15.74 3 15.53 3H8.48C8.26 3 8.06 3.08004 7.91 3.23013ZM12 7C12.5523 7 13 7.44772 13 8V13C13 13.5523 12.5523 14 12 14C11.4477 14 11 13.5523 11 13V8C11 7.44772 11.4477 7 12 7ZM11 16C11 15.4477 11.4477 15 12 15H12.0083C12.5606 15 13.0083 15.4477 13.0083 16C13.0083 16.5523 12.5606 17 12.0083 17H12C11.4477 17 11 16.5523 11 16Z" fill="black"/>
</svg>
