<svg width="24" height="24" viewBox="0 0 24 24" fill="none" xmlns="http://www.w3.org/2000/svg">
<path fill-rule="evenodd" clip-rule="evenodd" d="M8 8.82929C9.16519 8.41746 10 7.30622 10 6C10 4.34315 8.65685 3 7 3C5.34315 3 4 4.34315 4 6C4 7.30622 4.83481 8.41746 6 8.82929V15.1707C4.83481 15.5825 4 16.6938 4 18C4 19.6569 5.34315 21 7 21C8.65685 21 10 19.6569 10 18C10 16.6938 9.16519 15.5825 8 15.1707V8.82929ZM7 5C6.44772 5 6 5.44772 6 6C6 6.55228 6.44772 7 7 7C7.55228 7 8 6.55228 8 6C8 5.44772 7.55228 5 7 5ZM7 17C6.44772 17 6 17.4477 6 18C6 18.5523 6.44772 19 7 19C7.55228 19 8 18.5523 8 18C8 17.4477 7.55228 17 7 17Z" fill="black"/>
<path fill-rule="evenodd" clip-rule="evenodd" d="M16 15.1707V8.82929C14.8348 8.41746 14 7.30622 14 6C14 4.34315 15.3431 3 17 3C18.6569 3 20 4.34315 20 6C20 7.30622 19.1652 8.41746 18 8.82929V15.1707C19.1652 15.5825 20 16.6938 20 18C20 19.6569 18.6569 21 17 21C15.3431 21 14 19.6569 14 18C14 16.6938 14.8348 15.5825 16 15.1707ZM16 18C16 17.4477 16.4477 17 17 17C17.5523 17 18 17.4477 18 18C18 18.5523 17.5523 19 17 19C16.4477 19 16 18.5523 16 18ZM17 5C16.4477 5 16 5.44772 16 6C16 6.55228 16.4477 7 17 7C17.5523 7 18 6.55228 18 6C18 5.44772 17.5523 5 17 5Z" fill="black"/>
</svg>
