<svg width="24" height="24" viewBox="0 0 24 24" fill="none" xmlns="http://www.w3.org/2000/svg">
<path d="M7 20C8.10457 20 9 19.1046 9 18C9 16.8954 8.10457 16 7 16C5.89543 16 5 16.8954 5 18C5 19.1046 5.89543 20 7 20Z" fill="black" stroke="black" stroke-width="1.5" stroke-miterlimit="10"/>
<path d="M7 8C8.10457 8 9 7.10457 9 6C9 4.89543 8.10457 4 7 4C5.89543 4 5 4.89543 5 6C5 7.10457 5.89543 8 7 8Z" fill="black" stroke="black" stroke-width="1.5" stroke-miterlimit="10"/>
<path d="M7 16V8" stroke="black" stroke-width="1.5" stroke-miterlimit="10" stroke-linecap="round"/>
<path d="M17 20C18.1046 20 19 19.1046 19 18C19 16.8954 18.1046 16 17 16C15.8954 16 15 16.8954 15 18C15 19.1046 15.8954 20 17 20Z" fill="black" stroke="black" stroke-width="1.5" stroke-miterlimit="10"/>
<path d="M17 8C18.1046 8 19 7.10457 19 6C19 4.89543 18.1046 4 17 4C15.8954 4 15 4.89543 15 6C15 7.10457 15.8954 8 17 8Z" fill="black" stroke="black" stroke-width="1.5" stroke-miterlimit="10"/>
<path d="M17 16V8" stroke="black" stroke-width="1.5" stroke-miterlimit="10" stroke-linecap="round"/>
</svg>
