<svg width="24" height="24" viewBox="0 0 24 24" fill="none" xmlns="http://www.w3.org/2000/svg">
<path d="M11.2929 3.29289C11.6834 2.90237 12.3166 2.90237 12.7071 3.29289L16.7071 7.29289C17.0976 7.68342 17.0976 8.31658 16.7071 8.70711C16.3166 9.09763 15.6834 9.09763 15.2929 8.70711L13 6.41421V16C13 16.5523 12.5523 17 12 17C11.4477 17 11 16.5523 11 16V6.41421L8.70711 8.70711C8.31658 9.09763 7.68342 9.09763 7.29289 8.70711C6.90237 8.31658 6.90237 7.68342 7.29289 7.29289L11.2929 3.29289Z" fill="black"/>
<path d="M6 17C6 16.4477 5.55228 16 5 16C4.44772 16 4 16.4477 4 17V17.6C4 19.4823 5.51772 21 7.4 21H16.6C18.4823 21 20 19.4823 20 17.6V17C20 16.4477 19.5523 16 19 16C18.4477 16 18 16.4477 18 17V17.6C18 18.3777 17.3777 19 16.6 19H7.4C6.62228 19 6 18.3777 6 17.6V17Z" fill="black"/>
</svg>
