<svg width="24" height="24" viewBox="0 0 24 24" fill="none" xmlns="http://www.w3.org/2000/svg">
<path fill-rule="evenodd" clip-rule="evenodd" d="M13 8.82929C14.1652 8.41746 15 7.30622 15 6C15 4.34315 13.6569 3 12 3C10.3431 3 9 4.34315 9 6C9 7.30622 9.83481 8.41746 11 8.82929V15.1707C9.83481 15.5825 9 16.6938 9 18C9 19.6569 10.3431 21 12 21C13.6569 21 15 19.6569 15 18C15 16.6938 14.1652 15.5825 13 15.1707V8.82929ZM12 5C11.4477 5 11 5.44772 11 6C11 6.55228 11.4477 7 12 7C12.5523 7 13 6.55228 13 6C13 5.44772 12.5523 5 12 5ZM12 17C11.4477 17 11 17.4477 11 18C11 18.5523 11.4477 19 12 19C12.5523 19 13 18.5523 13 18C13 17.4477 12.5523 17 12 17Z" fill="black"/>
</svg>
