<svg width="24" height="24" viewBox="0 0 24 24" fill="none" xmlns="http://www.w3.org/2000/svg">
<path fill-rule="evenodd" clip-rule="evenodd" d="M3.4 4H20.6C21.9255 4 23 5.07452 23 6.4V17.6C23 18.9255 21.9255 20 20.6 20H3.4C2.07452 20 1 18.9255 1 17.6V6.4C1 5.07452 2.07452 4 3.4 4ZM5 9C5 8.44772 5.44772 8 6 8H14C14.5523 8 15 8.44772 15 9C15 9.55228 14.5523 10 14 10H6C5.44772 10 5 9.55228 5 9ZM5 12C5 11.4477 5.44772 11 6 11H14C14.5523 11 15 11.4477 15 12C15 12.5523 14.5523 13 14 13H6C5.44772 13 5 12.5523 5 12Z" fill="black"/>
</svg>
