<svg width="24" height="24" viewBox="0 0 24 24" fill="none" xmlns="http://www.w3.org/2000/svg">
<path d="M12 3C12.5523 3 13 3.44772 13 4V13.5858L15.2929 11.2929C15.6834 10.9024 16.3166 10.9024 16.7071 11.2929C17.0976 11.6834 17.0976 12.3166 16.7071 12.7071L12.7071 16.7071C12.3166 17.0976 11.6834 17.0976 11.2929 16.7071L7.29289 12.7071C6.90237 12.3166 6.90237 11.6834 7.29289 11.2929C7.68342 10.9024 8.31658 10.9024 8.70711 11.2929L11 13.5858V4C11 3.44772 11.4477 3 12 3Z" fill="black"/>
<path d="M6 17C6 16.4477 5.55228 16 5 16C4.44772 16 4 16.4477 4 17V17.6C4 19.4823 5.51772 21 7.4 21H16.6C18.4823 21 20 19.4823 20 17.6V17C20 16.4477 19.5523 16 19 16C18.4477 16 18 16.4477 18 17V17.6C18 18.3777 17.3777 19 16.6 19H7.4C6.62228 19 6 18.3777 6 17.6V17Z" fill="black"/>
</svg>
