<svg width="24" height="24" viewBox="0 0 24 24" fill="none" xmlns="http://www.w3.org/2000/svg">
<path fill-rule="evenodd" clip-rule="evenodd" d="M3.4 4H20.6C21.9255 4 23 5.07452 23 6.4V17.6C23 18.9255 21.9255 20 20.6 20H3.4C2.07452 20 1 18.9255 1 17.6V6.4C1 5.07452 2.07452 4 3.4 4ZM4 9C4 8.44772 4.44772 8 5 8H10C10.5523 8 11 8.44772 11 9C11 9.55228 10.5523 10 10 10H5C4.44772 10 4 9.55228 4 9ZM5 11C4.44772 11 4 11.4477 4 12C4 12.5523 4.44772 13 5 13H10C10.5523 13 11 12.5523 11 12C11 11.4477 10.5523 11 10 11H5ZM5 14C4.44772 14 4 14.4477 4 15C4 15.5523 4.44772 16 5 16H10C10.5523 16 11 15.5523 11 15C11 14.4477 10.5523 14 10 14H5ZM15.7071 14.7071L19.7071 10.7071C20.0976 10.3166 20.0976 9.68342 19.7071 9.29289C19.3166 8.90237 18.6834 8.90237 18.2929 9.29289L15 12.5858L13.7071 11.2929C13.3166 10.9024 12.6834 10.9024 12.2929 11.2929C11.9024 11.6834 11.9024 12.3166 12.2929 12.7071L14.2929 14.7071C14.6834 15.0976 15.3166 15.0976 15.7071 14.7071Z" fill="black"/>
</svg>
