<svg width="24" height="24" viewBox="0 0 24 24" fill="none" xmlns="http://www.w3.org/2000/svg">
<g clip-path="url(#clip0_503_4357)">
<path d="M12 0C12.5523 0 13 0.447715 13 1V7C13 7.55228 12.5523 8 12 8C11.4477 8 11 7.55228 11 7V1C11 0.447715 11.4477 0 12 0Z" fill="black"/>
<path d="M7.75734 6.34319C7.36681 5.95266 6.73365 5.95266 6.34313 6.34319C5.9526 6.73371 5.9526 7.36688 6.34313 7.7574L7.75734 9.17161C8.14786 9.56214 8.78103 9.56214 9.17155 9.17161C9.56208 8.78109 9.56208 8.14792 9.17155 7.7574L7.75734 6.34319Z" fill="black"/>
<path d="M1 11C0.447715 11 0 11.4477 0 12C0 12.5523 0.447715 13 1 13H7C7.55228 13 8 12.5523 8 12C8 11.4477 7.55228 11 7 11H1Z" fill="black"/>
<path d="M16 12C16 11.4477 16.4477 11 17 11H23C23.5523 11 24 11.4477 24 12C24 12.5523 23.5523 13 23 13H17C16.4477 13 16 12.5523 16 12Z" fill="black"/>
<path d="M12 16C12.5523 16 13 16.4477 13 17V23C13 23.5523 12.5523 24 12 24C11.4477 24 11 23.5523 11 23V17C11 16.4477 11.4477 16 12 16Z" fill="black"/>
<path d="M14.8284 14.8284C15.2189 14.4379 15.8521 14.4379 16.2426 14.8284L17.6568 16.2426C18.0474 16.6332 18.0474 17.2663 17.6568 17.6568C17.2663 18.0474 16.6332 18.0474 16.2426 17.6568L14.8284 16.2426C14.4379 15.8521 14.4379 15.2189 14.8284 14.8284Z" fill="black"/>
<path d="M17.6568 7.7574C18.0474 7.36688 18.0474 6.73371 17.6568 6.34319C17.2663 5.95266 16.6332 5.95266 16.2426 6.34319L14.8284 7.7574C14.4379 8.14792 14.4379 8.78109 14.8284 9.17161C15.2189 9.56214 15.8521 9.56214 16.2426 9.17161L17.6568 7.7574Z" fill="black"/>
<path d="M9.17155 16.2426C9.56208 15.8521 9.56208 15.2189 9.17155 14.8284C8.78103 14.4379 8.14786 14.4379 7.75734 14.8284L6.34313 16.2426C5.9526 16.6332 5.9526 17.2663 6.34313 17.6568C6.73365 18.0474 7.36681 18.0474 7.75734 17.6568L9.17155 16.2426Z" fill="black"/>
<path d="M12 9C10.3431 9 9 10.3431 9 12C9 13.6569 10.3431 15 12 15C13.6569 15 15 13.6569 15 12C15 10.3431 13.6569 9 12 9Z" fill="black"/>
</g>
<defs>
<clipPath id="clip0_503_4357">
<rect width="24" height="24" fill="white"/>
</clipPath>
</defs>
</svg>
