<svg width="24" height="24" viewBox="0 0 24 24" fill="none" xmlns="http://www.w3.org/2000/svg">
<path d="M4.6 2C3.16406 2 2 3.16406 2 4.6V8.4C2 9.83594 3.16406 11 4.6 11H8.4C9.83594 11 11 9.83594 11 8.4V4.6C11 3.16406 9.83594 2 8.4 2H4.6Z" fill="black"/>
<path d="M15.6 2C14.1641 2 13 3.16406 13 4.6V8.4C13 9.83594 14.1641 11 15.6 11H19.4C20.8359 11 22 9.83594 22 8.4V4.6C22 3.16406 20.8359 2 19.4 2H15.6Z" fill="black"/>
<path d="M4.6 13C3.16406 13 2 14.1641 2 15.6V19.4C2 20.8359 3.16406 22 4.6 22H8.4C9.83594 22 11 20.8359 11 19.4V15.6C11 14.1641 9.83594 13 8.4 13H4.6Z" fill="black"/>
<path d="M15.6 13C14.1641 13 13 14.1641 13 15.6V19.4C13 20.8359 14.1641 22 15.6 22H19.4C20.8359 22 22 20.8359 22 19.4V15.6C22 14.1641 20.8359 13 19.4 13H15.6Z" fill="black"/>
</svg>
