<svg width="24" height="24" viewBox="0 0 24 24" fill="none" xmlns="http://www.w3.org/2000/svg">
<path d="M5.6 3C4.16406 3 3 4.16406 3 5.6V8.4C3 9.83594 4.16406 11 5.6 11H8.4C9.83594 11 11 9.83594 11 8.4V5.6C11 4.16406 9.83594 3 8.4 3H5.6Z" fill="black"/>
<path d="M5.6 13C4.16406 13 3 14.1641 3 15.6V18.4C3 19.8359 4.16406 21 5.6 21H8.4C9.83594 21 11 19.8359 11 18.4V15.6C11 14.1641 9.83594 13 8.4 13H5.6Z" fill="black"/>
<path d="M15.6 3C14.1641 3 13 4.16406 13 5.6V8.4C13 9.83594 14.1641 11 15.6 11H18.4C19.8359 11 21 9.83594 21 8.4V5.6C21 4.16406 19.8359 3 18.4 3H15.6Z" fill="black"/>
<path d="M15.6 13C14.1641 13 13 14.1641 13 15.6V18.4C13 19.8359 14.1641 21 15.6 21H18.4C19.8359 21 21 19.8359 21 18.4V15.6C21 14.1641 19.8359 13 18.4 13H15.6Z" fill="black"/>
</svg>
