<svg width="24" height="24" viewBox="0 0 24 24" fill="none" xmlns="http://www.w3.org/2000/svg">
<path d="M14.9728 11C14.9253 10.2082 14.8162 9.43281 14.6503 8.67861C13.8015 8.88855 12.9137 9.00001 12 9.00001C11.0932 9.00001 10.213 8.89024 9.37145 8.68353C9.20019 9.43828 9.08597 10.2125 9.03336 11H14.9728Z" fill="black"/>
<path d="M9.03289 13C9.08506 13.7904 9.19859 14.5642 9.36876 15.3167C10.2118 15.1098 11.0931 15 12 15C12.8998 15 13.7733 15.1081 14.609 15.3117C14.7845 14.5588 14.9031 13.7862 14.9604 13H9.03289Z" fill="black"/>
<path d="M14.0248 17.2288C13.3744 17.0791 12.6969 17 12 17C11.2913 17 10.602 17.0817 9.94103 17.2363C10.4406 18.5755 11.1262 19.8245 11.9659 20.9518C12.8189 19.8263 13.5153 18.5717 14.0248 17.2288Z" fill="black"/>
<path fill-rule="evenodd" clip-rule="evenodd" d="M22 12C22 17.5228 17.5228 22 12 22C6.47715 22 2 17.5228 2 12C2 6.47715 6.47715 2 12 2C17.5228 2 22 6.47715 22 12ZM12 3C11.0727 3 10.1781 3.14024 9.33641 3.40067C8.83589 4.25373 8.40778 5.15461 8.05998 6.0927C7.44627 5.79278 6.87135 5.42488 6.3443 4.99868C5.82245 5.42076 5.34873 5.9 4.93268 6.42689C5.69778 7.06851 6.55066 7.60867 7.47129 8.02583C7.23891 8.99155 7.08912 9.98629 7.02941 11H3.05493C3.01863 11.3283 3 11.662 3 12C3 12.338 3.01863 12.6717 3.05493 13H7.02904C7.08829 14.0175 7.23734 15.0114 7.46829 15.9738C6.54749 16.3905 5.69479 16.9303 4.93153 17.5717C5.34744 18.0986 5.821 18.5779 6.3427 19C6.86799 18.5743 7.44255 18.2067 8.05663 17.9069C8.40511 18.8461 8.83414 19.7463 9.33514 20.5989C10.1773 20.8596 11.0722 21 12 21C12.9035 21 13.7759 20.8669 14.5986 20.6192C15.1134 19.7567 15.5539 18.8445 15.9116 17.8935C16.536 18.1959 17.1205 18.5686 17.6557 19.0013C18.1775 18.5792 18.6513 18.1 19.0673 17.5731C18.2968 16.9269 17.4372 16.3836 16.509 15.9653C16.7456 15.0027 16.9002 14.011 16.9651 13H20.9451C20.9814 12.6717 21 12.338 21 12C21 11.662 20.9814 11.3283 20.9451 11H16.976C16.922 9.9797 16.7777 8.98287 16.551 8.01749C17.4644 7.60193 18.3106 7.06527 19.0685 6.42834C18.6526 5.90143 18.179 5.42214 17.6573 4.99998C17.14 5.41916 16.575 5.78206 15.9715 6.0793C15.6328 5.15298 15.216 4.26422 14.729 3.4212C13.888 3.15389 12.9934 3.00683 12.0654 3.00023C12.9081 4.13975 13.5936 5.4026 14.0896 6.75652C13.4193 6.91572 12.7196 7.00001 12 7.00001C11.292 7.00001 10.604 6.91841 9.94413 6.76405C10.45 5.40649 11.1466 4.1379 12.0026 3L12 3Z" fill="black"/>
</svg>
