<svg width="24" height="24" viewBox="0 0 24 24" fill="none" xmlns="http://www.w3.org/2000/svg">
<path d="M7.5189 2.00034C6.65999 1.99148 5.80796 2.15419 5.01275 2.47896C4.21755 2.80374 3.49519 3.28403 2.88805 3.89164C2.28093 4.49924 1.8012 5.22194 1.47705 6.01743C1.15291 6.81288 0.990859 7.66505 1.0004 8.52397C1.00994 9.38287 1.19088 10.2313 1.5326 11.0193C1.87251 11.8032 2.36469 12.5116 2.9805 13.1037L3.61977 13.749L4.48335 14.6065L4.48585 14.609L11.3351 21.4582C11.5226 21.6457 11.777 21.7511 12.0422 21.7511C12.3074 21.7511 12.5618 21.6457 12.7493 21.4582L19.5985 14.609L19.6011 14.6065L20.4588 13.7548L21.1094 13.0981L21.1113 13.0962C21.7098 12.4974 22.1846 11.7867 22.5086 11.0046C22.833 10.2216 23 9.38238 23 8.53488C23 7.68737 22.833 6.84816 22.5086 6.06519C22.1843 5.28222 21.7085 4.5705 21.1091 3.97133C19.8993 2.763 18.2593 2.08432 16.5495 2.08432C14.8647 2.08432 13.2477 2.74324 12.0433 3.9185C11.4625 3.33035 10.7738 2.85907 10.0147 2.53058C9.22632 2.18946 8.37781 2.0092 7.5189 2.00034Z" fill="black"/>
</svg>
