<svg width="24" height="24" viewBox="0 0 24 24" fill="none" xmlns="http://www.w3.org/2000/svg">
<g clip-path="url(#clip0_526_3061)">
<path fill-rule="evenodd" clip-rule="evenodd" d="M21.0001 19.5879V8.88352L22.4514 9.83603C22.9131 10.1391 23.5331 10.0104 23.8361 9.54869C24.1392 9.08697 24.0105 8.46701 23.5488 8.16398L19.0001 5.17862V3C19.0001 2.44772 18.5524 2 18.0001 2C17.4478 2 17.0001 2.44772 17.0001 3V3.866L13.2699 1.4178C12.4971 0.860534 11.4621 0.860734 10.6895 1.4184L0.449927 8.16496C-0.0112547 8.46882 -0.13879 9.089 0.165068 9.55018C0.468927 10.0114 1.08911 10.1389 1.5503 9.83504L3.00011 8.87981V19.5879C3.00011 20.9246 4.07011 22 5.40011 22H18.6001C19.9301 22 21.0001 20.9246 21.0001 19.5879ZM8.00011 8C8.00011 7.44772 8.44783 7 9.00011 7H15.0001C15.5524 7 16.0001 7.44772 16.0001 8C16.0001 8.55228 15.5524 9 15.0001 9H9.00011C8.44783 9 8.00011 8.55228 8.00011 8ZM10.0001 13V21H8.00011V12.8C8.00011 11.8077 8.80783 11 9.80011 11H14.2001C15.1924 11 16.0001 11.8077 16.0001 12.8V21H14.0001V13H10.0001Z" fill="black"/>
</g>
<defs>
<clipPath id="clip0_526_3061">
<rect width="24" height="24" fill="white"/>
</clipPath>
</defs>
</svg>
