<svg width="24" height="24" viewBox="0 0 24 24" fill="none" xmlns="http://www.w3.org/2000/svg">
<path d="M3.4 5C2.6268 5 2 5.6268 2 6.4V9C2 9.55228 1.55228 10 1 10C0.447715 10 0 9.55228 0 9V6.4C0 4.52223 1.52223 3 3.4 3H20.6C22.4778 3 24 4.52223 24 6.4V17.6C24 19.4778 22.4778 21 20.6 21H3.4C1.52223 21 0 19.4778 0 17.6V15C0 14.4477 0.447715 14 1 14C1.55228 14 2 14.4477 2 15V17.6C2 18.3732 2.6268 19 3.4 19H20.6C21.3732 19 22 18.3732 22 17.6V6.4C22 5.6268 21.3732 5 20.6 5H3.4Z" fill="black"/>
<path d="M12.2929 7.29289C12.6834 6.90237 13.3166 6.90237 13.7071 7.29289L17.7071 11.2929C18.0976 11.6834 18.0976 12.3166 17.7071 12.7071L13.7071 16.7071C13.3166 17.0976 12.6834 17.0976 12.2929 16.7071C11.9024 16.3166 11.9024 15.6834 12.2929 15.2929L14.5858 13H1C0.447715 13 0 12.5523 0 12C0 11.4477 0.447715 11 1 11H14.5858L12.2929 8.70711C11.9024 8.31658 11.9024 7.68342 12.2929 7.29289Z" fill="black"/>
</svg>
