<svg width="24" height="24" viewBox="0 0 24 24" fill="none" xmlns="http://www.w3.org/2000/svg">
<path d="M21 7V18.6C21 19.93 19.93 21 18.6 21H5.4C4.07 21 3 19.93 3 18.6V7" fill="black"/>
<path d="M21 7V18.6C21 19.93 19.93 21 18.6 21H5.4C4.07 21 3 19.93 3 18.6V7" stroke="black" stroke-width="1.5" stroke-miterlimit="10" stroke-linecap="round"/>
<path d="M21.4 3H2.6C1.71634 3 1 3.71634 1 4.6V5.4C1 6.28366 1.71634 7 2.6 7H21.4C22.2837 7 23 6.28366 23 5.4V4.6C23 3.71634 22.2837 3 21.4 3Z" stroke="black" stroke-width="1.5" stroke-miterlimit="10"/>
<path d="M8 11H16" stroke="white" stroke-width="1.5" stroke-miterlimit="10" stroke-linecap="round"/>
</svg>
