<svg width="24" height="24" viewBox="0 0 24 24" fill="none" xmlns="http://www.w3.org/2000/svg">
<path fill-rule="evenodd" clip-rule="evenodd" d="M0 4.6C0 3.16406 1.16406 2 2.6 2H21.4C22.8359 2 24 3.16406 24 4.6V5.4C24 6.83594 22.8359 8 21.4 8H21V18.6C21 19.93 19.93 21 18.6 21H5.4C4.07 21 3 19.93 3 18.6V8H2.6C1.16406 8 0 6.83594 0 5.4V4.6ZM2.6 4C2.26863 4 2 4.26863 2 4.6V5.4C2 5.73137 2.26863 6 2.6 6H21.4C21.7314 6 22 5.73137 22 5.4V4.6C22 4.26863 21.7314 4 21.4 4H2.6ZM8 10C7.44772 10 7 10.4477 7 11C7 11.5523 7.44772 12 8 12H16C16.5523 12 17 11.5523 17 11C17 10.4477 16.5523 10 16 10H8Z" fill="black"/>
</svg>
