<svg width="24" height="24" viewBox="0 0 24 24" fill="none" xmlns="http://www.w3.org/2000/svg">
<path fill-rule="evenodd" clip-rule="evenodd" d="M19.6 3H8.4C7.07452 3 6 4.07452 6 5.4V16.6C6 17.9255 7.07452 19 8.4 19H19.6C20.9255 19 22 17.9255 22 16.6V5.4C22 4.07452 20.9255 3 19.6 3ZM9 8C9 7.44772 9.44772 7 10 7H18C18.5523 7 19 7.44772 19 8C19 8.55228 18.5523 9 18 9H10C9.44772 9 9 8.55228 9 8ZM10 10C9.44772 10 9 10.4477 9 11C9 11.5523 9.44772 12 10 12H18C18.5523 12 19 11.5523 19 11C19 10.4477 18.5523 10 18 10H10ZM9 14C9 13.4477 9.44772 13 10 13H14C14.5523 13 15 13.4477 15 14C15 14.5523 14.5523 15 14 15H10C9.44772 15 9 14.5523 9 14Z" fill="black"/>
<path d="M4 5C4 4.44772 3.55228 4 3 4C2.44772 4 2 4.44772 2 5V16.6C2 20.1323 4.86772 23 8.4 23H20C20.5523 23 21 22.5523 21 22C21 21.4477 20.5523 21 20 21H8.4C5.97228 21 4 19.0277 4 16.6V5Z" fill="black"/>
</svg>
