<svg width="24" height="24" viewBox="0 0 24 24" fill="none" xmlns="http://www.w3.org/2000/svg">
<path d="M10 9.4C10 7.52228 11.5223 6 13.4 6H19C19.5523 6 20 5.55228 20 5C20 4.44772 19.5523 4 19 4H13.4C10.4177 4 8 6.41772 8 9.4V16.5858L5.70711 14.2929C5.31658 13.9024 4.68342 13.9024 4.29289 14.2929C3.90237 14.6834 3.90237 15.3166 4.29289 15.7071L8.29289 19.7071C8.68342 20.0976 9.31658 20.0976 9.70711 19.7071L13.7071 15.7071C14.0976 15.3166 14.0976 14.6834 13.7071 14.2929C13.3166 13.9024 12.6834 13.9024 12.2929 14.2929L10 16.5858V9.4Z" fill="black"/>
</svg>
