<svg width="24" height="24" viewBox="0 0 24 24" fill="none" xmlns="http://www.w3.org/2000/svg">
<path fill-rule="evenodd" clip-rule="evenodd" d="M7 7C7 4.23772 9.23772 2 12 2C14.7623 2 17 4.23772 17 7V11H19.4C20.28 11 21 11.72 21 12.6V18.6C21 19.92 19.92 21 18.6 21H5.4C4.08 21 3 19.92 3 18.6V12.6C3 11.72 3.72 11 4.6 11H7V7ZM15 7V11H9V7C9 5.34228 10.3423 4 12 4C13.6577 4 15 5.34228 15 7ZM10 16C10 14.8954 10.8954 14 12 14C13.1046 14 14 14.8954 14 16C14 17.1046 13.1046 18 12 18C10.8954 18 10 17.1046 10 16Z" fill="black"/>
</svg>
