<svg width="24" height="24" viewBox="0 0 24 24" fill="none" xmlns="http://www.w3.org/2000/svg">
<path fill-rule="evenodd" clip-rule="evenodd" d="M7 7C7 4.23772 9.23772 2 12 2C14.7623 2 17 4.23772 17 7V10H17.4C18.28 10 19 10.72 19 11.6V18.6C19 19.92 17.92 21 16.6 21H7.4C6.08 21 5 19.92 5 18.6V11.6C5 10.72 5.72 10 6.6 10H7V7ZM15 7V10H9V7C9 5.34228 10.3423 4 12 4C13.6577 4 15 5.34228 15 7ZM12 12.25C11.0335 12.25 10.25 13.0335 10.25 14C10.25 14.6981 10.6588 15.3007 11.25 15.5816V18C11.25 18.4142 11.5858 18.75 12 18.75C12.4142 18.75 12.75 18.4142 12.75 18V15.5816C13.3412 15.3007 13.75 14.6981 13.75 14C13.75 13.0335 12.9665 12.25 12 12.25Z" fill="black"/>
</svg>
