<svg width="24" height="24" viewBox="0 0 24 24" fill="none" xmlns="http://www.w3.org/2000/svg">
<path d="M4.6 11H19.4C20.28 11 21 11.72 21 12.6V18.6C21 19.92 19.92 21 18.6 21H5.4C4.08 21 3 19.92 3 18.6V12.6C3 11.72 3.72 11 4.6 11Z" fill="black" stroke="black" stroke-width="1.5" stroke-miterlimit="10"/>
<path d="M12 17C12.5523 17 13 16.5523 13 16C13 15.4477 12.5523 15 12 15C11.4477 15 11 15.4477 11 16C11 16.5523 11.4477 17 12 17Z" fill="white" stroke="white" stroke-width="1.5" stroke-miterlimit="10"/>
<path d="M8 11V7C8 4.79 9.79 3 12 3C14.21 3 16 4.79 16 7V11" stroke="black" stroke-width="1.5" stroke-miterlimit="10" stroke-linecap="round"/>
</svg>
