<svg width="24" height="24" viewBox="0 0 24 24" fill="none" xmlns="http://www.w3.org/2000/svg">
<path d="M9.70711 4.29289C9.31658 3.90237 8.68342 3.90237 8.29289 4.29289L4.29289 8.29289C3.90237 8.68342 3.90237 9.31658 4.29289 9.70711C4.68342 10.0976 5.31658 10.0976 5.70711 9.70711L8 7.41421V14.6C8 17.5823 10.4177 20 13.4 20H19C19.5523 20 20 19.5523 20 19C20 18.4477 19.5523 18 19 18H13.4C11.5223 18 10 16.4777 10 14.6V7.41421L12.2929 9.70711C12.6834 10.0976 13.3166 10.0976 13.7071 9.70711C14.0976 9.31658 14.0976 8.68342 13.7071 8.29289L9.70711 4.29289Z" fill="black"/>
</svg>
