<svg width="24" height="24" viewBox="0 0 24 24" fill="none" xmlns="http://www.w3.org/2000/svg">
<path d="M6 11C6.55228 11 7 11.4477 7 12V13C7 13.5523 6.55228 14 6 14C5.44772 14 5 13.5523 5 13V12C5 11.4477 5.44772 11 6 11Z" fill="black"/>
<path d="M12 11C12.5523 11 13 11.4477 13 12V13C13 13.5523 12.5523 14 12 14C11.4477 14 11 13.5523 11 13V12C11 11.4477 11.4477 11 12 11Z" fill="black"/>
<path d="M19 12C19 11.4477 18.5523 11 18 11C17.4477 11 17 11.4477 17 12V13C17 13.5523 17.4477 14 18 14C18.5523 14 19 13.5523 19 13V12Z" fill="black"/>
</svg>
