<svg width="24" height="24" viewBox="0 0 24 24" fill="none" xmlns="http://www.w3.org/2000/svg">
<path fill-rule="evenodd" clip-rule="evenodd" d="M10 11.5333C10 10.6865 10.6865 10 11.5333 10H12.4667C13.3135 10 14 10.6865 14 11.5333V12.4667C14 13.3135 13.3135 14 12.4667 14H11.5333C10.6865 14 10 13.3135 10 12.4667V11.5333Z" fill="black"/>
<path fill-rule="evenodd" clip-rule="evenodd" d="M10 18.5333C10 17.6865 10.6865 17 11.5333 17H12.4667C13.3135 17 14 17.6865 14 18.5333V19.4667C14 20.3135 13.3135 21 12.4667 21H11.5333C10.6865 21 10 20.3135 10 19.4667V18.5333Z" fill="black"/>
<path fill-rule="evenodd" clip-rule="evenodd" d="M10 4.53333C10 3.6865 10.6865 3 11.5333 3H12.4667C13.3135 3 14 3.6865 14 4.53333V5.46667C14 6.3135 13.3135 7 12.4667 7H11.5333C10.6865 7 10 6.3135 10 5.46667V4.53333Z" fill="black"/>
</svg>
