<svg width="24" height="24" viewBox="0 0 24 24" fill="none" xmlns="http://www.w3.org/2000/svg">
<path fill-rule="evenodd" clip-rule="evenodd" d="M5.4 3H18.6C19.9255 3 21 4.07452 21 5.4V18.6C21 19.9255 19.9255 21 18.6 21H5.4C4.07452 21 3 19.9255 3 18.6V5.4C3 4.07452 4.07452 3 5.4 3ZM8 11C8.55228 11 9 11.4477 9 12V12.1C9 12.6523 8.55228 13.1 8 13.1C7.44772 13.1 7 12.6523 7 12.1V12C7 11.4477 7.44772 11 8 11ZM12 11C12.5523 11 13 11.4477 13 12V12.1C13 12.6523 12.5523 13.1 12 13.1C11.4477 13.1 11 12.6523 11 12.1V12C11 11.4477 11.4477 11 12 11ZM16 11C16.5523 11 17 11.4477 17 12V12.1C17 12.6523 16.5523 13.1 16 13.1C15.4477 13.1 15 12.6523 15 12.1V12C15 11.4477 15.4477 11 16 11Z" fill="black"/>
</svg>
