<svg width="24" height="24" viewBox="0 0 24 24" fill="none" xmlns="http://www.w3.org/2000/svg">
<path fill-rule="evenodd" clip-rule="evenodd" d="M5.4 3H18.6C19.9255 3 21 4.07452 21 5.4V18.6C21 19.9255 19.9255 21 18.6 21H5.4C4.07452 21 3 19.9255 3 18.6V5.4C3 4.07452 4.07452 3 5.4 3ZM11.95 7.04999C11.3977 7.04999 10.95 7.4977 10.95 8.04999C10.95 8.60227 11.3977 9.04999 11.95 9.04999H12.05C12.6023 9.04999 13.05 8.60227 13.05 8.04999C13.05 7.4977 12.6023 7.04999 12.05 7.04999H11.95ZM10.95 12.05C10.95 11.4977 11.3977 11.05 11.95 11.05H12.05C12.6023 11.05 13.05 11.4977 13.05 12.05C13.05 12.6023 12.6023 13.05 12.05 13.05H11.95C11.3977 13.05 10.95 12.6023 10.95 12.05ZM11.95 15.05C11.3977 15.05 10.95 15.4977 10.95 16.05C10.95 16.6023 11.3977 17.05 11.95 17.05H12.05C12.6023 17.05 13.05 16.6023 13.05 16.05C13.05 15.4977 12.6023 15.05 12.05 15.05H11.95Z" fill="black"/>
</svg>
