<svg width="24" height="24" viewBox="0 0 24 24" fill="none" xmlns="http://www.w3.org/2000/svg">
<path fill-rule="evenodd" clip-rule="evenodd" d="M4 6.8V8H2.8C1.80589 8 1 8.80589 1 9.8V18.2C1 19.1941 1.80589 20 2.8 20H19.2C20.1941 20 21 19.1941 21 18.2V17H22.2C23.1923 17 24 16.1923 24 15.2V6.8C24 5.80772 23.1923 5 22.2 5H5.8C4.80772 5 4 5.80771 4 6.8ZM6 7V8H19.2C20.1941 8 21 8.80589 21 9.8V15H22V7H6ZM9 14C9 12.8954 9.89543 12 11 12C12.1046 12 13 12.8954 13 14C13 15.1046 12.1046 16 11 16C9.89543 16 9 15.1046 9 14Z" fill="black"/>
</svg>
