<svg width="24" height="24" viewBox="0 0 24 24" fill="none" xmlns="http://www.w3.org/2000/svg">
<path fill-rule="evenodd" clip-rule="evenodd" d="M22 12C22 17.5228 17.5228 22 12 22C6.47715 22 2 17.5228 2 12C2 6.47715 6.47715 2 12 2C17.5228 2 22 6.47715 22 12ZM8 11C8.55228 11 9 11.4477 9 12V12.1C9 12.6523 8.55228 13.1 8 13.1C7.44772 13.1 7 12.6523 7 12.1V12C7 11.4477 7.44772 11 8 11ZM12 11C12.5523 11 13 11.4477 13 12V12.1C13 12.6523 12.5523 13.1 12 13.1C11.4477 13.1 11 12.6523 11 12.1V12C11 11.4477 11.4477 11 12 11ZM16 11C16.5523 11 17 11.4477 17 12V12.1C17 12.6523 16.5523 13.1 16 13.1C15.4477 13.1 15 12.6523 15 12.1V12C15 11.4477 15.4477 11 16 11Z" fill="black"/>
</svg>
