<svg width="24" height="24" viewBox="0 0 24 24" fill="none" xmlns="http://www.w3.org/2000/svg">
<path fill-rule="evenodd" clip-rule="evenodd" d="M22 12C22 17.5228 17.5228 22 12 22C6.47715 22 2 17.5228 2 12C2 6.47715 6.47715 2 12 2C17.5228 2 22 6.47715 22 12ZM10.95 8.04999C10.95 7.4977 11.3977 7.04999 11.95 7.04999H12.05C12.6023 7.04999 13.05 7.4977 13.05 8.04999C13.05 8.60227 12.6023 9.04999 12.05 9.04999H11.95C11.3977 9.04999 10.95 8.60227 10.95 8.04999ZM10.95 12.05C10.95 11.4977 11.3977 11.05 11.95 11.05H12.05C12.6023 11.05 13.05 11.4977 13.05 12.05C13.05 12.6023 12.6023 13.05 12.05 13.05H11.95C11.3977 13.05 10.95 12.6023 10.95 12.05ZM10.95 16.05C10.95 15.4977 11.3977 15.05 11.95 15.05H12.05C12.6023 15.05 13.05 15.4977 13.05 16.05C13.05 16.6023 12.6023 17.05 12.05 17.05H11.95C11.3977 17.05 10.95 16.6023 10.95 16.05Z" fill="black"/>
</svg>
