<svg width="24" height="24" viewBox="0 0 24 24" fill="none" xmlns="http://www.w3.org/2000/svg">
<path d="M12 7H13C13.5523 7 14 6.55228 14 6C14 5.44772 13.5523 5 13 5H12C11.4477 5 11 5.44772 11 6C11 6.55228 11.4477 7 12 7Z" fill="black"/>
<path d="M13 13H12C11.4477 13 11 12.5523 11 12C11 11.4477 11.4477 11 12 11H13C13.5523 11 14 11.4477 14 12C14 12.5523 13.5523 13 13 13Z" fill="black"/>
<path d="M13 19H12C11.4477 19 11 18.5523 11 18C11 17.4477 11.4477 17 12 17H13C13.5523 17 14 17.4477 14 18C14 18.5523 13.5523 19 13 19Z" fill="black"/>
</svg>
