<svg width="24" height="24" viewBox="0 0 24 24" fill="none" xmlns="http://www.w3.org/2000/svg">
<path fill-rule="evenodd" clip-rule="evenodd" d="M11.5333 14C10.6865 14 10 13.3135 10 12.4667V11.5333C10 10.6865 10.6865 10 11.5333 10L12.4667 10C13.3135 10 14 10.6865 14 11.5333V12.4667C14 13.3135 13.3135 14 12.4667 14H11.5333Z" fill="black"/>
<path fill-rule="evenodd" clip-rule="evenodd" d="M18.5333 14C17.6865 14 17 13.3135 17 12.4667V11.5333C17 10.6865 17.6865 10 18.5333 10L19.4667 10C20.3135 10 21 10.6865 21 11.5333V12.4667C21 13.3135 20.3135 14 19.4667 14H18.5333Z" fill="black"/>
<path fill-rule="evenodd" clip-rule="evenodd" d="M4.53333 14C3.6865 14 3 13.3135 3 12.4667L3 11.5333C3 10.6865 3.6865 10 4.53333 10L5.46667 10C6.3135 10 7 10.6865 7 11.5333V12.4667C7 13.3135 6.3135 14 5.46667 14H4.53333Z" fill="black"/>
</svg>
