<svg width="24" height="24" viewBox="0 0 24 24" fill="none" xmlns="http://www.w3.org/2000/svg">
<path fill-rule="evenodd" clip-rule="evenodd" d="M10 2C10.5523 2 11 2.44772 11 3V5H13V3C13 2.44772 13.4477 2 14 2C14.5523 2 15 2.44772 15 3V5H16.6C17.9255 5 19 6.07452 19 7.4V9H21C21.5523 9 22 9.44772 22 10C22 10.5523 21.5523 11 21 11H19V13H21C21.5523 13 22 13.4477 22 14C22 14.5523 21.5523 15 21 15H19V16.6C19 17.9255 17.9255 19 16.6 19H15V21C15 21.5523 14.5523 22 14 22C13.4477 22 13 21.5523 13 21V19H11V21C11 21.5523 10.5523 22 10 22C9.44772 22 9 21.5523 9 21V19H7.4C6.07452 19 5 17.9255 5 16.6V15H3C2.44772 15 2 14.5523 2 14C2 13.4477 2.44772 13 3 13H5V11H3C2.44772 11 2 10.5523 2 10C2 9.44772 2.44772 9 3 9H5V7.4C5 6.07452 6.07452 5 7.4 5H9V3C9 2.44772 9.44772 2 10 2ZM13.4 9H10.6C9.71634 9 9 9.71634 9 10.6V13.4C9 14.2837 9.71634 15 10.6 15H13.4C14.2837 15 15 14.2837 15 13.4V10.6C15 9.71634 14.2837 9 13.4 9Z" fill="black"/>
</svg>
