<svg width="24" height="24" viewBox="0 0 24 24" fill="none" xmlns="http://www.w3.org/2000/svg">
<path fill-rule="evenodd" clip-rule="evenodd" d="M7.91 3.23013L3.23 7.91273V7.90272C3.08 8.05281 3 8.26292 3 8.47304V15.527C3 15.7471 3.08 15.9472 3.23 16.0973L7.9 20.7699C8.05 20.92 8.26 21 8.47 21H15.53C15.75 21 15.95 20.92 16.1 20.7699L20.77 16.0973C20.92 15.9472 21 15.7371 21 15.527V8.47304C21 8.25292 20.92 8.05281 20.77 7.90272L16.1 3.23013C15.95 3.08004 15.74 3 15.53 3H8.48C8.26 3 8.06 3.08004 7.91 3.23013ZM16.8137 9.58124C17.1347 9.13183 17.0307 8.50728 16.5812 8.18627C16.1318 7.86526 15.5073 7.96935 15.1863 8.41876L10.8724 14.4582L8.70711 12.2929C8.31658 11.9024 7.68342 11.9024 7.29289 12.2929C6.90237 12.6834 6.90237 13.3166 7.29289 13.7071L10.2929 16.7071C10.5007 16.915 10.7895 17.0208 11.0825 16.9966C11.3754 16.9723 11.6429 16.8204 11.8137 16.5812L16.8137 9.58124Z" fill="black"/>
</svg>
