<svg width="24" height="24" viewBox="0 0 24 24" fill="none" xmlns="http://www.w3.org/2000/svg">
<path fill-rule="evenodd" clip-rule="evenodd" d="M3.4 4H20.6C21.9255 4 23 5.07452 23 6.4V17.6C23 18.9255 21.9255 20 20.6 20H3.4C2.07452 20 1 18.9255 1 17.6V6.4C1 5.07452 2.07452 4 3.4 4ZM10 7C10.5523 7 11 7.44772 11 8V16C11 16.5523 10.5523 17 10 17C9.44771 17 9 16.5523 9 16V8C9 7.44772 9.44771 7 10 7ZM14 7C14.5523 7 15 7.44772 15 8V16C15 16.5523 14.5523 17 14 17C13.4477 17 13 16.5523 13 16V8C13 7.44772 13.4477 7 14 7Z" fill="black"/>
</svg>
