<svg width="24" height="24" viewBox="0 0 24 24" fill="none" xmlns="http://www.w3.org/2000/svg">
<path fill-rule="evenodd" clip-rule="evenodd" d="M7 8.82929C8.16519 8.41746 9 7.30622 9 6C9 4.34315 7.65685 3 6 3C4.34315 3 3 4.34315 3 6C3 7.30622 3.83481 8.41746 5 8.82929V15.1707C3.83481 15.5825 3 16.6938 3 18C3 19.6569 4.34315 21 6 21C7.65685 21 9 19.6569 9 18C9 16.6938 8.16519 15.5825 7 15.1707V8.82929ZM6 5C5.44772 5 5 5.44772 5 6C5 6.55229 5.44772 7 6 7C6.55228 7 7 6.55229 7 6C7 5.44772 6.55228 5 6 5ZM6 17C5.44772 17 5 17.4477 5 18C5 18.5523 5.44772 19 6 19C6.55228 19 7 18.5523 7 18C7 17.4477 6.55228 17 6 17Z" fill="black"/>
<path fill-rule="evenodd" clip-rule="evenodd" d="M17 15.1707C15.8348 15.5825 15 16.6938 15 18C15 19.6569 16.3431 21 18 21C19.6569 21 21 19.6569 21 18C21 16.6938 20.1652 15.5825 19 15.1707V10.4C19 7.41771 16.5823 5 13.6 5H13.4142L13.7071 4.70711C14.0976 4.31658 14.0976 3.68342 13.7071 3.29289C13.3166 2.90237 12.6834 2.90237 12.2929 3.29289L10.2929 5.29289C9.90237 5.68342 9.90237 6.31658 10.2929 6.70711L12.2929 8.70711C12.6834 9.09763 13.3166 9.09763 13.7071 8.70711C14.0976 8.31658 14.0976 7.68342 13.7071 7.29289L13.4142 7H13.6C15.4777 7 17 8.52228 17 10.4L17 15.1707ZM17 18C17 17.4477 17.4477 17 18 17C18.5523 17 19 17.4477 19 18C19 18.5523 18.5523 19 18 19C17.4477 19 17 18.5523 17 18Z" fill="black"/>
</svg>
