<svg width="24" height="24" viewBox="0 0 24 24" fill="none" xmlns="http://www.w3.org/2000/svg">
<path d="M13.6839 16.7308L7.18065 10.2692C7.18065 10.2692 13.6839 5.53847 6.2516 3C6.2516 3 3 3.11536 3 7.84614C3 10.1538 4.62582 12.6923 6.71614 14.6538C7.0839 15.0018 7.47541 15.3892 7.88672 15.7961C10.2029 18.0877 13.1466 21 16.0065 21C20.7678 21 21 17.6538 21 17.6538C18.7935 11.1923 14.3807 15.9231 13.6839 16.7308Z" fill="black"/>
<path d="M18.4142 8.82841L16.5858 8.82841L20.5355 4.87868C20.9261 4.48815 20.9261 3.85499 20.5355 3.46446C20.145 3.07394 19.5118 3.07394 19.1213 3.46446L15.1716 7.4142V5.58577C15.1716 5.03348 14.7239 4.58577 14.1716 4.58577C13.6193 4.58577 13.1716 5.03348 13.1716 5.58577V9.82841C13.1716 10.3807 13.6193 10.8284 14.1716 10.8284H18.4142C18.9665 10.8284 19.4142 10.3807 19.4142 9.82841C19.4142 9.27612 18.9665 8.82841 18.4142 8.82841Z" fill="black"/>
</svg>
