<svg width="24" height="24" viewBox="0 0 24 24" fill="none" xmlns="http://www.w3.org/2000/svg">
<path d="M17.2929 3.29289C17.6834 2.90237 18.3166 2.90237 18.7071 3.29289L21.7071 6.29289C22.0976 6.68342 22.0976 7.31658 21.7071 7.70711L18.7071 10.7071C18.3166 11.0976 17.6834 11.0976 17.2929 10.7071C16.9024 10.3166 16.9024 9.68342 17.2929 9.29289L18.5858 8H13C12.4477 8 12 7.55228 12 7C12 6.44772 12.4477 6 13 6H18.5858L17.2929 4.70711C16.9024 4.31658 16.9024 3.68342 17.2929 3.29289Z" fill="black"/>
<path d="M13.6839 16.7308L7.18065 10.2692C7.18065 10.2692 13.6839 5.53847 6.2516 3C6.2516 3 3 3.11536 3 7.84614C3 10.1538 4.62582 12.6923 6.71614 14.6538C7.0839 15.0018 7.47541 15.3892 7.88672 15.7961C10.2029 18.0877 13.1466 21 16.0065 21C20.7678 21 21 17.6538 21 17.6538C18.7935 11.1923 14.3807 15.9231 13.6839 16.7308Z" fill="black"/>
</svg>
