<svg width="24" height="24" viewBox="0 0 24 24" fill="none" xmlns="http://www.w3.org/2000/svg">
<path fill-rule="evenodd" clip-rule="evenodd" d="M13.6839 16.7308L7.18065 10.2692C7.18065 10.2692 13.6839 5.53847 6.2516 3C6.2516 3 3 3.11536 3 7.84614C3 10.1538 4.62582 12.6923 6.71614 14.6538C7.0839 15.0018 7.47541 15.3892 7.88672 15.7961C10.2029 18.0877 13.1466 21 16.0065 21C20.7678 21 21 17.6538 21 17.6538C18.7935 11.1923 14.3807 15.9231 13.6839 16.7308ZM17 4L17 10C17 10.5523 16.5523 11 16 11C15.4477 11 15 10.5523 15 10V4C15 3.44772 15.4477 3 16 3C16.5523 3 17 3.44772 17 4ZM21 4V10C21 10.5523 20.5523 11 20 11C19.4477 11 19 10.5523 19 10V4C19 3.44772 19.4477 3 20 3C20.5523 3 21 3.44772 21 4Z" fill="black"/>
</svg>
