<svg width="24" height="24" viewBox="0 0 24 24" fill="none" xmlns="http://www.w3.org/2000/svg">
<path d="M13.6839 16.7308L7.18065 10.2692C7.18065 10.2692 13.6839 5.53847 6.2516 3C6.2516 3 3 3.11536 3 7.84614C3 10.1538 4.62582 12.6923 6.71614 14.6538C7.0839 15.0018 7.47541 15.3892 7.88672 15.7961C10.2029 18.0877 13.1466 21 16.0065 21C20.7678 21 21 17.6538 21 17.6538C18.7935 11.1923 14.3807 15.9231 13.6839 16.7308Z" fill="black"/>
<path d="M17 11C16.4477 11 16 10.5523 16 10V8H14C13.4477 8 13 7.55228 13 7C13 6.44772 13.4477 6 14 6H16V4C16 3.44772 16.4477 3 17 3C17.5523 3 18 3.44772 18 4V6H20C20.5523 6 21 6.44772 21 7C21 7.55228 20.5523 8 20 8H18V10C18 10.5523 17.5523 11 17 11Z" fill="black"/>
</svg>
