<svg width="24" height="24" viewBox="0 0 24 24" fill="none" xmlns="http://www.w3.org/2000/svg">
<path fill-rule="evenodd" clip-rule="evenodd" d="M14.5001 5C14.5001 3.34272 15.8428 2 17.5001 2C19.1573 2 20.5001 3.34272 20.5001 5V6.02503C21.3501 6.16835 22 6.90992 22 7.8V9.8C22 11.0123 21.0123 12 19.8 12H15.2C13.9877 12 13 11.0123 13 9.8V7.8C13 6.90988 13.65 6.16828 14.5001 6.02501V5ZM18.5001 5V6H16.5001V5C16.5001 4.44728 16.9473 4 17.5001 4C18.0528 4 18.5001 4.44728 18.5001 5Z" fill="black"/>
<path d="M13.6839 16.7308L7.18065 10.2692C7.18065 10.2692 13.6839 5.53847 6.2516 3C6.2516 3 3 3.11536 3 7.84614C3 10.1538 4.62582 12.6923 6.71614 14.6538C7.0839 15.0018 7.47541 15.3892 7.88672 15.7961C10.2029 18.0877 13.1466 21 16.0065 21C20.7678 21 21 17.6538 21 17.6538C18.7935 11.1923 14.3807 15.9231 13.6839 16.7308Z" fill="black"/>
</svg>
