<svg width="24" height="24" viewBox="0 0 24 24" fill="none" xmlns="http://www.w3.org/2000/svg">
<path d="M7.00123 12H10.7505C11.9232 12 13.0226 11.5993 13.812 10.9227C14.2941 10.5095 14.6325 10.0193 14.8217 9.5H7C6.44772 9.5 6 9.05228 6 8.5C6 7.94772 6.44772 7.5 7 7.5H14.8217C14.6325 6.98068 14.2941 6.49055 13.812 6.07727C13.0226 5.40067 11.9232 5 10.7505 5L7.00046 5C6.44817 5 6.00046 4.55228 6.00046 4C6.00046 3.44771 6.44817 3 7.00046 3H10.7505C10.8109 3 10.8713 3.00077 10.9316 3.0023C10.9542 3.00078 10.977 3 11 3H18C18.5523 3 19 3.44772 19 4C19 4.55228 18.5523 5 18 5H15.5749C16.2431 5.71395 16.7028 6.57308 16.8968 7.5H18C18.5523 7.5 19 7.94772 19 8.5C19 9.05228 18.5523 9.5 18 9.5H16.8968C16.661 10.627 16.0323 11.6538 15.1136 12.4412C13.9338 13.4525 12.3626 14 10.7505 14H9.71204L15.8496 19.2395C16.2696 19.598 16.3194 20.2292 15.9609 20.6493C15.6023 21.0693 14.9711 21.1192 14.551 20.7606L6.35435 13.7633L6.34377 13.7542C6.23285 13.6576 6.14831 13.5419 6.09088 13.4161C6.03602 13.2964 6.0041 13.164 6.00075 13.0245C5.99951 12.9742 6.00203 12.9238 6.00835 12.8738C6.01996 12.7816 6.04411 12.6933 6.07904 12.6108C6.096 12.5707 6.11549 12.5319 6.13732 12.4947C6.17524 12.4301 6.22022 12.3701 6.27119 12.3158C6.35811 12.223 6.45902 12.1503 6.56786 12.0982C6.69877 12.0352 6.84627 12 7.00123 12Z" fill="black"/>
</svg>
