<svg width="24" height="24" viewBox="0 0 24 24" fill="none" xmlns="http://www.w3.org/2000/svg">
<path fill-rule="evenodd" clip-rule="evenodd" d="M3 12C3 11.4477 3.44772 11 4 11H20C20.5523 11 21 11.4477 21 12C21 12.5523 20.5523 13 20 13H4C3.44772 13 3 12.5523 3 12Z" fill="black"/>
<path fill-rule="evenodd" clip-rule="evenodd" d="M3 16C3 15.4477 3.44772 15 4 15H20C20.5523 15 21 15.4477 21 16C21 16.5523 20.5523 17 20 17H4C3.44772 17 3 16.5523 3 16Z" fill="black"/>
<path fill-rule="evenodd" clip-rule="evenodd" d="M3 20C3 19.4477 3.44772 19 4 19H20C20.5523 19 21 19.4477 21 20C21 20.5523 20.5523 21 20 21H4C3.44772 21 3 20.5523 3 20Z" fill="black"/>
<path fill-rule="evenodd" clip-rule="evenodd" d="M3 8C3 7.44772 3.44772 7 4 7H20C20.5523 7 21 7.44772 21 8C21 8.55228 20.5523 9 20 9H4C3.44772 9 3 8.55228 3 8Z" fill="black"/>
<path fill-rule="evenodd" clip-rule="evenodd" d="M3 4C3 3.44772 3.44772 3 4 3H20C20.5523 3 21 3.44772 21 4C21 4.55228 20.5523 5 20 5H4C3.44772 5 3 4.55228 3 4Z" fill="black"/>
</svg>
