<svg width="24" height="24" viewBox="0 0 24 24" fill="none" xmlns="http://www.w3.org/2000/svg">
<path fill-rule="evenodd" clip-rule="evenodd" d="M19.6 3H8.4C7.07452 3 6 4.07452 6 5.4V16.6C6 17.9255 7.07452 19 8.4 19H19.6C20.9255 19 22 17.9255 22 16.6V5.4C22 4.07452 20.9255 3 19.6 3ZM10 10C9.44772 10 9 10.4477 9 11C9 11.5523 9.44772 12 10 12H18C18.5523 12 19 11.5523 19 11C19 10.4477 18.5523 10 18 10H10Z" fill="black"/>
<path d="M3 4C3.55228 4 4 4.44772 4 5V16.6C4 19.0277 5.97228 21 8.4 21H20C20.5523 21 21 21.4477 21 22C21 22.5523 20.5523 23 20 23H8.4C4.86772 23 2 20.1323 2 16.6V5C2 4.44772 2.44772 4 3 4Z" fill="black"/>
</svg>
