<svg width="24" height="24" viewBox="0 0 24 24" fill="none" xmlns="http://www.w3.org/2000/svg">
<path fill-rule="evenodd" clip-rule="evenodd" d="M11.8875 21.9799C11.963 22.0064 12.0371 22.0067 12.1128 21.9809C13.084 21.6495 20 19.0169 20 11.2524V4.30385C20 4.12 19.8751 3.95974 19.697 3.91515L12.097 2.01196C12.0333 1.99601 11.9667 1.99601 11.903 2.01196L4.30299 3.91515C4.12492 3.95974 4 4.12 4 4.30385V11.2524C4 18.9393 10.9176 21.6391 11.8875 21.9799ZM14.2221 11.9346L16.8737 9.78806C16.9369 9.6618 17 9.53552 17 9.40925C16.9369 9.28299 16.8106 9.15672 16.6843 9.15672H13.4014L12.3281 6.25253C12.2649 6.12627 12.1387 6 12.0124 6C11.8861 6 11.7598 6.12627 11.6967 6.25253L10.6866 9.15672H7.34044C7.21417 9.15672 7.0879 9.28299 7.02477 9.40925C6.96164 9.53552 7.02476 9.72493 7.15103 9.78806L9.73954 11.8715L8.9188 15.0282C8.85567 15.1545 8.91879 15.3439 9.04506 15.407C9.17133 15.4702 9.2976 15.4702 9.42387 15.407L12.0755 13.513L14.664 15.407C14.7272 15.4702 14.7903 15.4702 14.8534 15.4702C14.9166 15.4702 14.9797 15.4702 15.0428 15.407C15.1691 15.3439 15.2322 15.1545 15.1691 15.0282L14.2221 11.9346Z" fill="black"/>
</svg>
