<svg width="24" height="24" viewBox="0 0 24 24" fill="none" xmlns="http://www.w3.org/2000/svg">
<path fill-rule="evenodd" clip-rule="evenodd" d="M18.71 10H21.4C22.28 10 23 10.72 23 11.6V12.4C23 13.28 22.28 14 21.4 14H18.71C18.57 14.47 18.39 14.91 18.16 15.33L20.06 17.23C20.68 17.85 20.68 18.87 20.06 19.49L19.49 20.06C18.87 20.68 17.85 20.68 17.23 20.06L15.33 18.16C14.91 18.39 14.47 18.57 14 18.71V21.4C14 22.28 13.28 23 12.4 23H11.6C10.72 23 10 22.28 10 21.4V18.71C9.53 18.57 9.09 18.39 8.67 18.16L6.77 20.06C6.15 20.68 5.13 20.68 4.51 20.06L3.94 19.49C3.32 18.87 3.32 17.85 3.94 17.23L5.84 15.33C5.61 14.91 5.43 14.47 5.29 14H2.6C1.72 14 1 13.28 1 12.4V11.6C1 10.72 1.72 10 2.6 10H5.29C5.43 9.53 5.61 9.09 5.84 8.67L3.94 6.77C3.32 6.15 3.32 5.13 3.94 4.51L4.51 3.94C5.13 3.32 6.15 3.32 6.77 3.94L8.67 5.84C9.09 5.61 9.53 5.43 10 5.29V2.6C10 1.72 10.72 1 11.6 1H12.4C13.28 1 14 1.72 14 2.6V5.29C14.47 5.43 14.91 5.61 15.33 5.84L17.23 3.94C17.85 3.32 18.87 3.32 19.49 3.94L20.06 4.51C20.68 5.13 20.68 6.15 20.06 6.77L18.16 8.67C18.39 9.09 18.57 9.53 18.71 10ZM16 12C16 14.2091 14.2091 16 12 16C9.79086 16 8 14.2091 8 12C8 9.79086 9.79086 8 12 8C14.2091 8 16 9.79086 16 12Z" fill="black"/>
</svg>
