<svg width="24" height="24" viewBox="0 0 24 24" fill="none" xmlns="http://www.w3.org/2000/svg">
<path d="M6.70711 5.70711C7.09763 5.31658 7.09763 4.68342 6.70711 4.29289C6.31658 3.90237 5.68342 3.90237 5.29289 4.29289L1.29289 8.29289C0.902369 8.68342 0.902369 9.31658 1.29289 9.70711L5.29289 13.7071C5.68342 14.0976 6.31658 14.0976 6.70711 13.7071C7.09763 13.3166 7.09763 12.6834 6.70711 12.2929L4.41421 10H14C14.5523 10 15 9.55228 15 9C15 8.44772 14.5523 8 14 8H4.41421L6.70711 5.70711Z" fill="black"/>
<path d="M17.2929 10.2929C17.6834 9.90237 18.3166 9.90237 18.7071 10.2929L22.7071 14.2929C23.0976 14.6834 23.0976 15.3166 22.7071 15.7071L18.7071 19.7071C18.3166 20.0976 17.6834 20.0976 17.2929 19.7071C16.9024 19.3166 16.9024 18.6834 17.2929 18.2929L19.5858 16H10C9.44771 16 9 15.5523 9 15C9 14.4477 9.44771 14 10 14H19.5858L17.2929 11.7071C16.9024 11.3166 16.9024 10.6834 17.2929 10.2929Z" fill="black"/>
</svg>
