<svg width="24" height="24" viewBox="0 0 24 24" fill="none" xmlns="http://www.w3.org/2000/svg">
<path fill-rule="evenodd" clip-rule="evenodd" d="M18.51 9.49H20.38C21.26 9.49 21.98 10.21 21.98 11.09V12.89C21.98 13.77 21.26 14.49 20.38 14.49H18.51C18.4792 14.5824 18.4424 14.6689 18.4043 14.7586C18.393 14.7854 18.3815 14.8124 18.37 14.84L19.69 16.16C20.31 16.78 20.31 17.8 19.69 18.42L18.42 19.69C17.8 20.31 16.78 20.31 16.16 19.69L14.84 18.37C14.7762 18.399 14.709 18.4246 14.6404 18.4508C14.5908 18.4698 14.5404 18.489 14.49 18.51V20.38C14.49 21.26 13.77 21.98 12.89 21.98H11.09C10.21 21.98 9.49 21.26 9.49 20.38V18.51C9.39757 18.4792 9.31107 18.4424 9.22136 18.4043C9.19461 18.393 9.16757 18.3815 9.14 18.37L7.82 19.69C7.2 20.31 6.18 20.31 5.56 19.69L4.29 18.42C3.67 17.8 3.67 16.78 4.29 16.16L5.61 14.84C5.58099 14.7762 5.55535 14.709 5.52917 14.6404C5.51022 14.5908 5.49099 14.5404 5.47 14.49H3.6C2.72 14.49 2 13.77 2 12.89V11.09C2 10.21 2.72 9.49 3.6 9.49H5.47C5.50081 9.39756 5.53756 9.31106 5.57567 9.22134C5.58703 9.1946 5.59852 9.16756 5.61 9.14L4.29 7.82C3.67 7.2 3.67 6.18 4.29 5.56L5.56 4.29C6.18 3.67 7.2 3.67 7.82 4.29L9.14 5.61C9.20381 5.58099 9.27099 5.55535 9.33959 5.52917C9.38923 5.51022 9.43962 5.49099 9.49 5.47V3.6C9.49 2.72 10.21 2 11.09 2H12.89C13.77 2 14.49 2.72 14.49 3.6V5.47C14.5824 5.50081 14.6689 5.53756 14.7587 5.57567C14.7854 5.58703 14.8124 5.59852 14.84 5.61L16.16 4.29C16.78 3.67 17.8 3.67 18.42 4.29L19.69 5.56C20.31 6.18 20.31 7.2 19.69 7.82L18.37 9.14C18.399 9.20382 18.4246 9.271 18.4508 9.3396C18.4698 9.38924 18.489 9.43962 18.51 9.49ZM16 12C16 14.2091 14.2091 16 12 16C9.79086 16 8 14.2091 8 12C8 9.79086 9.79086 8 12 8C14.2091 8 16 9.79086 16 12Z" fill="black"/>
</svg>
