<svg width="24" height="24" viewBox="0 0 24 24" fill="none" xmlns="http://www.w3.org/2000/svg">
<path d="M4 5.4C4 4.6268 4.6268 4 5.4 4H11C11.5523 4 12 3.55228 12 3C12 2.44772 11.5523 2 11 2H5.4C3.52223 2 2 3.52223 2 5.4V18.6C2 20.4778 3.52223 22 5.4 22H11C11.5523 22 12 21.5523 12 21C12 20.4477 11.5523 20 11 20H5.4C4.6268 20 4 19.3732 4 18.6L4 5.4Z" fill="black"/>
<path d="M16.2929 7.29289C16.6834 6.90237 17.3166 6.90237 17.7071 7.29289L21.7071 11.2929C22.0976 11.6834 22.0976 12.3166 21.7071 12.7071L17.7071 16.7071C17.3166 17.0976 16.6834 17.0976 16.2929 16.7071C15.9024 16.3166 15.9024 15.6834 16.2929 15.2929L18.5858 13H7C6.44772 13 6 12.5523 6 12C6 11.4477 6.44772 11 7 11H18.5858L16.2929 8.70711C15.9024 8.31658 15.9024 7.68342 16.2929 7.29289Z" fill="black"/>
</svg>
