<svg width="24" height="24" viewBox="0 0 24 24" fill="none" xmlns="http://www.w3.org/2000/svg">
<path fill-rule="evenodd" clip-rule="evenodd" d="M11.8875 21.9799C11.963 22.0064 12.0371 22.0067 12.1128 21.9809C13.084 21.6495 20 19.0169 20 11.2524V4.30385C20 4.12 19.8751 3.95974 19.697 3.91515L12.097 2.01196C12.0333 1.99601 11.9667 1.99601 11.903 2.01196L4.30299 3.91515C4.12492 3.95974 4 4.12 4 4.30385V11.2524C4 18.9393 10.9176 21.6391 11.8875 21.9799ZM16.8137 8.58125C17.1347 8.13184 17.0307 7.50729 16.5812 7.18628C16.1318 6.86527 15.5073 6.96937 15.1863 7.41878L10.8724 13.4582L8.70711 11.2929C8.31658 10.9024 7.68342 10.9024 7.29289 11.2929C6.90237 11.6834 6.90237 12.3166 7.29289 12.7071L10.2929 15.7071C10.5007 15.915 10.7895 16.0209 11.0825 15.9966C11.3754 15.9724 11.6429 15.8205 11.8137 15.5813L16.8137 8.58125Z" fill="black"/>
</svg>
