<svg width="24" height="24" viewBox="0 0 24 24" fill="none" xmlns="http://www.w3.org/2000/svg">
<path d="M13.5999 2C13.0477 2 12.5999 2.44772 12.5999 3C12.5999 3.55228 13.0477 4 13.5999 4H18.6C19.3732 4 20 4.6268 20 5.4L20 18.6C20 19.3732 19.3732 20 18.6 20H13C12.4477 20 12 20.4477 12 21C12 21.5523 12.4477 22 13 22H18.6C20.4778 22 22 20.4778 22 18.6L22 5.4C22 3.52223 20.4778 2 18.6 2H13.5999Z" fill="black"/>
<path d="M12.2929 7.29289C12.6834 6.90237 13.3166 6.90237 13.7071 7.29289L17.7071 11.2929C18.0976 11.6834 18.0976 12.3166 17.7071 12.7071L13.7071 16.7071C13.3166 17.0976 12.6834 17.0976 12.2929 16.7071C11.9024 16.3166 11.9024 15.6834 12.2929 15.2929L14.5858 13H3C2.44772 13 2 12.5523 2 12C2 11.4477 2.44772 11 3 11H14.5858L12.2929 8.70711C11.9024 8.31658 11.9024 7.68342 12.2929 7.29289Z" fill="black"/>
</svg>
