<svg width="24" height="24" viewBox="0 0 24 24" fill="none" xmlns="http://www.w3.org/2000/svg">
<path fill-rule="evenodd" clip-rule="evenodd" d="M20 9C21.66 9 23 10.34 23 12C23 13.66 21.66 15 20 15H19.24L19.78 15.54C20.95 16.71 20.95 18.61 19.78 19.78C18.61 20.95 16.71 20.95 15.54 19.78L15 19.24V20C15 21.66 13.66 23 12 23C10.34 23 9 21.66 9 20V19.24L8.46 19.78C7.29 20.95 5.39 20.95 4.22 19.78C3.05 18.61 3.05 16.71 4.22 15.54L4.76 15H4C2.34 15 1 13.66 1 12C1 10.34 2.34 9 4 9H4.76L4.22 8.46C3.05 7.29 3.05 5.39 4.22 4.22C5.39 3.05 7.29 3.05 8.46 4.22L9 4.76V4C9 2.34 10.34 1 12 1C13.66 1 15 2.34 15 4V4.76L15.54 4.22C16.71 3.05 18.61 3.05 19.78 4.22C20.95 5.39 20.95 7.29 19.78 8.46L19.24 9H20ZM16 12C16 14.2091 14.2091 16 12 16C9.79086 16 8 14.2091 8 12C8 9.79086 9.79086 8 12 8C14.2091 8 16 9.79086 16 12Z" fill="black"/>
</svg>
