<svg width="24" height="24" viewBox="0 0 24 24" fill="none" xmlns="http://www.w3.org/2000/svg">
<path d="M12.9539 1.69955C12.8227 1.28328 12.4368 1.00012 12.0004 1C11.5639 0.999876 11.1778 1.28281 11.0464 1.69901L8.86246 8.61859L2.0007 8.61429C1.56216 8.61401 1.17461 8.8995 1.04485 9.3184C0.915094 9.73731 1.07341 10.1919 1.43532 10.4395L6.9326 14.2015L4.86555 20.7465C4.73593 21.1569 4.88345 21.6042 5.23179 21.857C5.58013 22.1098 6.05114 22.1113 6.40113 21.8608L11.9999 17.8537L17.594 21.8606C17.9439 22.1112 18.415 22.1098 18.7634 21.8571C19.1119 21.6043 19.2595 21.1569 19.1298 20.7465L17.0629 14.2018L22.5645 10.4398C22.9266 10.1922 23.0851 9.73757 22.9554 9.31857C22.8257 8.89958 22.4381 8.61401 21.9994 8.61429L15.1334 8.61859L12.9539 1.69955Z" fill="black"/>
</svg>
