<svg width="24" height="24" viewBox="0 0 24 24" fill="none" xmlns="http://www.w3.org/2000/svg">
<path d="M12.0247 2C11.5699 2 11.2201 2.21922 11.0109 2.39857C10.7903 2.58765 10.6162 2.82334 10.4989 3.05785C10.4797 3.0963 10.463 3.13595 10.4489 3.17655L8.66212 8.31344H2.68082C2.22597 8.31344 1.87626 8.53266 1.66702 8.71201C1.44642 8.90109 1.27231 9.13678 1.15505 9.37129C0.94648 9.78844 0.974884 10.2305 1.08499 10.5609C1.18408 10.8582 1.39044 11.1883 1.73489 11.4034L6.34858 15.1168L4.88864 20.732C4.74087 21.1116 4.7737 21.5007 4.87305 21.7988C4.98315 22.1291 5.22565 22.4999 5.64284 22.7085C6.17691 22.9755 6.76083 22.9755 7.29489 22.7085C7.3416 22.6851 7.38642 22.6581 7.42891 22.6278L12.1439 19.2599L16.6917 22.5876C17.0959 22.9428 17.5391 22.941 17.6907 22.9404L17.7068 22.9403L17.7229 22.9404C17.8687 22.941 18.2841 22.9427 18.6751 22.627C19.0061 22.4118 19.2057 22.0897 19.3026 21.7988C19.4042 21.4941 19.4363 21.0942 19.2768 20.7065L17.5979 15.2219L22.3766 11.3534C22.4876 11.2636 22.578 11.151 22.6418 11.0233L22.6635 10.9805C22.773 10.7647 22.9999 10.3172 22.9999 9.81851C22.9999 9.66326 22.9638 9.51015 22.8944 9.37129C22.7771 9.13678 22.603 8.90109 22.3824 8.71201C22.1732 8.53266 21.8234 8.31344 21.3686 8.31344H15.4992L13.594 3.15842C13.5814 3.12412 13.5668 3.09055 13.5505 3.05785C13.4332 2.82334 13.2591 2.58765 13.0385 2.39857C12.8293 2.21922 12.4796 2 12.0247 2Z" fill="black"/>
</svg>
