<svg width="24" height="24" viewBox="0 0 24 24" fill="none" xmlns="http://www.w3.org/2000/svg">
<path fill-rule="evenodd" clip-rule="evenodd" d="M11.8875 21.9799C11.963 22.0064 12.0371 22.0067 12.1128 21.9809C13.084 21.6495 20 19.0169 20 11.2524V4.30385C20 4.12 19.8751 3.95974 19.697 3.91515L12.097 2.01196C12.0333 1.99601 11.9667 1.99601 11.903 2.01196L4.30299 3.91515C4.12492 3.95974 4 4.12 4 4.30385V11.2524C4 18.9393 10.9176 21.6391 11.8875 21.9799ZM15.5355 8.87868C15.9261 8.48815 15.9261 7.85499 15.5355 7.46446C15.145 7.07394 14.5118 7.07394 14.1213 7.46446L12 9.58578L9.87868 7.46446C9.48815 7.07394 8.85499 7.07394 8.46446 7.46446C8.07394 7.85499 8.07394 8.48815 8.46446 8.87868L10.5858 11L8.46446 13.1213C8.07394 13.5118 8.07394 14.145 8.46446 14.5355C8.85499 14.9261 9.48815 14.9261 9.87868 14.5355L12 12.4142L14.1213 14.5355C14.5118 14.9261 15.145 14.9261 15.5355 14.5355C15.9261 14.145 15.9261 13.5118 15.5355 13.1213L13.4142 11L15.5355 8.87868Z" fill="black"/>
</svg>
