<svg width="24" height="24" viewBox="0 0 24 24" fill="none" xmlns="http://www.w3.org/2000/svg">
<path d="M13.0002 2C13.0002 1.44772 12.5524 1 12.0002 1C11.4479 1 11.0002 1.44772 11.0002 2V6.16673C11.0002 6.71902 11.4479 7.16673 12.0002 7.16673C12.5524 7.16673 13.0002 6.71902 13.0002 6.16673V2Z" fill="black"/>
<path d="M13.0002 17.8333C13.0002 17.281 12.5524 16.8333 12.0002 16.8333C11.4479 16.8333 11.0002 17.281 11.0002 17.8333V22C11.0002 22.5523 11.4479 23 12.0002 23C12.5524 23 13.0002 22.5523 13.0002 22V17.8333Z" fill="black"/>
<path d="M16.8337 12.0002C16.8337 11.448 17.2814 11.0002 17.8337 11.0002H22.0004C22.5527 11.0002 23.0004 11.448 23.0004 12.0002C23.0004 12.5525 22.5527 13.0002 22.0004 13.0002H17.8337C17.2814 13.0002 16.8337 12.5525 16.8337 12.0002Z" fill="black"/>
<path d="M2 11.0002C1.44772 11.0002 1 11.448 1 12.0002C1 12.5525 1.44772 13.0002 2 13.0002H6.16673C6.71902 13.0002 7.16673 12.5525 7.16673 12.0002C7.16673 11.448 6.71902 11.0002 6.16673 11.0002H2Z" fill="black"/>
<path d="M19.916 4.08464C20.3066 4.47517 20.3066 5.10833 19.916 5.49885L16.9993 8.41557C16.6088 8.80609 15.9756 8.80609 15.5851 8.41557C15.1946 8.02504 15.1946 7.39188 15.5851 7.00135L18.5018 4.08464C18.8924 3.69412 19.5255 3.69412 19.916 4.08464Z" fill="black"/>
<path d="M8.41531 16.9989C8.80584 16.6083 8.80584 15.9752 8.41531 15.5846C8.02479 15.1941 7.39162 15.1941 7.0011 15.5846L4.08439 18.5014C3.69386 18.8919 3.69386 19.525 4.08439 19.9156C4.47491 20.3061 5.10808 20.3061 5.4986 19.9156L8.41531 16.9989Z" fill="black"/>
<path d="M15.5851 15.5846C15.9756 15.1941 16.6088 15.1941 16.9993 15.5846L19.916 18.5014C20.3066 18.8919 20.3066 19.525 19.916 19.9156C19.5255 20.3061 18.8924 20.3061 18.5018 19.9156L15.5851 16.9989C15.1946 16.6083 15.1946 15.9752 15.5851 15.5846Z" fill="black"/>
<path d="M5.4986 4.08464C5.10808 3.69412 4.47491 3.69412 4.08439 4.08464C3.69386 4.47517 3.69386 5.10833 4.08439 5.49885L7.0011 8.41557C7.39162 8.80609 8.02479 8.80609 8.41531 8.41557C8.80584 8.02504 8.80584 7.39188 8.41531 7.00135L5.4986 4.08464Z" fill="black"/>
</svg>
