<svg width="24" height="24" viewBox="0 0 24 24" fill="none" xmlns="http://www.w3.org/2000/svg">
<path d="M14.2929 1.29289C14.6834 0.902369 15.3166 0.902369 15.7071 1.29289L19.7071 5.29289C20.0976 5.68342 20.0976 6.31658 19.7071 6.70711C19.3166 7.09763 18.6834 7.09763 18.2929 6.70711L16 4.41421V14C16 14.5523 15.5523 15 15 15C14.4477 15 14 14.5523 14 14V4.41421L11.7071 6.70711C11.3166 7.09763 10.6834 7.09763 10.2929 6.70711C9.90237 6.31658 9.90237 5.68342 10.2929 5.29289L14.2929 1.29289Z" fill="black"/>
<path d="M10 10C10 9.44771 9.55228 9 9 9C8.44772 9 8 9.44771 8 10V19.5858L5.70711 17.2929C5.31658 16.9024 4.68342 16.9024 4.29289 17.2929C3.90237 17.6834 3.90237 18.3166 4.29289 18.7071L8.29289 22.7071C8.68342 23.0976 9.31658 23.0976 9.70711 22.7071L13.7071 18.7071C14.0976 18.3166 14.0976 17.6834 13.7071 17.2929C13.3166 16.9024 12.6834 16.9024 12.2929 17.2929L10 19.5858V10Z" fill="black"/>
</svg>
