<svg width="24" height="24" viewBox="0 0 24 24" fill="none" xmlns="http://www.w3.org/2000/svg">
<path fill-rule="evenodd" clip-rule="evenodd" d="M11.8875 21.9799C11.963 22.0064 12.0371 22.0067 12.1128 21.9809C13.084 21.6495 20 19.0169 20 11.2524V4.30385C20 4.12 19.8751 3.95974 19.697 3.91515L12.097 2.01196C12.0333 1.99601 11.9667 1.99601 11.903 2.01196L4.30299 3.91515C4.12492 3.95974 4 4.12 4 4.30385V11.2524C4 18.9393 10.9176 21.6391 11.8875 21.9799ZM13.0083 7C13.0083 7.55228 12.5606 8 12.0083 8H12C11.4477 8 11 7.55229 11 7C11 6.44772 11.4477 6 12 6H12.0083C12.5606 6 13.0083 6.44772 13.0083 7ZM12.0083 16C11.456 16 11.0083 15.5523 11.0083 15L11.0083 10C11.0083 9.44772 11.456 9 12.0083 9C12.5606 9 13.0083 9.44772 13.0083 10L13.0083 15C13.0083 15.5523 12.5606 16 12.0083 16Z" fill="black"/>
</svg>
