<svg width="24" height="24" viewBox="0 0 24 24" fill="none" xmlns="http://www.w3.org/2000/svg">
<path fill-rule="evenodd" clip-rule="evenodd" d="M11.8875 21.9799C11.963 22.0064 12.0371 22.0067 12.1128 21.9809C13.084 21.6495 20 19.0169 20 11.2524V4.30385C20 4.12 19.8751 3.95974 19.697 3.91515L12.097 2.01196C12.0333 1.99601 11.9667 1.99601 11.903 2.01196L4.30299 3.91515C4.12492 3.95974 4 4.12 4 4.30385V11.2524C4 18.9393 10.9176 21.6391 11.8875 21.9799ZM12 7C12.5523 7 13 7.44772 13 8V10H15C15.5523 10 16 10.4477 16 11C16 11.5523 15.5523 12 15 12H13V14C13 14.5523 12.5523 15 12 15C11.4477 15 11 14.5523 11 14V12H9C8.44772 12 8 11.5523 8 11C8 10.4477 8.44772 10 9 10H11V8C11 7.44772 11.4477 7 12 7Z" fill="black"/>
</svg>
