<svg width="24" height="24" viewBox="0 0 24 24" fill="none" xmlns="http://www.w3.org/2000/svg">
<path fill-rule="evenodd" clip-rule="evenodd" d="M9 2C5.13401 2 2 5.13401 2 9C2 12.866 5.13401 16 9 16C10.5723 16 12.0236 15.4816 13.1922 14.6064L20.2929 21.7071C20.6834 22.0976 21.3166 22.0976 21.7071 21.7071C22.0976 21.3166 22.0976 20.6834 21.7071 20.2929L14.6064 13.1922C15.4816 12.0236 16 10.5723 16 9C16 5.13401 12.866 2 9 2ZM4 9C4 6.23858 6.23858 4 9 4C11.7614 4 14 6.23858 14 9C14 11.7614 11.7614 14 9 14C6.23858 14 4 11.7614 4 9Z" fill="black"/>
</svg>
