<svg width="24" height="24" viewBox="0 0 24 24" fill="none" xmlns="http://www.w3.org/2000/svg">
<path fill-rule="evenodd" clip-rule="evenodd" d="M18.71 10H21V9.98C22.1 9.98 23 10.88 23 11.98C23 13.08 22.1 13.98 21 13.98H18.71C18.64 14.21 18.56 14.44 18.47 14.66C18.37 14.88 18.27 15.1 18.16 15.31L19.78 16.93C20.56 17.71 20.56 18.98 19.78 19.76C19 20.54 17.73 20.54 16.95 19.76L15.33 18.14C15.12 18.26 14.9 18.36 14.68 18.45C14.46 18.54 14.23 18.62 14 18.69V20.98C14 22.08 13.1 22.98 12 22.98C10.9 22.98 10 22.08 10 20.98V18.69C9.77 18.62 9.54 18.54 9.32 18.45C9.1 18.35 8.88 18.25 8.67 18.14L7.05 19.76C6.27 20.54 5 20.54 4.22 19.76C3.44 18.98 3.44 17.71 4.22 16.93L5.84 15.31C5.72 15.1 5.62 14.88 5.53 14.66C5.44 14.44 5.36 14.21 5.29 13.98H3C1.9 13.98 1 13.08 1 11.98C1 10.88 1.9 9.98 3 9.98H5.33C5.4 9.75 5.48 9.52 5.57 9.3C5.66 9.08 5.76 8.87 5.87 8.66L4.25 7.04C3.47 6.26 3.47 4.99 4.25 4.21C5.03 3.43 6.3 3.43 7.08 4.21L8.7 5.83C8.91 5.72 9.12 5.62 9.34 5.53H9.35C9.57 5.44 9.79 5.36 10.02 5.29V3C10.02 1.9 10.92 1 12.02 1C13.12 1 14.02 1.9 14.02 3V5.31C14.25 5.38 14.47 5.46 14.69 5.55H14.7C14.92 5.64 15.13 5.74 15.34 5.85L16.96 4.23C17.74 3.45 19.01 3.45 19.79 4.23C20.57 5.01 20.57 6.28 19.79 7.06L18.17 8.68C18.28 8.89 18.38 9.1 18.47 9.32C18.56 9.54 18.64 9.77 18.71 10ZM16 12C16 14.2091 14.2091 16 12 16C9.79086 16 8 14.2091 8 12C8 9.79086 9.79086 8 12 8C14.2091 8 16 9.79086 16 12Z" fill="black"/>
</svg>
