<svg width="24" height="24" viewBox="0 0 24 24" fill="none" xmlns="http://www.w3.org/2000/svg">
<path d="M11 5.4C11 4.6268 11.6268 4 12.4 4H18.6C19.3732 4 20 4.6268 20 5.4V18.6C20 19.3732 19.3732 20 18.6 20H12.4C11.6268 20 11 19.3732 11 18.6V16C11 15.4477 10.5523 15 10 15C9.44772 15 9 15.4477 9 16V18.6C9 20.4778 10.5222 22 12.4 22H18.6C20.4778 22 22 20.4778 22 18.6V5.4C22 3.52223 20.4778 2 18.6 2H12.4C10.5222 2 9 3.52223 9 5.4V8C9 8.55229 9.44772 9 10 9C10.5523 9 11 8.55229 11 8V5.4Z" fill="black"/>
<path d="M13.2929 8.29289C13.6834 7.90237 14.3166 7.90237 14.7071 8.29289L17.7071 11.2929C18.0976 11.6834 18.0976 12.3166 17.7071 12.7071L14.7071 15.7071C14.3166 16.0976 13.6834 16.0976 13.2929 15.7071C12.9024 15.3166 12.9024 14.6834 13.2929 14.2929L14.5858 13H3C2.44772 13 2 12.5523 2 12C2 11.4477 2.44772 11 3 11H14.5858L13.2929 9.70711C12.9024 9.31658 12.9024 8.68342 13.2929 8.29289Z" fill="black"/>
</svg>
