<svg width="24" height="24" viewBox="0 0 24 24" fill="none" xmlns="http://www.w3.org/2000/svg">
<path d="M5 21L9.84 3.59C9.94 3.24 10.25 3 10.61 3H13.39C13.75 3 14.06 3.24 14.16 3.59L19 21" fill="black"/>
<path d="M5 21L9.84 3.59C9.94 3.24 10.25 3 10.61 3H13.39C13.75 3 14.06 3.24 14.16 3.59L19 21" stroke="black" stroke-width="1.5" stroke-miterlimit="10" stroke-linecap="round"/>
<path d="M15.64 9.67C14.46 9.89 13.24 10 12 10C10.68 10 9.40002 9.87 8.15002 9.63" stroke="white" stroke-width="1.5" stroke-miterlimit="10" stroke-linecap="round"/>
<path d="M17.24 15.47C15.55 15.82 13.8 16 12 16C10.2 16 8.37001 15.81 6.64001 15.45" stroke="white" stroke-width="1.5" stroke-miterlimit="10" stroke-linecap="round"/>
<path d="M2 21H22" stroke="black" stroke-width="1.5" stroke-miterlimit="10" stroke-linecap="round"/>
</svg>
