<svg width="24" height="24" viewBox="0 0 24 24" fill="none" xmlns="http://www.w3.org/2000/svg">
<path d="M4.70711 5.29289C4.31658 4.90237 3.68342 4.90237 3.29289 5.29289C2.90237 5.68342 2.90237 6.31658 3.29289 6.70711L8.58579 12L3.29289 17.2929C2.90237 17.6834 2.90237 18.3166 3.29289 18.7071C3.68342 19.0976 4.31658 19.0976 4.70711 18.7071L10.7071 12.7071C11.0976 12.3166 11.0976 11.6834 10.7071 11.2929L4.70711 5.29289Z" fill="black"/>
<path d="M12 17C11.4477 17 11 17.4477 11 18C11 18.5523 11.4477 19 12 19H20C20.5523 19 21 18.5523 21 18C21 17.4477 20.5523 17 20 17H12Z" fill="black"/>
</svg>
