<svg width="24" height="24" viewBox="0 0 24 24" fill="none" xmlns="http://www.w3.org/2000/svg">
<path d="M22 20H18.722L17.7084 16.3539C17.6268 16.397 17.5378 16.4296 17.4428 16.4492C15.6849 16.8133 13.867 17 12 17C10.1316 17 8.23333 16.803 6.43629 16.429C6.3833 16.418 6.33218 16.403 6.28316 16.3843L5.278 20H2C1.44772 20 1 20.4477 1 21C1 21.5523 1.44772 22 2 22H22C22.5523 22 23 21.5523 23 21C23 20.4477 22.5523 20 22 20Z" fill="black"/>
<path d="M6.81654 14.4657C6.8256 14.4673 6.83467 14.4691 6.84374 14.471C8.5067 14.817 10.2684 15 12 15C13.7331 15 15.4151 14.8267 17.0372 14.4908C17.0867 14.4805 17.1361 14.4741 17.185 14.4714L16.0975 10.5595C16.0132 10.6028 15.9213 10.6348 15.8233 10.6531C14.5804 10.8848 13.299 11 12 11C10.6137 11 9.27053 10.8634 7.96147 10.6121C7.93804 10.6076 7.91496 10.6023 7.89225 10.5963L6.81654 14.4657Z" fill="black"/>
<path d="M8.42911 8.66511C9.59118 8.88277 10.7781 9.00001 12 9.00001C13.1811 9.00001 14.3396 8.89522 15.4567 8.68695C15.4956 8.6797 15.5344 8.67481 15.5728 8.67217L14.16 3.59C14.06 3.24 13.75 3 13.39 3H10.61C10.25 3 9.94 3.24 9.84 3.59L8.42911 8.66511Z" fill="black"/>
</svg>
