<svg width="24" height="24" viewBox="0 0 24 24" fill="none" xmlns="http://www.w3.org/2000/svg">
<path fill-rule="evenodd" clip-rule="evenodd" d="M3.4 4H20.6C21.9255 4 23 5.07452 23 6.4V17.6C23 18.9255 21.9255 20 20.6 20H3.4C2.07452 20 1 18.9255 1 17.6V6.4C1 5.07452 2.07452 4 3.4 4ZM4.29289 7.29289C4.68342 6.90237 5.31658 6.90237 5.70711 7.29289L9.70711 11.2929C10.0976 11.6834 10.0976 12.3166 9.70711 12.7071L5.70711 16.7071C5.31658 17.0976 4.68342 17.0976 4.29289 16.7071C3.90237 16.3166 3.90237 15.6834 4.29289 15.2929L7.58579 12L4.29289 8.70711C3.90237 8.31658 3.90237 7.68342 4.29289 7.29289ZM10 16C10 15.4477 10.4477 15 11 15H19C19.5523 15 20 15.4477 20 16C20 16.5523 19.5523 17 19 17H11C10.4477 17 10 16.5523 10 16Z" fill="black"/>
</svg>
