<svg width="24" height="24" viewBox="0 0 24 24" fill="none" xmlns="http://www.w3.org/2000/svg">
<path d="M6.25003 7C6.25003 3.83579 8.83582 1.25 12 1.25C15.1642 1.25 17.75 3.83579 17.75 7V8.5C17.75 11.6642 15.1642 14.25 12 14.25C8.83582 14.25 6.25003 11.6642 6.25003 8.5V7Z" fill="black"/>
<path d="M18.944 12.9374C18.4234 12.753 17.8519 13.0255 17.6675 13.5461C17.483 14.0667 17.7555 14.6382 18.2761 14.8226C19.1007 15.1148 19.734 15.4247 20.1862 15.7354C20.6442 16.0502 20.8557 16.3237 20.9398 16.5214C20.9516 16.5491 20.9646 16.5762 20.9787 16.6026C20.98 16.6436 20.98 16.6886 20.98 16.75V20.4C20.98 20.7277 20.7078 21 20.38 21H3.60005C3.27233 21 3.00005 20.7277 3.00005 20.4V16.75C3.00005 16.6829 3.00018 16.6473 3.00125 16.6181L3.00191 16.6038C3.0045 16.5979 3.00852 16.5892 3.01447 16.5772C3.02282 16.5605 3.0307 16.5436 3.03811 16.5265C3.12716 16.3202 3.34075 16.0481 3.79598 15.7366C4.24755 15.4276 4.87974 15.1194 5.70876 14.8209C6.2284 14.6339 6.498 14.061 6.31093 13.5413C6.12386 13.0217 5.55096 12.7521 5.03133 12.9391C4.11035 13.2707 3.30754 13.6474 2.66661 14.086C2.03742 14.5165 1.50654 15.0462 1.21316 15.708C1.12385 15.8913 1.0603 16.074 1.0276 16.2783C0.99963 16.4531 0.99987 16.6208 1.00002 16.7282L1.00005 20.4C1.00005 21.8323 2.16776 23 3.60005 23H20.4C20.4061 23 20.4122 23 20.4183 22.9999C20.4232 22.9998 20.4281 22.9997 20.433 22.9995C21.841 22.9711 22.98 21.8146 22.98 20.4L22.9801 16.7315C22.9802 16.6244 22.9803 16.4392 22.9559 16.2599C22.9381 16.1297 22.8926 15.867 22.7236 15.6138C22.4265 14.9989 21.916 14.4975 21.3189 14.0871C20.6761 13.6454 19.8694 13.2653 18.944 12.9374Z" fill="black"/>
</svg>
