<svg width="24" height="24" viewBox="0 0 24 24" fill="none" xmlns="http://www.w3.org/2000/svg">
<path d="M7.25 7C7.25 4.37665 9.37665 2.25 12 2.25C14.6234 2.25 16.75 4.37665 16.75 7C16.75 9.62335 14.6234 11.75 12 11.75C9.37665 11.75 7.25 9.62335 7.25 7Z" fill="black"/>
<path d="M5 16.4C5 15.6268 5.6268 15 6.4 15H17.6C18.3732 15 19 15.6268 19 16.4V21C19 21.5523 19.4477 22 20 22C20.5523 22 21 21.5523 21 21V16.4C21 14.5222 19.4778 13 17.6 13H6.4C4.52223 13 3 14.5222 3 16.4V21C3 21.5523 3.44772 22 4 22C4.55228 22 5 21.5523 5 21V16.4Z" fill="black"/>
</svg>
