<svg width="24" height="24" viewBox="0 0 24 24" fill="none" xmlns="http://www.w3.org/2000/svg">
<path d="M7.25 6C7.25 3.37665 9.37665 1.25 12 1.25C14.6234 1.25 16.75 3.37665 16.75 6V7C16.75 9.62335 14.6234 11.75 12 11.75C9.37665 11.75 7.25 9.62335 7.25 7V6Z" fill="black"/>
<path d="M11.1 13C6.08596 13 2 17.0178 2 22C2 22.5523 2.44772 23 3 23C3.55228 23 4 22.5523 4 22C4 18.1457 7.16703 15 11.1 15H12.9C16.833 15 20 18.1457 20 22C20 22.5523 20.4477 23 21 23C21.5523 23 22 22.5523 22 22C22 17.0178 17.914 13 12.9 13H11.1Z" fill="black"/>
</svg>
