<svg width="24" height="24" viewBox="0 0 24 24" fill="none" xmlns="http://www.w3.org/2000/svg">
<path d="M6.24982 7C6.24982 3.82436 8.82418 1.25 11.9998 1.25C15.1755 1.25 17.7498 3.82436 17.7498 7C17.7498 10.1756 15.1755 12.75 11.9998 12.75C8.82418 12.75 6.24982 10.1756 6.24982 7Z" fill="black"/>
<path d="M11.7973 14.2613C11.8402 14.2538 11.8837 14.25 11.9273 14.25H12.0714C12.115 14.25 12.1593 14.2538 12.2022 14.2613L19.4968 15.5443C19.5097 15.5465 19.5225 15.5491 19.5353 15.5521C20.8784 15.8616 22.3223 16.7151 22.6034 18.3715C22.6051 18.3812 22.6065 18.3909 22.6078 18.4006L22.7215 19.2782L22.7217 19.2799C22.9862 21.2888 21.3928 22.75 19.5119 22.75C19.4698 22.75 19.4282 22.7465 19.3876 22.7397H4.48766C2.60643 22.7397 1.0127 21.2779 1.27802 19.2683L1.39195 18.3995C1.39327 18.3894 1.3948 18.3794 1.39652 18.3694C1.67752 16.742 3.13227 15.8412 4.47363 15.55C4.48331 15.5479 4.49304 15.546 4.50281 15.5443L11.7973 14.2613Z" fill="black"/>
</svg>
