<svg width="24" height="24" viewBox="0 0 24 24" fill="none" xmlns="http://www.w3.org/2000/svg">
<path d="M19 12C19 11.4477 19.4477 11 20 11H20.01C20.5623 11 21.01 11.4477 21.01 12C21.01 12.5523 20.5623 13 20.01 13H20C19.4477 13 19 12.5523 19 12Z" fill="black"/>
<path fill-rule="evenodd" clip-rule="evenodd" d="M18.6 4H3.4C2.07452 4 1 5.07452 1 6.4V17.6C1 18.9255 2.07452 20 3.4 20H18.6C19.9255 20 21 18.9255 21 17.6V16H21.4C22.8359 16 24 14.8359 24 13.4V10.6C24 9.16406 22.8359 8 21.4 8H21V6.4C21 5.07452 19.9255 4 18.6 4ZM16.6 10C16.2686 10 16 10.2686 16 10.6V13.4C16 13.7314 16.2686 14 16.6 14H21.4C21.7314 14 22 13.7314 22 13.4V10.6C22 10.2686 21.7314 10 21.4 10H16.6Z" fill="black"/>
</svg>
