<svg width="24" height="24" viewBox="0 0 24 24" fill="none" xmlns="http://www.w3.org/2000/svg">
<g clip-path="url(#clip0_500_1882)">
<path d="M17.6 4L5 4C4.44772 4 4 3.55229 4 3C4 2.44772 4.44772 2 5 2H17.6C21.1323 2 24 4.86771 24 8.4L24 17C24 17.5523 23.5523 18 23 18C22.4477 18 22 17.5523 22 17L22 8.4C22 5.97228 20.0277 4 17.6 4Z" fill="black"/>
<path fill-rule="evenodd" clip-rule="evenodd" d="M17.6 6H4.4C3.07452 6 2 7.16406 2 8.6V18.4C2 19.8359 3.07452 21 4.4 21H17.6C18.9255 21 20 19.8359 20 18.4V8.6C20 7.16406 18.9255 6 17.6 6ZM17 13.5C17 14.3284 16.3284 15 15.5 15C14.6716 15 14 14.3284 14 13.5C14 12.6716 14.6716 12 15.5 12C16.3284 12 17 12.6716 17 13.5Z" fill="black"/>
</g>
<defs>
<clipPath id="clip0_500_1882">
<rect width="24" height="24" fill="white"/>
</clipPath>
</defs>
</svg>
