<svg width="24" height="24" viewBox="0 0 24 24" fill="none" xmlns="http://www.w3.org/2000/svg">
<path d="M15.995 13C15.4455 13 15 13.4477 15 14C15 14.5523 15.4455 15 15.995 15H16.005C16.5545 15 17 14.5523 17 14C17 13.4477 16.5545 13 16.005 13H15.995Z" fill="black"/>
<path fill-rule="evenodd" clip-rule="evenodd" d="M16.4484 2H16.49C18.3809 2 20 3.45774 20 5.38V6.30262C21.1776 6.83802 22 8.02626 22 9.4V18.6C22 20.4723 20.4723 22 18.6 22H5.4C3.52772 22 2 20.4723 2 18.6V5.5C2 4.13333 3.0926 3.02529 4.45325 3.00043L16.4484 2ZM18 5.38V6H4.5C4.22228 6 4 5.77772 4 5.5C4 5.22228 4.22228 5 4.5 5H4.54163L16.527 4.00038C17.3962 4.01847 18 4.67227 18 5.38ZM21 11H14.7143C13.7675 11 13 11.7163 13 12.6V15.4C13 16.2837 13.7675 17 14.7143 17H21V11Z" fill="black"/>
</svg>
