<svg width="24" height="24" viewBox="0 0 24 24" fill="none" xmlns="http://www.w3.org/2000/svg">
<path d="M4.2 7H18.6C19.92 7 21 8.08 21 9.4V18.6C21 19.92 19.92 21 18.6 21H5.4C4.08 21 3 19.92 3 18.6V8.2C3 7.54 3.54 7 4.2 7Z" fill="black" stroke="black" stroke-width="1.5" stroke-miterlimit="10"/>
<path d="M3 8.5V5.5" stroke="black" stroke-width="1.5" stroke-miterlimit="10" stroke-linecap="round"/>
<path d="M16.49 3L4.5 4C3.67 4 3 4.67 3 5.5C3 6.33 3.67 7 4.5 7H19V5.38C19 4.06 17.88 3 16.49 3Z" stroke="black" stroke-width="1.5" stroke-miterlimit="10"/>
<path d="M21 11H14.7143C13.7675 11 13 11.7163 13 12.6V15.4C13 16.2837 13.7675 17 14.7143 17H21" stroke="white" stroke-width="1.5" stroke-miterlimit="10" stroke-linecap="round"/>
<path d="M16 14H16.01" stroke="white" stroke-width="1.5" stroke-linecap="round" stroke-linejoin="round"/>
</svg>
