<svg width="24" height="24" viewBox="0 0 24 24" fill="none" xmlns="http://www.w3.org/2000/svg">
<path fill-rule="evenodd" clip-rule="evenodd" d="M22.54 6.42C22.2875 5.4675 21.5413 4.7175 20.595 4.4625C18.88 4 12 4 12 4C12 4 5.12 4 3.405 4.4625C2.45875 4.7175 1.7125 5.4675 1.46 6.42C1 8.1475 1 11.75 1 11.75C1 11.75 1 15.3525 1.46 17.08C1.7125 18.0325 2.45875 18.7825 3.405 19.0375C5.12125 19.5 12 19.5 12 19.5C12 19.5 18.88 19.5 20.595 19.0375C21.5413 18.7825 22.2875 18.0325 22.54 17.08C23 15.3538 23 11.75 23 11.75C23 11.75 23 8.1475 22.54 6.42ZM9.75 8.47876V15.0213L15.5 11.75L9.75 8.47876Z" fill="black"/>
</svg>
