<svg width="24" height="24" viewBox="0 0 24 24" fill="none" xmlns="http://www.w3.org/2000/svg">
<path d="M8.4 3H4.6C3.71634 3 3 3.71634 3 4.6V8.4C3 9.28366 3.71634 10 4.6 10H8.4C9.28366 10 10 9.28366 10 8.4V4.6C10 3.71634 9.28366 3 8.4 3Z" stroke="black" stroke-miterlimit="10"/>
<path d="M19.4 3H15.6C14.7163 3 14 3.71634 14 4.6V8.4C14 9.28366 14.7163 10 15.6 10H19.4C20.2837 10 21 9.28366 21 8.4V4.6C21 3.71634 20.2837 3 19.4 3Z" stroke="black" stroke-miterlimit="10"/>
<path d="M8.4 14H4.6C3.71634 14 3 14.7163 3 15.6V19.4C3 20.2837 3.71634 21 4.6 21H8.4C9.28366 21 10 20.2837 10 19.4V15.6C10 14.7163 9.28366 14 8.4 14Z" stroke="black" stroke-miterlimit="10"/>
<path d="M19.4 14H15.6C14.7163 14 14 14.7163 14 15.6V19.4C14 20.2837 14.7163 21 15.6 21H19.4C20.2837 21 21 20.2837 21 19.4V15.6C21 14.7163 20.2837 14 19.4 14Z" stroke="black" stroke-miterlimit="10"/>
</svg>
