<svg width="24" height="24" viewBox="0 0 24 24" fill="none" xmlns="http://www.w3.org/2000/svg">
<path d="M12.4667 11H11.5333C11.2388 11 11 11.2388 11 11.5333V12.4667C11 12.7612 11.2388 13 11.5333 13H12.4667C12.7612 13 13 12.7612 13 12.4667V11.5333C13 11.2388 12.7612 11 12.4667 11Z" stroke="black" stroke-miterlimit="10"/>
<path d="M12.4667 18H11.5333C11.2388 18 11 18.2388 11 18.5333V19.4667C11 19.7612 11.2388 20 11.5333 20H12.4667C12.7612 20 13 19.7612 13 19.4667V18.5333C13 18.2388 12.7612 18 12.4667 18Z" stroke="black" stroke-miterlimit="10"/>
<path d="M12.4667 4H11.5333C11.2388 4 11 4.23878 11 4.53333V5.46667C11 5.76122 11.2388 6 11.5333 6H12.4667C12.7612 6 13 5.76122 13 5.46667V4.53333C13 4.23878 12.7612 4 12.4667 4Z" stroke="black" stroke-miterlimit="10"/>
</svg>
