<svg width="24" height="24" viewBox="0 0 24 24" fill="none" xmlns="http://www.w3.org/2000/svg">
<path d="M12 13C12.5523 13 13 12.5523 13 12C13 11.4477 12.5523 11 12 11C11.4477 11 11 11.4477 11 12C11 12.5523 11.4477 13 12 13Z" stroke="black" stroke-miterlimit="10"/>
<path d="M12 17C12.5523 17 13 16.5523 13 16C13 15.4477 12.5523 15 12 15C11.4477 15 11 15.4477 11 16C11 16.5523 11.4477 17 12 17Z" stroke="black" stroke-miterlimit="10"/>
<path d="M12 9C12.5523 9 13 8.55228 13 8C13 7.44772 12.5523 7 12 7C11.4477 7 11 7.44772 11 8C11 8.55228 11.4477 9 12 9Z" stroke="black" stroke-miterlimit="10"/>
<path d="M18.6 3H5.4C4.07452 3 3 4.07452 3 5.4V18.6C3 19.9255 4.07452 21 5.4 21H18.6C19.9255 21 21 19.9255 21 18.6V5.4C21 4.07452 19.9255 3 18.6 3Z" stroke="black" stroke-miterlimit="10"/>
</svg>
