<svg width="24" height="24" viewBox="0 0 24 24" fill="none" xmlns="http://www.w3.org/2000/svg">
<path d="M17.4 10H15.6C14.7163 10 14 10.7163 14 11.6V16.4C14 17.2837 14.7163 18 15.6 18H17.4C18.2837 18 19 17.2837 19 16.4V11.6C19 10.7163 18.2837 10 17.4 10Z" stroke="black" stroke-width="1.5" stroke-miterlimit="10"/>
<path d="M8.4 2H6.6C5.71634 2 5 2.71634 5 3.6V16.4C5 17.2837 5.71634 18 6.6 18H8.4C9.28366 18 10 17.2837 10 16.4V3.6C10 2.71634 9.28366 2 8.4 2Z" stroke="black" stroke-width="1.5" stroke-miterlimit="10"/>
<path d="M2 22H22" stroke="black" stroke-width="1.5" stroke-miterlimit="10" stroke-linecap="round"/>
</svg>
