<svg width="24" height="24" viewBox="0 0 24 24" fill="none" xmlns="http://www.w3.org/2000/svg">
<path d="M17.4 8H15.6C14.7163 8 14 8.71634 14 9.6V14.4C14 15.2837 14.7163 16 15.6 16H17.4C18.2837 16 19 15.2837 19 14.4V9.6C19 8.71634 18.2837 8 17.4 8Z" stroke="black" stroke-width="1.5" stroke-miterlimit="10"/>
<path d="M8.4 4H6.6C5.71634 4 5 4.71634 5 5.6V18.4C5 19.2837 5.71634 20 6.6 20H8.4C9.28366 20 10 19.2837 10 18.4V5.6C10 4.71634 9.28366 4 8.4 4Z" stroke="black" stroke-width="1.5" stroke-miterlimit="10"/>
<path d="M2 12H5" stroke="black" stroke-width="1.5" stroke-miterlimit="10" stroke-linecap="round"/>
<path d="M19 12H22" stroke="black" stroke-width="1.5" stroke-miterlimit="10" stroke-linecap="round"/>
<path d="M10 12H14" stroke="black" stroke-width="1.5" stroke-miterlimit="10" stroke-linecap="round"/>
</svg>
