<svg width="24" height="24" viewBox="0 0 24 24" fill="none" xmlns="http://www.w3.org/2000/svg">
<path d="M18 17.4V15.6C18 14.7163 17.2837 14 16.4 14L11.6 14C10.7163 14 10 14.7163 10 15.6L10 17.4C10 18.2837 10.7163 19 11.6 19H16.4C17.2837 19 18 18.2837 18 17.4Z" stroke="black" stroke-width="1.5" stroke-miterlimit="10"/>
<path d="M18 8.4V6.6C18 5.71634 17.2837 5 16.4 5L3.6 5C2.71634 5 2 5.71634 2 6.6L2 8.4C2 9.28366 2.71634 10 3.6 10L16.4 10C17.2837 10 18 9.28366 18 8.4Z" stroke="black" stroke-width="1.5" stroke-miterlimit="10"/>
<path d="M22 2L22 22" stroke="black" stroke-width="1.5" stroke-miterlimit="10" stroke-linecap="round"/>
</svg>
