<svg width="24" height="24" viewBox="0 0 24 24" fill="none" xmlns="http://www.w3.org/2000/svg">
<path d="M19.7636 8.81868C19.6476 8.90869 17.5994 10.0628 17.5994 12.6291C17.5994 15.5974 20.2056 16.6475 20.2836 16.6735C20.2716 16.7375 19.8696 18.1116 18.9095 19.5118C18.0534 20.7439 17.1593 21.974 15.7992 21.974C14.439 21.974 14.089 21.1839 12.5189 21.1839C10.9887 21.1839 10.4446 22 9.20052 22C7.9564 22 7.08831 20.8599 6.09021 19.4597C4.93409 17.8156 4 15.2613 4 12.8371C4 8.94869 6.52825 6.88649 9.0165 6.88649C10.3386 6.88649 11.4407 7.75458 12.2708 7.75458C13.0609 7.75458 14.293 6.83448 15.7972 6.83448C16.3672 6.83448 18.4154 6.88649 19.7636 8.81868ZM15.0831 5.18832C15.7052 4.45024 16.1452 3.42614 16.1452 2.40204C16.1452 2.26003 16.1332 2.11601 16.1072 2C15.0951 2.038 13.891 2.67407 13.1649 3.51615C12.5949 4.16422 12.0628 5.18832 12.0628 6.22642C12.0628 6.38244 12.0888 6.53845 12.1008 6.58846C12.1648 6.60046 12.2688 6.61446 12.3728 6.61446C13.2809 6.61446 14.423 6.0064 15.0831 5.18832Z" stroke="black" stroke-width="1.5" stroke-miterlimit="10" stroke-linejoin="round"/>
</svg>
