<svg width="24" height="24" viewBox="0 0 24 24" fill="none" xmlns="http://www.w3.org/2000/svg">
<path d="M14 17.4V15.6C14 14.7163 13.2837 14 12.4 14L7.6 14C6.71634 14 6 14.7163 6 15.6L6 17.4C6 18.2837 6.71634 19 7.6 19H12.4C13.2837 19 14 18.2837 14 17.4Z" stroke="black" stroke-width="1.5" stroke-miterlimit="10"/>
<path d="M22 8.4V6.6C22 5.71634 21.2837 5 20.4 5L7.6 5C6.71634 5 6 5.71634 6 6.6L6 8.4C6 9.28366 6.71634 10 7.6 10L20.4 10C21.2837 10 22 9.28366 22 8.4Z" stroke="black" stroke-width="1.5" stroke-miterlimit="10"/>
<path d="M2 2L2 22" stroke="black" stroke-width="1.5" stroke-miterlimit="10" stroke-linecap="round"/>
</svg>
