<svg width="24" height="24" viewBox="0 0 24 24" fill="none" xmlns="http://www.w3.org/2000/svg">
<path d="M17.4 6H15.6C14.7163 6 14 6.71634 14 7.6V12.4C14 13.2837 14.7163 14 15.6 14H17.4C18.2837 14 19 13.2837 19 12.4V7.6C19 6.71634 18.2837 6 17.4 6Z" stroke="black" stroke-width="1.5" stroke-miterlimit="10"/>
<path d="M8.4 6H6.6C5.71634 6 5 6.71634 5 7.6V20.4C5 21.2837 5.71634 22 6.6 22H8.4C9.28366 22 10 21.2837 10 20.4V7.6C10 6.71634 9.28366 6 8.4 6Z" stroke="black" stroke-width="1.5" stroke-miterlimit="10"/>
<path d="M2 2H22" stroke="black" stroke-width="1.5" stroke-miterlimit="10" stroke-linecap="round"/>
</svg>
