<svg width="24" height="24" viewBox="0 0 24 24" fill="none" xmlns="http://www.w3.org/2000/svg">
<path fill-rule="evenodd" clip-rule="evenodd" d="M12 17.0249C11.8584 17.0249 11.6587 17.097 11.4122 17.2325C11.1677 17.3669 10.8842 17.5597 10.5771 17.7922C9.96318 18.2571 9.25956 18.8776 8.59369 19.4991C7.92802 20.1204 7.30094 20.7418 6.84022 21.2079C6.60988 21.441 6.42117 21.6352 6.29005 21.7711C6.2245 21.839 6.17335 21.8924 6.13859 21.9288L6.09902 21.9703L6.08638 21.9836L6.08559 21.9845C6.07161 21.9992 6.05004 22.004 6.0312 21.9965C6.01236 21.9889 6 21.9706 6 21.9502V4.43781C6 3.08695 7.08336 2 8.42975 2H15.5702C16.9166 2 18 3.08695 18 4.43781V21.9502C18 21.9706 17.9876 21.9889 17.9688 21.9965C17.95 22.004 17.9284 21.9993 17.9145 21.9845L17.9136 21.9836L17.901 21.9703L17.8614 21.9288C17.8267 21.8924 17.7755 21.839 17.7099 21.7711C17.5788 21.6352 17.3901 21.441 17.1598 21.2079C16.6991 20.7418 16.072 20.1204 15.4063 19.4991C14.7404 18.8776 14.0368 18.2571 13.4229 17.7922C13.1158 17.5597 12.8323 17.3669 12.5878 17.2325C12.3413 17.097 12.1416 17.0249 12 17.0249Z" stroke="black" stroke-width="1.5" stroke-miterlimit="10" stroke-linejoin="round"/>
</svg>
