<svg width="24" height="24" viewBox="0 0 24 24" fill="none" xmlns="http://www.w3.org/2000/svg">
<path fill-rule="evenodd" clip-rule="evenodd" d="M4.17836 18.5549H18.2791C19.4461 18.56 20.5733 18.1308 21.4413 17.3508C22.3094 16.5708 22.8562 15.4958 22.9754 14.3349C23.0946 13.174 22.7777 12.0102 22.0863 11.0701C21.3949 10.1299 20.3785 9.48055 19.2349 9.24838C18.9203 9.18492 18.6001 9.15344 18.2791 9.15438C18.0166 9.15852 17.7548 9.18208 17.4958 9.22488C16.8729 8.10297 15.9206 7.19935 14.7676 6.63607C13.6146 6.07279 12.3165 5.877 11.0486 6.07521C9.78082 6.27341 8.60438 6.85604 7.67833 7.74436C6.75228 8.63266 6.12122 9.78383 5.87045 11.0423C5.78842 11.4525 5.74644 11.8696 5.74511 12.2879V12.7344C5.32941 12.4851 4.86153 12.3356 4.37828 12.2978C3.89503 12.2599 3.40957 12.3347 2.96012 12.5162C2.51066 12.6977 2.10942 12.981 1.78799 13.3439C1.46657 13.7067 1.2337 14.1392 1.1077 14.6072C0.981701 15.0753 0.96603 15.5662 1.06188 16.0414C1.15774 16.5165 1.36252 16.963 1.66014 17.3456C1.95775 17.7282 2.34007 18.0366 2.77703 18.2464C3.21398 18.4562 3.69367 18.5618 4.17836 18.5549Z" stroke="black" stroke-width="1.5" stroke-miterlimit="10" stroke-linejoin="round"/>
</svg>
