<svg width="24" height="24" viewBox="0 0 24 24" fill="none" xmlns="http://www.w3.org/2000/svg">
<path d="M12 22C17.5228 22 22 17.5228 22 12C22 6.47715 17.5228 2 12 2C6.47715 2 2 6.47715 2 12C2 17.5228 6.47715 22 12 22Z" stroke="black" stroke-width="1.5" stroke-miterlimit="10"/>
<path d="M2 12H22" stroke="black" stroke-width="1.5" stroke-miterlimit="10" stroke-linecap="round"/>
<path d="M11.27 21.69C9.22 19 8 15.64 8 12C8 8.35997 9.24 4.92997 11.34 2.21997" stroke="black" stroke-width="1.5" stroke-miterlimit="10" stroke-linecap="round"/>
<path d="M12.7302 2.21997C14.7802 4.90997 16.0002 8.26997 16.0002 11.91C16.0002 15.55 14.7602 18.98 12.6602 21.69" stroke="black" stroke-width="1.5" stroke-miterlimit="10" stroke-linecap="round"/>
<path d="M19.1401 19C17.3201 17.15 14.8001 16 12.0001 16C9.20011 16 6.67011 17.15 4.86011 19M19.1401 5C17.3301 6.85 14.8001 8 12.0001 8C9.20011 8 6.68011 6.85 4.86011 5" stroke="black" stroke-width="1.5" stroke-miterlimit="10"/>
</svg>
