<svg width="24" height="24" viewBox="0 0 24 24" fill="none" xmlns="http://www.w3.org/2000/svg">
<path d="M2 12H22" stroke="black" stroke-width="1.5" stroke-miterlimit="10" stroke-linecap="round"/>
<path d="M12 16C14.8 16 17.32 17.15 19.14 19C20.91 17.2 22 14.73 22 12C22 9.27 20.91 6.8 19.14 5C17.33 6.85 14.8 8 12 8C9.2 8 6.68 6.85 4.86 5C3.09 6.8 2 9.27 2 12C2 14.73 3.09 17.2 4.86 19C6.67 17.15 9.2 16 12 16Z" stroke="black" stroke-width="1.5" stroke-miterlimit="10"/>
<path d="M12 22C17.5228 22 22 17.5228 22 12C22 6.47715 17.5228 2 12 2C6.47715 2 2 6.47715 2 12C2 17.5228 6.47715 22 12 22Z" stroke="black" stroke-width="1.5" stroke-miterlimit="10"/>
<path d="M11.27 21.69C9.22 19 8 15.64 8 12C8 8.36 9.24 4.93 11.34 2.22" stroke="black" stroke-width="1.5" stroke-miterlimit="10"/>
<path d="M12.73 2.22C14.78 4.91 16 8.27 16 11.91C16 15.55 14.76 18.98 12.66 21.69" stroke="black" stroke-width="1.5" stroke-miterlimit="10"/>
</svg>
