<svg width="24" height="24" viewBox="0 0 24 24" fill="none" xmlns="http://www.w3.org/2000/svg">
<path fill-rule="evenodd" clip-rule="evenodd" d="M16.5495 3.08432C17.9943 3.08432 19.3801 3.65781 20.4024 4.67887C20.9089 5.18518 21.3107 5.78633 21.5848 6.44796C21.8589 7.10957 22 7.81871 22 8.53488C22 9.25103 21.8589 9.96017 21.5848 10.6218C21.3107 11.2834 20.9089 11.8845 20.4024 12.3909L19.7542 13.0451L18.8939 13.8993L12.0422 20.7511L5.19045 13.8993L4.33019 13.0451L3.68198 12.3909C3.15766 11.8889 2.73883 11.2874 2.45006 10.6215C2.16129 9.95553 2.0084 9.23865 2.00034 8.51286C1.99228 7.78706 2.12922 7.06696 2.40311 6.39479C2.67702 5.72261 3.0824 5.11191 3.59544 4.59846C4.10849 4.08502 4.71889 3.67917 5.39084 3.40473C6.06281 3.1303 6.78278 2.9928 7.50858 3.00029C8.23438 3.00778 8.95139 3.1601 9.61754 3.44835C10.2837 3.73659 10.8856 4.15494 11.3879 4.67887L12.0422 5.33316L12.6965 4.67887C13.7188 3.65781 15.1046 3.08432 16.5495 3.08432Z" stroke="black" stroke-width="1.5" stroke-miterlimit="10" stroke-linecap="round"/>
</svg>
