<svg width="24" height="24" viewBox="0 0 24 24" fill="none" xmlns="http://www.w3.org/2000/svg">
<path d="M7.18065 10.2692L13.6839 16.7308C14.3807 15.9231 18.7935 11.1923 21 17.6538C21 17.6538 20.7678 21 16.0065 21C12.6387 21 9.15485 16.9615 6.71614 14.6538C4.62582 12.6923 3 10.1538 3 7.84614C3 3.11536 6.2516 3 6.2516 3C13.6839 5.53847 7.18065 10.2692 7.18065 10.2692Z" stroke="black" stroke-width="1.5" stroke-miterlimit="10" stroke-linejoin="round"/>
<path d="M14.8 7H20.2C20.64 7 21 7.36 21 7.8V9.8C21 10.46 20.46 11 19.8 11H15.2C14.54 11 14 10.46 14 9.8V7.8C14 7.36 14.36 7 14.8 7Z" stroke="black" stroke-width="1.5" stroke-miterlimit="10"/>
<path d="M15.5 6.5V5C15.5 3.895 16.395 3 17.5 3C18.605 3 19.5 3.895 19.5 5V6.5" stroke="black" stroke-width="1.5" stroke-miterlimit="10" stroke-linecap="round"/>
</svg>
