<svg width="24" height="24" viewBox="0 0 24 24" fill="none" xmlns="http://www.w3.org/2000/svg">
<path d="M12.1128 21.9809C12.0371 22.0067 11.963 22.0064 11.8875 21.9799C10.9176 21.6391 4 18.9393 4 11.2524V4.30385C4 4.12 4.12492 3.95974 4.30299 3.91515L11.903 2.01196C11.9667 1.99601 12.0333 1.99601 12.097 2.01196L19.697 3.91515C19.8751 3.95974 20 4.12 20 4.30385V11.2524C20 19.0169 13.084 21.6495 12.1128 21.9809Z" stroke="black" stroke-width="1.5" stroke-miterlimit="10"/>
<path d="M16.8737 9.78806L14.2221 11.9346L15.1691 15.0282C15.2322 15.1545 15.1691 15.3439 15.0428 15.407C14.9797 15.4702 14.9166 15.4702 14.8534 15.4702C14.7903 15.4702 14.7272 15.4702 14.664 15.407L12.0755 13.513L9.42387 15.407C9.2976 15.4702 9.17133 15.4702 9.04506 15.407C8.91879 15.3439 8.85567 15.1545 8.9188 15.0282L9.73954 11.8715L7.15103 9.78806C7.02476 9.72493 6.96164 9.53552 7.02477 9.40925C7.0879 9.28299 7.21417 9.15672 7.34044 9.15672H10.6866L11.6967 6.25253C11.7598 6.12626 11.8861 6 12.0124 6C12.1387 6 12.2649 6.12626 12.3281 6.25253L13.4014 9.15672H16.6843C16.8106 9.15672 16.9369 9.28299 17 9.40925C17 9.53552 16.9369 9.6618 16.8737 9.78806Z" stroke="black" stroke-width="1.5" stroke-miterlimit="10" stroke-linejoin="round"/>
</svg>
