<svg width="24" height="24" viewBox="0 0 24 24" fill="none" xmlns="http://www.w3.org/2000/svg">
<path d="M7.91077 20.8888C16.2125 20.8888 20.7551 14.0044 20.7551 8.04442C20.7551 7.85074 20.7551 7.65706 20.7463 7.46339C21.6267 6.82953 22.3926 6.02841 23 5.12165C22.1901 5.48259 21.3185 5.72029 20.403 5.83473C21.3361 5.28011 22.0492 4.39096 22.3926 3.33453C21.521 3.85394 20.5526 4.22369 19.5226 4.42617C18.6951 3.54582 17.5242 3 16.2301 3C13.7387 3 11.7139 5.02481 11.7139 7.51621C11.7139 7.86835 11.7579 8.21168 11.8283 8.54622C8.07803 8.36134 4.7503 6.55662 2.52301 3.82753C2.13565 4.4966 1.91557 5.27131 1.91557 6.09884C1.91557 7.66587 2.71669 9.04802 3.92277 9.85794C3.18327 9.83153 2.4878 9.62905 1.88035 9.29452C1.88035 9.31212 1.88035 9.32973 1.88035 9.35614C1.88035 11.5394 3.43858 13.3705 5.4986 13.7843C5.12005 13.89 4.72389 13.9428 4.31012 13.9428C4.01961 13.9428 3.7379 13.9164 3.46499 13.8635C4.03722 15.6595 5.70988 16.9624 7.68187 16.9976C6.13245 18.2125 4.18688 18.9344 2.07403 18.9344C1.71309 18.9344 1.35214 18.9168 1 18.8728C2.9896 20.1405 5.36655 20.8888 7.91077 20.8888Z" stroke="black" stroke-width="1.5" stroke-miterlimit="10" stroke-linejoin="round"/>
</svg>
