<svg width="24" height="24" viewBox="0 0 24 24" fill="none" xmlns="http://www.w3.org/2000/svg">
<path d="M21 9V6.4C21 5.07452 20.1208 4 19.0364 4H2.96364C1.87915 4 1 5.07452 1 6.4V17.6C1 18.9255 1.87915 20 2.96364 20H19.0364C20.1208 20 21 18.9255 21 17.6V15" stroke="black" stroke-width="1.5" stroke-miterlimit="10" stroke-linecap="round" stroke-linejoin="round"/>
<path d="M21.4 9H16.6C15.7163 9 15 9.71634 15 10.6V13.4C15 14.2837 15.7163 15 16.6 15H21.4C22.2837 15 23 14.2837 23 13.4V10.6C23 9.71634 22.2837 9 21.4 9Z" stroke="black" stroke-width="1.5" stroke-miterlimit="10"/>
<path d="M20 12H20.01" stroke="black" stroke-width="1.5" stroke-linecap="round" stroke-linejoin="round"/>
</svg>
