<svg xmlns="http://www.w3.org/2000/svg" width="24" height="24" fill="none"><path fill="#000" fill-opacity=".16" d="M17.4 6h-1.8A1.6 1.6 0 0 0 14 7.6v4.8a1.6 1.6 0 0 0 1.6 1.6h1.8a1.6 1.6 0 0 0 1.6-1.6V7.6A1.6 1.6 0 0 0 17.4 6ZM8.4 6H6.6A1.6 1.6 0 0 0 5 7.6v12.8A1.6 1.6 0 0 0 6.6 22h1.8a1.6 1.6 0 0 0 1.6-1.6V7.6A1.6 1.6 0 0 0 8.4 6Z"/><path stroke="#000" stroke-linecap="round" stroke-linejoin="round" stroke-miterlimit="10" stroke-width="1.5" d="M2 2h20m-6.4 4h1.8A1.6 1.6 0 0 1 19 7.6v4.8a1.6 1.6 0 0 1-1.6 1.6h-1.8a1.6 1.6 0 0 1-1.6-1.6V7.6A1.6 1.6 0 0 1 15.6 6Zm-9 0h1.8A1.6 1.6 0 0 1 10 7.6v12.8A1.6 1.6 0 0 1 8.4 22H6.6A1.6 1.6 0 0 1 5 20.4V7.6A1.6 1.6 0 0 1 6.6 6Z"/></svg>