<svg xmlns="http://www.w3.org/2000/svg" width="24" height="24" fill="none"><path fill="#000" fill-opacity=".16" d="M17.4 8h-1.8A1.6 1.6 0 0 0 14 9.6v4.8a1.6 1.6 0 0 0 1.6 1.6h1.8a1.6 1.6 0 0 0 1.6-1.6V9.6A1.6 1.6 0 0 0 17.4 8ZM8.4 4H6.6A1.6 1.6 0 0 0 5 5.6v12.8A1.6 1.6 0 0 0 6.6 20h1.8a1.6 1.6 0 0 0 1.6-1.6V5.6A1.6 1.6 0 0 0 8.4 4Z"/><path stroke="#000" stroke-linecap="round" stroke-linejoin="round" stroke-miterlimit="10" stroke-width="1.5" d="M2 12h3m14 0h3m-12 0h4m1.6-4h1.8A1.6 1.6 0 0 1 19 9.6v4.8a1.6 1.6 0 0 1-1.6 1.6h-1.8a1.6 1.6 0 0 1-1.6-1.6V9.6A1.6 1.6 0 0 1 15.6 8Zm-9-4h1.8A1.6 1.6 0 0 1 10 5.6v12.8A1.6 1.6 0 0 1 8.4 20H6.6A1.6 1.6 0 0 1 5 18.4V5.6A1.6 1.6 0 0 1 6.6 4Z"/></svg>