<svg xmlns="http://www.w3.org/2000/svg" width="24" height="24" fill="none" viewBox="0 0 24 24"><path stroke="#000" stroke-linecap="round" stroke-linejoin="round" stroke-miterlimit="10" stroke-width="1.5" d="M19.92 5.778 18.223 4.08a.8.8 0 0 0-1.132 0L5.636 15.536 4.93 19.07l3.535-.707L19.92 6.91a.8.8 0 0 0 0-1.131M4.43 4.284l.376-1.508c.05-.202.338-.202.388 0l.377 1.508a.2.2 0 0 0 .145.145l1.508.377c.202.05.202.338 0 .388l-1.508.377a.2.2 0 0 0-.145.145l-.377 1.508c-.05.202-.338.202-.388 0l-.377-1.508a.2.2 0 0 0-.145-.145l-1.508-.377c-.202-.05-.202-.338 0-.388l1.508-.377a.2.2 0 0 0 .145-.145M18.6 18.6 19 17l.4 1.6 1.6.4-1.6.4L19 21l-.4-1.6L17 19z"/><path fill="#000" fill-opacity=".16" d="M19.92 5.777 18.222 4.08a.8.8 0 0 0-1.13 0L5.635 15.536 4.93 19.07l3.535-.707L19.92 6.909a.8.8 0 0 0 0-1.132"/></svg>