<svg xmlns="http://www.w3.org/2000/svg" width="24" height="24" fill="none" viewBox="0 0 24 24"><path fill="#000" fill-opacity=".16" d="M20.6 4H3.4A2.4 2.4 0 0 0 1 6.4v11.2A2.4 2.4 0 0 0 3.4 20h17.2a2.4 2.4 0 0 0 2.4-2.4V6.4A2.4 2.4 0 0 0 20.6 4"/><path stroke="#000" stroke-linecap="round" stroke-linejoin="round" stroke-miterlimit="10" stroke-width="1.5" d="M5 15h5m-5-3h5M5 9h5m5.806.776-.377 1.508a.2.2 0 0 1-.145.145l-1.508.377c-.202.05-.202.337 0 .388l1.508.377a.2.2 0 0 1 .145.145l.377 1.508c.05.202.338.202.388 0l.377-1.508a.2.2 0 0 1 .145-.145l1.508-.377c.202-.05.202-.338 0-.388l-1.508-.377a.2.2 0 0 1-.145-.146l-.377-1.507c-.05-.202-.337-.202-.388 0M3.4 4h17.2A2.4 2.4 0 0 1 23 6.4v11.2a2.4 2.4 0 0 1-2.4 2.4H3.4A2.4 2.4 0 0 1 1 17.6V6.4A2.4 2.4 0 0 1 3.4 4"/></svg>