<svg xmlns="http://www.w3.org/2000/svg" width="24" height="24" fill="none"><path fill="#000" fill-opacity=".16" d="M19.6 3H8.4A2.4 2.4 0 0 0 6 5.4v11.2A2.4 2.4 0 0 0 8.4 19h11.2a2.4 2.4 0 0 0 2.4-2.4V5.4A2.4 2.4 0 0 0 19.6 3"/><path stroke="#000" stroke-linecap="round" stroke-linejoin="round" stroke-miterlimit="10" stroke-width="1.5" d="M20 22H8.4C5.42 22 3 19.58 3 16.6V5m11 10V7m4 4h-8M8.4 3h11.2A2.4 2.4 0 0 1 22 5.4v11.2a2.4 2.4 0 0 1-2.4 2.4H8.4A2.4 2.4 0 0 1 6 16.6V5.4A2.4 2.4 0 0 1 8.4 3"/></svg>