<svg width="24" height="24" fill="none" xmlns="http://www.w3.org/2000/svg"><path d="M18 17.4v-1.8a1.6 1.6 0 0 0-1.6-1.6h-4.8a1.6 1.6 0 0 0-1.6 1.6v1.8a1.6 1.6 0 0 0 1.6 1.6h4.8a1.6 1.6 0 0 0 1.6-1.6ZM18 8.4V6.6A1.6 1.6 0 0 0 16.4 5H3.6A1.6 1.6 0 0 0 2 6.6v1.8A1.6 1.6 0 0 0 3.6 10h12.8A1.6 1.6 0 0 0 18 8.4Z" fill="#000" fill-opacity=".16" stroke="#000" stroke-width="1.5" stroke-miterlimit="10"/><path d="M22 2v20" stroke="#000" stroke-width="1.5" stroke-miterlimit="10" stroke-linecap="round"/></svg>