<svg xmlns="http://www.w3.org/2000/svg" width="24" height="24" fill="none"><path fill="#000" fill-opacity=".16" fill-rule="evenodd" d="M16.75 7h-9.5v2.2c0 .856.694 1.55 1.55 1.55h6.4a1.55 1.55 0 0 0 1.55-1.55z" clip-rule="evenodd"/><path stroke="#000" stroke-linecap="round" stroke-linejoin="round" stroke-miterlimit="10" stroke-width="1.5" d="m21 7-1 11.6c0 1.33-1.07 2.4-2.4 2.4H6.4C5.07 21 4 19.93 4 18.6L3 7M21.4 3H2.6A1.6 1.6 0 0 0 1 4.6v.8A1.6 1.6 0 0 0 2.6 7h18.8A1.6 1.6 0 0 0 23 5.4v-.8A1.6 1.6 0 0 0 21.4 3"/><path stroke="#000" stroke-linecap="round" stroke-linejoin="round" stroke-miterlimit="10" stroke-width="1.5" d="M15.2 10a.8.8 0 0 0 .8-.8V7H8v2.2a.8.8 0 0 0 .8.8z"/></svg>