<svg width="24" height="24" fill="none" xmlns="http://www.w3.org/2000/svg"><path d="M19.764 8.819c-.116.09-2.165 1.244-2.165 3.81 0 2.968 2.607 4.019 2.685 4.045-.012.064-.414 1.438-1.374 2.838-.857 1.232-1.75 2.462-3.11 2.462-1.361 0-1.711-.79-3.281-.79-1.53 0-2.074.816-3.318.816-1.245 0-2.113-1.14-3.11-2.54C4.933 17.816 4 15.26 4 12.837c0-3.888 2.528-5.95 5.017-5.95 1.322 0 2.424.868 3.254.868.79 0 2.022-.92 3.526-.92.57 0 2.618.051 3.967 1.984Z" fill="#000" fill-opacity=".16" stroke="#000" stroke-width="1.5" stroke-miterlimit="10" stroke-linejoin="round"/><path d="M15.083 5.188c.622-.738 1.062-1.762 1.062-2.786 0-.142-.012-.286-.038-.402-1.012.038-2.216.674-2.942 1.516-.57.648-1.102 1.672-1.102 2.71 0 .156.026.312.038.362.064.012.168.026.272.026.908 0 2.05-.608 2.71-1.426Z" fill="#fff" stroke="#000" stroke-width="1.5" stroke-miterlimit="10" stroke-linejoin="round"/></svg>