<svg xmlns="http://www.w3.org/2000/svg" width="24" height="24" fill="none"><path fill="#000" fill-opacity=".16" d="M17.4 10h-1.8a1.6 1.6 0 0 0-1.6 1.6v4.8a1.6 1.6 0 0 0 1.6 1.6h1.8a1.6 1.6 0 0 0 1.6-1.6v-4.8a1.6 1.6 0 0 0-1.6-1.6ZM8.4 2H6.6A1.6 1.6 0 0 0 5 3.6v12.8A1.6 1.6 0 0 0 6.6 18h1.8a1.6 1.6 0 0 0 1.6-1.6V3.6A1.6 1.6 0 0 0 8.4 2Z"/><path stroke="#222" stroke-linecap="round" stroke-linejoin="round" stroke-miterlimit="10" stroke-width="1.5" d="M2 22h20m-6.4-12h1.8a1.6 1.6 0 0 1 1.6 1.6v4.8a1.6 1.6 0 0 1-1.6 1.6h-1.8a1.6 1.6 0 0 1-1.6-1.6v-4.8a1.6 1.6 0 0 1 1.6-1.6Zm-9-8h1.8A1.6 1.6 0 0 1 10 3.6v12.8A1.6 1.6 0 0 1 8.4 18H6.6A1.6 1.6 0 0 1 5 16.4V3.6A1.6 1.6 0 0 1 6.6 2Z"/></svg>