<svg xmlns="http://www.w3.org/2000/svg" width="24" height="24" fill="none" viewBox="0 0 24 24"><path fill="#000" fill-opacity=".16" fill-rule="evenodd" d="M16 7H7.95v1.45c0 .856.694 1.55 1.55 1.55h4.95A1.55 1.55 0 0 0 16 8.45z" clip-rule="evenodd"/><path stroke="#000" stroke-linecap="round" stroke-linejoin="round" stroke-miterlimit="10" stroke-width="1.5" d="m21 7-1 11.6c0 1.33-1.07 2.4-2.4 2.4H6.4C5.07 21 4 19.93 4 18.6L3 7m13 0v2.2a.8.8 0 0 1-.8.8H8.8a.8.8 0 0 1-.8-.8V7M2.6 3h18.8A1.6 1.6 0 0 1 23 4.6v.8A1.6 1.6 0 0 1 21.4 7H2.6A1.6 1.6 0 0 1 1 5.4v-.8A1.6 1.6 0 0 1 2.6 3"/></svg>