<svg xmlns="http://www.w3.org/2000/svg" width="24" height="24" fill="none"><path fill="#000" fill-opacity=".16" stroke="#000" stroke-miterlimit="10" stroke-width="1.5" d="M18.6 3H5.4A2.4 2.4 0 0 0 3 5.4v15.2A2.4 2.4 0 0 0 5.4 23h13.2a2.4 2.4 0 0 0 2.4-2.4V5.4A2.4 2.4 0 0 0 18.6 3Z"/><path stroke="#000" stroke-linecap="round" stroke-miterlimit="10" stroke-width="1.5" d="M7 14h10M7 11h10M7 17h6M16 3v2.2a.8.8 0 0 1-.8.8H8.8a.8.8 0 0 1-.8-.8V3"/><path stroke="#000" stroke-miterlimit="10" stroke-width="1.5" d="M18.6 3H5.4A2.4 2.4 0 0 0 3 5.4v15.2A2.4 2.4 0 0 0 5.4 23h13.2a2.4 2.4 0 0 0 2.4-2.4V5.4A2.4 2.4 0 0 0 18.6 3Z"/><path stroke="#000" stroke-linecap="round" stroke-miterlimit="10" stroke-width="1.5" d="M14 3a2 2 0 1 0-4 0"/></svg>