<svg xmlns="http://www.w3.org/2000/svg" width="24" height="24" fill="none"><path fill="#000" fill-opacity=".16" d="M18 17.4v-1.8a1.6 1.6 0 0 0-1.6-1.6h-4.8a1.6 1.6 0 0 0-1.6 1.6v1.8a1.6 1.6 0 0 0 1.6 1.6h4.8a1.6 1.6 0 0 0 1.6-1.6M18 8.4V6.6A1.6 1.6 0 0 0 16.4 5H3.6A1.6 1.6 0 0 0 2 6.6v1.8A1.6 1.6 0 0 0 3.6 10h12.8A1.6 1.6 0 0 0 18 8.4"/><path stroke="#000" stroke-linecap="round" stroke-linejoin="round" stroke-miterlimit="10" stroke-width="1.5" d="M22 2v20m-4-6.4v1.8a1.6 1.6 0 0 1-1.6 1.6h-4.8a1.6 1.6 0 0 1-1.6-1.6v-1.8a1.6 1.6 0 0 1 1.6-1.6h4.8a1.6 1.6 0 0 1 1.6 1.6m0-9v1.8a1.6 1.6 0 0 1-1.6 1.6H3.6A1.6 1.6 0 0 1 2 8.4V6.6A1.6 1.6 0 0 1 3.6 5h12.8A1.6 1.6 0 0 1 18 6.6"/></svg>