<svg width="24" height="24" fill="none" xmlns="http://www.w3.org/2000/svg"><path d="M17.4 10h-1.8a1.6 1.6 0 0 0-1.6 1.6v4.8a1.6 1.6 0 0 0 1.6 1.6h1.8a1.6 1.6 0 0 0 1.6-1.6v-4.8a1.6 1.6 0 0 0-1.6-1.6ZM8.4 2H6.6A1.6 1.6 0 0 0 5 3.6v12.8A1.6 1.6 0 0 0 6.6 18h1.8a1.6 1.6 0 0 0 1.6-1.6V3.6A1.6 1.6 0 0 0 8.4 2Z" fill="#000" fill-opacity=".16" stroke="#000" stroke-width="1.5" stroke-miterlimit="10"/><path d="M2 22h20" stroke="#000" stroke-width="1.5" stroke-miterlimit="10" stroke-linecap="round"/></svg>