<svg xmlns="http://www.w3.org/2000/svg" width="24" height="24" fill="none" viewBox="0 0 24 24"><path fill="#000" fill-opacity=".16" d="m9.96 9.137.886-3.099c.332-1.16 1.976-1.16 2.308 0l.885 3.099a1.2 1.2 0 0 0 .824.824l3.099.885c1.16.332 1.16 1.976 0 2.308l-3.099.885a1.2 1.2 0 0 0-.824.824l-.885 3.099c-.332 1.16-1.976 1.16-2.308 0l-.885-3.099a1.2 1.2 0 0 0-.824-.824l-3.099-.885c-1.16-.332-1.16-1.976 0-2.308l3.099-.885a1.2 1.2 0 0 0 .824-.824"/><path stroke="#000" stroke-linecap="round" stroke-linejoin="round" stroke-miterlimit="10" stroke-width="1.5" d="m9.96 14.863.886 3.099c.332 1.16 1.976 1.16 2.308 0l.885-3.099a1.2 1.2 0 0 1 .824-.824l3.099-.885c1.16-.332 1.16-1.976 0-2.308l-3.099-.885a1.2 1.2 0 0 1-.824-.824l-.885-3.099c-.332-1.16-1.976-1.16-2.308 0l-.885 3.099a1.2 1.2 0 0 1-.824.824l-3.099.885c-1.16.332-1.16 1.976 0 2.308l3.099.885a1.2 1.2 0 0 1 .824.824M4.43 19.716l.376 1.508c.05.202.338.202.388 0l.377-1.508a.2.2 0 0 1 .145-.145l1.508-.377c.202-.05.202-.337 0-.388l-1.508-.377a.2.2 0 0 1-.145-.145l-.377-1.508c-.05-.202-.338-.202-.388 0l-.377 1.508a.2.2 0 0 1-.145.145l-1.508.377c-.202.05-.202.337 0 .388l1.508.377a.2.2 0 0 1 .145.145M18.43 5.716l.376 1.508c.05.202.337.202.388 0l.377-1.508a.2.2 0 0 1 .145-.145l1.508-.377c.202-.05.202-.338 0-.388l-1.508-.377a.2.2 0 0 1-.145-.145l-.377-1.508c-.05-.202-.337-.202-.388 0l-.377 1.508a.2.2 0 0 1-.145.145l-1.508.377c-.202.05-.202.338 0 .388l1.508.377a.2.2 0 0 1 .145.145"/></svg>