<svg xmlns="http://www.w3.org/2000/svg" width="24" height="24" fill="none"><path fill="#000" fill-opacity=".16" d="M19.6 7H4.4A2.4 2.4 0 0 0 2 9.4v9.2A2.4 2.4 0 0 0 4.4 21h15.2a2.4 2.4 0 0 0 2.4-2.4V9.4A2.4 2.4 0 0 0 19.6 7Z"/><path stroke="#222" stroke-linecap="round" stroke-linejoin="round" stroke-miterlimit="10" stroke-width="1.5" d="M15 21V4.8a.8.8 0 0 0-.8-.8H9.8a.8.8 0 0 0-.8.8V21M4.4 7h15.2A2.4 2.4 0 0 1 22 9.4v9.2a2.4 2.4 0 0 1-2.4 2.4H4.4A2.4 2.4 0 0 1 2 18.6V9.4A2.4 2.4 0 0 1 4.4 7Z"/></svg>