<svg xmlns="http://www.w3.org/2000/svg" width="24" height="24" fill="none" viewBox="0 0 24 24"><path fill="#000" fill-opacity=".16" d="M20 19.6V5H4v14.6A2.4 2.4 0 0 0 6.4 22H9v-3.2a.8.8 0 0 1 .8-.8h4.4a.8.8 0 0 1 .8.8V22h2.6a2.4 2.4 0 0 0 2.4-2.4"/><path stroke="#000" stroke-linecap="round" stroke-linejoin="round" stroke-miterlimit="10" stroke-width="1.5" d="M20 5v14.6a2.4 2.4 0 0 1-2.4 2.4H6.4A2.4 2.4 0 0 1 4 19.6V5m11 17v-3.2a.8.8 0 0 0-.8-.8H9.8a.8.8 0 0 0-.8.8V22m3-14v2m0 3v2m4-7v2m0 3v2M8 8v2m0 3v2M2.8 2h18.4a.8.8 0 0 1 .8.8v1.4a.8.8 0 0 1-.8.8H2.8a.8.8 0 0 1-.8-.8V2.8a.8.8 0 0 1 .8-.8"/></svg>