<svg xmlns="http://www.w3.org/2000/svg" width="24" height="24" fill="none"><g clip-path="url(#a)"><path fill="#000" fill-opacity=".16" d="M5.6 4h2.8A1.6 1.6 0 0 1 10 5.6v2.8A1.6 1.6 0 0 1 8.4 10H5.6A1.6 1.6 0 0 1 4 8.4V5.6A1.6 1.6 0 0 1 5.6 4M15.6 14h2.8a1.6 1.6 0 0 1 1.6 1.6v2.8a1.6 1.6 0 0 1-1.6 1.6h-2.8a1.6 1.6 0 0 1-1.6-1.6v-2.8a1.6 1.6 0 0 1 1.6-1.6"/><path stroke="#000" stroke-linecap="round" stroke-linejoin="round" stroke-miterlimit="10" stroke-width="1.5" d="M5 23H3.4A2.4 2.4 0 0 1 1 20.6V19m18 4h1.6a2.4 2.4 0 0 0 2.4-2.4V19m0-14V3.4A2.4 2.4 0 0 0 20.6 1H19M5 1H3.4A2.4 2.4 0 0 0 1 3.4V5m4.6-1h2.8A1.6 1.6 0 0 1 10 5.6v2.8A1.6 1.6 0 0 1 8.4 10H5.6A1.6 1.6 0 0 1 4 8.4V5.6A1.6 1.6 0 0 1 5.6 4m0 10h2.8a1.6 1.6 0 0 1 1.6 1.6v2.8A1.6 1.6 0 0 1 8.4 20H5.6A1.6 1.6 0 0 1 4 18.4v-2.8A1.6 1.6 0 0 1 5.6 14m10-10h2.8A1.6 1.6 0 0 1 20 5.6v2.8a1.6 1.6 0 0 1-1.6 1.6h-2.8A1.6 1.6 0 0 1 14 8.4V5.6A1.6 1.6 0 0 1 15.6 4m0 10h2.8a1.6 1.6 0 0 1 1.6 1.6v2.8a1.6 1.6 0 0 1-1.6 1.6h-2.8a1.6 1.6 0 0 1-1.6-1.6v-2.8a1.6 1.6 0 0 1 1.6-1.6"/></g><defs><clipPath id="a"><path fill="#fff" d="M0 0h24v24H0z"/></clipPath></defs></svg>