<svg xmlns="http://www.w3.org/2000/svg" width="24" height="24" fill="none" viewBox="0 0 24 24"><path fill="#000" fill-opacity=".16" fill-rule="evenodd" d="M4.4 7h15.2A2.4 2.4 0 0 1 22 9.4v9.2a2.4 2.4 0 0 1-2.4 2.4H4.4A2.4 2.4 0 0 1 2 18.6V9.4A2.4 2.4 0 0 1 4.4 7m6.4 5h2.4a.8.8 0 0 1 .8.8v2.4a.8.8 0 0 1-.8.8h-2.4a.8.8 0 0 1-.8-.8v-2.4a.8.8 0 0 1 .8-.8" clip-rule="evenodd"/><path stroke="#000" stroke-linecap="round" stroke-linejoin="round" stroke-miterlimit="10" stroke-width="1.5" d="M2 14h8m4 0h8m-7-7V4.8a.8.8 0 0 0-.8-.8H9.8a.8.8 0 0 0-.8.8V7M4.4 7h15.2A2.4 2.4 0 0 1 22 9.4v9.2a2.4 2.4 0 0 1-2.4 2.4H4.4A2.4 2.4 0 0 1 2 18.6V9.4A2.4 2.4 0 0 1 4.4 7m6.4 5h2.4a.8.8 0 0 1 .8.8v2.4a.8.8 0 0 1-.8.8h-2.4a.8.8 0 0 1-.8-.8v-2.4a.8.8 0 0 1 .8-.8"/></svg>