<svg xmlns="http://www.w3.org/2000/svg" width="24" height="24" fill="none" viewBox="0 0 24 24"><path fill="#000" fill-opacity=".16" d="M12.6 3H5.4A2.4 2.4 0 0 0 3 5.4v7.2A2.4 2.4 0 0 0 5.4 15h7.2a2.4 2.4 0 0 0 2.4-2.4V5.4A2.4 2.4 0 0 0 12.6 3"/><path stroke="#000" stroke-linecap="round" stroke-linejoin="round" stroke-miterlimit="10" stroke-width="1.5" d="M18 9h.6c1.33 0 2.4 1.07 2.4 2.4v7.2c0 1.33-1.07 2.4-2.4 2.4h-7.2C10.07 21 9 19.93 9 18.6V18M5.4 3h7.2A2.4 2.4 0 0 1 15 5.4v7.2a2.4 2.4 0 0 1-2.4 2.4H5.4A2.4 2.4 0 0 1 3 12.6V5.4A2.4 2.4 0 0 1 5.4 3"/></svg>