<svg xmlns="http://www.w3.org/2000/svg" width="24" height="24" fill="none" viewBox="0 0 24 24"><path fill="#000" fill-opacity=".16" d="M19 16h-2.525a.99.99 0 0 0-.775.375l-2.925 3.65c-.4.5-1.162.5-1.562 0l-2.925-3.65A.99.99 0 0 0 7.512 16H5c-1.662 0-3-1.338-3-3V6c0-1.662 1.338-3 3-3h14c1.663 0 3 1.338 3 3v7c0 1.662-1.337 3-3 3"/><path stroke="#000" stroke-linecap="round" stroke-linejoin="round" stroke-miterlimit="10" stroke-width="1.5" d="M8 8h8m-8 3h8m3 5h-2.525a.99.99 0 0 0-.775.375l-2.925 3.65c-.4.5-1.162.5-1.562 0l-2.925-3.65A.99.99 0 0 0 7.512 16H5c-1.662 0-3-1.338-3-3V6c0-1.662 1.338-3 3-3h14c1.663 0 3 1.338 3 3v7c0 1.662-1.337 3-3 3"/></svg>