<svg xmlns="http://www.w3.org/2000/svg" width="24" height="24" fill="none"><path fill="#000" fill-opacity=".16" d="M14 3a2 2 0 1 1-4 0H5.4A2.4 2.4 0 0 0 3 5.4v15.2A2.4 2.4 0 0 0 5.4 23h13.2a2.4 2.4 0 0 0 2.4-2.4V5.4A2.4 2.4 0 0 0 18.6 3H14Z"/><path stroke="#222" stroke-linecap="round" stroke-linejoin="round" stroke-miterlimit="10" stroke-width="1.5" d="M14 3h4.6A2.4 2.4 0 0 1 21 5.4v15.2a2.4 2.4 0 0 1-2.4 2.4H5.4A2.4 2.4 0 0 1 3 20.6V5.4A2.4 2.4 0 0 1 5.4 3H10m4 0a2 2 0 1 1-4 0m4 0a2 2 0 1 0-4 0M7 13h10M7 10h10M7 16h6"/></svg>