<svg width="24" height="24" fill="none" xmlns="http://www.w3.org/2000/svg"><path d="M14 17h6M17 20v-6" stroke="#000" stroke-width="1.5" stroke-miterlimit="10" stroke-linecap="round"/><path d="M8.4 4H5.6A1.6 1.6 0 0 0 4 5.6v2.8A1.6 1.6 0 0 0 5.6 10h2.8A1.6 1.6 0 0 0 10 8.4V5.6A1.6 1.6 0 0 0 8.4 4Z" fill="#fff" stroke="#000" stroke-width="1.5" stroke-miterlimit="10"/><path d="M8.4 14H5.6A1.6 1.6 0 0 0 4 15.6v2.8A1.6 1.6 0 0 0 5.6 20h2.8a1.6 1.6 0 0 0 1.6-1.6v-2.8A1.6 1.6 0 0 0 8.4 14ZM18.4 4h-2.8A1.6 1.6 0 0 0 14 5.6v2.8a1.6 1.6 0 0 0 1.6 1.6h2.8A1.6 1.6 0 0 0 20 8.4V5.6A1.6 1.6 0 0 0 18.4 4Z" fill="#000" fill-opacity=".16" stroke="#000" stroke-width="1.5" stroke-miterlimit="10"/></svg>