<svg xmlns="http://www.w3.org/2000/svg" width="24" height="24" fill="none" viewBox="0 0 24 24"><path fill="#000" fill-opacity=".16" d="M12 22c5.523 0 10-4.477 10-10S17.523 2 12 2 2 6.477 2 12s4.477 10 10 10"/><path stroke="#000" stroke-linecap="round" stroke-linejoin="round" stroke-miterlimit="10" stroke-width="1.5" d="M9.14 16.962a4.92 4.92 0 0 0 2.812.655c1.483-.104 3.116-1.112 2.997-2.807-.092-1.313-.815-2.066-2.953-2.81s-2.857-1.497-2.95-2.81c-.118-1.695 1.515-2.703 2.998-2.807.974-.068 1.97.16 2.813.655M12 5v14m10-7c0-5.523-4.477-10-10-10S2 6.477 2 12s4.477 10 10 10 10-4.477 10-10"/></svg>