<svg xmlns="http://www.w3.org/2000/svg" width="24" height="24" fill="none"><path fill="#000" fill-opacity=".16" d="M8.4 14H5.6A1.6 1.6 0 0 0 4 15.6v2.8A1.6 1.6 0 0 0 5.6 20h2.8a1.6 1.6 0 0 0 1.6-1.6v-2.8A1.6 1.6 0 0 0 8.4 14ZM18.4 4h-2.8A1.6 1.6 0 0 0 14 5.6v2.8a1.6 1.6 0 0 0 1.6 1.6h2.8A1.6 1.6 0 0 0 20 8.4V5.6A1.6 1.6 0 0 0 18.4 4Z"/><path stroke="#000" stroke-linecap="round" stroke-linejoin="round" stroke-miterlimit="10" stroke-width="1.5" d="M14 17h6m-3 3v-6M5.6 4h2.8A1.6 1.6 0 0 1 10 5.6v2.8A1.6 1.6 0 0 1 8.4 10H5.6A1.6 1.6 0 0 1 4 8.4V5.6A1.6 1.6 0 0 1 5.6 4Zm0 10h2.8a1.6 1.6 0 0 1 1.6 1.6v2.8A1.6 1.6 0 0 1 8.4 20H5.6A1.6 1.6 0 0 1 4 18.4v-2.8A1.6 1.6 0 0 1 5.6 14Zm10-10h2.8A1.6 1.6 0 0 1 20 5.6v2.8a1.6 1.6 0 0 1-1.6 1.6h-2.8A1.6 1.6 0 0 1 14 8.4V5.6A1.6 1.6 0 0 1 15.6 4Z"/></svg>