<svg xmlns="http://www.w3.org/2000/svg" width="24" height="24" fill="none" viewBox="0 0 24 24"><path fill="#000" fill-opacity=".16" d="M22 12c0-1.395-.858-2.605-2.137-3.259.45-1.356.195-2.829-.79-3.814-.985-.986-2.458-1.24-3.815-.79C14.615 2.859 13.396 2 12 2s-2.605.859-3.249 2.137c-1.366-.45-2.839-.196-3.824.79-.986.985-1.23 2.458-.78 3.814C2.867 9.395 2 10.605 2 12s.868 2.605 2.146 3.258c-.448 1.357-.205 2.83.78 3.815.986.985 2.46 1.23 3.815.79C9.395 21.142 10.605 22 12 22s2.615-.858 3.258-2.137c1.357.44 2.83.195 3.815-.79s1.24-2.458.79-3.815C21.142 14.606 22 13.396 22 12"/><path stroke="#000" stroke-linecap="round" stroke-linejoin="round" stroke-width="1.5" d="M9.14 16.962a4.92 4.92 0 0 0 2.812.655c1.483-.104 3.116-1.112 2.997-2.807-.092-1.313-.815-2.066-2.953-2.81s-2.857-1.497-2.95-2.81c-.118-1.695 1.515-2.703 2.998-2.807.974-.068 1.97.16 2.813.655M12 5v14m10-7c0-1.395-.858-2.605-2.137-3.259.45-1.356.195-2.829-.79-3.814-.985-.986-2.458-1.24-3.815-.79C14.615 2.859 13.396 2 12 2s-2.605.859-3.249 2.137c-1.366-.45-2.839-.196-3.824.79-.986.985-1.23 2.458-.78 3.814C2.867 9.395 2 10.605 2 12s.868 2.605 2.146 3.258c-.448 1.357-.205 2.83.78 3.815.986.985 2.46 1.23 3.815.79C9.395 21.142 10.605 22 12 22s2.615-.858 3.258-2.137c1.357.44 2.83.195 3.815-.79s1.24-2.458.79-3.815C21.142 14.606 22 13.396 22 12"/></svg>