<svg xmlns="http://www.w3.org/2000/svg" width="24" height="24" fill="none" viewBox="0 0 24 24"><path fill="#000" fill-opacity=".16" d="M12 22c5.523 0 10-4.477 10-10S17.523 2 12 2 2 6.477 2 12s4.477 10 10 10"/><path stroke="#000" stroke-linecap="round" stroke-linejoin="round" stroke-miterlimit="10" stroke-width="1.5" d="m16.583 14.083-.079.213A4.808 4.808 0 0 1 9.26 16.56a4.8 4.8 0 0 1-1.764-2.265l-.08-.213M9 9a1 1 0 1 1-2 0 1 1 0 0 1 2 0m8 0a1 1 0 1 1-2 0 1 1 0 0 1 2 0m5 3c0-5.523-4.477-10-10-10S2 6.477 2 12s4.477 10 10 10 10-4.477 10-10"/></svg>