<svg xmlns="http://www.w3.org/2000/svg" width="24" height="24" fill="none" viewBox="0 0 24 24"><path fill="#000" fill-opacity=".16" d="M4 22a2 2 0 1 0 0-4 2 2 0 0 0 0 4M12 6a2 2 0 1 0 0-4 2 2 0 0 0 0 4M12 22a2 2 0 1 0 0-4 2 2 0 0 0 0 4M20 22a2 2 0 1 0 0-4 2 2 0 0 0 0 4"/><path stroke="#000" stroke-linecap="round" stroke-linejoin="round" stroke-miterlimit="10" stroke-width="1.5" d="M12 18a2 2 0 1 0 0 4 2 2 0 0 0 0-4m0 0V6m0 0a2 2 0 1 0 0-4 2 2 0 0 0 0 4m8 12a2 2 0 1 0 0 4 2 2 0 0 0 0-4m0 0v-3.293C20 13.218 18.8 12 17.333 12H6.667C5.2 12 4 13.218 4 14.707V18m0 0a2 2 0 1 0 0 4 2 2 0 0 0 0-4"/></svg>