<svg xmlns="http://www.w3.org/2000/svg" width="24" height="24" fill="none"><path fill="#000" fill-opacity=".16" d="M7 20a2 2 0 1 0 0-4 2 2 0 0 0 0 4ZM7 8a2 2 0 1 0 0-4 2 2 0 0 0 0 4ZM17 20a2 2 0 1 0 0-4 2 2 0 0 0 0 4ZM17 8a2 2 0 1 0 0-4 2 2 0 0 0 0 4Z"/><path stroke="#222" stroke-linecap="round" stroke-linejoin="round" stroke-miterlimit="10" stroke-width="1.5" d="M7 16a2 2 0 1 0 0 4 2 2 0 0 0 0-4Zm0 0V8m0 0a2 2 0 1 0 0-4 2 2 0 0 0 0 4Zm10 8a2 2 0 1 0 0 4 2 2 0 0 0 0-4Zm0 0V8m0 0a2 2 0 1 0 0-4 2 2 0 0 0 0 4Z"/></svg>