<svg xmlns="http://www.w3.org/2000/svg" width="24" height="24" fill="none"><g clip-path="url(#a)"><path fill="#000" fill-opacity=".16" d="M12 14a2 2 0 1 0 0-4 2 2 0 0 0 0 4"/><path stroke="#000" stroke-linecap="round" stroke-miterlimit="10" stroke-width="1.5" d="M7 12H1m22 0h-6m-5 5v6m3.536-7.464 1.414 1.414m-9.9-9.9 1.414 1.414m7.072 0L16.95 7.05m-9.9 9.9 1.414-1.414M12 1v6m2 5a2 2 0 1 1-4 0 2 2 0 0 1 4 0Z"/></g><defs><clipPath id="a"><path fill="#fff" d="M0 0h24v24H0z"/></clipPath></defs></svg>