<svg xmlns="http://www.w3.org/2000/svg" width="24" height="24" fill="none" viewBox="0 0 24 24"><path fill="#000" fill-opacity=".16" d="M19.8 4c.66 0 1.2.517 1.2 1.149v5.553C21 11.966 19.92 13 18.6 13H4.2c-.66 0-1.2-.517-1.2-1.149V6.298C3 5.034 4.08 4 5.4 4z"/><path stroke="#000" stroke-linecap="round" stroke-linejoin="round" stroke-miterlimit="10" stroke-width="1.5" d="M3 11.851C3 12.483 3.54 13 4.2 13h14.4c1.32 0 2.4-1.034 2.4-2.298V5.15C21 4.517 20.46 4 19.8 4H5.4C4.08 4 3 5.034 3 6.298zm0 0V20"/></svg>