<svg xmlns="http://www.w3.org/2000/svg" width="24" height="24" fill="none" viewBox="0 0 24 24"><path fill="#000" fill-opacity=".16" d="M7 20a2 2 0 1 0 0-4 2 2 0 0 0 0 4M7 8a2 2 0 1 0 0-4 2 2 0 0 0 0 4M17 20a2 2 0 1 0 0-4 2 2 0 0 0 0 4M17 8a2 2 0 1 0 0-4 2 2 0 0 0 0 4"/><path stroke="#000" stroke-linecap="round" stroke-linejoin="round" stroke-miterlimit="10" stroke-width="1.5" d="M7 16a2 2 0 1 0 0 4 2 2 0 0 0 0-4m0 0V8m0 0a2 2 0 1 0 0-4 2 2 0 0 0 0 4m10 8a2 2 0 1 0 0 4 2 2 0 0 0 0-4m0 0V8m0 0a2 2 0 1 0 0-4 2 2 0 0 0 0 4"/></svg>