<svg xmlns="http://www.w3.org/2000/svg" width="24" height="24" fill="none" viewBox="0 0 24 24"><path fill="#000" fill-opacity=".16" d="M12 22c5.523 0 10-4.477 10-10S17.523 2 12 2 2 6.477 2 12s4.477 10 10 10"/><path stroke="#000" stroke-linejoin="round" stroke-miterlimit="10" stroke-width="1.5" d="M22 12c0 5.523-4.477 10-10 10m10-10c0-5.523-4.477-10-10-10m10 10H2m10 10C6.477 22 2 17.523 2 12m10 10 .66-.31c2.1-2.71 3.34-6.14 3.34-9.78s-1.22-7-3.27-9.69L12 2m0 20-.73-.31A15.94 15.94 0 0 1 8 12c0-3.64 1.24-7.07 3.34-9.78L12 2M2 12C2 6.477 6.477 2 12 2m7.14 17c-1.82-1.85-4.34-3-7.14-3s-5.33 1.15-7.14 3M19.14 5C17.33 6.85 14.8 8 12 8S6.68 6.85 4.86 5"/></svg>