<svg xmlns="http://www.w3.org/2000/svg" width="24" height="24" fill="none" viewBox="0 0 24 24"><path fill="#000" d="m14.657 11.586.53-.53a.75.75 0 0 0-1.06 0zm-2.121 2.121.53.53zm-9.617 7.354-.53.53zm-.566-.566.53-.53zm0-2.262.53.53zm7.354-7.354-.53-.53zm2.122-2.122.53.53a.75.75 0 0 0 0-1.06zm9.475 2.405.53-.53zm-3.536 3.535-.53.53zm-2.404-9.475.53-.53zM3.52 4.692a.75.75 0 0 0 1.06 1.06zm10.607 6.363-2.122 2.122 1.061 1.06 2.121-2.121zm-2.122 2.122L4.651 20.53l1.061 1.06 7.354-7.354zM4.651 20.53a.85.85 0 0 1-1.202 0l-1.06 1.06a2.35 2.35 0 0 0 3.323 0zm-1.202 0-.565-.566-1.06 1.06.565.566zm-.565-.566a.85.85 0 0 1 0-1.202l-1.06-1.06a2.35 2.35 0 0 0 0 3.323zm0-1.202 7.354-7.354-1.061-1.06-7.354 7.353zm7.354-7.354 2.121-2.121-1.06-1.061-2.122 2.121zm10.535.283a.85.85 0 0 1 0 1.202l1.061 1.06a2.35 2.35 0 0 0 0-3.323zm0 1.202-1.272 1.273 1.06 1.06 1.273-1.272zm-1.272 1.273a.85.85 0 0 1-1.202 0l-1.061 1.06a2.35 2.35 0 0 0 3.323 0zm-4.667-8.415 4.95 4.95 1.06-1.06-4.95-4.95zm4.95 4.95.99.99 1.06-1.06-.99-.99zm-1.485 3.465-.99-.99-1.06 1.06.989.99zm-.99-.99-2.122-2.122-1.06 1.061 2.121 2.121zm0 1.06 3.535-3.535-1.06-1.06-3.536 3.535zm-4.95-6.01-4.95-4.95-1.06 1.06 4.95 4.95zm.707 4.95-2.828-2.829-1.061 1.061 2.828 2.828zM4.581 5.752a7.25 7.25 0 0 1 10.253 0l1.06-1.06a8.75 8.75 0 0 0-12.374 0z"/><path fill="#000" fill-opacity=".16" d="M21.304 13.424a1.6 1.6 0 0 0 0-2.262l-.99-.99-3.536 3.535.99.99a1.6 1.6 0 0 0 2.263 0zM5.182 21.061l7.354-7.354-2.829-2.828-7.354 7.354a1.6 1.6 0 0 0 0 2.262l.566.566a1.6 1.6 0 0 0 2.263 0"/></svg>