<svg xmlns="http://www.w3.org/2000/svg" width="24" height="24" fill="none" viewBox="0 0 24 24"><path fill="#000" fill-opacity=".16" fill-rule="evenodd" d="M16.55 3.084a5.452 5.452 0 0 1 3.852 9.307l-.648.654-.86.854-6.852 6.852L5.19 13.9l-.86-.854-.648-.654a5.453 5.453 0 1 1 7.706-7.712l.654.654.655-.654a5.45 5.45 0 0 1 3.852-1.595" clip-rule="evenodd"/><path stroke="#000" stroke-linecap="round" stroke-linejoin="round" stroke-miterlimit="10" stroke-width="1.5" d="M16.55 3.084a5.452 5.452 0 0 1 3.852 9.307l-.648.654-.86.854-6.852 6.852L5.19 13.9l-.86-.854-.648-.654a5.453 5.453 0 1 1 7.706-7.712l.654.654.655-.654a5.45 5.45 0 0 1 3.852-1.595" clip-rule="evenodd"/></svg>