<svg xmlns="http://www.w3.org/2000/svg" width="24" height="24" fill="none"><path fill="#000" fill-opacity=".16" d="M18.6 22H5.4A2.4 2.4 0 0 1 3 19.588V8.332c0-.382.18-.734.48-.965l7.78-5.126a1.195 1.195 0 0 1 1.44 0l7.82 5.126c.3.231.48.583.48.965v11.256A2.4 2.4 0 0 1 18.6 22Z"/><path stroke="#000" stroke-linecap="round" stroke-linejoin="round" stroke-width="1.5" d="m1 9 10.26-6.76a1.2 1.2 0 0 1 1.44 0L23 9"/><path stroke="#000" stroke-linecap="round" stroke-linejoin="round" stroke-width="1.5" d="M21 8v11.6c0 1.33-1.07 2.4-2.4 2.4H5.4C4.07 22 3 20.93 3 19.6V8"/><path stroke="#000" stroke-miterlimit="10" stroke-width="1.5" d="M9.8 12h4.4c.44 0 .8.36.8.8V22H9v-9.2c0-.44.36-.8.8-.8Z"/><path stroke="#000" stroke-linecap="round" stroke-linejoin="round" stroke-width="1.5" d="M18 3v2"/><path stroke="#000" stroke-linecap="round" stroke-miterlimit="10" stroke-width="1.5" d="M15 8H9"/></svg>