<svg xmlns="http://www.w3.org/2000/svg" width="24" height="24" fill="none"><path fill="#000" fill-opacity=".16" d="M15 22h3.6a2.4 2.4 0 0 0 2.4-2.412V8.332c0-.382-.18-.734-.48-.965L12.7 2.24a1.195 1.195 0 0 0-1.44 0L3.48 7.367c-.3.231-.48.583-.48.965v11.256A2.4 2.4 0 0 0 5.4 22H9v-9.2c0-.44.36-.8.8-.8h4.4c.44 0 .8.36.8.8V22Z"/><path fill="#000" d="M.587 8.374a.75.75 0 1 0 .826 1.252L.587 8.374ZM11.26 2.24l.413.626a.729.729 0 0 0 .035-.024l-.448-.602Zm1.44 0-.448.602a.798.798 0 0 0 .037.025l.411-.627Zm9.889 7.387a.75.75 0 1 0 .823-1.254l-.823 1.254ZM21.75 8a.75.75 0 0 0-1.5 0h1.5Zm-18 0a.75.75 0 0 0-1.5 0h1.5ZM15 22v.75h.75V22H15Zm-6 0h-.75v.75H9V22Zm9.75-19a.75.75 0 0 0-1.5 0h1.5Zm-1.5 2a.75.75 0 0 0 1.5 0h-1.5ZM15 8.75a.75.75 0 0 0 0-1.5v1.5Zm-6-1.5a.75.75 0 0 0 0 1.5v-1.5ZM1.413 9.626l10.26-6.76-.826-1.252-10.26 6.76.826 1.252Zm10.295-6.784a.45.45 0 0 1 .544 0l.896-1.204a1.95 1.95 0 0 0-2.336 0l.896 1.204Zm.58.025 10.3 6.76.823-1.254-10.3-6.76-.822 1.254ZM20.25 8v11.6h1.5V8h-1.5Zm0 11.6c0 .916-.734 1.65-1.65 1.65v1.5a3.144 3.144 0 0 0 3.15-3.15h-1.5Zm-1.65 1.65H5.4v1.5h13.2v-1.5Zm-13.2 0c-.916 0-1.65-.734-1.65-1.65h-1.5a3.144 3.144 0 0 0 3.15 3.15v-1.5ZM3.75 19.6V8h-1.5v11.6h1.5Zm6.05-6.85h4.4v-1.5H9.8v1.5Zm4.4 0c.011 0 .023.004.035.015a.048.048 0 0 1 .015.035h1.5c0-.854-.696-1.55-1.55-1.55v1.5Zm.05.05V22h1.5v-9.2h-1.5Zm.75 8.45H9v1.5h6v-1.5ZM9.75 22v-9.2h-1.5V22h1.5Zm0-9.2c0-.011.004-.023.015-.035a.048.048 0 0 1 .035-.015v-1.5c-.854 0-1.55.696-1.55 1.55h1.5Zm7.5-9.8v2h1.5V3h-1.5ZM15 7.25H9v1.5h6v-1.5Z"/></svg>