<svg xmlns="http://www.w3.org/2000/svg" width="24" height="24" fill="none"><path fill="#000" fill-opacity=".16" d="M21 7v11.6c0 1.33-1.07 2.4-2.4 2.4H5.4C4.07 21 3 19.93 3 18.6V7"/><path stroke="#000" stroke-linecap="round" stroke-miterlimit="10" stroke-width="1.5" d="M21 7v11.6c0 1.33-1.07 2.4-2.4 2.4H5.4C4.07 21 3 19.93 3 18.6V7"/><path stroke="#000" stroke-miterlimit="10" stroke-width="1.5" d="M21.4 3H2.6A1.6 1.6 0 0 0 1 4.6v.8A1.6 1.6 0 0 0 2.6 7h18.8A1.6 1.6 0 0 0 23 5.4v-.8A1.6 1.6 0 0 0 21.4 3Z"/><path stroke="#000" stroke-linecap="round" stroke-miterlimit="10" stroke-width="1.5" d="M8 11h8"/></svg>