<svg xmlns="http://www.w3.org/2000/svg" width="24" height="24" fill="none"><path fill="#000" d="M2 11v-.75a.75.75 0 0 0-.75.75zm2.474-.393-.54-.52zm.306-1.393-.748.057.001.012zM4.51 5.68l-.749.047.001.01zm.252-1.447L4.1 3.88l-.004.008zm.954-.91.326.675a.775.775 0 0 0 .015-.007zM8.2 3.75a.75.75 0 0 0 0-1.5zM2 13h-.75c0 .414.336.75.75.75zm2.474.393-.54.52zm.306 1.393-.747-.069v.012zm-.27 3.535-.748-.057v.01zm.252 1.447-.666.345.004.008zm.954.91.34-.668a.835.835 0 0 0-.014-.007zM8.2 21.75a.75.75 0 0 0 0-1.5zM22.2 11h.75a.75.75 0 0 0-.75-.75zm-2.474-.393.54-.52zm-.306-1.393.747.069V9.27zm.27-3.535.748.057v-.01zm-.252-1.447.666-.346-.004-.007zm-.954-.91-.34.668.014.007zM16 2.25a.75.75 0 0 0 0 1.5zM22.2 13v.75a.75.75 0 0 0 .75-.75zm-2.474.393.54.52zm-.306 1.393.748-.057-.001-.012zm.27 3.535.749-.047-.001-.01zm-.252 1.447.662.353.004-.008zm-.954.91-.326-.675-.015.008zM16 20.25a.75.75 0 0 0 0 1.5zm-3.276-6.063a.75.75 0 0 0-1.453-.374zm-1.88 3.168-.69-.294-.005.01-.004.011zm-1.37 1.34a.75.75 0 0 0 1.371.61zM2 11.75h.98v-1.5H2zm.98 0c.41 0 .79-.036 1.122-.123.33-.087.66-.237.912-.5l-1.08-1.04c0-.001-.045.045-.213.09a3.005 3.005 0 0 1-.741.073zm2.034-.622c.496-.514.579-1.26.513-1.982l-1.494.137c.054.588-.067.77-.099.804zm.514-1.97-.27-3.537-1.496.115.27 3.535zm-.27-3.527c-.03-.474.044-.812.17-1.053l-1.332-.691c-.282.544-.377 1.17-.335 1.839zm.166-1.046c.14-.262.339-.453.618-.588L5.39 2.646c-.56.27-.997.685-1.29 1.233zm.633-.595c.293-.15.67-.24 1.153-.24v-1.5c-.669 0-1.288.125-1.835.403zm1.153-.24h.99v-1.5h-.99zM2 13.75h.98v-1.5H2zm.98 0c.333 0 .575.03.74.074.17.044.215.09.214.089l1.08-1.04c-.253-.263-.582-.413-.912-.5a4.461 4.461 0 0 0-1.122-.123zm.954.163c.032.034.153.216.1.804l1.493.137c.066-.721-.017-1.468-.513-1.982zm.098.816-.27 3.535 1.496.114.27-3.535zm-.27 3.545c-.043.669.052 1.295.334 1.84l1.332-.692c-.126-.241-.2-.579-.17-1.053zm.338 1.847c.293.548.73.963 1.29 1.233l.652-1.351a1.323 1.323 0 0 1-.618-.588zm1.275 1.226c.547.278 1.166.403 1.835.403v-1.5c-.483 0-.86-.09-1.153-.24zm1.835.403h.99v-1.5h-.99zM2.75 13v-2h-1.5v2zm19.45-2.75h-.98v1.5h.98zm-.98 0c-.333 0-.575-.03-.74-.074-.17-.044-.215-.09-.213-.089l-1.081 1.04c.253.263.582.413.912.5.332.087.712.123 1.122.123zm-.954-.163c-.032-.034-.153-.216-.1-.804l-1.493-.137c-.066.721.018 1.468.513 1.982zm-.098-.816.27-3.535-1.496-.115-.27 3.536zm.27-3.545c.043-.669-.052-1.295-.334-1.84l-1.332.692c.126.241.2.579.17 1.053zM20.1 3.879a2.822 2.822 0 0 0-1.29-1.233l-.652 1.351c.28.135.479.326.618.588zm-1.275-1.226c-.547-.278-1.166-.403-1.835-.403v1.5c.483 0 .86.09 1.153.24zM16.99 2.25H16v1.5h.99zm5.21 10h-.98v1.5h.98zm-.98 0c-.41 0-.79.036-1.122.123-.33.087-.66.237-.912.5l1.08 1.04c0 .001.045-.045.213-.09.166-.043.408-.073.741-.073zm-2.034.622c-.495.514-.579 1.26-.513 1.982l1.494-.137c-.054-.588.066-.77.099-.804zm-.514 1.97.27 3.536 1.496-.114-.27-3.535zm.27 3.527c.03.474-.044.812-.17 1.053l1.332.691c.282-.544.377-1.17.335-1.839zm-.166 1.046c-.14.262-.338.454-.618.588l.652 1.351c.56-.27.997-.685 1.29-1.233zm-.633.596c-.293.15-.67.239-1.153.239v1.5c.669 0 1.288-.125 1.835-.403zm-1.153.239H16v1.5h.99zM22.95 13v-2h-1.5v2zm-11.679.813c-.122.477-.28 1-.475 1.569l1.42.484c.204-.599.374-1.159.508-1.68zm-.475 1.569a24.675 24.675 0 0 1-.643 1.68l1.38.586c.25-.586.478-1.18.683-1.782zm-.651 1.7a37.886 37.886 0 0 1-.67 1.613l1.37.61a39.57 39.57 0 0 0 .697-1.678zM12.25 9a.25.25 0 0 1-.25.25v1.5A1.75 1.75 0 0 0 13.75 9zm-.25.25a.25.25 0 0 1-.25-.25h-1.5c0 .966.784 1.75 1.75 1.75zM11.75 9a.25.25 0 0 1 .25-.25v-1.5A1.75 1.75 0 0 0 10.25 9zm.25-.25a.25.25 0 0 1 .25.25h1.5A1.75 1.75 0 0 0 12 7.25z"/></svg>