<svg xmlns="http://www.w3.org/2000/svg" width="24" height="24" fill="none"><path stroke="#000" stroke-linecap="round" stroke-linejoin="round" stroke-width="1.5" d="M8.2 3h-.99c-.576 0-1.074.107-1.494.321-.42.203-.738.506-.954.911-.204.393-.288.875-.252 1.447l.27 3.535c.06.655-.042 1.12-.306 1.393-.252.262-.75.393-1.494.393H2v2h.98c.744 0 1.242.131 1.494.393.264.274.366.738.306 1.393l-.27 3.535c-.036.572.048 1.054.252 1.447.216.405.534.708.954.91.42.215.918.322 1.494.322h.99M16 3h.99c.576 0 1.074.107 1.494.321.42.203.738.506.954.911.204.393.288.875.252 1.447l-.27 3.535c-.06.655.042 1.12.306 1.393.252.262.75.393 1.494.393h.98v2h-.98c-.744 0-1.242.131-1.494.393-.264.274-.366.738-.306 1.393l.27 3.535c.036.572-.048 1.054-.252 1.447a2.073 2.073 0 0 1-.954.91c-.42.215-.918.322-1.494.322H16m-7-5v-1m3 1v-1m3 1v-1"/></svg>