<svg xmlns="http://www.w3.org/2000/svg" width="24" height="24" fill="none"><path stroke="#000" stroke-linecap="round" stroke-linejoin="round" stroke-width="1.5" d="M9 16v-1m3 1v-1m3 1v-1M6.835 4c-.498.015-.93.095-1.297.242a1.857 1.857 0 0 0-.857.66c-.19.292-.285.68-.285 1.164V9.23c0 .747-.198 1.348-.594 1.802-.395.44-.996.733-1.802.88v.131c.82.146 1.421.447 1.802.901.396.44.594 1.033.594 1.78v3.231c0 .469.095.85.285 1.143.19.308.47.527.835.66.367.146.806.226 1.32.241M17.164 4c.498.015.93.095 1.297.242.366.146.652.366.857.66.19.292.285.68.285 1.164V9.23c0 .747.198 1.348.594 1.802.395.44.996.733 1.802.88v.131c-.82.146-1.421.447-1.802.901-.396.44-.594 1.033-.594 1.78v3.231c0 .469-.095.85-.285 1.143-.19.308-.47.527-.835.66-.367.146-.806.226-1.32.241"/></svg>