<svg xmlns="http://www.w3.org/2000/svg" width="24" height="24" fill="none" viewBox="0 0 24 24"><path stroke="#000" stroke-linecap="round" stroke-linejoin="round" stroke-miterlimit="10" stroke-width="1.5" d="M7 20h-.184c-1.626-.009-2.408-.306-2.408-2.01v-4.172c0-1.215-1.45-1.774-2.408-1.862v-.166c.967-.087 2.408-.69 2.408-1.887V6.01c0-1.695.782-2.001 2.408-2.01H7m10 16h.184c1.626-.009 2.408-.306 2.408-2.01v-4.172c0-1.215 1.45-1.774 2.408-1.862v-.166c-.967-.087-2.408-.69-2.408-1.887V6.01c0-1.695-.782-2.001-2.408-2.01H17m-5.002 11a22 22 0 0 1-.492 1.624q-.3.876-.662 1.73A39 39 0 0 1 10.16 20M13 10a1 1 0 1 1-2 0 1 1 0 0 1 2 0"/></svg>