<svg width="24" height="24" fill="none" xmlns="http://www.w3.org/2000/svg"><path d="M12 14a2 2 0 1 0 0-4 2 2 0 0 0 0 4Z" fill="#fff" stroke="#000" stroke-width="1.5" stroke-miterlimit="10"/><path d="M5 14a2 2 0 1 0 0-4 2 2 0 0 0 0 4Z" fill="#000" fill-opacity=".16" stroke="#000" stroke-width="1.5" stroke-miterlimit="10"/><path d="M19 14a2 2 0 1 0 0-4 2 2 0 0 0 0 4Z" fill="#fff" stroke="#000" stroke-width="1.5" stroke-miterlimit="10"/><path d="M12 7a2 2 0 1 0 0-4 2 2 0 0 0 0 4Z" fill="#000" fill-opacity=".16" stroke="#000" stroke-width="1.5" stroke-miterlimit="10"/><path d="M5 7a2 2 0 1 0 0-4 2 2 0 0 0 0 4ZM19 7a2 2 0 1 0 0-4 2 2 0 0 0 0 4ZM12 21a2 2 0 1 0 0-4 2 2 0 0 0 0 4ZM5 21a2 2 0 1 0 0-4 2 2 0 0 0 0 4Z" fill="#fff" stroke="#000" stroke-width="1.5" stroke-miterlimit="10"/><path d="M19 21a2 2 0 1 0 0-4 2 2 0 0 0 0 4Z" fill="#000" fill-opacity=".16" stroke="#000" stroke-width="1.5" stroke-miterlimit="10"/></svg>