<svg xmlns="http://www.w3.org/2000/svg" width="24" height="24" fill="none"><path fill="#000" fill-opacity=".16" d="M5 14a2 2 0 1 0 0-4 2 2 0 0 0 0 4ZM12 7a2 2 0 1 0 0-4 2 2 0 0 0 0 4ZM19 21a2 2 0 1 0 0-4 2 2 0 0 0 0 4Z"/><path stroke="#222" stroke-linejoin="round" stroke-miterlimit="10" stroke-width="1.5" d="M12 14a2 2 0 1 0 0-4 2 2 0 0 0 0 4ZM5 14a2 2 0 1 0 0-4 2 2 0 0 0 0 4ZM19 14a2 2 0 1 0 0-4 2 2 0 0 0 0 4ZM12 7a2 2 0 1 0 0-4 2 2 0 0 0 0 4ZM5 7a2 2 0 1 0 0-4 2 2 0 0 0 0 4ZM19 7a2 2 0 1 0 0-4 2 2 0 0 0 0 4ZM12 21a2 2 0 1 0 0-4 2 2 0 0 0 0 4ZM5 21a2 2 0 1 0 0-4 2 2 0 0 0 0 4ZM19 21a2 2 0 1 0 0-4 2 2 0 0 0 0 4Z"/></svg>