<svg width="24" height="24" fill="none" xmlns="http://www.w3.org/2000/svg"><path d="M12.467 11h-.934a.533.533 0 0 0-.533.533v.934c0 .294.239.533.533.533h.934a.533.533 0 0 0 .533-.533v-.934a.533.533 0 0 0-.533-.533ZM12.467 18h-.934a.533.533 0 0 0-.533.533v.934c0 .294.239.533.533.533h.934a.533.533 0 0 0 .533-.533v-.934a.533.533 0 0 0-.533-.533ZM12.467 4h-.934a.533.533 0 0 0-.533.533v.934c0 .294.239.533.533.533h.934A.533.533 0 0 0 13 5.467v-.934A.533.533 0 0 0 12.467 4Z" fill="#000" fill-opacity=".16" stroke="#000" stroke-width="1.5" stroke-miterlimit="10"/></svg>