<svg xmlns="http://www.w3.org/2000/svg" width="24" height="24" fill="none"><path fill="#000" fill-opacity=".16" fill-rule="evenodd" d="M7.4 5h9.2A2.4 2.4 0 0 1 19 7.4v9.2a2.4 2.4 0 0 1-2.4 2.4H7.4A2.4 2.4 0 0 1 5 16.6V7.4A2.4 2.4 0 0 1 7.4 5m3.2 4h2.8a1.6 1.6 0 0 1 1.6 1.6v2.8a1.6 1.6 0 0 1-1.6 1.6h-2.8A1.6 1.6 0 0 1 9 13.4v-2.8A1.6 1.6 0 0 1 10.6 9" clip-rule="evenodd"/><path stroke="#000" stroke-linecap="round" stroke-linejoin="round" stroke-miterlimit="10" stroke-width="1.5" d="M14 5V3m-4 2V3m4 18v-2m-4 2v-2m11-5h-2m2-4h-2M5 14H3m2-4H3m4.4-5h9.2A2.4 2.4 0 0 1 19 7.4v9.2a2.4 2.4 0 0 1-2.4 2.4H7.4A2.4 2.4 0 0 1 5 16.6V7.4A2.4 2.4 0 0 1 7.4 5m3.2 4h2.8a1.6 1.6 0 0 1 1.6 1.6v2.8a1.6 1.6 0 0 1-1.6 1.6h-2.8A1.6 1.6 0 0 1 9 13.4v-2.8A1.6 1.6 0 0 1 10.6 9"/></svg>