<svg xmlns="http://www.w3.org/2000/svg" width="24" height="24" fill="none" viewBox="0 0 24 24"><path fill="#000" fill-opacity=".16" d="M19.6 4H4.4A2.4 2.4 0 0 0 2 6.4v8.2A2.4 2.4 0 0 0 4.4 17h15.2a2.4 2.4 0 0 0 2.4-2.4V6.4A2.4 2.4 0 0 0 19.6 4"/><path stroke="#000" stroke-linecap="round" stroke-linejoin="round" stroke-miterlimit="10" stroke-width="1.5" d="M9 20h6m-5-10 2-2m0 0 2 2m-2-2v5M4.4 4h15.2A2.4 2.4 0 0 1 22 6.4v8.2a2.4 2.4 0 0 1-2.4 2.4H4.4A2.4 2.4 0 0 1 2 14.6V6.4A2.4 2.4 0 0 1 4.4 4"/></svg>