<svg width="24" height="24" fill="none" xmlns="http://www.w3.org/2000/svg"><path d="M16.6 5H7.4A2.4 2.4 0 0 0 5 7.4v9.2A2.4 2.4 0 0 0 7.4 19h9.2a2.4 2.4 0 0 0 2.4-2.4V7.4A2.4 2.4 0 0 0 16.6 5Z" fill="#000" fill-opacity=".16" stroke="#000" stroke-width="1.5" stroke-miterlimit="10"/><path d="M13.4 9h-2.8A1.6 1.6 0 0 0 9 10.6v2.8a1.6 1.6 0 0 0 1.6 1.6h2.8a1.6 1.6 0 0 0 1.6-1.6v-2.8A1.6 1.6 0 0 0 13.4 9Z" fill="#fff" stroke="#000" stroke-width="1.5" stroke-miterlimit="10"/><path d="M14 5V3M10 5V3M14 21v-2M10 21v-2M21 14h-2M21 10h-2M5 14H3M5 10H3" stroke="#000" stroke-width="1.5" stroke-miterlimit="10" stroke-linecap="round"/></svg>