<svg xmlns="http://www.w3.org/2000/svg" width="24" height="24" fill="none" viewBox="0 0 24 24"><path fill="#000" fill-opacity=".16" d="M18.6 3H5.4A2.4 2.4 0 0 0 3 5.4v13.2A2.4 2.4 0 0 0 5.4 21h13.2a2.4 2.4 0 0 0 2.4-2.4V5.4A2.4 2.4 0 0 0 18.6 3"/><path stroke="#000" stroke-miterlimit="10" stroke-width="1.5" d="M18.6 3H5.4A2.4 2.4 0 0 0 3 5.4v13.2A2.4 2.4 0 0 0 5.4 21h13.2a2.4 2.4 0 0 0 2.4-2.4V5.4A2.4 2.4 0 0 0 18.6 3Z"/><path stroke="#000" stroke-miterlimit="10" stroke-width="1.5" d="M12 13a1 1 0 1 0 0-2 1 1 0 0 0 0 2ZM12 18a1 1 0 1 0 0-2 1 1 0 0 0 0 2ZM12 8a1 1 0 1 0 0-2 1 1 0 0 0 0 2Z"/></svg>