<svg width="24" height="24" fill="none" xmlns="http://www.w3.org/2000/svg"><path fill-rule="evenodd" clip-rule="evenodd" d="M8.126 19a4.002 4.002 0 0 0 7.748 0H8.126Z" fill="#fff"/><path fill-rule="evenodd" clip-rule="evenodd" d="M5 18a1 1 0 0 1-.894-1.447L6 12.764V10c0-3.728 2.55-6.86 6-7.748 3.45.888 6 4.02 6 7.748v2.764l1.894 3.789A1 1 0 0 1 19 18H5Z" fill="#000" fill-opacity=".16"/><path d="M12 18H5a1 1 0 0 1-.894-1.447L6 12.763V10c0-3.728 2.55-6.86 6-7.748M12 18h7a1 1 0 0 0 .894-1.447L18 12.763V10c0-3.728-2.55-6.86-6-7.748M16 18a4 4 0 0 1-8 0" stroke="#000" stroke-width="1.5" stroke-linecap="round" stroke-linejoin="round"/></svg>