<svg xmlns="http://www.w3.org/2000/svg" width="24" height="24" fill="none" viewBox="0 0 24 24"><path fill="#000" fill-opacity=".16" fill-rule="evenodd" d="M7.077 4.065a6.905 6.905 0 0 1 9.85 0c2.758 2.773 2.758 7.21.038 9.945L12.002 19 7.04 14.01a7.034 7.034 0 0 1 0-9.907zM12 6.5a2 2 0 1 0 0 4 2 2 0 0 0 0-4" clip-rule="evenodd"/><path stroke="#000" stroke-linecap="round" stroke-linejoin="round" stroke-miterlimit="10" stroke-width="1.5" d="M17.455 16.986c2.736.487 4.545 1.33 4.545 2.287C22 20.779 17.523 22 12 22S2 20.78 2 19.273c0-.958 1.81-1.8 4.545-2.287m10.383-12.92c2.757 2.772 2.757 7.208.037 9.944L12.002 19 7.04 14.01a7.034 7.034 0 0 1 0-9.908l.037-.036a6.906 6.906 0 0 1 9.85 0m0 0q-.055-.055 0 0M14 8.5a2 2 0 1 1-4 0 2 2 0 0 1 4 0"/></svg>