<svg xmlns="http://www.w3.org/2000/svg" width="24" height="24" fill="none"><path fill="#000" fill-opacity=".16" d="m7.18 10.27 6.504 6.46c.697-.807 5.11-5.538 7.316.924 0 0-.232 3.346-4.994 3.346-3.367 0-6.851-4.038-9.29-6.346C4.626 12.692 3 10.154 3 7.846 3 3.116 6.252 3 6.252 3c7.432 2.538.929 7.27.929 7.27Z"/><path fill="#222" d="m7.18 10.27-.44-.607-.713.518.625.62.529-.532Zm6.504 6.46-.529.533.571.567.526-.61-.568-.49Zm7.316.924.748.052a.752.752 0 0 0-.038-.294l-.71.242Zm-14.284-3 .516-.545-.003-.002-.513.547ZM6.252 3l.242-.71-.13-.044-.139.004.027.75Zm8.498 3.5a.75.75 0 1 0 1.5 0h-1.5Zm4 0a.75.75 0 1 0 1.5 0h-1.5ZM6.652 10.801l6.503 6.462 1.058-1.064-6.504-6.462-1.057 1.064Zm7.6 6.42a9.31 9.31 0 0 1 1.04-1.02c.511-.427 1.112-.825 1.715-1.021.586-.19 1.125-.178 1.624.129.526.324 1.136 1.054 1.66 2.587l1.419-.485c-.58-1.697-1.35-2.799-2.293-3.38-.97-.598-1.992-.564-2.873-.278-.862.28-1.633.812-2.214 1.297-.588.49-1.023.97-1.214 1.19l1.136.98Zm6.748.433a54.29 54.29 0 0 1-.748-.053v-.007.01a2.352 2.352 0 0 1-.079.353 2.835 2.835 0 0 1-.475.908c-.493.631-1.51 1.385-3.692 1.385v1.5c2.58 0 4.06-.92 4.874-1.962.394-.505.61-1.01.726-1.392a3.826 3.826 0 0 0 .14-.664l.001-.015v-.006l.001-.003v-.001L21 17.654Zm-4.994 2.596c-1.407 0-2.944-.858-4.52-2.14-1.57-1.276-2.985-2.8-4.254-4L6.2 15.198c1.17 1.106 2.715 2.755 4.339 4.075 1.617 1.315 3.506 2.476 5.466 2.476v-1.5ZM7.23 14.107C5.191 12.194 3.75 9.842 3.75 7.847h-1.5c0 2.619 1.81 5.343 3.953 7.354l1.026-1.094ZM3.75 7.847c0-2.174.734-3.147 1.33-3.602.316-.24.63-.365.864-.43a2.116 2.116 0 0 1 .342-.066H6.28c-.001 0-.002 0-.028-.749l-.028-.75H6.22a.559.559 0 0 0-.068.005 3.611 3.611 0 0 0-.61.114 4.061 4.061 0 0 0-1.371.684C3.14 3.838 2.25 5.288 2.25 7.846h1.5ZM6.01 3.71c1.783.609 2.56 1.296 2.863 1.855.284.522.237 1.087-.05 1.706-.293.63-.8 1.227-1.267 1.683a9.237 9.237 0 0 1-.816.708l-.001.001.442.606c.44.607.441.607.441.606h.001l.002-.002.005-.003.018-.014a5.732 5.732 0 0 0 .274-.216c.176-.145.418-.354.683-.614.521-.51 1.175-1.254 1.578-2.123.41-.882.595-1.976.008-3.055C9.624 3.807 8.426 2.95 6.494 2.29l-.485 1.42Zm8.79 4.04h5.4v-1.5h-5.4v1.5Zm5.4 0c.011 0 .023.004.035.015a.048.048 0 0 1 .015.035h1.5c0-.854-.696-1.55-1.55-1.55v1.5Zm.05.05v2h1.5v-2h-1.5Zm0 2c0 .246-.204.45-.45.45v1.5c1.074 0 1.95-.876 1.95-1.95h-1.5Zm-.45.45h-4.6v1.5h4.6v-1.5Zm-4.6 0a.454.454 0 0 1-.45-.45h-1.5c0 1.074.876 1.95 1.95 1.95v-1.5Zm-.45-.45v-2h-1.5v2h1.5Zm0-2c0-.011.004-.023.015-.035a.048.048 0 0 1 .035-.015v-1.5c-.854 0-1.55.696-1.55 1.55h1.5Zm2.75-5.55A2.75 2.75 0 0 0 14.75 5h1.5c0-.69.56-1.25 1.25-1.25v-1.5ZM14.75 5v1.5h1.5V5h-1.5Zm5.5 1.5V5h-1.5v1.5h1.5Zm0-1.5a2.75 2.75 0 0 0-2.75-2.75v1.5c.69 0 1.25.56 1.25 1.25h1.5Z"/></svg>