<svg xmlns="http://www.w3.org/2000/svg" width="24" height="24" fill="none" viewBox="0 0 24 24"><path fill="#000" fill-opacity=".16" d="m7.18 10.27 6.504 6.46c.697-.807 5.11-5.538 7.316.924 0 0-.232 3.346-4.994 3.346-3.367 0-6.851-4.038-9.29-6.346C4.626 12.692 3 10.154 3 7.846 3 3.116 6.252 3 6.252 3c7.432 2.538.929 7.27.929 7.27"/><path fill="#000" d="m7.18 10.27-.44-.607-.713.518.625.62zm6.504 6.46-.529.533.571.567.526-.61zm7.316.924.748.052a.8.8 0 0 0-.038-.294zm-14.284-3 .516-.545-.003-.002zM6.252 3l.242-.71-.13-.044-.139.004zm8.498 4a.75.75 0 1 0 1.5 0h-1.5m4 0a.75.75 0 1 0 1.5 0h-1.5M7.18 10.27l-.528.531 6.503 6.462.529-.532.529-.532-6.504-6.462zm6.504 6.46.568.49a9 9 0 0 1 1.04-1.019c.511-.427 1.112-.825 1.715-1.021.586-.19 1.125-.178 1.624.129.526.324 1.136 1.054 1.66 2.587l.709-.242.71-.242c-.58-1.698-1.35-2.8-2.293-3.38-.97-.598-1.992-.565-2.873-.279-.862.28-1.633.812-2.214 1.297-.588.49-1.023.97-1.214 1.19zm7.316.924a54 54 0 0 1-.748-.053v-.007.01l-.01.067a2 2 0 0 1-.07.286 2.8 2.8 0 0 1-.474.908c-.493.631-1.51 1.385-3.692 1.385v1.5c2.58 0 4.06-.92 4.874-1.962.394-.505.61-1.01.726-1.392a4 4 0 0 0 .14-.664l.001-.015v-.006l.001-.003v-.001zM16.006 21v-.75c-1.407 0-2.944-.858-4.52-2.14-1.57-1.276-2.985-2.8-4.254-4l-.516.544-.515.545c1.17 1.106 2.715 2.755 4.339 4.075 1.617 1.315 3.506 2.476 5.467 2.476zm-9.29-6.346.513-.547C5.191 12.194 3.75 9.842 3.75 7.847h-1.5c0 2.619 1.81 5.343 3.953 7.354zM3 7.846h.75c0-2.173.734-3.146 1.33-3.6.316-.24.63-.366.864-.431a2 2 0 0 1 .342-.066H6.28c-.001 0-.002 0-.028-.749l-.028-.75H6.22a1 1 0 0 0-.068.005l-.144.016a4 4 0 0 0-.465.098 4.1 4.1 0 0 0-1.372.684C3.14 3.838 2.25 5.288 2.25 7.846zM6.252 3l-.243.71c1.784.609 2.56 1.296 2.864 1.855.284.522.237 1.087-.05 1.706-.293.63-.8 1.227-1.267 1.683a9 9 0 0 1-.816.708l-.001.001.442.606c.44.607.441.607.441.606h.001l.002-.002.005-.003.018-.014a6 6 0 0 0 .274-.216c.176-.145.418-.354.683-.614.521-.51 1.175-1.254 1.578-2.123.41-.882.595-1.976.008-3.055C9.624 3.807 8.426 2.95 6.494 2.29zM14.8 7v.75h5.4v-1.5h-5.4zm5.4 0v.75q.017 0 .035.015a.05.05 0 0 1 .015.035h1.5c0-.854-.696-1.55-1.55-1.55zm.8.8h-.75v2h1.5v-2zm0 2h-.75c0 .246-.204.45-.45.45v1.5c1.074 0 1.95-.876 1.95-1.95zM19.8 11v-.75h-4.6v1.5h4.6zm-4.6 0v-.75a.454.454 0 0 1-.45-.45h-1.5c0 1.074.876 1.95 1.95 1.95zM14 9.8h.75v-2h-1.5v2zm0-2h.75q0-.017.015-.035a.05.05 0 0 1 .035-.015v-1.5c-.854 0-1.55.696-1.55 1.55zM17.5 3v-.75A2.75 2.75 0 0 0 14.75 5h1.5c0-.69.56-1.25 1.25-1.25zm-2 2h-.75v2h1.5V5zm4 2h.75V5h-1.5v2zm0-2h.75a2.75 2.75 0 0 0-2.75-2.75v1.5c.69 0 1.25.56 1.25 1.25z"/></svg>