<svg width="24" height="24" fill="none" xmlns="http://www.w3.org/2000/svg"><path d="M18 16v-5.6A4.4 4.4 0 0 0 13.6 6H11" stroke="#000" stroke-width="1.5" stroke-miterlimit="10" stroke-linecap="round"/><path d="m13 4-2 2 2 2" stroke="#000" stroke-width="1.5" stroke-linecap="round" stroke-linejoin="round"/><path d="M18 20a2 2 0 1 0 0-4 2 2 0 0 0 0 4ZM6 20a2 2 0 1 0 0-4 2 2 0 0 0 0 4ZM6 8a2 2 0 1 0 0-4 2 2 0 0 0 0 4Z" fill="#000" fill-opacity=".16" stroke="#000" stroke-width="1.5" stroke-miterlimit="10"/><path d="M6 16V8" stroke="#000" stroke-width="1.5" stroke-miterlimit="10" stroke-linecap="round"/></svg>