<svg xmlns="http://www.w3.org/2000/svg" width="24" height="24" fill="none"><path stroke="#000" stroke-linecap="round" stroke-miterlimit="10" stroke-width="1.5" d="M18 16v-5.6A4.4 4.4 0 0 0 13.6 6H11"/><path stroke="#000" stroke-linecap="round" stroke-linejoin="round" stroke-width="1.5" d="m13 4-2 2 2 2"/><path fill="#000" fill-opacity=".16" stroke="#000" stroke-miterlimit="10" stroke-width="1.5" d="M18 20a2 2 0 1 0 0-4 2 2 0 0 0 0 4ZM6 20a2 2 0 1 0 0-4 2 2 0 0 0 0 4ZM6 8a2 2 0 1 0 0-4 2 2 0 0 0 0 4Z"/><path stroke="#000" stroke-linecap="round" stroke-miterlimit="10" stroke-width="1.5" d="M6 16V8"/></svg>