<svg xmlns="http://www.w3.org/2000/svg" width="24" height="24" fill="none"><path fill="#000" fill-opacity=".16" d="M12.113 21.98a.333.333 0 0 1-.226 0C10.917 21.64 4 18.94 4 11.252V4.304a.4.4 0 0 1 .303-.389l7.6-1.903a.4.4 0 0 1 .194 0l7.6 1.903a.4.4 0 0 1 .303.389v6.948c0 7.765-6.916 10.397-7.887 10.729Z"/><path stroke="#000" stroke-linecap="round" stroke-miterlimit="10" stroke-width="1.5" d="M12 15h.008M12 7v5m-8-.748c0 7.687 6.918 10.387 7.887 10.728.076.026.15.027.226 0C13.084 21.65 20 19.018 20 11.253V4.304a.4.4 0 0 0-.303-.389l-7.6-1.903a.4.4 0 0 0-.194 0l-7.6 1.903A.4.4 0 0 0 4 4.304v6.948Z"/></svg>