<svg xmlns="http://www.w3.org/2000/svg" width="24" height="24" fill="none"><g fill="#000" clip-path="url(#a)"><path fill-opacity=".16" fill-rule="evenodd" d="M20 9c1.66 0 3 1.34 3 3s-1.34 3-3 3h-.76l.54.54a3 3 0 0 1 0 4.24 3 3 0 0 1-4.24 0l-.54-.54V20c0 1.66-1.34 3-3 3s-3-1.34-3-3v-.76l-.54.54a3 3 0 0 1-4.24 0 3 3 0 0 1 0-4.24l.54-.54H4c-1.66 0-3-1.34-3-3s1.34-3 3-3h.76l-.54-.54a3 3 0 0 1 0-4.24 3 3 0 0 1 4.24 0l.54.54V4c0-1.66 1.34-3 3-3s3 1.34 3 3v.76l.54-.54a3 3 0 0 1 4.24 0 3 3 0 0 1 0 4.24l-.54.54H20Zm-4 3a4 4 0 1 1-8 0 4 4 0 0 1 8 0Z" clip-rule="evenodd"/><path d="m19.24 9-.53-.53a.75.75 0 0 0 .53 1.28V9Zm.54-.54.53.53-.53-.53Zm-4.24-4.24-.53-.53.53.53Zm-.54.54h-.75a.75.75 0 0 0 1.28.53L15 4.76Zm-6 0-.53.53a.75.75 0 0 0 1.28-.53H9Zm-.54-.54.53-.53-.53.53ZM4.22 8.46l-.53.53.53-.53Zm.54.54v.75a.75.75 0 0 0 .53-1.28L4.76 9Zm0 6 .53.53a.75.75 0 0 0-.53-1.28V15Zm-.54.54-.53-.53.53.53Zm4.24 4.24.53.53-.53-.53Zm.54-.54h.75a.75.75 0 0 0-1.28-.53l.53.53Zm6 0 .53-.53a.75.75 0 0 0-1.28.53H15Zm.54.54-.53.53.53-.53Zm4.24-4.24.53-.53-.53.53Zm-.54-.54v-.75a.75.75 0 0 0-.53 1.28l.53-.53Zm4.51-3A3.746 3.746 0 0 0 20 8.25v1.5A2.246 2.246 0 0 1 22.25 12h1.5ZM20 8.25h-.76v1.5H20v-1.5Zm-.23 1.28.54-.54-1.06-1.06-.54.54 1.06 1.06Zm.54-.54a3.75 3.75 0 0 0 0-5.3l-1.06 1.06a2.25 2.25 0 0 1 0 3.18l1.06 1.06Zm0-5.3a3.75 3.75 0 0 0-5.3 0l1.06 1.06a2.25 2.25 0 0 1 3.18 0l1.06-1.06Zm-5.3 0-.54.54 1.06 1.06.54-.54-1.06-1.06Zm.74 1.07V4h-1.5v.76h1.5Zm0-.76A3.746 3.746 0 0 0 12 .25v1.5A2.246 2.246 0 0 1 14.25 4h1.5ZM12 .25A3.746 3.746 0 0 0 8.25 4h1.5A2.246 2.246 0 0 1 12 1.75V.25ZM8.25 4v.76h1.5V4h-1.5Zm1.28.23-.54-.54-1.06 1.06.54.54 1.06-1.06Zm-.54-.54a3.75 3.75 0 0 0-5.3 0l1.06 1.06a2.25 2.25 0 0 1 3.18 0l1.06-1.06Zm-5.3 0a3.75 3.75 0 0 0 0 5.3l1.06-1.06a2.25 2.25 0 0 1 0-3.18L3.69 3.69Zm0 5.3.54.54 1.06-1.06-.54-.54-1.06 1.06Zm1.07-.74H4v1.5h.76v-1.5Zm-.76 0A3.746 3.746 0 0 0 .25 12h1.5A2.246 2.246 0 0 1 4 9.75v-1.5ZM.25 12A3.746 3.746 0 0 0 4 15.75v-1.5A2.246 2.246 0 0 1 1.75 12H.25ZM4 15.75h.76v-1.5H4v1.5Zm.23-1.28-.54.54 1.06 1.06.54-.54-1.06-1.06Zm-.54.54a3.75 3.75 0 0 0 0 5.3l1.06-1.06a2.25 2.25 0 0 1 0-3.18l-1.06-1.06Zm0 5.3a3.75 3.75 0 0 0 5.3 0l-1.06-1.06a2.25 2.25 0 0 1-3.18 0l-1.06 1.06Zm5.3 0 .54-.54-1.06-1.06-.54.54 1.06 1.06Zm-.74-1.07V20h1.5v-.76h-1.5Zm0 .76A3.746 3.746 0 0 0 12 23.75v-1.5A2.246 2.246 0 0 1 9.75 20h-1.5ZM12 23.75A3.746 3.746 0 0 0 15.75 20h-1.5A2.246 2.246 0 0 1 12 22.25v1.5ZM15.75 20v-.76h-1.5V20h1.5Zm-1.28-.23.54.54 1.06-1.06-.54-.54-1.06 1.06Zm.54.54a3.75 3.75 0 0 0 5.3 0l-1.06-1.06a2.25 2.25 0 0 1-3.18 0l-1.06 1.06Zm5.3 0a3.75 3.75 0 0 0 0-5.3l-1.06 1.06a2.25 2.25 0 0 1 0 3.18l1.06 1.06Zm0-5.3-.54-.54-1.06 1.06.54.54 1.06-1.06Zm-1.07.74H20v-1.5h-.76v1.5Zm.76 0A3.746 3.746 0 0 0 23.75 12h-1.5A2.246 2.246 0 0 1 20 14.25v1.5ZM15.25 12A3.25 3.25 0 0 1 12 15.25v1.5A4.75 4.75 0 0 0 16.75 12h-1.5ZM12 15.25A3.25 3.25 0 0 1 8.75 12h-1.5A4.75 4.75 0 0 0 12 16.75v-1.5ZM8.75 12A3.25 3.25 0 0 1 12 8.75v-1.5A4.75 4.75 0 0 0 7.25 12h1.5ZM12 8.75A3.25 3.25 0 0 1 15.25 12h1.5A4.75 4.75 0 0 0 12 7.25v1.5Z"/></g><defs><clipPath id="a"><path fill="#fff" d="M0 0h24v24H0z"/></clipPath></defs></svg>