<svg xmlns="http://www.w3.org/2000/svg" width="24" height="24" fill="none"><path fill="#000" fill-opacity=".16" fill-rule="evenodd" d="M18.51 9.49h1.87c.88 0 1.6.72 1.6 1.6v1.8c0 .88-.72 1.6-1.6 1.6h-1.87c-.03.092-.068.179-.106.269l-.034.081 1.32 1.32c.62.62.62 1.64 0 2.26l-1.27 1.27c-.62.62-1.64.62-2.26 0l-1.32-1.32c-.064.029-.131.055-.2.08l-.15.06v1.87c0 .88-.72 1.6-1.6 1.6h-1.8c-.88 0-1.6-.72-1.6-1.6v-1.87c-.092-.03-.179-.068-.269-.106l-.081-.034-1.32 1.32c-.62.62-1.64.62-2.26 0l-1.27-1.27c-.62-.62-.62-1.64 0-2.26l1.32-1.32c-.029-.064-.055-.131-.08-.2l-.06-.15H3.6c-.88 0-1.6-.72-1.6-1.6v-1.8c0-.88.72-1.6 1.6-1.6h1.87c.03-.092.068-.179.106-.269l.034-.081-1.32-1.32c-.62-.62-.62-1.64 0-2.26l1.27-1.27c.62-.62 1.64-.62 2.26 0l1.32 1.32c.064-.029.131-.055.2-.08l.15-.06V3.6c0-.88.72-1.6 1.6-1.6h1.8c.88 0 1.6.72 1.6 1.6v1.87c.092.03.179.068.269.106l.081.034 1.32-1.32c.62-.62 1.64-.62 2.26 0l1.27 1.27c.62.62.62 1.64 0 2.26l-1.32 1.32c.029.064.055.131.08.2l.06.15ZM16 12a4 4 0 1 1-8 0 4 4 0 0 1 8 0Z" clip-rule="evenodd"/><path fill="#000" d="m18.51 9.49-.692.288a.75.75 0 0 0 .692.462v-.75Zm-.14-.35-.53-.53a.75.75 0 0 0-.153.84l.683-.31Zm1.32-1.32-.53-.53.53.53Zm0-2.26-.53.53.53-.53Zm-1.27-1.27.53-.53-.53.53Zm-2.26 0-.53-.53.53.53Zm-1.32 1.32-.288.692a.75.75 0 0 0 .818-.162l-.53-.53Zm-.35-.14h-.75c0 .323.207.61.513.712l.237-.712Zm-5 0 .288.692a.75.75 0 0 0 .462-.692h-.75Zm-.35.14-.53.53a.75.75 0 0 0 .84.153l-.31-.683ZM7.82 4.29l.53-.53-.53.53Zm-2.26 0-.53-.53.53.53ZM4.29 5.56l.53.53-.53-.53Zm0 2.26.53-.53-.53.53Zm1.32 1.32.692.288a.75.75 0 0 0-.162-.818l-.53.53Zm-.14.35v.75a.75.75 0 0 0 .712-.513L5.47 9.49Zm0 5 .692-.289a.75.75 0 0 0-.692-.461v.75Zm.14.35.53.53a.75.75 0 0 0 .153-.84l-.683.31Zm-1.32 1.32-.53-.53.53.53Zm0 2.26.53-.53-.53.53Zm1.27 1.27-.53.53.53-.53Zm2.26 0 .53.53-.53-.53Zm1.32-1.32.288-.692a.75.75 0 0 0-.818.162l.53.53Zm.35.14h.75a.75.75 0 0 0-.513-.712l-.237.712Zm5 0-.289-.692a.75.75 0 0 0-.461.692h.75Zm.35-.14.53-.53a.75.75 0 0 0-.84-.153l.31.683Zm1.32 1.32-.53.53.53-.53Zm2.26 0 .53.53-.53-.53Zm1.27-1.27-.53-.53.53.53Zm-1.32-3.58-.692-.288a.75.75 0 0 0 .162.818l.53-.53Zm.14-.35v-.75a.75.75 0 0 0-.712.513l.712.237Zm1.87-5.75h-1.87v1.5h1.87v-1.5Zm-1.178.462c-.02-.048-.037-.093-.062-.159a3.864 3.864 0 0 0-.087-.213l-1.366.62c.015.033.03.072.053.13.02.051.047.126.078.198l1.384-.576Zm-.302.468 1.32-1.32-1.06-1.06-1.32 1.32 1.06 1.06Zm1.32-1.32a2.355 2.355 0 0 0 0-3.32l-1.06 1.06a.856.856 0 0 1 0 1.2l1.06 1.06Zm0-3.32-1.27-1.27-1.06 1.06 1.27 1.27 1.06-1.06Zm-1.27-1.27a2.355 2.355 0 0 0-3.32 0l1.06 1.06a.856.856 0 0 1 1.2 0l1.06-1.06Zm-3.32 0-1.32 1.32 1.06 1.06 1.32-1.32-1.06-1.06Zm-.502 1.158c-.091-.039-.246-.108-.4-.16l-.475 1.424c.085.028.15.059.299.12l.577-1.384Zm.112.552V3.6h-1.5v1.87h1.5Zm0-1.87a2.355 2.355 0 0 0-2.35-2.35v1.5c.466 0 .85.384.85.85h1.5Zm-2.35-2.35h-1.8v1.5h1.8v-1.5Zm-1.8 0A2.355 2.355 0 0 0 8.74 3.6h1.5c0-.466.384-.85.85-.85v-1.5ZM8.74 3.6v1.87h1.5V3.6h-1.5Zm.462 1.178c-.048.02-.093.037-.159.062-.06.022-.136.052-.213.087l.62 1.366c.033-.015.072-.03.13-.053.051-.02.126-.047.198-.078l-.576-1.384Zm.468.302L8.35 3.76 7.29 4.82l1.32 1.32 1.06-1.06ZM8.35 3.76a2.355 2.355 0 0 0-3.32 0l1.06 1.06a.856.856 0 0 1 1.2 0l1.06-1.06Zm-3.32 0L3.76 5.03l1.06 1.06 1.27-1.27-1.06-1.06ZM3.76 5.03a2.355 2.355 0 0 0 0 3.32l1.06-1.06a.856.856 0 0 1 0-1.2L3.76 5.03Zm0 3.32 1.32 1.32 1.06-1.06-1.32-1.32-1.06 1.06Zm1.158.502c-.039.091-.108.246-.16.4l1.424.475c.028-.085.059-.15.12-.299l-1.384-.576Zm.552-.112H3.6v1.5h1.87v-1.5Zm-1.87 0a2.355 2.355 0 0 0-2.35 2.35h1.5c0-.466.384-.85.85-.85v-1.5Zm-2.35 2.35v1.8h1.5v-1.8h-1.5Zm0 1.8a2.355 2.355 0 0 0 2.35 2.35v-1.5a.855.855 0 0 1-.85-.85h-1.5Zm2.35 2.35h1.87v-1.5H3.6v1.5Zm1.178-.462c.02.047.037.093.062.159.022.06.052.136.087.213l1.366-.62a2.346 2.346 0 0 1-.053-.13c-.02-.051-.047-.126-.078-.199l-1.384.577Zm.302-.468-1.32 1.32 1.06 1.06 1.32-1.32-1.06-1.06Zm-1.32 1.32a2.355 2.355 0 0 0 0 3.32l1.06-1.06a.856.856 0 0 1 0-1.2l-1.06-1.06Zm0 3.32 1.27 1.27 1.06-1.06-1.27-1.27-1.06 1.06Zm1.27 1.27a2.355 2.355 0 0 0 3.32 0l-1.06-1.06a.856.856 0 0 1-1.2 0l-1.06 1.06Zm3.32 0 1.32-1.32-1.06-1.06-1.32 1.32 1.06 1.06Zm.502-1.158c.091.039.246.108.4.16l.475-1.424c-.085-.028-.15-.059-.299-.12l-.576 1.384Zm-.112-.552v1.87h1.5v-1.87h-1.5Zm0 1.87a2.355 2.355 0 0 0 2.35 2.35v-1.5a.855.855 0 0 1-.85-.85h-1.5Zm2.35 2.35h1.8v-1.5h-1.8v1.5Zm1.8 0a2.355 2.355 0 0 0 2.35-2.35h-1.5c0 .466-.384.85-.85.85v1.5Zm2.35-2.35v-1.87h-1.5v1.87h1.5Zm-.462-1.178c.047-.02.093-.037.159-.062.06-.023.136-.052.213-.087l-.62-1.366c-.033.015-.072.03-.13.053-.051.02-.126.047-.199.078l.577 1.384Zm-.468-.302 1.32 1.32 1.06-1.06-1.32-1.32-1.06 1.06Zm1.32 1.32a2.355 2.355 0 0 0 3.32 0l-1.06-1.06a.856.856 0 0 1-1.2 0l-1.06 1.06Zm3.32 0 1.27-1.27-1.06-1.06-1.27 1.27 1.06 1.06Zm1.27-1.27a2.355 2.355 0 0 0 0-3.32l-1.06 1.06a.856.856 0 0 1 0 1.2l1.06 1.06Zm0-3.32-1.32-1.32-1.06 1.06 1.32 1.32 1.06-1.06Zm-1.158-.502c.039-.091.108-.246.16-.4l-1.424-.475c-.028.085-.059.15-.12.299l1.384.577Zm-.552.112h1.87v-1.5h-1.87v1.5Zm1.87 0a2.355 2.355 0 0 0 2.35-2.35h-1.5c0 .466-.384.85-.85.85v1.5Zm2.35-2.35v-1.8h-1.5v1.8h1.5Zm0-1.8a2.355 2.355 0 0 0-2.35-2.35v1.5c.466 0 .85.384.85.85h1.5Zm-7.48.91A3.25 3.25 0 0 1 12 15.25v1.5A4.75 4.75 0 0 0 16.75 12h-1.5ZM12 15.25A3.25 3.25 0 0 1 8.75 12h-1.5A4.75 4.75 0 0 0 12 16.75v-1.5ZM8.75 12A3.25 3.25 0 0 1 12 8.75v-1.5A4.75 4.75 0 0 0 7.25 12h1.5ZM12 8.75A3.25 3.25 0 0 1 15.25 12h1.5A4.75 4.75 0 0 0 12 7.25v1.5Z"/></svg>