<svg xmlns="http://www.w3.org/2000/svg" width="24" height="24" fill="none"><path fill="#000" fill-opacity=".16" fill-rule="evenodd" d="M11.887 21.98c.076.026.15.027.226 0C13.084 21.65 20 19.018 20 11.253V4.304a.4.4 0 0 0-.303-.389l-7.6-1.903a.4.4 0 0 0-.194 0l-7.6 1.903A.4.4 0 0 0 4 4.304v6.948c0 7.687 6.918 10.387 7.887 10.728Zm2.335-10.045 2.652-2.147c.063-.126.126-.252.126-.379-.063-.126-.19-.252-.316-.252h-3.283l-1.073-2.904c-.063-.127-.19-.253-.316-.253s-.252.126-.315.253l-1.01 2.904H7.34c-.126 0-.252.126-.315.252a.304.304 0 0 0 .126.38L9.74 11.87l-.821 3.157a.304.304 0 0 0 .126.379.402.402 0 0 0 .379 0l2.652-1.894 2.588 1.894c.063.063.126.063.19.063.063 0 .126 0 .189-.063a.304.304 0 0 0 .126-.379l-.947-3.093Z" clip-rule="evenodd"/><path stroke="#222" stroke-linejoin="round" stroke-miterlimit="10" stroke-width="1.5" d="M12.113 21.98a.333.333 0 0 1-.226 0C10.917 21.64 4 18.94 4 11.252V4.304a.4.4 0 0 1 .303-.389l7.6-1.903a.4.4 0 0 1 .194 0l7.6 1.903a.4.4 0 0 1 .303.389v6.948c0 7.765-6.916 10.397-7.887 10.729Z"/><path stroke="#222" stroke-linejoin="round" stroke-miterlimit="10" stroke-width="1.5" d="m16.874 9.788-2.652 2.147.947 3.093a.304.304 0 0 1-.126.379c-.063.063-.126.063-.19.063-.063 0-.126 0-.189-.063l-2.588-1.894-2.652 1.894a.402.402 0 0 1-.379 0 .304.304 0 0 1-.126-.379l.82-3.157-2.588-2.083a.304.304 0 0 1-.126-.379c.063-.126.19-.252.315-.252h3.347l1.01-2.904c.063-.127.19-.253.315-.253.127 0 .253.126.316.253l1.073 2.904h3.283c.127 0 .253.126.316.252 0 .127-.063.253-.126.38Z"/></svg>