<svg xmlns="http://www.w3.org/2000/svg" width="24" height="24" fill="none" viewBox="0 0 24 24"><path fill="#000" fill-opacity=".16" d="M3 6a3 3 0 0 1 6 0v12c0 .7-.24 1.346-.643 1.856A3 3 0 0 1 3 18z"/><path stroke="#000" stroke-linecap="round" stroke-linejoin="round" stroke-miterlimit="10" stroke-width="1.5" d="M6 18h-.008M6 21h12a3 3 0 1 0 0-6h-4.787M6 21a3 3 0 0 1-3-3V6a3 3 0 0 1 6 0v12c0 .7-.24 1.346-.643 1.856M6 21c.956 0 1.808-.447 2.357-1.144M9 10.728l3.607-3.607a3 3 0 1 1 4.242 4.243l-8.492 8.492"/></svg>