<svg xmlns="http://www.w3.org/2000/svg" width="24" height="24" fill="none" viewBox="0 0 24 24"><path fill="#000" fill-opacity=".16" d="M12.113 21.98a.33.33 0 0 1-.226 0C10.917 21.64 4 18.94 4 11.252V4.304a.4.4 0 0 1 .303-.389l7.6-1.903a.4.4 0 0 1 .194 0l7.6 1.903a.4.4 0 0 1 .303.389v6.948c0 7.765-6.916 10.397-7.887 10.729"/><path stroke="#000" stroke-linecap="round" stroke-miterlimit="10" stroke-width="1.5" d="M12.008 7H12m.008 8v-5M4 11.252c0 7.687 6.918 10.387 7.887 10.728q.113.04.226 0C13.084 21.65 20 19.018 20 11.253V4.304a.4.4 0 0 0-.303-.389l-7.6-1.903a.4.4 0 0 0-.194 0l-7.6 1.903A.4.4 0 0 0 4 4.304z"/></svg>