<svg xmlns="http://www.w3.org/2000/svg" width="24" height="24" fill="none" viewBox="0 0 24 24"><g fill="#000" clip-path="url(#a)"><path fill-opacity=".16" fill-rule="evenodd" d="M18.71 10H21v-.02c1.1 0 2 .9 2 2s-.9 2-2 2h-2.29c-.07.23-.15.46-.24.68-.1.22-.2.44-.31.65l1.62 1.62c.78.78.78 2.05 0 2.83s-2.05.78-2.83 0l-1.62-1.62c-.21.12-.43.22-.65.31s-.45.17-.68.24v2.29c0 1.1-.9 2-2 2s-2-.9-2-2v-2.29c-.23-.07-.46-.15-.68-.24-.22-.1-.44-.2-.65-.31l-1.62 1.62c-.78.78-2.05.78-2.83 0s-.78-2.05 0-2.83l1.62-1.62c-.12-.21-.22-.43-.31-.65s-.17-.45-.24-.68H3c-1.1 0-2-.9-2-2s.9-2 2-2h2.33a7.454 7.454 0 0 1 .54-1.32L4.25 7.04c-.78-.78-.78-2.05 0-2.83s2.05-.78 2.83 0L8.7 5.83c.21-.11.42-.21.64-.3h.01c.22-.09.44-.17.67-.24V3c0-1.1.9-2 2-2s2 .9 2 2v2.31c.23.07.45.15.67.24h.01c.22.09.43.19.64.3l1.62-1.62c.78-.78 2.05-.78 2.83 0s.78 2.05 0 2.83l-1.62 1.62a7.5 7.5 0 0 1 .54 1.32M16 12a4 4 0 1 1-8 0 4 4 0 0 1 8 0" clip-rule="evenodd"/><path d="M21 10v.75a.75.75 0 0 0 .75-.75zm-2.29 0-.718.218a.75.75 0 0 0 .718.532zm-.54-1.32-.53-.53a.75.75 0 0 0-.134.878zm1.62-1.62.53.53zm-2.83-2.83-.53-.53zm-1.62 1.62-.348.664a.75.75 0 0 0 .878-.134zm-.64-.3.284-.694A.8.8 0 0 0 14.7 4.8zm-.01 0-.284.694a.8.8 0 0 0 .284.056zm-.67-.24h-.75c0 .33.216.621.532.718zm-4-.02.218.718a.75.75 0 0 0 .532-.718zm-.67.24v.75a.8.8 0 0 0 .284-.056zm-.01 0v-.75a.8.8 0 0 0-.284.056zm-.64.3-.53.53a.75.75 0 0 0 .878.134zM5.87 8.66l.664.348A.75.75 0 0 0 6.4 8.13zm-.54 1.32v.75a.75.75 0 0 0 .718-.532zm-.04 4 .718-.218a.75.75 0 0 0-.718-.532zm.55 1.33.53.53a.75.75 0 0 0 .121-.902zm-1.62 1.62-.53-.53zm2.83 2.83.53.53zm1.62-1.62.348-.664a.75.75 0 0 0-.878.134zm.65.31-.31.683.026.011zm.68.24h.75a.75.75 0 0 0-.532-.718zm4 0-.218-.718a.75.75 0 0 0-.532.718zm1.33-.55.53-.53a.75.75 0 0 0-.902-.121zm4.45-1.21.53-.53zm-1.62-1.62-.664-.348a.75.75 0 0 0 .134.878zm.31-.65.683.31.011-.026zm.24-.68v-.75a.75.75 0 0 0-.718.532zm2.29-4v-.75a.75.75 0 0 0-.75.75zm0-.73h-2.29v1.5H21zm-1.573.532a9 9 0 0 0-.263-.746l-1.388.568c.08.195.152.403.216.614zm-.263-.746a8 8 0 0 0-.33-.704l-1.328.696c.1.193.19.382.27.576zm-.464.174 1.62-1.62-1.06-1.06-1.62 1.62zm1.62-1.62a2.754 2.754 0 0 0 0-3.89l-1.06 1.06a1.254 1.254 0 0 1 0 1.77zm0-3.89a2.754 2.754 0 0 0-3.89 0l1.06 1.06a1.254 1.254 0 0 1 1.77 0zm-3.89 0-1.62 1.62 1.06 1.06 1.62-1.62zm-.742 1.486a8 8 0 0 0-.704-.33l-.568 1.388c.194.08.383.17.576.27zm-.988.364V4.8h-.01v1.5h.01zm.274-.694a8 8 0 0 0-.736-.264l-.436 1.436c.204.062.402.134.604.216zm-.204.454V3h-1.5v2.31zm0-2.31A2.756 2.756 0 0 0 12.02.25v1.5c.686 0 1.25.564 1.25 1.25zM12.02.25A2.756 2.756 0 0 0 9.27 3h1.5c0-.686.564-1.25 1.25-1.25zM9.27 3v2.29h1.5V3zm.532 1.572a8 8 0 0 0-.736.264l.568 1.388c.202-.082.4-.154.604-.216zm-.452.958v-.75h-.01v1.5h.01zm-.294-.694c-.246.1-.477.21-.704.33l.696 1.328c.193-.1.382-.19.576-.27zm.174.464L7.61 3.68 6.55 4.74l1.62 1.62zM7.61 3.68a2.754 2.754 0 0 0-3.89 0l1.06 1.06a1.254 1.254 0 0 1 1.77 0zm-3.89 0a2.754 2.754 0 0 0 0 3.89l1.06-1.06a1.254 1.254 0 0 1 0-1.77zm0 3.89 1.62 1.62L6.4 8.13 4.78 6.51zm1.486.742c-.12.227-.23.458-.33.704l1.388.568c.08-.194.17-.383.27-.576zm-.33.704c-.1.245-.188.497-.264.746l1.436.436c.064-.211.136-.419.216-.614zm.454.214H3v1.5h2.33zM3 9.23a2.756 2.756 0 0 0-2.75 2.75h1.5c0-.686.564-1.25 1.25-1.25zM.25 11.98A2.756 2.756 0 0 0 3 14.73v-1.5c-.686 0-1.25-.564-1.25-1.25zM3 14.73h2.29v-1.5H3zm1.572-.532c.076.249.164.501.264.746l1.388-.568a7 7 0 0 1-.216-.614zm.264.746c.097.237.21.49.353.738l1.302-.744a5 5 0 0 1-.267-.562zm.474-.164L3.69 16.4l1.06 1.06 1.62-1.62zM3.69 16.4a2.754 2.754 0 0 0 0 3.89l1.06-1.06a1.254 1.254 0 0 1 0-1.77zm0 3.89a2.754 2.754 0 0 0 3.89 0l-1.06-1.06a1.254 1.254 0 0 1-1.77 0zm3.89 0 1.62-1.62-1.06-1.06-1.62 1.62zm.742-1.486c.232.122.471.23.688.329l.62-1.366a12 12 0 0 1-.612-.291zm.714.34c.245.1.497.188.746.264l.436-1.436a7 7 0 0 1-.614-.216zm.214-.454v2.29h1.5v-2.29zm0 2.29A2.756 2.756 0 0 0 12 23.73v-1.5c-.686 0-1.25-.564-1.25-1.25zM12 23.73a2.756 2.756 0 0 0 2.75-2.75h-1.5c0 .686-.564 1.25-1.25 1.25zm2.75-2.75v-2.29h-1.5v2.29zm-.532-1.573c.249-.075.501-.163.746-.263l-.568-1.388c-.195.08-.403.152-.614.216zm.746-.263c.237-.097.49-.21.738-.353l-.744-1.302a5 5 0 0 1-.562.267zm-.164-.474 1.62 1.62 1.06-1.06-1.62-1.62zm1.62 1.62a2.754 2.754 0 0 0 3.89 0l-1.06-1.06a1.254 1.254 0 0 1-1.77 0zm3.89 0a2.754 2.754 0 0 0 0-3.89l-1.06 1.06a1.254 1.254 0 0 1 0 1.77zm0-3.89-1.62-1.62-1.06 1.06 1.62 1.62zm-1.486-.742c.122-.232.23-.471.329-.688l-1.366-.62c-.101.223-.193.424-.291.612zm.34-.714c.1-.245.188-.497.263-.746l-1.434-.436c-.065.211-.137.419-.217.614zm-.454-.214H21v-1.5h-2.29zm2.29 0a2.756 2.756 0 0 0 2.75-2.75h-1.5c0 .686-.564 1.25-1.25 1.25zm2.75-2.75A2.756 2.756 0 0 0 21 9.23v1.5c.686 0 1.25.564 1.25 1.25zm-3.5-2V10h1.5v-.02zm-5 2.02A3.25 3.25 0 0 1 12 15.25v1.5A4.75 4.75 0 0 0 16.75 12zM12 15.25A3.25 3.25 0 0 1 8.75 12h-1.5A4.75 4.75 0 0 0 12 16.75zM8.75 12A3.25 3.25 0 0 1 12 8.75v-1.5A4.75 4.75 0 0 0 7.25 12zM12 8.75A3.25 3.25 0 0 1 15.25 12h1.5A4.75 4.75 0 0 0 12 7.25z"/></g><defs><clipPath id="a"><path fill="#fff" d="M0 0h24v24H0z"/></clipPath></defs></svg>