<svg xmlns="http://www.w3.org/2000/svg" width="24" height="24" fill="none"><g clip-path="url(#a)"><path fill="#000" fill-opacity=".16" d="M12 14a2 2 0 1 0 0-4 2 2 0 0 0 0 4Z"/><path fill="#000" fill-opacity=".16" fill-rule="evenodd" d="M3.933 1h16.134A2.933 2.933 0 0 1 23 3.933v16.134A2.933 2.933 0 0 1 20.067 23H3.933A2.933 2.933 0 0 1 1 20.067V3.933A2.933 2.933 0 0 1 3.933 1ZM18.5 10.5h-1.75c-.09-.28-.2-.54-.33-.8l1.24-1.24c.59-.59.59-1.54 0-2.12-.59-.58-1.54-.59-2.12 0L14.3 7.58c-.25-.13-.52-.24-.8-.33V5.5c0-.83-.67-1.5-1.5-1.5s-1.5.67-1.5 1.5v1.75c-.28.09-.54.2-.8.33L8.46 6.34a1.49 1.49 0 0 0-2.12 0c-.58.59-.59 1.54 0 2.12L7.58 9.7c-.13.25-.24.52-.33.8H5.5c-.83 0-1.5.67-1.5 1.5s.67 1.5 1.5 1.5h1.75c.09.28.2.54.33.8l-1.24 1.24a1.49 1.49 0 0 0 0 2.12c.59.59 1.54.59 2.12 0l1.24-1.24c.25.13.52.24.8.33v1.75c0 .83.67 1.5 1.5 1.5s1.5-.67 1.5-1.5v-1.75c.28-.09.54-.2.8-.33l1.24 1.24c.59.59 1.54.59 2.12 0 .59-.59.59-1.54 0-2.12l-1.24-1.24c.13-.25.24-.52.33-.8h1.75c.83 0 1.5-.67 1.5-1.5s-.67-1.5-1.5-1.5Z" clip-rule="evenodd"/><path stroke="#000" stroke-miterlimit="10" stroke-width="1.5" d="M12 14a2 2 0 1 0 0-4 2 2 0 0 0 0 4Z"/><path stroke="#000" stroke-miterlimit="10" stroke-width="1.5" d="M3.933 1h16.134A2.933 2.933 0 0 1 23 3.933v16.134A2.933 2.933 0 0 1 20.067 23H3.933A2.933 2.933 0 0 1 1 20.067V3.933A2.933 2.933 0 0 1 3.933 1ZM18.5 10.5h-1.75c-.09-.28-.2-.54-.33-.8l1.24-1.24c.59-.59.59-1.54 0-2.12-.59-.58-1.54-.59-2.12 0L14.3 7.58c-.25-.13-.52-.24-.8-.33V5.5c0-.83-.67-1.5-1.5-1.5s-1.5.67-1.5 1.5v1.75c-.28.09-.54.2-.8.33L8.46 6.34a1.49 1.49 0 0 0-2.12 0c-.58.59-.59 1.54 0 2.12L7.58 9.7c-.13.25-.24.52-.33.8H5.5c-.83 0-1.5.67-1.5 1.5s.67 1.5 1.5 1.5h1.75c.09.28.2.54.33.8l-1.24 1.24a1.49 1.49 0 0 0 0 2.12c.59.59 1.54.59 2.12 0l1.24-1.24c.25.13.52.24.8.33v1.75c0 .83.67 1.5 1.5 1.5s1.5-.67 1.5-1.5v-1.75c.28-.09.54-.2.8-.33l1.24 1.24c.59.59 1.54.59 2.12 0 .59-.59.59-1.54 0-2.12l-1.24-1.24c.13-.25.24-.52.33-.8h1.75c.83 0 1.5-.67 1.5-1.5s-.67-1.5-1.5-1.5Z" clip-rule="evenodd"/><path fill="#000" d="m16.75 10.5-.714.23c.1.31.388.52.714.52v-.75Zm-.33-.8-.53-.53a.75.75 0 0 0-.14.865l.67-.335Zm-.88-3.36.53.53.005-.004-.535-.526ZM14.3 7.58l-.346.665a.75.75 0 0 0 .876-.135l-.53-.53Zm-.8-.33h-.75c0 .326.21.614.52.714l.23-.714Zm-3 0 .23.714a.75.75 0 0 0 .52-.714h-.75Zm-.8.33-.53.53a.75.75 0 0 0 .865.14L9.7 7.58Zm-3.36.88.53-.53-.004-.005-.526.535ZM7.58 9.7l.665.346a.75.75 0 0 0-.135-.876l-.53.53Zm-.33.8v.75a.75.75 0 0 0 .714-.52l-.714-.23Zm0 3 .714-.23a.75.75 0 0 0-.714-.52v.75Zm.33.8.53.53a.75.75 0 0 0 .14-.865l-.67.335Zm-1.24 3.36.53-.53-.004-.005-.526.535Zm2.12 0-.53-.53-.005.004.535.526Zm1.24-1.24.346-.665a.75.75 0 0 0-.876.135l.53.53Zm.8.33h.75a.75.75 0 0 0-.52-.714l-.23.714Zm3 0-.23-.714a.75.75 0 0 0-.52.714h.75Zm.8-.33.53-.53a.75.75 0 0 0-.865-.14l.335.67Zm3.36 1.24-.53-.53-.005.004.535.526Zm0-2.12-.53.53.004.005.526-.535Zm-1.24-1.24-.665-.346a.75.75 0 0 0 .135.876l.53-.53Zm.33-.8v-.75a.75.75 0 0 0-.714.52l.714.23ZM3.933 1.75h16.134V.25H3.933v1.5Zm16.134 0c1.206 0 2.183.978 2.183 2.183h1.5A3.683 3.683 0 0 0 20.067.25v1.5Zm2.183 2.183v16.134h1.5V3.933h-1.5Zm0 16.134a2.183 2.183 0 0 1-2.183 2.183v1.5a3.683 3.683 0 0 0 3.683-3.683h-1.5Zm-2.183 2.183H3.933v1.5h16.134v-1.5Zm-16.134 0a2.183 2.183 0 0 1-2.183-2.183H.25a3.683 3.683 0 0 0 3.683 3.683v-1.5ZM1.75 20.067V3.933H.25v16.134h1.5Zm0-16.134c0-1.205.978-2.183 2.183-2.183V.25A3.683 3.683 0 0 0 .25 3.933h1.5ZM18.5 9.75h-1.75v1.5h1.75v-1.5Zm-1.036.52a6.357 6.357 0 0 0-.373-.905l-1.342.67c.116.232.21.457.287.694l1.428-.458Zm-.514-.04 1.24-1.24-1.06-1.06-1.24 1.24 1.06 1.06Zm1.24-1.24a2.24 2.24 0 0 0-.004-3.185l-1.052 1.07a.74.74 0 0 1-.004 1.055l1.06 1.06Zm-.004-3.185c-.874-.858-2.299-.888-3.18.01l1.069 1.05a.75.75 0 0 1 1.06.01l1.05-1.07Zm-3.176.005-1.24 1.24 1.06 1.06 1.24-1.24-1.06-1.06Zm-.364 1.105a5.912 5.912 0 0 0-.917-.379l-.458 1.428c.244.079.475.173.683.281l.692-1.33Zm-.396.335V5.5h-1.5v1.75h1.5Zm0-1.75A2.248 2.248 0 0 0 12 3.25v1.5c.416 0 .75.334.75.75h1.5ZM12 3.25A2.248 2.248 0 0 0 9.75 5.5h1.5c0-.416.334-.75.75-.75v-1.5ZM9.75 5.5v1.75h1.5V5.5h-1.5Zm.52 1.036a6.353 6.353 0 0 0-.905.373l.67 1.342a4.86 4.86 0 0 1 .694-.287l-.458-1.428Zm-.04.514L8.99 5.81 7.93 6.87l1.24 1.24 1.06-1.06ZM8.99 5.81a2.24 2.24 0 0 0-3.185.004l1.07 1.052a.74.74 0 0 1 1.055.004l1.06-1.06Zm-3.185.004c-.858.874-.888 2.299.01 3.18l1.05-1.069a.75.75 0 0 1 .01-1.06l-1.07-1.05ZM5.81 8.99l1.24 1.24 1.06-1.06-1.24-1.24-1.06 1.06Zm1.105.364a5.913 5.913 0 0 0-.379.917l1.428.458c.079-.244.173-.475.281-.683l-1.33-.692Zm.335.396H5.5v1.5h1.75v-1.5Zm-1.75 0A2.248 2.248 0 0 0 3.25 12h1.5c0-.416.334-.75.75-.75v-1.5ZM3.25 12a2.248 2.248 0 0 0 2.25 2.25v-1.5a.748.748 0 0 1-.75-.75h-1.5Zm2.25 2.25h1.75v-1.5H5.5v1.5Zm1.036-.52c.103.322.229.617.373.905l1.342-.67a4.86 4.86 0 0 1-.287-.694l-1.428.458Zm.514.04-1.24 1.24 1.06 1.06 1.24-1.24-1.06-1.06Zm-1.24 1.24a2.24 2.24 0 0 0 .004 3.185l1.052-1.07a.741.741 0 0 1 .004-1.055l-1.06-1.06Zm0 3.18a2.24 2.24 0 0 0 3.185-.004l-1.07-1.052a.74.74 0 0 1-1.055-.004l-1.06 1.06Zm3.18 0 1.24-1.24-1.06-1.06-1.24 1.24 1.06 1.06Zm.364-1.105c.292.152.601.278.917.379l.458-1.428a4.42 4.42 0 0 1-.683-.281l-.692 1.33Zm.396-.335v1.75h1.5v-1.75h-1.5Zm0 1.75A2.248 2.248 0 0 0 12 20.75v-1.5a.748.748 0 0 1-.75-.75h-1.5ZM12 20.75a2.248 2.248 0 0 0 2.25-2.25h-1.5c0 .416-.334.75-.75.75v1.5Zm2.25-2.25v-1.75h-1.5v1.75h1.5Zm-.52-1.036c.322-.104.617-.229.905-.373l-.67-1.342c-.232.116-.457.21-.694.287l.458 1.428Zm.04-.514 1.24 1.24 1.06-1.06-1.24-1.24-1.06 1.06Zm1.24 1.24a2.24 2.24 0 0 0 3.185-.004l-1.07-1.052a.741.741 0 0 1-1.055-.004l-1.06 1.06Zm3.18 0a2.24 2.24 0 0 0-.004-3.185l-1.052 1.07a.741.741 0 0 1-.004 1.055l1.06 1.06Zm0-3.18-1.24-1.24-1.06 1.06 1.24 1.24 1.06-1.06Zm-1.105-.364c.152-.292.278-.601.379-.917l-1.428-.458a4.42 4.42 0 0 1-.281.683l1.33.692Zm-.335-.396h1.75v-1.5h-1.75v1.5Zm1.75 0A2.248 2.248 0 0 0 20.75 12h-1.5c0 .416-.334.75-.75.75v1.5ZM20.75 12a2.248 2.248 0 0 0-2.25-2.25v1.5c.416 0 .75.334.75.75h1.5Zm-7.5 0c0 .69-.56 1.25-1.25 1.25v1.5A2.75 2.75 0 0 0 14.75 12h-1.5ZM12 13.25c-.69 0-1.25-.56-1.25-1.25h-1.5A2.75 2.75 0 0 0 12 14.75v-1.5ZM10.75 12c0-.69.56-1.25 1.25-1.25v-1.5A2.75 2.75 0 0 0 9.25 12h1.5ZM12 10.75c.69 0 1.25.56 1.25 1.25h1.5A2.75 2.75 0 0 0 12 9.25v1.5Z"/></g><defs><clipPath id="a"><path fill="#fff" d="M0 0h24v24H0z"/></clipPath></defs></svg>