<svg xmlns="http://www.w3.org/2000/svg" width="24" height="24" fill="none" viewBox="0 0 24 24"><g stroke="#000" stroke-miterlimit="10" stroke-width="1.5" clip-path="url(#a)"><path d="M12 18a6 6 0 1 0 0-12 6 6 0 0 0 0 12Z"/><path stroke-linecap="round" d="M3 12H1m22 0h-2m-9 9v2m0-22v2M5.636 18.364l-1.414 1.414M19.778 4.222l-1.414 1.414m-12.728 0L4.222 4.222m15.556 15.556-1.414-1.414M18 12a6 6 0 1 1-12 0 6 6 0 0 1 12 0Z"/></g><defs><clipPath id="a"><path fill="#fff" d="M0 0h24v24H0z"/></clipPath></defs></svg>