<svg xmlns="http://www.w3.org/2000/svg" width="24" height="24" fill="none"><g fill="#000" clip-path="url(#a)"><path fill-opacity=".16" fill-rule="evenodd" d="M18.71 10H21v-.02c1.1 0 2 .9 2 2s-.9 2-2 2h-2.29c-.07.23-.15.46-.24.68-.1.22-.2.44-.31.65l1.62 1.62c.78.78.78 2.05 0 2.83-.78.78-2.05.78-2.83 0l-1.62-1.62c-.21.12-.43.22-.65.31-.22.09-.45.17-.68.24v2.29c0 1.1-.9 2-2 2s-2-.9-2-2v-2.29c-.23-.07-.46-.15-.68-.24-.22-.1-.44-.2-.65-.31l-1.62 1.62c-.78.78-2.05.78-2.83 0-.78-.78-.78-2.05 0-2.83l1.62-1.62c-.12-.21-.22-.43-.31-.65-.09-.22-.17-.45-.24-.68H3c-1.1 0-2-.9-2-2s.9-2 2-2h2.33a7.454 7.454 0 0 1 .54-1.32L4.25 7.04c-.78-.78-.78-2.05 0-2.83.78-.78 2.05-.78 2.83 0L8.7 5.83c.21-.11.42-.21.64-.3h.01c.22-.09.44-.17.67-.24V3c0-1.1.9-2 2-2s2 .9 2 2v2.31c.23.07.45.15.67.24h.01c.22.09.43.19.64.3l1.62-1.62c.78-.78 2.05-.78 2.83 0 .78.78.78 2.05 0 2.83l-1.62 1.62a7.454 7.454 0 0 1 .54 1.32ZM16 12a4 4 0 1 1-8 0 4 4 0 0 1 8 0Z" clip-rule="evenodd"/><path d="M21 10v.75a.75.75 0 0 0 .75-.75H21Zm-2.29 0-.718.218a.75.75 0 0 0 .718.532V10Zm-.54-1.32-.53-.53a.75.75 0 0 0-.134.878l.664-.348Zm1.62-1.62.53.53-.53-.53Zm-2.83-2.83-.53-.53.53.53Zm-1.62 1.62-.348.664a.75.75 0 0 0 .878-.134l-.53-.53Zm-.64-.3.284-.694A.75.75 0 0 0 14.7 4.8v.75Zm-.01 0-.284.694a.75.75 0 0 0 .284.056v-.75Zm-.67-.24h-.75c0 .33.216.621.532.718l.218-.718Zm-4-.02.218.718a.75.75 0 0 0 .532-.718h-.75Zm-.67.24v.75a.75.75 0 0 0 .284-.056L9.35 5.53Zm-.01 0v-.75a.75.75 0 0 0-.284.056l.284.694Zm-.64.3-.53.53a.75.75 0 0 0 .878.134L8.7 5.83ZM5.87 8.66l.664.348A.75.75 0 0 0 6.4 8.13l-.53.53Zm-.54 1.32v.75a.75.75 0 0 0 .718-.532L5.33 9.98Zm-.04 4 .718-.218a.75.75 0 0 0-.718-.532v.75Zm.55 1.33.53.53a.75.75 0 0 0 .121-.902l-.651.372Zm-1.62 1.62-.53-.53.53.53Zm2.83 2.83.53.53-.53-.53Zm1.62-1.62.348-.664a.75.75 0 0 0-.878.134l.53.53Zm.65.31-.31.683.026.011.284-.694Zm.68.24h.75a.75.75 0 0 0-.532-.718L10 18.69Zm4 0-.218-.718a.75.75 0 0 0-.532.718H14Zm1.33-.55.53-.53a.75.75 0 0 0-.902-.121l.372.651Zm4.45-1.21.53-.53-.53.53Zm-1.62-1.62-.664-.348a.75.75 0 0 0 .134.878l.53-.53Zm.31-.65.683.31.011-.026-.694-.284Zm.24-.68v-.75a.75.75 0 0 0-.718.532l.718.218Zm2.29-4v-.75a.75.75 0 0 0-.75.75H21Zm0-.73h-2.29v1.5H21v-1.5Zm-1.573.532a8.572 8.572 0 0 0-.263-.746l-1.388.568c.08.195.152.403.216.614l1.435-.436Zm-.263-.746a8.22 8.22 0 0 0-.33-.704l-1.328.696c.1.193.19.382.27.576l1.388-.568Zm-.464.174 1.62-1.62-1.06-1.06-1.62 1.62 1.06 1.06Zm1.62-1.62a2.754 2.754 0 0 0 0-3.89l-1.06 1.06a1.254 1.254 0 0 1 0 1.77l1.06 1.06Zm0-3.89a2.754 2.754 0 0 0-3.89 0l1.06 1.06a1.254 1.254 0 0 1 1.77 0l1.06-1.06Zm-3.89 0-1.62 1.62 1.06 1.06 1.62-1.62-1.06-1.06Zm-.742 1.486a8.195 8.195 0 0 0-.704-.33l-.568 1.388c.194.08.383.17.576.27l.696-1.328Zm-.988.364V4.8H14.69v1.5H14.7v-.75Zm.274-.694a8.37 8.37 0 0 0-.736-.264l-.436 1.436c.204.062.402.134.604.216l.568-1.388Zm-.204.454V3h-1.5v2.31h1.5Zm0-2.31A2.756 2.756 0 0 0 12.02.25v1.5c.686 0 1.25.564 1.25 1.25h1.5ZM12.02.25A2.756 2.756 0 0 0 9.27 3h1.5c0-.686.564-1.25 1.25-1.25V.25ZM9.27 3v2.29h1.5V3h-1.5Zm.532 1.572a8.358 8.358 0 0 0-.736.264l.568 1.388c.202-.082.4-.154.604-.216l-.436-1.436Zm-.452.958v-.75H9.34v1.5H9.35v-.75Zm-.294-.694c-.246.1-.477.21-.704.33l.696 1.328c.193-.1.382-.19.576-.27l-.568-1.388Zm.174.464L7.61 3.68 6.55 4.74l1.62 1.62L9.23 5.3ZM7.61 3.68a2.754 2.754 0 0 0-3.89 0l1.06 1.06a1.254 1.254 0 0 1 1.77 0l1.06-1.06Zm-3.89 0a2.754 2.754 0 0 0 0 3.89l1.06-1.06a1.254 1.254 0 0 1 0-1.77L3.72 3.68Zm0 3.89 1.62 1.62L6.4 8.13 4.78 6.51 3.72 7.57Zm1.486.742c-.12.227-.23.458-.33.704l1.388.568c.08-.194.17-.383.27-.576l-1.328-.696Zm-.33.704c-.1.245-.188.497-.264.746l1.436.436c.064-.211.136-.419.216-.614l-1.388-.568Zm.454.214H3v1.5h2.33v-1.5ZM3 9.23a2.756 2.756 0 0 0-2.75 2.75h1.5c0-.686.564-1.25 1.25-1.25v-1.5ZM.25 11.98A2.756 2.756 0 0 0 3 14.73v-1.5c-.686 0-1.25-.564-1.25-1.25H.25ZM3 14.73h2.29v-1.5H3v1.5Zm1.572-.532c.076.249.164.501.264.746l1.388-.568a7.07 7.07 0 0 1-.216-.614l-1.436.436Zm.264.746c.097.237.21.49.353.738l1.302-.744a4.775 4.775 0 0 1-.267-.562l-1.388.568Zm.474-.164L3.69 16.4l1.06 1.06 1.62-1.62-1.06-1.06ZM3.69 16.4a2.754 2.754 0 0 0 0 3.89l1.06-1.06a1.254 1.254 0 0 1 0-1.77L3.69 16.4Zm0 3.89a2.754 2.754 0 0 0 3.89 0l-1.06-1.06a1.254 1.254 0 0 1-1.77 0l-1.06 1.06Zm3.89 0 1.62-1.62-1.06-1.06-1.62 1.62 1.06 1.06Zm.742-1.486c.232.122.471.23.688.329l.62-1.366a12.229 12.229 0 0 1-.612-.291l-.696 1.328Zm.714.34c.245.1.497.188.746.264l.436-1.436a7.063 7.063 0 0 1-.614-.216l-.568 1.388Zm.214-.454v2.29h1.5v-2.29h-1.5Zm0 2.29A2.756 2.756 0 0 0 12 23.73v-1.5c-.686 0-1.25-.564-1.25-1.25h-1.5ZM12 23.73a2.756 2.756 0 0 0 2.75-2.75h-1.5c0 .686-.564 1.25-1.25 1.25v1.5Zm2.75-2.75v-2.29h-1.5v2.29h1.5Zm-.532-1.573c.249-.075.501-.163.746-.263l-.568-1.388c-.195.08-.403.152-.614.216l.436 1.435Zm.746-.263c.237-.097.49-.21.738-.353l-.744-1.302a4.762 4.762 0 0 1-.562.267l.568 1.388Zm-.164-.474 1.62 1.62 1.06-1.06-1.62-1.62-1.06 1.06Zm1.62 1.62a2.754 2.754 0 0 0 3.89 0l-1.06-1.06a1.254 1.254 0 0 1-1.77 0l-1.06 1.06Zm3.89 0a2.754 2.754 0 0 0 0-3.89l-1.06 1.06a1.254 1.254 0 0 1 0 1.77l1.06 1.06Zm0-3.89-1.62-1.62-1.06 1.06 1.62 1.62 1.06-1.06Zm-1.486-.742c.122-.232.23-.471.329-.688l-1.366-.62c-.101.223-.193.424-.291.612l1.328.696Zm.34-.714c.1-.245.188-.497.263-.746l-1.434-.436c-.065.211-.137.419-.217.614l1.388.568Zm-.454-.214H21v-1.5h-2.29v1.5Zm2.29 0a2.756 2.756 0 0 0 2.75-2.75h-1.5c0 .686-.564 1.25-1.25 1.25v1.5Zm2.75-2.75A2.756 2.756 0 0 0 21 9.23v1.5c.686 0 1.25.564 1.25 1.25h1.5Zm-3.5-2V10h1.5v-.02h-1.5Zm-5 2.02A3.25 3.25 0 0 1 12 15.25v1.5A4.75 4.75 0 0 0 16.75 12h-1.5ZM12 15.25A3.25 3.25 0 0 1 8.75 12h-1.5A4.75 4.75 0 0 0 12 16.75v-1.5ZM8.75 12A3.25 3.25 0 0 1 12 8.75v-1.5A4.75 4.75 0 0 0 7.25 12h1.5ZM12 8.75A3.25 3.25 0 0 1 15.25 12h1.5A4.75 4.75 0 0 0 12 7.25v1.5Z"/></g><defs><clipPath id="a"><path fill="#fff" d="M0 0h24v24H0z"/></clipPath></defs></svg>