<svg xmlns="http://www.w3.org/2000/svg" width="24" height="24" fill="none"><g clip-path="url(#a)"><path fill="#000" fill-opacity=".16" fill-rule="evenodd" d="M18.71 10h2.69c.88 0 1.6.72 1.6 1.6v.8c0 .88-.72 1.6-1.6 1.6h-2.69c-.14.47-.32.91-.55 1.33l1.9 1.9c.62.62.62 1.64 0 2.26l-.57.57c-.62.62-1.64.62-2.26 0l-1.9-1.9c-.42.23-.86.41-1.33.55v2.69c0 .88-.72 1.6-1.6 1.6h-.8c-.88 0-1.6-.72-1.6-1.6v-2.69a6.77 6.77 0 0 1-1.33-.55l-1.9 1.9c-.62.62-1.64.62-2.26 0l-.57-.57c-.62-.62-.62-1.64 0-2.26l1.9-1.9A6.77 6.77 0 0 1 5.29 14H2.6c-.88 0-1.6-.72-1.6-1.6v-.8c0-.88.72-1.6 1.6-1.6h2.69c.14-.47.32-.91.55-1.33l-1.9-1.9c-.62-.62-.62-1.64 0-2.26l.57-.57c.62-.62 1.64-.62 2.26 0l1.9 1.9c.42-.23.86-.41 1.33-.55V2.6c0-.88.72-1.6 1.6-1.6h.8c.88 0 1.6.72 1.6 1.6v2.69c.47.14.91.32 1.33.55l1.9-1.9c.62-.62 1.64-.62 2.26 0l.57.57c.62.62.62 1.64 0 2.26l-1.9 1.9c.23.42.41.86.55 1.33ZM16 12a4 4 0 1 1-8 0 4 4 0 0 1 8 0Z" clip-rule="evenodd"/><path fill="#222" d="m18.71 10-.719.214a.75.75 0 0 0 .719.536V10Zm-.55-1.33-.53-.53a.75.75 0 0 0-.128.89l.658-.36Zm1.9-1.9-.53-.53.53.53Zm0-2.26-.53.53.53-.53Zm-.57-.57.53-.53-.53.53Zm-2.26 0-.53-.53.53.53Zm-1.9 1.9-.36.658a.75.75 0 0 0 .89-.128l-.53-.53ZM14 5.29h-.75a.75.75 0 0 0 .536.719L14 5.29Zm-4 0 .214.719a.75.75 0 0 0 .536-.719H10Zm-1.33.55-.53.53a.75.75 0 0 0 .89.128l-.36-.658ZM5.84 8.67l.658.36a.75.75 0 0 0-.128-.89l-.53.53ZM5.29 10v.75a.75.75 0 0 0 .719-.536L5.29 10Zm0 4 .719-.214a.75.75 0 0 0-.719-.536V14Zm.55 1.33.53.53a.75.75 0 0 0 .128-.89l-.658.36Zm-1.9 1.9-.53-.53.53.53Zm0 2.26-.53.53.53-.53Zm.57.57.53-.53-.53.53Zm2.26 0-.53-.53.53.53Zm1.9-1.9.36-.658a.75.75 0 0 0-.89.128l.53.53Zm1.33.55h.75a.75.75 0 0 0-.536-.719L10 18.71Zm4 0-.214-.719a.75.75 0 0 0-.536.719H14Zm1.33-.55.53-.53a.75.75 0 0 0-.89-.128l.36.658Zm2.83-2.83-.658-.36a.75.75 0 0 0 .128.89l.53-.53Zm.55-1.33v-.75a.75.75 0 0 0-.719.536l.719.214Zm2.69-4.75h-2.69v1.5h2.69v-1.5Zm-1.971.536a7.516 7.516 0 0 0-.611-1.476l-1.316.72c.203.37.363.76.49 1.184l1.437-.428ZM18.69 9.2l1.9-1.9-1.06-1.06-1.9 1.9 1.06 1.06Zm1.9-1.9a2.355 2.355 0 0 0 0-3.32l-1.06 1.06a.856.856 0 0 1 0 1.2l1.06 1.06Zm0-3.32-.57-.57-1.06 1.06.57.57 1.06-1.06Zm-.57-.57a2.355 2.355 0 0 0-3.32 0l1.06 1.06a.856.856 0 0 1 1.2 0l1.06-1.06Zm-3.32 0-1.9 1.9 1.06 1.06 1.9-1.9-1.06-1.06Zm-1.01 1.772a7.518 7.518 0 0 0-1.476-.61l-.428 1.437c.423.126.814.286 1.184.489l.72-1.316Zm-.94.108V2.6h-1.5v2.69h1.5Zm0-2.69A2.355 2.355 0 0 0 12.4.25v1.5c.466 0 .85.384.85.85h1.5ZM12.4.25h-.8v1.5h.8V.25Zm-.8 0A2.355 2.355 0 0 0 9.25 2.6h1.5c0-.466.384-.85.85-.85V.25ZM9.25 2.6v2.69h1.5V2.6h-1.5Zm.536 1.971a7.52 7.52 0 0 0-1.476.611l.72 1.316a6.02 6.02 0 0 1 1.184-.49l-.428-1.437ZM9.2 5.31l-1.9-1.9-1.06 1.06 1.9 1.9L9.2 5.31Zm-1.9-1.9a2.355 2.355 0 0 0-3.32 0l1.06 1.06a.856.856 0 0 1 1.2 0L7.3 3.41Zm-3.32 0-.57.57 1.06 1.06.57-.57-1.06-1.06Zm-.57.57a2.355 2.355 0 0 0 0 3.32l1.06-1.06a.856.856 0 0 1 0-1.2L3.41 3.98Zm0 3.32 1.9 1.9 1.06-1.06-1.9-1.9L3.41 7.3Zm1.772 1.01a7.52 7.52 0 0 0-.61 1.476l1.437.428a6.02 6.02 0 0 1 .489-1.184l-1.316-.72Zm.108.94H2.6v1.5h2.69v-1.5Zm-2.69 0A2.355 2.355 0 0 0 .25 11.6h1.5c0-.466.384-.85.85-.85v-1.5ZM.25 11.6v.8h1.5v-.8H.25Zm0 .8a2.355 2.355 0 0 0 2.35 2.35v-1.5a.855.855 0 0 1-.85-.85H.25Zm2.35 2.35h2.69v-1.5H2.6v1.5Zm1.971-.536c.154.517.354 1.006.611 1.476l1.316-.72a6.022 6.022 0 0 1-.49-1.184l-1.437.428Zm.739.586-1.9 1.9 1.06 1.06 1.9-1.9-1.06-1.06Zm-1.9 1.9a2.355 2.355 0 0 0 0 3.32l1.06-1.06a.856.856 0 0 1 0-1.2L3.41 16.7Zm0 3.32.57.57 1.06-1.06-.57-.57-1.06 1.06Zm.57.57a2.355 2.355 0 0 0 3.32 0l-1.06-1.06a.856.856 0 0 1-1.2 0l-1.06 1.06Zm3.32 0 1.9-1.9-1.06-1.06-1.9 1.9 1.06 1.06Zm1.01-1.772c.47.257.96.457 1.476.61l.428-1.437a6.024 6.024 0 0 1-1.184-.489l-.72 1.316Zm.94-.108v2.69h1.5v-2.69h-1.5Zm0 2.69a2.355 2.355 0 0 0 2.35 2.35v-1.5a.855.855 0 0 1-.85-.85h-1.5Zm2.35 2.35h.8v-1.5h-.8v1.5Zm.8 0a2.355 2.355 0 0 0 2.35-2.35h-1.5c0 .466-.384.85-.85.85v1.5Zm2.35-2.35v-2.69h-1.5v2.69h1.5Zm-.536-1.971a7.515 7.515 0 0 0 1.476-.611l-.72-1.316c-.37.203-.76.363-1.184.49l.428 1.437Zm.586-.739 1.9 1.9 1.06-1.06-1.9-1.9-1.06 1.06Zm1.9 1.9a2.355 2.355 0 0 0 3.32 0l-1.06-1.06a.856.856 0 0 1-1.2 0l-1.06 1.06Zm3.32 0 .57-.57-1.06-1.06-.57.57 1.06 1.06Zm.57-.57a2.355 2.355 0 0 0 0-3.32l-1.06 1.06a.856.856 0 0 1 0 1.2l1.06 1.06Zm0-3.32-1.9-1.9-1.06 1.06 1.9 1.9 1.06-1.06Zm-1.772-1.01c.257-.47.457-.96.61-1.476l-1.437-.428a6.025 6.025 0 0 1-.489 1.184l1.316.72Zm-.108-.94h2.69v-1.5h-2.69v1.5Zm2.69 0a2.355 2.355 0 0 0 2.35-2.35h-1.5c0 .466-.384.85-.85.85v1.5Zm2.35-2.35v-.8h-1.5v.8h1.5Zm0-.8a2.355 2.355 0 0 0-2.35-2.35v1.5c.466 0 .85.384.85.85h1.5Zm-8.5.4A3.25 3.25 0 0 1 12 15.25v1.5A4.75 4.75 0 0 0 16.75 12h-1.5ZM12 15.25A3.25 3.25 0 0 1 8.75 12h-1.5A4.75 4.75 0 0 0 12 16.75v-1.5ZM8.75 12A3.25 3.25 0 0 1 12 8.75v-1.5A4.75 4.75 0 0 0 7.25 12h1.5ZM12 8.75A3.25 3.25 0 0 1 15.25 12h1.5A4.75 4.75 0 0 0 12 7.25v1.5Z"/></g><defs><clipPath id="a"><path fill="#fff" d="M0 0h24v24H0z"/></clipPath></defs></svg>