<svg xmlns="http://www.w3.org/2000/svg" width="24" height="24" fill="none" viewBox="0 0 24 24"><g fill="#000" clip-path="url(#a)"><path fill-opacity=".16" fill-rule="evenodd" d="M18.71 10h2.69c.88 0 1.6.72 1.6 1.6v.8c0 .88-.72 1.6-1.6 1.6h-2.69c-.14.47-.32.91-.55 1.33l1.9 1.9c.62.62.62 1.64 0 2.26l-.57.57c-.62.62-1.64.62-2.26 0l-1.9-1.9c-.42.23-.86.41-1.33.55v2.69c0 .88-.72 1.6-1.6 1.6h-.8c-.88 0-1.6-.72-1.6-1.6v-2.69a6.8 6.8 0 0 1-1.33-.55l-1.9 1.9c-.62.62-1.64.62-2.26 0l-.57-.57c-.62-.62-.62-1.64 0-2.26l1.9-1.9A6.8 6.8 0 0 1 5.29 14H2.6c-.88 0-1.6-.72-1.6-1.6v-.8c0-.88.72-1.6 1.6-1.6h2.69c.14-.47.32-.91.55-1.33l-1.9-1.9c-.62-.62-.62-1.64 0-2.26l.57-.57c.62-.62 1.64-.62 2.26 0l1.9 1.9c.42-.23.86-.41 1.33-.55V2.6c0-.88.72-1.6 1.6-1.6h.8c.88 0 1.6.72 1.6 1.6v2.69c.47.14.91.32 1.33.55l1.9-1.9c.62-.62 1.64-.62 2.26 0l.57.57c.62.62.62 1.64 0 2.26l-1.9 1.9c.23.42.41.86.55 1.33M16 12a4 4 0 1 1-8 0 4 4 0 0 1 8 0" clip-rule="evenodd"/><path d="m18.71 10-.719.214a.75.75 0 0 0 .719.536zm-.55-1.33-.53-.53a.75.75 0 0 0-.128.89zm1.9-1.9-.53-.53zm0-2.26-.53.53zm-.57-.57.53-.53zm-2.26 0-.53-.53zm-1.9 1.9-.36.658a.75.75 0 0 0 .89-.128zM14 5.29h-.75a.75.75 0 0 0 .536.719zm-4 0 .214.719a.75.75 0 0 0 .536-.719zm-1.33.55-.53.53a.75.75 0 0 0 .89.128zM5.84 8.67l.658.36a.75.75 0 0 0-.128-.89zM5.29 10v.75a.75.75 0 0 0 .719-.536zm0 4 .719-.214a.75.75 0 0 0-.719-.536zm.55 1.33.53.53a.75.75 0 0 0 .128-.89zm-1.9 1.9-.53-.53zm0 2.26-.53.53zm.57.57.53-.53zm2.26 0-.53-.53zm1.9-1.9.36-.658a.75.75 0 0 0-.89.128zm1.33.55h.75a.75.75 0 0 0-.536-.719zm4 0-.214-.719a.75.75 0 0 0-.536.719zm1.33-.55.53-.53a.75.75 0 0 0-.89-.128zm2.83-2.83-.658-.36a.75.75 0 0 0 .128.89zm.55-1.33v-.75a.75.75 0 0 0-.719.536zm2.69-4.75h-2.69v1.5h2.69zm-1.971.536a7.5 7.5 0 0 0-.611-1.476l-1.316.72c.203.37.363.76.49 1.184zM18.69 9.2l1.9-1.9-1.06-1.06-1.9 1.9zm1.9-1.9a2.355 2.355 0 0 0 0-3.32l-1.06 1.06a.856.856 0 0 1 0 1.2zm0-3.32-.57-.57-1.06 1.06.57.57zm-.57-.57a2.355 2.355 0 0 0-3.32 0l1.06 1.06a.856.856 0 0 1 1.2 0zm-3.32 0-1.9 1.9 1.06 1.06 1.9-1.9zm-1.01 1.772a7.5 7.5 0 0 0-1.476-.61l-.428 1.437c.423.126.814.286 1.184.489zm-.94.108V2.6h-1.5v2.69zm0-2.69A2.355 2.355 0 0 0 12.4.25v1.5c.466 0 .85.384.85.85zM12.4.25h-.8v1.5h.8zm-.8 0A2.355 2.355 0 0 0 9.25 2.6h1.5c0-.466.384-.85.85-.85zM9.25 2.6v2.69h1.5V2.6zm.536 1.971a7.5 7.5 0 0 0-1.476.611l.72 1.316a6 6 0 0 1 1.184-.49zM9.2 5.31l-1.9-1.9-1.06 1.06 1.9 1.9zm-1.9-1.9a2.355 2.355 0 0 0-3.32 0l1.06 1.06a.856.856 0 0 1 1.2 0zm-3.32 0-.57.57 1.06 1.06.57-.57zm-.57.57a2.355 2.355 0 0 0 0 3.32l1.06-1.06a.856.856 0 0 1 0-1.2zm0 3.32 1.9 1.9 1.06-1.06-1.9-1.9zm1.772 1.01a7.5 7.5 0 0 0-.61 1.476l1.437.428a6 6 0 0 1 .489-1.184zm.108.94H2.6v1.5h2.69zm-2.69 0A2.355 2.355 0 0 0 .25 11.6h1.5c0-.466.384-.85.85-.85zM.25 11.6v.8h1.5v-.8zm0 .8a2.355 2.355 0 0 0 2.35 2.35v-1.5a.855.855 0 0 1-.85-.85zm2.35 2.35h2.69v-1.5H2.6zm1.971-.536c.154.517.354 1.006.611 1.476l1.316-.72a6 6 0 0 1-.49-1.184zm.739.586-1.9 1.9 1.06 1.06 1.9-1.9zm-1.9 1.9a2.355 2.355 0 0 0 0 3.32l1.06-1.06a.856.856 0 0 1 0-1.2zm0 3.32.57.57 1.06-1.06-.57-.57zm.57.57a2.355 2.355 0 0 0 3.32 0l-1.06-1.06a.856.856 0 0 1-1.2 0zm3.32 0 1.9-1.9-1.06-1.06-1.9 1.9zm1.01-1.772c.47.257.96.457 1.476.61l.428-1.437a6 6 0 0 1-1.184-.489zm.94-.108v2.69h1.5v-2.69zm0 2.69a2.355 2.355 0 0 0 2.35 2.35v-1.5a.855.855 0 0 1-.85-.85zm2.35 2.35h.8v-1.5h-.8zm.8 0a2.355 2.355 0 0 0 2.35-2.35h-1.5c0 .466-.384.85-.85.85zm2.35-2.35v-2.69h-1.5v2.69zm-.536-1.971a7.5 7.5 0 0 0 1.476-.611l-.72-1.316c-.37.203-.76.363-1.184.49zm.586-.739 1.9 1.9 1.06-1.06-1.9-1.9zm1.9 1.9a2.355 2.355 0 0 0 3.32 0l-1.06-1.06a.856.856 0 0 1-1.2 0zm3.32 0 .57-.57-1.06-1.06-.57.57zm.57-.57a2.355 2.355 0 0 0 0-3.32l-1.06 1.06a.856.856 0 0 1 0 1.2zm0-3.32-1.9-1.9-1.06 1.06 1.9 1.9zm-1.772-1.01c.257-.47.457-.96.61-1.476l-1.437-.428a6 6 0 0 1-.489 1.184zm-.108-.94h2.69v-1.5h-2.69zm2.69 0a2.355 2.355 0 0 0 2.35-2.35h-1.5c0 .466-.384.85-.85.85zm2.35-2.35v-.8h-1.5v.8zm0-.8a2.355 2.355 0 0 0-2.35-2.35v1.5c.466 0 .85.384.85.85zm-8.5.4A3.25 3.25 0 0 1 12 15.25v1.5A4.75 4.75 0 0 0 16.75 12zM12 15.25A3.25 3.25 0 0 1 8.75 12h-1.5A4.75 4.75 0 0 0 12 16.75zM8.75 12A3.25 3.25 0 0 1 12 8.75v-1.5A4.75 4.75 0 0 0 7.25 12zM12 8.75A3.25 3.25 0 0 1 15.25 12h1.5A4.75 4.75 0 0 0 12 7.25z"/></g><defs><clipPath id="a"><path fill="#fff" d="M0 0h24v24H0z"/></clipPath></defs></svg>