<svg xmlns="http://www.w3.org/2000/svg" width="24" height="24" fill="none"><path stroke="#000" stroke-linecap="round" stroke-miterlimit="10" stroke-width="1.5" d="M5 13H1M23 13h-4M12 2v4M7.05 8.05 4.222 5.222M19.778 5.222 16.95 8.05"/><path fill="#000" fill-opacity=".16" d="M8 13c0-2.21 1.79-4 4-4s4 1.79 4 4"/><path stroke="#000" stroke-linecap="round" stroke-miterlimit="10" stroke-width="1.5" d="M8 13c0-2.21 1.79-4 4-4s4 1.79 4 4M16 13H8"/><path stroke="#000" stroke-linecap="round" stroke-linejoin="round" stroke-width="1.5" d="M12 16h.1M16 16h.1M20 16h.1M8 16h.1M12 19h.1M12 22h.1M16 19h.1M8 19h.1M4 16h.1"/></svg>