<svg xmlns="http://www.w3.org/2000/svg" width="24" height="24" fill="none" viewBox="0 0 24 24"><path fill="#000" fill-opacity=".16" d="M18.6 19a2.4 2.4 0 0 0 2.4-2.4V11H3v5.6A2.4 2.4 0 0 0 5.4 19z"/><path stroke="#000" stroke-linecap="round" stroke-linejoin="round" stroke-miterlimit="10" stroke-width="1.5" d="M8 22h8M3 11h18M5.4 2h13.2A2.4 2.4 0 0 1 21 4.4v12.2a2.4 2.4 0 0 1-2.4 2.4H5.4A2.4 2.4 0 0 1 3 16.6V4.4A2.4 2.4 0 0 1 5.4 2M8 15a1 1 0 1 1-2 0 1 1 0 0 1 2 0m10 0a1 1 0 1 1-2 0 1 1 0 0 1 2 0"/></svg>