<svg width="24" height="24" fill="none" xmlns="http://www.w3.org/2000/svg"><path d="M5 21 9.84 3.59c.1-.35.41-.59.77-.59h2.78c.36 0 .67.24.77.59L19 21" fill="#000" fill-opacity=".16"/><path d="M5 21 9.84 3.59c.1-.35.41-.59.77-.59h2.78c.36 0 .67.24.77.59L19 21" stroke="#000" stroke-width="1.5" stroke-miterlimit="10" stroke-linecap="round"/><path d="M15.64 9.67c-1.18.22-2.4.33-3.64.33-1.32 0-2.6-.13-3.85-.37M17.24 15.47c-1.69.35-3.44.53-5.24.53-1.8 0-3.63-.19-5.36-.55M2 21h20" stroke="#000" stroke-width="1.5" stroke-miterlimit="10" stroke-linecap="round"/></svg>