<svg xmlns="http://www.w3.org/2000/svg" width="24" height="24" fill="none" viewBox="0 0 24 24"><path fill="#000" fill-opacity=".16" d="M7 20h11.025c.357 0 .704-.118.99-.337s.499-.527.604-.88l2.307-7.756a1.78 1.78 0 0 0-.252-1.53 1.7 1.7 0 0 0-.59-.515 1.6 1.6 0 0 0-.75-.185h-5.833V5.349c0-2.045-1.043-3.01-2.304-3.326a.81.81 0 0 0-.712.164.9.9 0 0 0-.234.302.9.9 0 0 0-.084.378V6.21L7 11.382"/><path stroke="#000" stroke-linejoin="round" stroke-miterlimit="10" stroke-width="1.5" d="M7 20h11.025c.357 0 .704-.118.99-.337s.499-.527.604-.88l2.307-7.756a1.78 1.78 0 0 0-.252-1.53 1.7 1.7 0 0 0-.59-.515 1.6 1.6 0 0 0-.75-.185h-5.833V5.349c0-2.045-1.043-3.01-2.304-3.326a.81.81 0 0 0-.712.164.9.9 0 0 0-.234.302.9.9 0 0 0-.084.378V6.21L7 11.382M2.8 9h3.4a.8.8 0 0 1 .8.8v10.4a.8.8 0 0 1-.8.8H2.8a.8.8 0 0 1-.8-.8V9.8a.8.8 0 0 1 .8-.8Z"/></svg>