<svg xmlns="http://www.w3.org/2000/svg" width="24" height="24" fill="none"><path fill="#000" fill-opacity=".16" d="M6.6 10h10.8c.88 0 1.6.72 1.6 1.6v7c0 1.32-1.08 2.4-2.4 2.4H7.4C6.08 21 5 19.92 5 18.6v-7c0-.88.72-1.6 1.6-1.6Z"/><path stroke="#000" stroke-linecap="round" stroke-linejoin="round" stroke-miterlimit="10" stroke-width="1.5" d="M8 10V7a4 4 0 0 1 7.874-1M12 15a1 1 0 1 0 0-2 1 1 0 0 0 0 2Zm0 0v3m-5.4-8h10.8c.88 0 1.6.72 1.6 1.6v7c0 1.32-1.08 2.4-2.4 2.4H7.4C6.08 21 5 19.92 5 18.6v-7c0-.88.72-1.6 1.6-1.6Z"/></svg>