<svg xmlns="http://www.w3.org/2000/svg" width="24" height="24" fill="none" viewBox="0 0 24 24"><path fill="#000" fill-opacity=".16" d="M19.6 5H4.4A2.4 2.4 0 0 0 2 7.4v10.2A2.4 2.4 0 0 0 4.4 20h15.2a2.4 2.4 0 0 0 2.4-2.4V7.4A2.4 2.4 0 0 0 19.6 5"/><path stroke="#000" stroke-linecap="round" stroke-linejoin="round" stroke-miterlimit="10" stroke-width="1.5" d="M7 19V4m5 15V4m5 15V4M2 9h20M2 14h20M4.4 4h15.2A2.4 2.4 0 0 1 22 6.4v10.2a2.4 2.4 0 0 1-2.4 2.4H4.4A2.4 2.4 0 0 1 2 16.6V6.4A2.4 2.4 0 0 1 4.4 4"/></svg>