<svg width="24" height="24" fill="none" xmlns="http://www.w3.org/2000/svg"><path d="M4.2 7h14.4C19.92 7 21 8.08 21 9.4v9.2c0 1.32-1.08 2.4-2.4 2.4H5.4C4.08 21 3 19.92 3 18.6V8.2C3 7.54 3.54 7 4.2 7Z" fill="#000" fill-opacity=".16" stroke="#000" stroke-width="1.5" stroke-miterlimit="10"/><path d="M3 8.5v-3" stroke="#000" stroke-width="1.5" stroke-miterlimit="10" stroke-linecap="round"/><path d="M16.49 3 4.5 4C3.67 4 3 4.67 3 5.5S3.67 7 4.5 7H19V5.38C19 4.06 17.88 3 16.49 3Z" stroke="#000" stroke-width="1.5" stroke-miterlimit="10"/><path d="M21 11h-6.286c-.947 0-1.714.716-1.714 1.6v2.8c0 .884.768 1.6 1.714 1.6H21v-6Z" fill="#fff" stroke="#000" stroke-width="1.5" stroke-miterlimit="10" stroke-linecap="round"/><path d="M16 14h.01" stroke="#000" stroke-width="1.5" stroke-linecap="round" stroke-linejoin="round"/></svg>