<svg xmlns="http://www.w3.org/2000/svg" width="24" height="24" fill="none" viewBox="0 0 24 24"><path fill="#000" d="M2 18.6V17a1 1 0 1 1 2 0v1.6A1.4 1.4 0 0 0 5.4 20H7a1 1 0 1 1 0 2H5.4A3.4 3.4 0 0 1 2 18.6m18 0V17a1 1 0 1 1 2 0v1.6a3.4 3.4 0 0 1-3.4 3.4H17a1 1 0 1 1 0-2h1.6a1.4 1.4 0 0 0 1.4-1.4M2 7V5.4A3.4 3.4 0 0 1 5.4 2H7a1 1 0 0 1 0 2H5.4A1.4 1.4 0 0 0 4 5.4V7a1 1 0 0 1-2 0m18 0V5.4A1.4 1.4 0 0 0 18.6 4H17a1 1 0 1 1 0-2h1.6A3.4 3.4 0 0 1 22 5.4V7a1 1 0 1 1-2 0M15 12.25a.75.75 0 0 1 .727.568l.291 1.163 1.164.291a.75.75 0 0 1 0 1.455l-1.164.291-.29 1.164a.75.75 0 0 1-1.456 0l-.29-1.164-1.164-.29a.75.75 0 0 1 0-1.456l1.163-.29.291-1.164A.75.75 0 0 1 15 12.25M8.104 6.507c.298-.871 1.585-.842 1.818.087l.296 1.188 1.188.297c.96.24.96 1.603 0 1.843l-1.188.296-.296 1.188c-.24.96-1.603.96-1.843 0l-.297-1.188-1.188-.296c-.96-.24-.96-1.603 0-1.843l1.188-.297.297-1.188zM9 8.797A1 1 0 0 1 8.797 9 1 1 0 0 1 9 9.203 1 1 0 0 1 9.203 9 1 1 0 0 1 9 8.797"/></svg>