<svg xmlns="http://www.w3.org/2000/svg" width="24" height="24" fill="none" viewBox="0 0 24 24"><path fill="#000" d="M12 12.797a1 1 0 0 0 .203.203 1 1 0 0 0-.203.203 1 1 0 0 0-.203-.203 1 1 0 0 0 .203-.203"/><path fill="#000" fill-rule="evenodd" d="M21.4 2A2.6 2.6 0 0 1 24 4.6v.8A2.6 2.6 0 0 1 21.4 8h-.486L20 18.6c0 1.33-1.07 2.4-2.4 2.4H6.4C5.07 21 4 19.93 4 18.6L3.086 8H2.6A2.6 2.6 0 0 1 0 5.4v-.8A2.6 2.6 0 0 1 2.6 2zm-8.478 8.595c-.232-.93-1.52-.959-1.818-.087l-.025.087-.297 1.187-1.187.297c-.96.24-.96 1.603 0 1.843l1.187.297.297 1.187c.24.959 1.603.96 1.843 0l.297-1.187 1.187-.297c.96-.24.959-1.603 0-1.843l-1.187-.297zM2.6 4a.6.6 0 0 0-.6.6v.8a.6.6 0 0 0 .6.6h18.8a.6.6 0 0 0 .6-.6v-.8a.6.6 0 0 0-.6-.6z" clip-rule="evenodd"/></svg>