<svg xmlns="http://www.w3.org/2000/svg" width="24" height="24" fill="none" viewBox="0 0 24 24"><path fill="#000" d="M19.305 3.07c.433.018.806.197 1.111.502s.484.678.503 1.111c.018.416-.112.843-.33 1.272-.435.85-1.3 1.866-2.532 3.097l-1.005 1.005 1.555 6.94.005.03c.12.732-.242 1.339-.673 1.745v.001l-1.413 1.414a.5.5 0 0 1-.814-.156L13 13.685l-3.237 2.848.644 2.332.005.018c.105.437-.068.884-.354 1.17a.5.5 0 0 1-.078.064l-1.298.854a.5.5 0 0 1-.722-.193L6.377 17.61l-3.159-1.574a.5.5 0 0 1-.195-.722l.855-1.298.064-.078c.286-.286.733-.459 1.17-.354l.018.005 2.331.643 2.848-3.237-6.345-2.711a.5.5 0 0 1-.157-.814l1.401-1.4c.381-.411.944-.761 1.623-.703l.138.017.027.005 6.94 1.554 1.006-1.005c1.23-1.23 2.246-2.098 3.093-2.534.428-.22.855-.35 1.27-.333"/></svg>