<svg xmlns="http://www.w3.org/2000/svg" width="24" height="24" fill="none" viewBox="0 0 24 24"><path fill="#000" d="M19.425 4.575a2.5 2.5 0 0 0-3.536 0l-1.06 1.061 3.535 3.536 1.06-1.061a2.5 2.5 0 0 0 0-3.536M14.121 6.343l3.536 3.536-8.839 8.839a.5.5 0 0 1-.255.136l-3.536.707a.5.5 0 0 1-.588-.588l.707-3.535a.5.5 0 0 1 .137-.256zM19 16.25a.75.75 0 0 1 .727.568l.291 1.163 1.164.291a.75.75 0 0 1 0 1.455l-1.164.291-.29 1.164a.75.75 0 0 1-1.456 0l-.29-1.164-1.164-.29a.75.75 0 0 1 0-1.456l1.163-.29.291-1.164A.75.75 0 0 1 19 16.25M4.104 2.507c.298-.871 1.585-.842 1.818.087l.296 1.188 1.188.297c.96.24.96 1.603 0 1.843l-1.188.296-.296 1.188c-.24.96-1.603.96-1.843 0l-.297-1.188-1.188-.296c-.96-.24-.96-1.603 0-1.843l1.188-.297.297-1.188zM5 4.797A1 1 0 0 1 4.797 5 1 1 0 0 1 5 5.203 1 1 0 0 1 5.203 5 1 1 0 0 1 5 4.797"/></svg>