<svg xmlns="http://www.w3.org/2000/svg" width="24" height="24" fill="none" viewBox="0 0 24 24"><path fill="#000" d="M11.989 1.5c.432 0 .822.137 1.142.43.307.28.517.675.666 1.133.294.908.4 2.24.4 3.98v1.42l6.007 3.81.023.016c.604.433.778 1.119.76 1.711l.001 2a.5.5 0 0 1-.686.464l-6.406-2.57-.274 4.303 2.104 1.195.016.008c.383.236.577.673.577 1.079a.5.5 0 0 1-.01.1l-.313 1.522a.502.502 0 0 1-.648.374l-3.36-1.123-3.347 1.123a.5.5 0 0 1-.648-.374l-.313-1.522a.5.5 0 0 1-.01-.1c0-.406.194-.843.578-1.079l.014-.008 2.105-1.195-.275-4.302-6.405 2.569A.5.5 0 0 1 3.002 16v-2c-.018-.592.156-1.278.76-1.71l.023-.017 6.007-3.81V7.044c0-1.741.104-3.072.395-3.98.147-.458.355-.852.661-1.133.32-.294.71-.43 1.141-.431"/></svg>