<svg xmlns="http://www.w3.org/2000/svg" width="24" height="24" fill="none" viewBox="0 0 24 24"><path fill="#000" d="M22 15a1 1 0 0 1 0 2H12a1 1 0 0 1 0-2zm0-8a1 1 0 0 1 0 2H12a1 1 0 0 1 0-2zM4.104 13.507c.289-.843 1.504-.843 1.792 0l.026.087.296 1.188 1.188.297c.96.24.96 1.602 0 1.842l-1.188.297-.296 1.188c-.24.959-1.603.959-1.843 0l-.297-1.188-1.188-.297c-.96-.24-.96-1.603 0-1.842l1.188-.297.297-1.188zM5 15.797a1 1 0 0 1-.203.202 1 1 0 0 1 .203.204A1 1 0 0 1 5.203 16 1 1 0 0 1 5 15.795m-.896-10.29c.298-.871 1.585-.842 1.818.087l.296 1.188 1.188.297c.96.24.96 1.602 0 1.842l-1.188.297-.296 1.188c-.24.959-1.603.959-1.843 0l-.297-1.188-1.188-.297c-.96-.24-.96-1.603 0-1.842l1.188-.297.297-1.188zM5 7.797a1 1 0 0 1-.203.202A1 1 0 0 1 5 8.203a1 1 0 0 1 .203-.204A1 1 0 0 1 5 7.796"/></svg>