<svg xmlns="http://www.w3.org/2000/svg" width="24" height="24" fill="none" viewBox="0 0 24 24"><path fill="#000" d="M8.085 4.265c-.35-1.021-1.82-1.02-2.17 0l-.03.105-.302 1.21-1.213.304c-1.161.29-1.161 1.94 0 2.231l1.212.303.303 1.212c.29 1.161 1.94 1.161 2.231 0l.304-1.213 1.21-.302c1.161-.29 1.161-1.94 0-2.231l-1.211-.303-.303-1.21zm-1.07 1.884c.102.412.424.734.836.837l.057.013-.057.015a1.15 1.15 0 0 0-.837.837l-.013.056-.015-.056a1.15 1.15 0 0 0-.837-.837l-.056-.015.056-.013a1.15 1.15 0 0 0 .837-.837l.015-.057zM16.82 10.27l-6.504 6.46c-.697-.807-5.11-5.538-7.316.924 0 0 .232 3.346 4.994 3.346 3.367 0 6.851-4.038 9.29-6.346 2.09-1.962 3.716-4.5 3.716-6.808C21 3.116 17.748 3 17.748 3c-7.432 2.538-.929 7.27-.929 7.27"/></svg>