<svg xmlns="http://www.w3.org/2000/svg" width="24" height="24" fill="none" viewBox="0 0 24 24"><path fill="#000" d="M15.915 4.265c.35-1.021 1.82-1.02 2.17 0l.03.105.302 1.21 1.213.304c1.161.29 1.161 1.94 0 2.231l-1.212.303-.302 1.212c-.291 1.161-1.941 1.161-2.232 0l-.304-1.213-1.21-.302c-1.161-.29-1.161-1.94 0-2.231l1.211-.303.303-1.21zm1.07 1.884a1.15 1.15 0 0 1-.836.837l-.057.013.057.015c.412.103.733.425.837.837l.013.056.015-.056a1.15 1.15 0 0 1 .837-.837l.056-.015-.056-.013a1.15 1.15 0 0 1-.837-.837l-.015-.057zM7.18 10.27l6.504 6.46c.697-.807 5.11-5.538 7.316.924 0 0-.232 3.346-4.994 3.346-3.367 0-6.851-4.038-9.29-6.346C4.626 12.692 3 10.154 3 7.846 3 3.116 6.252 3 6.252 3c7.432 2.538.929 7.27.929 7.27"/></svg>