<svg xmlns="http://www.w3.org/2000/svg" width="24" height="24" fill="none" viewBox="0 0 24 24"><path fill="#000" d="m9.96 9.137.886-3.099c.332-1.16 1.976-1.16 2.308 0l.885 3.099a1.2 1.2 0 0 0 .824.824l3.099.885c1.16.332 1.16 1.976 0 2.308l-3.099.885a1.2 1.2 0 0 0-.824.824l-.885 3.099c-.332 1.16-1.976 1.16-2.308 0l-.885-3.099a1.2 1.2 0 0 0-.824-.824l-3.099-.885c-1.16-.332-1.16-1.976 0-2.308l3.099-.885a1.2 1.2 0 0 0 .824-.824M18.104 16.507c.289-.843 1.504-.844 1.792 0l.026.087.296 1.188 1.188.297c.96.24.96 1.602 0 1.842l-1.188.297-.296 1.188c-.24.959-1.603.959-1.843 0l-.297-1.188-1.188-.297c-.96-.24-.96-1.603 0-1.842l1.188-.297.297-1.188zm.896 2.29a1 1 0 0 1-.203.203 1 1 0 0 1 .203.203 1 1 0 0 1 .203-.203 1 1 0 0 1-.203-.204M4.104 2.506c.298-.871 1.585-.842 1.818.087l.296 1.188 1.188.297c.96.24.96 1.602 0 1.842l-1.188.297-.296 1.188c-.24.959-1.603.959-1.843 0l-.297-1.188-1.188-.297c-.96-.24-.96-1.603 0-1.842l1.188-.297.297-1.188zM5 4.797a1 1 0 0 1-.203.202A1 1 0 0 1 5 5.203a1 1 0 0 1 .203-.204A1 1 0 0 1 5 4.796"/></svg>