<svg xmlns="http://www.w3.org/2000/svg" width="24" height="24" fill="none" viewBox="0 0 24 24"><path fill="#000" d="M15 19a1 1 0 1 1 0 2H9a1 1 0 1 1 0-2zM12 10.297a1 1 0 0 0 .203.203 1 1 0 0 0-.203.203 1 1 0 0 0-.203-.203 1 1 0 0 0 .203-.203"/><path fill="#000" fill-rule="evenodd" d="M19.775 3.005A3.4 3.4 0 0 1 23 6.4v8.2a3.4 3.4 0 0 1-3.4 3.4H4.4A3.4 3.4 0 0 1 1 14.6V6.4A3.4 3.4 0 0 1 4.4 3h15.2zm-6.853 5.09c-.232-.93-1.52-.959-1.818-.087l-.025.087-.297 1.187-1.187.297c-.96.24-.96 1.603 0 1.843l1.187.297.297 1.187c.24.959 1.603.96 1.843 0l.297-1.187 1.187-.297c.96-.24.959-1.603 0-1.843l-1.187-.297z" clip-rule="evenodd"/></svg>