<svg xmlns="http://www.w3.org/2000/svg" width="24" height="24" fill="none" viewBox="0 0 24 24"><path fill="#000" d="M12 12.797a1 1 0 0 0 .203.203 1 1 0 0 0-.203.203 1 1 0 0 0-.203-.203 1 1 0 0 0 .203-.203"/><path fill="#000" fill-rule="evenodd" d="M15.6 1A3.4 3.4 0 0 1 19 4.4v15.2a3.4 3.4 0 0 1-3.4 3.4H8.4a3.4 3.4 0 0 1-3.395-3.225L5 19.6V4.4A3.4 3.4 0 0 1 8.4 1zm-2.678 9.595c-.232-.93-1.52-.959-1.818-.087l-.025.087-.297 1.187-1.187.297c-.96.24-.96 1.603 0 1.843l1.187.297.297 1.187c.24.959 1.603.96 1.843 0l.297-1.187 1.187-.297c.96-.24.959-1.603 0-1.843l-1.187-.297zM11 4a1 1 0 1 0 0 2h2a1 1 0 1 0 0-2z" clip-rule="evenodd"/></svg>