<svg width="24" height="24" fill="none" xmlns="http://www.w3.org/2000/svg"><path d="M4.4 3A1.4 1.4 0 0 0 3 4.4V6a1 1 0 0 1-2 0V4.4A3.4 3.4 0 0 1 4.4 1H6a1 1 0 0 1 0 2H4.4ZM17 2a1 1 0 0 1 1-1h1.6A3.4 3.4 0 0 1 23 4.4V6a1 1 0 1 1-2 0V4.4A1.4 1.4 0 0 0 19.6 3H18a1 1 0 0 1-1-1ZM2 17a1 1 0 0 1 1 1v1.6A1.4 1.4 0 0 0 4.4 21H6a1 1 0 1 1 0 2H4.4A3.4 3.4 0 0 1 1 19.6V18a1 1 0 0 1 1-1ZM22 17a1 1 0 0 1 1 1v1.6a3.4 3.4 0 0 1-3.4 3.4H18a1 1 0 1 1 0-2h1.6a1.4 1.4 0 0 0 1.4-1.4V18a1 1 0 0 1 1-1ZM18 8a1 1 0 0 1 1 1v6a1 1 0 1 1-2 0V9a1 1 0 0 1 1-1ZM15 9a1 1 0 1 0-2 0v6a1 1 0 1 0 2 0V9ZM10 8a1 1 0 0 1 1 1v6a1 1 0 1 1-2 0V9a1 1 0 0 1 1-1ZM7 9a1 1 0 1 0-2 0v6a1 1 0 1 0 2 0V9Z" fill="#000"/></svg>