<svg xmlns="http://www.w3.org/2000/svg" width="24" height="24" fill="none" viewBox="0 0 24 24"><path fill="#000" fill-rule="evenodd" d="M21.2 1A1.8 1.8 0 0 1 23 2.8v1.4A1.8 1.8 0 0 1 21.2 6H21v13.6a3.4 3.4 0 0 1-3.4 3.4H6.4A3.4 3.4 0 0 1 3 19.6V6h-.2A1.8 1.8 0 0 1 1 4.2V2.8A1.8 1.8 0 0 1 2.8 1zM9.8 18A1.8 1.8 0 0 0 8 19.8V22h2v-2h4v2h2v-2.2a1.8 1.8 0 0 0-1.8-1.8zM8 12a1 1 0 0 0-1 1v2a1 1 0 1 0 2 0v-2a1 1 0 0 0-1-1m4 0a1 1 0 0 0-1 1v2a1 1 0 1 0 2 0v-2a1 1 0 0 0-1-1m4 0a1 1 0 0 0-1 1v2a1 1 0 1 0 2 0v-2a1 1 0 0 0-1-1M8 7a1 1 0 0 0-1 1v2a1 1 0 1 0 2 0V8a1 1 0 0 0-1-1m4 0a1 1 0 0 0-1 1v2a1 1 0 1 0 2 0V8a1 1 0 0 0-1-1m4 0a1 1 0 0 0-1 1v2a1 1 0 1 0 2 0V8a1 1 0 0 0-1-1M3 4h18V3H3z" clip-rule="evenodd"/></svg>