<svg xmlns="http://www.w3.org/2000/svg" width="24" height="24" fill="none" viewBox="0 0 24 24"><path fill="#000" d="M7.833 18c1.4 0 2.62.819 3.195 2.028a1 1 0 0 1-1.806.86A1.54 1.54 0 0 0 7.833 20H3a1 1 0 1 1 0-2zM21 18a1 1 0 1 1 0 2h-4.833c-.567 0-1.135.357-1.389.889a1 1 0 0 1-1.806-.86A3.58 3.58 0 0 1 16.167 18z"/><path fill="#000" fill-rule="evenodd" d="M8.889 3.006a4.33 4.33 0 0 1 3.11 1.564A4.33 4.33 0 0 1 15.333 3H22a1 1 0 0 1 1 1v12.001a1 1 0 0 1-1 1L15.333 17c-.658 0-1.085.162-1.372.354-.293.195-.5.462-.65.76A3.1 3.1 0 0 0 13 19.33v.009l-.005.097a1 1 0 0 1-1.99 0L11 19.334v-.005l-.004-.068a3.143 3.143 0 0 0-.305-1.151 1.9 1.9 0 0 0-.64-.76c-.28-.19-.698-.35-1.343-.35H2a1 1 0 0 1-1-1V4a1 1 0 0 1 1-1h6.667zM11 5v12.334h2V5z" clip-rule="evenodd"/></svg>