<svg xmlns="http://www.w3.org/2000/svg" width="24" height="24" fill="none" viewBox="0 0 24 24"><path fill="#000" fill-rule="evenodd" d="M18 1a1 1 0 1 1 0 2v2h4a1 1 0 1 1 0 2v12.6a3.4 3.4 0 0 1-3.4 3.4H5.4A3.4 3.4 0 0 1 2 19.6V3a1 1 0 0 1 0-2zM8.8 18A1.8 1.8 0 0 0 7 19.8V22h2v-2h2v2h2v-2.2a1.8 1.8 0 0 0-1.8-1.8zm9.2 1.6c0 .499-.108.973-.302 1.4h.902a1.4 1.4 0 0 0 1.4-1.4V7h-2zM8 11a1 1 0 0 0-1 1v2a1 1 0 1 0 2 0v-2a1 1 0 0 0-1-1m4 0a1 1 0 0 0-1 1v2a1 1 0 1 0 2 0v-2a1 1 0 0 0-1-1M8 5a1 1 0 0 0-1 1v2a1 1 0 0 0 2 0V6a1 1 0 0 0-1-1m4 0a1 1 0 0 0-1 1v2a1 1 0 1 0 2 0V6a1 1 0 0 0-1-1" clip-rule="evenodd"/></svg>