<svg xmlns="http://www.w3.org/2000/svg" width="24" height="24" fill="none"><path fill="#222" d="M13 2a1 1 0 1 0-2 0v1h2V2ZM10 12a2 2 0 1 1 4 0 2 2 0 0 1-4 0Z"/><path fill="#222" fill-rule="evenodd" d="M13 3.055V5a1 1 0 1 1-2 0V3.055A9.004 9.004 0 0 0 3.055 11H5a1 1 0 1 1 0 2H3.055A9.004 9.004 0 0 0 11 20.945V19a1 1 0 1 1 2 0v1.945A9.004 9.004 0 0 0 20.945 13H19a1 1 0 1 1 0-2h1.945A9.004 9.004 0 0 0 13 3.055ZM12 8a4 4 0 1 0 0 8 4 4 0 0 0 0-8Z" clip-rule="evenodd"/><path fill="#222" d="M21 11v2h1a1 1 0 1 0 0-2h-1ZM13 21h-2v1a1 1 0 1 0 2 0v-1ZM3 13v-2H2a1 1 0 1 0 0 2h1Z"/></svg>