<svg xmlns="http://www.w3.org/2000/svg" width="24" height="24" fill="none" viewBox="0 0 24 24"><path fill="#000" fill-rule="evenodd" d="M9.2 1A1.8 1.8 0 0 1 11 2.8V5h2V2.8A1.8 1.8 0 0 1 14.8 1h2.4A1.8 1.8 0 0 1 19 2.8V7h4a1 1 0 1 1 0 2v10.6a3.4 3.4 0 0 1-3.4 3.4H4.5C2.65 23 1 21.458 1 19.553V9a1 1 0 0 1 0-2h4V2.8A1.8 1.8 0 0 1 6.8 1zm1.6 16A1.8 1.8 0 0 0 9 18.8V22h2v-3h2v3h2v-3.2a1.8 1.8 0 0 0-1.8-1.8zm-.8-4a1 1 0 1 0 0 2h4a1 1 0 1 0 0-2zm1-4a1 1 0 1 0 0 2h2a1 1 0 1 0 0-2zM8 3a1 1 0 1 0 0 2 1 1 0 0 0 0-2m8 0a1 1 0 1 0 0 2 1 1 0 0 0 0-2" clip-rule="evenodd"/></svg>