<svg xmlns="http://www.w3.org/2000/svg" width="24" height="24" fill="none"><path fill="#000" fill-rule="evenodd" d="M8.4 2h11.2A2.4 2.4 0 0 1 22 4.4v11.2a2.4 2.4 0 0 1-2.4 2.4H8.4A2.4 2.4 0 0 1 6 15.6V4.4A2.4 2.4 0 0 1 8.4 2m3.479 4.464a1 1 0 1 0-1.415 1.415L12.587 10l-2.122 2.121a1 1 0 0 0 1.415 1.415L14 11.414l2.121 2.122a1 1 0 1 0 1.415-1.415L15.414 10l2.122-2.121a1 1 0 0 0-1.415-1.415l-2.12 2.122z" clip-rule="evenodd"/><path fill="#000" d="M4 4a1 1 0 0 0-2 0v11.6C2 19.132 4.868 22 8.4 22H20a1 1 0 1 0 0-2H8.4A4.403 4.403 0 0 1 4 15.6z"/></svg>