<svg xmlns="http://www.w3.org/2000/svg" width="24" height="24" fill="none" viewBox="0 0 24 24"><path fill="#000" d="M12 1a1 1 0 0 1 1 1v2a1 1 0 1 1-2 0V2a1 1 0 0 1 1-1M12 19a1 1 0 0 1 1 1v2a1 1 0 1 1-2 0v-2a1 1 0 0 1 1-1M1 12a1 1 0 0 1 1-1h2a1 1 0 1 1 0 2H2a1 1 0 0 1-1-1M19 12a1 1 0 0 1 1-1h2a1 1 0 1 1 0 2h-2a1 1 0 0 1-1-1M7.047 16.953a1 1 0 0 1 0 1.414l-1.41 1.41a1 1 0 1 1-1.414-1.414l1.41-1.41a1 1 0 0 1 1.414 0M19.777 4.223a1 1 0 0 1 0 1.414l-1.41 1.41a1 1 0 1 1-1.414-1.414l1.41-1.41a1 1 0 0 1 1.414 0M16.953 16.953a1 1 0 0 1 1.414 0l1.41 1.41a1 1 0 1 1-1.414 1.414l-1.41-1.41a1 1 0 0 1 0-1.414M4.223 4.223a1 1 0 0 1 1.414 0l1.41 1.41a1 1 0 0 1-1.414 1.414l-1.41-1.41a1 1 0 0 1 0-1.414M12 16a4 4 0 1 0 0-8 4 4 0 0 0 0 8"/></svg>