<svg width="24" height="24" fill="none" xmlns="http://www.w3.org/2000/svg"><path d="M5.6 2A2.6 2.6 0 0 0 3 4.6v4.8A2.6 2.6 0 0 0 5.6 12h2.8A2.6 2.6 0 0 0 11 9.4V4.6A2.6 2.6 0 0 0 8.4 2H5.6ZM5.6 14A2.6 2.6 0 0 0 3 16.6v2.8A2.6 2.6 0 0 0 5.6 22h2.8a2.6 2.6 0 0 0 2.6-2.6v-2.8A2.6 2.6 0 0 0 8.4 14H5.6ZM15.6 2A2.6 2.6 0 0 0 13 4.6v2.8a2.6 2.6 0 0 0 2.6 2.6h2.8A2.6 2.6 0 0 0 21 7.4V4.6A2.6 2.6 0 0 0 18.4 2h-2.8ZM15.6 12a2.6 2.6 0 0 0-2.6 2.6v4.8a2.6 2.6 0 0 0 2.6 2.6h2.8a2.6 2.6 0 0 0 2.6-2.6v-4.8a2.6 2.6 0 0 0-2.6-2.6h-2.8Z" fill="#000"/></svg>