<svg width="24" height="24" fill="none" xmlns="http://www.w3.org/2000/svg"><path d="M6.707 2.293a1 1 0 0 1 0 1.414l-3 3a1 1 0 0 1-1.414-1.414l3-3a1 1 0 0 1 1.414 0ZM17.293 2.293a1 1 0 0 1 1.414 0l3 3a1 1 0 0 1-1.414 1.414l-3-3a1 1 0 0 1 0-1.414Z" fill="#000"/><path fill-rule="evenodd" clip-rule="evenodd" d="M12 21a8 8 0 1 0 0-16 8 8 0 0 0 0 16Zm3.536-10.121a1 1 0 1 0-1.415-1.414L12 11.585l-2.121-2.12a1 1 0 0 0-1.415 1.414L10.586 13l-2.122 2.121a1 1 0 1 0 1.415 1.415L12 14.414l2.121 2.122a1 1 0 0 0 1.415-1.415l-2.122-2.12 2.122-2.122Z" fill="#000"/></svg>