<svg xmlns="http://www.w3.org/2000/svg" width="24" height="24" fill="none" viewBox="0 0 24 24"><path fill="#000" d="M13 13.52c.24.136.415.265.544.39.252.244.376.513.408.97.033.468-.16.848-.536 1.158-.123.102-.265.19-.416.268zM11 10.482a2.7 2.7 0 0 1-.549-.391c-.25-.243-.374-.512-.406-.97-.033-.47.16-.85.536-1.16q.188-.153.419-.27z"/><path fill="#000" fill-rule="evenodd" d="M12 1c1.545 0 2.88.802 3.732 1.992 1.442-.24 2.956.136 4.048 1.228s1.467 2.608 1.227 4.05C22.194 9.125 23 10.45 23 12s-.806 2.876-1.993 3.73c.24 1.442-.134 2.958-1.227 4.05-1.095 1.095-2.61 1.46-4.046 1.225C14.883 22.196 13.546 23 12 23c-1.55 0-2.878-.808-3.731-1.996-1.438.235-2.954-.128-4.05-1.224-1.094-1.095-1.459-2.611-1.217-4.05C1.815 14.878 1 13.552 1 12s.815-2.878 2.002-3.73c-.242-1.439.123-2.955 1.218-4.05 1.093-1.094 2.609-1.467 4.056-1.227C9.125 1.805 10.453 1 12 1m0 3a1 1 0 0 0-1 1v.556a4.6 4.6 0 0 0-1.691.862c-.781.643-1.345 1.615-1.26 2.84.06.856.342 1.62 1.009 2.267.488.474 1.142.842 1.942 1.166v3.89a3.9 3.9 0 0 1-1.354-.481 1 1 0 0 0-1.012 1.724 5.9 5.9 0 0 0 2.366.77V19a1 1 0 0 0 2 0v-.559a4.6 4.6 0 0 0 1.688-.859c.78-.643 1.345-1.616 1.26-2.842-.06-.856-.344-1.62-1.011-2.266-.488-.473-1.14-.84-1.937-1.164V7.42c.476.076.939.238 1.352.48a1 1 0 0 0 1.011-1.725A5.9 5.9 0 0 0 13 5.405V5a1 1 0 0 0-1-1" clip-rule="evenodd"/></svg>