<svg width="24" height="24" fill="none" xmlns="http://www.w3.org/2000/svg"><g clip-path="url(#a)" fill="#000"><path d="M13.838 1.11a2.6 2.6 0 0 0-3.676 0l-1.98 1.98a2.6 2.6 0 0 0 0 3.677l1.98 1.98a2.6 2.6 0 0 0 3.676 0l1.98-1.98a2.6 2.6 0 0 0 0-3.677l-1.98-1.98ZM6.768 8.182a2.6 2.6 0 0 0-3.677 0l-1.98 1.98a2.6 2.6 0 0 0 0 3.676l1.98 1.98a2.6 2.6 0 0 0 3.676 0l1.98-1.98a2.6 2.6 0 0 0 0-3.676l-1.98-1.98ZM13.838 15.253a2.6 2.6 0 0 0-3.676 0l-1.98 1.98a2.6 2.6 0 0 0 0 3.677l1.98 1.98a2.6 2.6 0 0 0 3.676 0l1.98-1.98a2.6 2.6 0 0 0 0-3.677l-1.98-1.98ZM20.91 8.182a2.6 2.6 0 0 0-3.677 0l-1.98 1.98a2.6 2.6 0 0 0 0 3.676l1.98 1.98a2.6 2.6 0 0 0 3.677 0l1.98-1.98a2.6 2.6 0 0 0 0-3.676l-1.98-1.98Z"/></g><defs><clipPath id="a"><path fill="#fff" d="M0 0h24v24H0z"/></clipPath></defs></svg>