<svg width="24" height="24" fill="none" xmlns="http://www.w3.org/2000/svg"><path d="M18 3a1 1 0 1 0 0 2h4a1 1 0 1 0 0-2h-4ZM2 7a1 1 0 0 0 0 2h4a1 1 0 0 0 0-2H2ZM2 11a1 1 0 1 0 0 2h4a1 1 0 1 0 0-2H2ZM10 11a1 1 0 1 0 0 2h4a1 1 0 1 0 0-2h-4ZM17 12a1 1 0 0 1 1-1h4a1 1 0 1 1 0 2h-4a1 1 0 0 1-1-1ZM2 15a1 1 0 1 0 0 2h4a1 1 0 1 0 0-2H2ZM9 16a1 1 0 0 1 1-1h4a1 1 0 1 1 0 2h-4a1 1 0 0 1-1-1ZM18 15a1 1 0 1 0 0 2h4a1 1 0 1 0 0-2h-4ZM1 20a1 1 0 0 1 1-1h4a1 1 0 1 1 0 2H2a1 1 0 0 1-1-1ZM10 19a1 1 0 1 0 0 2h4a1 1 0 1 0 0-2h-4ZM17 20a1 1 0 0 1 1-1h4a1 1 0 1 1 0 2h-4a1 1 0 0 1-1-1ZM17 8a1 1 0 0 1 1-1h4a1 1 0 1 1 0 2h-4a1 1 0 0 1-1-1Z" fill="#000"/></svg>