<svg xmlns="http://www.w3.org/2000/svg" width="24" height="24" fill="none"><path fill="#000" d="M18 3a1 1 0 1 0 0 2h4a1 1 0 1 0 0-2zM2 7a1 1 0 0 0 0 2h4a1 1 0 0 0 0-2zM2 11a1 1 0 1 0 0 2h4a1 1 0 1 0 0-2zM10 11a1 1 0 1 0 0 2h4a1 1 0 1 0 0-2zM17 12a1 1 0 0 1 1-1h4a1 1 0 1 1 0 2h-4a1 1 0 0 1-1-1M2 15a1 1 0 1 0 0 2h4a1 1 0 1 0 0-2zM9 16a1 1 0 0 1 1-1h4a1 1 0 1 1 0 2h-4a1 1 0 0 1-1-1M18 15a1 1 0 1 0 0 2h4a1 1 0 1 0 0-2zM1 20a1 1 0 0 1 1-1h4a1 1 0 1 1 0 2H2a1 1 0 0 1-1-1M10 19a1 1 0 1 0 0 2h4a1 1 0 1 0 0-2zM17 20a1 1 0 0 1 1-1h4a1 1 0 1 1 0 2h-4a1 1 0 0 1-1-1M17 8a1 1 0 0 1 1-1h4a1 1 0 1 1 0 2h-4a1 1 0 0 1-1-1"/></svg>