<svg xmlns="http://www.w3.org/2000/svg" width="24" height="24" fill="none"><g fill="#000" clip-path="url(#a)"><path d="M12 0a1 1 0 0 1 1 1v6a1 1 0 1 1-2 0V1a1 1 0 0 1 1-1M7.757 6.343a1 1 0 1 0-1.414 1.414l1.414 1.415a1 1 0 1 0 1.415-1.415zM1 11a1 1 0 1 0 0 2h6a1 1 0 1 0 0-2zM16 12a1 1 0 0 1 1-1h6a1 1 0 1 1 0 2h-6a1 1 0 0 1-1-1M12 16a1 1 0 0 1 1 1v6a1 1 0 1 1-2 0v-6a1 1 0 0 1 1-1M14.828 14.828a1 1 0 0 1 1.415 0l1.414 1.415a1 1 0 1 1-1.414 1.414l-1.415-1.414a1 1 0 0 1 0-1.415M17.657 7.757a1 1 0 1 0-1.414-1.414l-1.415 1.414a1 1 0 0 0 1.415 1.415zM9.172 16.243a1 1 0 1 0-1.415-1.415l-1.414 1.415a1 1 0 1 0 1.414 1.414zM12 9a3 3 0 1 0 0 6 3 3 0 0 0 0-6"/></g><defs><clipPath id="a"><path fill="#fff" d="M0 0h24v24H0z"/></clipPath></defs></svg>