<svg xmlns="http://www.w3.org/2000/svg" width="24" height="24" fill="none" viewBox="0 0 24 24"><path fill="#000" d="M8 20a1 1 0 1 0-2 0 1 1 0 0 0 2 0M8 4a1 1 0 1 0-2 0 1 1 0 0 0 2 0m10 0a1 1 0 1 0-2 0 1 1 0 0 0 2 0m2 0a3 3 0 0 1-2 2.825v2.33c0 2.19-1.705 4.076-3.91 4.076H9.91c-.996 0-1.91.883-1.91 2.077v1.866A2.998 2.998 0 0 1 7 23a3 3 0 0 1-1-5.826V6.825A2.998 2.998 0 0 1 7 1a2.998 2.998 0 0 1 1 5.825v4.925c.56-.33 1.21-.52 1.91-.52h4.18c.996 0 1.91-.882 1.91-2.076V6.825A2.998 2.998 0 0 1 17 1a3 3 0 0 1 3 3"/></svg>