<svg width="24" height="24" fill="none" xmlns="http://www.w3.org/2000/svg"><path d="M14.973 11a14.975 14.975 0 0 0-.323-2.321C13.802 8.889 12.914 9 12 9c-.907 0-1.787-.11-2.629-.316A14.98 14.98 0 0 0 9.033 11h5.94ZM9.033 13c.052.79.166 1.564.336 2.317A11.028 11.028 0 0 1 12 15c.9 0 1.773.108 2.609.312.175-.753.294-1.526.351-2.312H9.033ZM14.025 17.229A9.017 9.017 0 0 0 12 17c-.709 0-1.398.082-2.059.236.5 1.34 1.185 2.588 2.025 3.716a14.943 14.943 0 0 0 2.059-3.723Z" fill="#000"/><path fill-rule="evenodd" clip-rule="evenodd" d="M22 12c0 5.523-4.477 10-10 10S2 17.523 2 12 6.477 2 12 2s10 4.477 10 10ZM12 3c-.927 0-1.822.14-2.664.4-.5.854-.928 1.755-1.276 2.693a9.045 9.045 0 0 1-1.716-1.094 9.054 9.054 0 0 0-1.411 1.428A11.049 11.049 0 0 0 7.47 8.026C7.24 8.992 7.09 9.986 7.03 11H3.055a9.097 9.097 0 0 0 0 2h3.974c.06 1.018.208 2.011.44 2.974-.922.416-1.774.956-2.537 1.598.415.527.889 1.006 1.41 1.428a8.98 8.98 0 0 1 1.715-1.093c.348.94.777 1.84 1.278 2.692.842.26 1.737.401 2.665.401a9 9 0 0 0 2.599-.38 16.99 16.99 0 0 0 1.313-2.727 9.047 9.047 0 0 1 1.744 1.108 9.054 9.054 0 0 0 1.411-1.428c-.77-.646-1.63-1.19-2.558-1.608.237-.962.391-1.954.456-2.965h3.98a9.098 9.098 0 0 0 0-2h-3.969a16.96 16.96 0 0 0-.425-2.983c.913-.415 1.76-.952 2.518-1.589A9.054 9.054 0 0 0 17.657 5a8.981 8.981 0 0 1-1.685 1.08 16.95 16.95 0 0 0-1.243-2.659 8.99 8.99 0 0 0-2.664-.42 14.99 14.99 0 0 1 2.025 3.756 9.034 9.034 0 0 1-4.146.007A14.947 14.947 0 0 1 12.003 3H12Z" fill="#000"/></svg>