<svg xmlns="http://www.w3.org/2000/svg" width="24" height="24" fill="none"><path fill="#000" fill-rule="evenodd" d="M6.377 4.72a7.001 7.001 0 0 0-1.62 1.209 1 1 0 1 1-1.414-1.414 9 9 0 0 1 12.728 0l5.94 5.94a2.6 2.6 0 0 1 0 3.676l-1.273 1.273a2.6 2.6 0 0 1-3.677 0L14.657 13 5.89 21.768a2.6 2.6 0 0 1-3.677 0l-.566-.566a2.6 2.6 0 0 1 0-3.677l8.769-8.768zm13.937 6.866-2.121 2.121.282.283a.6.6 0 0 0 .849 0l1.273-1.273a.6.6 0 0 0 0-.848zm-9.192 2.121-1.415-1.414L3.06 18.94a.6.6 0 0 0 0 .848l.566.566a.6.6 0 0 0 .849 0z" clip-rule="evenodd"/></svg>