<svg xmlns="http://www.w3.org/2000/svg" width="24" height="24" fill="none"><path fill="#000" fill-rule="evenodd" d="M7.835 3.97A1 1 0 0 1 6.865 5c-.41.012-.722.077-.955.17a.87.87 0 0 0-.398.29c-.051.085-.116.263-.116.606V9.23c0 .928-.25 1.782-.84 2.459l-.01.012c-.09.1-.187.194-.288.281.106.094.206.196.3.306.592.666.838 1.515.838 2.436v3.231c0 .34.07.514.124.598l.012.019c.062.1.152.183.323.244a.777.777 0 0 1 .033.013c.23.092.547.158.976.17a1 1 0 0 1-.057 2c-.591-.017-1.147-.11-1.646-.307a2.571 2.571 0 0 1-1.324-1.059c-.322-.5-.441-1.084-.441-1.678v-3.23c0-.568-.147-.9-.337-1.112a.94.94 0 0 1-.023-.026c-.18-.214-.53-.438-1.212-.56A1 1 0 0 1 1 12.044v-.132a1 1 0 0 1 .821-.984c.665-.12 1.032-.338 1.233-.558.198-.231.342-.578.342-1.14V6.067c0-.605.118-1.204.447-1.71a2.856 2.856 0 0 1 1.324-1.043c.5-.2 1.053-.295 1.639-.313a1 1 0 0 1 1.029.97m8.33 0a1 1 0 0 1 1.03-.97c.585.018 1.138.113 1.638.313a2.855 2.855 0 0 1 1.324 1.043c.33.506.447 1.105.447 1.71V9.23c0 .56.144.908.343 1.139.2.22.567.437 1.232.558a1 1 0 0 1 .821.984v.132a1 1 0 0 1-.824.984c-.682.122-1.033.346-1.212.56a.958.958 0 0 1-.023.026c-.19.211-.337.544-.337 1.111v3.231c0 .594-.12 1.179-.44 1.678a2.571 2.571 0 0 1-1.325 1.06c-.499.196-1.055.289-1.646.306a1 1 0 1 1-.057-2c.429-.012.746-.078.976-.17a.99.99 0 0 1 .029-.011l.004-.002a.578.578 0 0 0 .323-.244l.012-.02c.055-.083.124-.257.124-.597v-3.23c0-.922.246-1.771.839-2.437.093-.11.193-.212.3-.306a3.167 3.167 0 0 1-.288-.281l-.011-.012c-.59-.677-.84-1.53-.84-2.46V6.067c0-.343-.065-.521-.116-.607a.87.87 0 0 0-.398-.289c-.233-.093-.544-.158-.955-.17a1 1 0 0 1-.97-1.03M9 14a1 1 0 0 1 1 1v1a1 1 0 1 1-2 0v-1a1 1 0 0 1 1-1m3 0a1 1 0 0 1 1 1v1a1 1 0 1 1-2 0v-1a1 1 0 0 1 1-1m3 0a1 1 0 0 1 1 1v1a1 1 0 1 1-2 0v-1a1 1 0 0 1 1-1" clip-rule="evenodd"/></svg>