<svg xmlns="http://www.w3.org/2000/svg" width="24" height="24" fill="none"><path fill="#000" d="M2 14a1 1 0 0 1-1-1v-1c3.2-.4 4.13.3 4.195.7.57.591.648 1.428.582 2.169l-.27 3.521c-.026.436.043.722.14.912.114.212.273.365.503.476l.02.01c.252.128.587.212 1.04.212h.99a1 1 0 1 1 0 2h-.99c-.695 0-1.352-.129-1.938-.425a3.071 3.071 0 0 1-1.392-1.336l-.005-.01c-.31-.595-.407-1.27-.363-1.97v-.014l.27-3.535.002-.016c.024-.26.01-.431-.012-.533a.486.486 0 0 0-.018-.064.73.73 0 0 0-.097-.032A2.776 2.776 0 0 0 2.98 14z"/><path fill="#000" d="M2 9.88a1 1 0 0 0-1 1v1c3.2.4 4.13-.3 4.195-.699.57-.592.648-1.428.582-2.17l-.27-3.521c-.026-.435.043-.722.14-.912.114-.211.273-.364.503-.475l.02-.01c.252-.129.587-.212 1.04-.212h.99a1 1 0 1 0 0-2h-.99c-.695 0-1.352.128-1.938.425A3.071 3.071 0 0 0 3.88 3.642l-.005.01c-.31.595-.407 1.27-.363 1.97v.013l.27 3.536.002.015c.024.261.01.432-.012.534a.484.484 0 0 1-.018.064.724.724 0 0 1-.097.031 2.774 2.774 0 0 1-.677.066zM22 9.88a1 1 0 0 1 1 1v1c-3.2.4-4.13-.3-4.195-.699-.57-.592-.648-1.428-.582-2.17l.27-3.521c.026-.435-.043-.722-.14-.912a1.073 1.073 0 0 0-.503-.475l-.02-.01c-.252-.129-.587-.212-1.04-.212h-.99a1 1 0 1 1 0-2h.99c.695 0 1.352.128 1.938.425a3.07 3.07 0 0 1 1.392 1.336l.005.01c.31.595.407 1.27.363 1.97v.013l-.27 3.536-.002.015c-.024.261-.01.432.012.534.007.029.013.05.018.064.02.008.05.019.097.031.138.037.356.066.677.066z"/><path fill="#000" d="M22 14a1 1 0 0 0 1-1v-1c-3.2-.4-4.13.3-4.195.7-.57.591-.648 1.428-.582 2.169l.27 3.521c.026.436-.043.722-.14.912a1.073 1.073 0 0 1-.503.476l-.02.01c-.252.128-.587.212-1.04.212h-.99a1 1 0 1 0 0 2h.99c.695 0 1.352-.129 1.938-.425a3.071 3.071 0 0 0 1.392-1.336l.005-.01c.31-.595.407-1.27.363-1.97v-.014l-.27-3.535-.002-.016a1.818 1.818 0 0 1 .012-.533.485.485 0 0 1 .018-.064c.02-.008.05-.02.097-.032.138-.036.356-.065.677-.065z"/><path fill="#000" fill-rule="evenodd" d="M9 14a1 1 0 0 1 1 1v1a1 1 0 1 1-2 0v-1a1 1 0 0 1 1-1m3 0a1 1 0 0 1 1 1v1a1 1 0 1 1-2 0v-1a1 1 0 0 1 1-1m3 0a1 1 0 0 1 1 1v1a1 1 0 1 1-2 0v-1a1 1 0 0 1 1-1" clip-rule="evenodd"/></svg>