<svg xmlns="http://www.w3.org/2000/svg" width="24" height="24" fill="none"><path fill="#000" fill-rule="evenodd" d="M10 9a2 2 0 1 1 4 0 2 2 0 0 1-4 0m2.247 4.031a1 1 0 0 1 .719 1.218 23.04 23.04 0 0 1-.514 1.698 26.467 26.467 0 0 1-.682 1.785c-.231.592-.463 1.15-.696 1.674a1 1 0 1 1-1.828-.812 37.75 37.75 0 0 0 .666-1.603l.006-.014.005-.013a24.45 24.45 0 0 0 .637-1.663c.192-.565.348-1.08.469-1.55a1 1 0 0 1 1.218-.72" clip-rule="evenodd"/><path fill="#000" d="M2 14a1 1 0 0 1-1-1v-1c3.2-.4 4.13.3 4.195.7.57.591.648 1.428.582 2.17l-.27 3.52c-.026.436.043.722.14.912.114.212.273.365.503.476l.02.01c.252.128.587.212 1.04.212h.99a1 1 0 1 1 0 2h-.99c-.695 0-1.352-.129-1.938-.425a3.071 3.071 0 0 1-1.392-1.336l-.005-.01c-.31-.595-.407-1.27-.363-1.97v-.014l.27-3.535.002-.016c.024-.26.01-.431-.012-.533a.486.486 0 0 0-.018-.064.73.73 0 0 0-.097-.032A2.776 2.776 0 0 0 2.98 14z"/><path fill="#000" d="M2 9.88a1 1 0 0 0-1 1v1c3.2.4 4.13-.3 4.195-.699.57-.592.648-1.428.582-2.17l-.27-3.52c-.026-.436.043-.723.14-.913.114-.211.273-.364.503-.475l.02-.01c.252-.128.587-.212 1.04-.212h.99a1 1 0 0 0 0-2h-.99c-.695 0-1.352.129-1.938.425A3.071 3.071 0 0 0 3.88 3.642l-.005.01c-.31.595-.407 1.27-.363 1.97v.013l.27 3.536.002.015c.024.261.01.432-.012.534a.484.484 0 0 1-.018.064.724.724 0 0 1-.097.031 2.773 2.773 0 0 1-.677.066zM22 9.88a1 1 0 0 1 1 1v1c-3.2.4-4.13-.3-4.195-.699-.57-.592-.648-1.428-.582-2.17l.27-3.52c.026-.436-.043-.723-.14-.913a1.073 1.073 0 0 0-.503-.475l-.02-.01c-.252-.128-.587-.212-1.04-.212h-.99a1 1 0 1 1 0-2h.99c.695 0 1.352.129 1.938.425a3.07 3.07 0 0 1 1.392 1.336l.005.01c.31.595.407 1.27.363 1.97v.013l-.27 3.536-.002.015c-.024.261-.01.432.012.534.007.029.013.05.018.064.02.008.05.02.097.031.138.037.356.066.677.066z"/><path fill="#000" d="M22 14a1 1 0 0 0 1-1v-1c-3.2-.4-4.13.3-4.195.7-.57.591-.648 1.428-.582 2.17l.27 3.52c.026.436-.043.722-.14.912a1.074 1.074 0 0 1-.503.476l-.02.01c-.252.128-.587.212-1.04.212h-.99a1 1 0 1 0 0 2h.99c.695 0 1.352-.129 1.938-.425a3.071 3.071 0 0 0 1.392-1.336l.005-.01c.31-.595.407-1.27.363-1.97v-.014l-.27-3.535-.002-.016a1.818 1.818 0 0 1 .012-.533.485.485 0 0 1 .018-.064c.02-.008.05-.02.097-.032.138-.036.356-.065.677-.065z"/></svg>