<svg xmlns="http://www.w3.org/2000/svg" width="24" height="24" fill="none"><path fill="#000" fill-rule="evenodd" d="M7.835 3.97A1 1 0 0 1 6.865 5c-.41.012-.722.077-.955.17a.87.87 0 0 0-.398.29c-.051.085-.116.263-.116.606V9.23c0 .928-.25 1.782-.84 2.459l-.01.012q-.136.15-.288.281.159.141.3.306c.592.666.838 1.515.838 2.436v3.231c0 .34.07.514.124.598l.012.019c.062.1.152.183.323.244l.033.013c.23.092.547.158.976.17a1 1 0 0 1-.057 2c-.591-.017-1.147-.11-1.646-.307a2.57 2.57 0 0 1-1.324-1.059c-.322-.5-.441-1.084-.441-1.678v-3.23c0-.568-.147-.9-.337-1.112l-.023-.026c-.18-.214-.53-.438-1.212-.56A1 1 0 0 1 1 12.044v-.132a1 1 0 0 1 .821-.984c.665-.12 1.032-.338 1.233-.558.198-.231.342-.578.342-1.14V6.067c0-.605.118-1.204.447-1.71l.02-.028a2.86 2.86 0 0 1 1.304-1.015c.5-.2 1.053-.295 1.639-.313a1 1 0 0 1 1.029.97m8.33 0a1 1 0 0 1 1.03-.97c.585.018 1.138.113 1.638.313a2.86 2.86 0 0 1 1.324 1.043c.33.506.447 1.105.447 1.71V9.23c0 .56.144.908.343 1.139.2.22.567.437 1.232.558a1 1 0 0 1 .821.984v.132a1 1 0 0 1-.824.984c-.682.122-1.033.346-1.212.56l-.023.026c-.19.211-.337.544-.337 1.111v3.231c0 .594-.12 1.179-.44 1.678a2.57 2.57 0 0 1-1.325 1.06c-.499.196-1.055.289-1.646.306a1 1 0 1 1-.057-2c.429-.012.746-.078.976-.17l.029-.011.004-.002a.58.58 0 0 0 .323-.244l.012-.02c.055-.083.124-.257.124-.597v-3.23c0-.922.246-1.771.839-2.437q.14-.165.3-.306a3 3 0 0 1-.288-.281l-.011-.012c-.59-.677-.84-1.53-.84-2.46V6.067c0-.343-.065-.521-.116-.607a.87.87 0 0 0-.398-.289c-.233-.093-.544-.158-.955-.17a1 1 0 0 1-.97-1.03M10 10a2 2 0 1 1 4 0 2 2 0 0 1-4 0m2.247 4.031a1 1 0 0 1 .72 1.218 23 23 0 0 1-.514 1.698 26 26 0 0 1-.683 1.785q-.346.888-.696 1.674a1 1 0 0 1-1.828-.812 38 38 0 0 0 .677-1.63q.35-.822.637-1.663.287-.846.47-1.55a1 1 0 0 1 1.217-.72" clip-rule="evenodd"/></svg>