<svg xmlns="http://www.w3.org/2000/svg" width="24" height="24" fill="none"><path fill="#000" fill-rule="evenodd" d="M19.6 2H8.4A2.4 2.4 0 0 0 6 4.4v11.2A2.4 2.4 0 0 0 8.4 18h11.2a2.4 2.4 0 0 0 2.4-2.4V4.4A2.4 2.4 0 0 0 19.6 2ZM9 7a1 1 0 0 1 1-1h8a1 1 0 1 1 0 2h-8a1 1 0 0 1-1-1Zm1 2a1 1 0 0 0 0 2h8a1 1 0 1 0 0-2h-8Zm-1 4a1 1 0 0 1 1-1h4a1 1 0 1 1 0 2h-4a1 1 0 0 1-1-1Z" clip-rule="evenodd"/><path fill="#000" d="M4 4a1 1 0 0 0-2 0v11.6C2 19.132 4.868 22 8.4 22H20a1 1 0 1 0 0-2H8.4A4.403 4.403 0 0 1 4 15.6V4Z"/></svg>