<svg width="24" height="24" fill="none" xmlns="http://www.w3.org/2000/svg"><path fill-rule="evenodd" clip-rule="evenodd" d="M19.6 3H8.4A2.4 2.4 0 0 0 6 5.4v11.2A2.4 2.4 0 0 0 8.4 19h11.2a2.4 2.4 0 0 0 2.4-2.4V5.4A2.4 2.4 0 0 0 19.6 3ZM9 8a1 1 0 0 1 1-1h8a1 1 0 1 1 0 2h-8a1 1 0 0 1-1-1Zm1 2a1 1 0 1 0 0 2h8a1 1 0 1 0 0-2h-8Zm-1 4a1 1 0 0 1 1-1h4a1 1 0 1 1 0 2h-4a1 1 0 0 1-1-1Z" fill="#000"/><path d="M4 5a1 1 0 0 0-2 0v11.6C2 20.132 4.868 23 8.4 23H20a1 1 0 1 0 0-2H8.4A4.403 4.403 0 0 1 4 16.6V5Z" fill="#000"/></svg>