<svg xmlns="http://www.w3.org/2000/svg" width="24" height="24" fill="none" viewBox="0 0 24 24"><path fill="#000" d="m8.488 4.316 1.27.22q.015.001.03.005c.451.107.844.3 1.192.597l.146.133.016.016 4.666 4.979 4.08.615q.007.001.017.004c1.37.257 2.303 1.555 2.065 2.888l-.315 1.967a.5.5 0 0 1-.578.413l-11.814-2.03a.5.5 0 0 1-.15-.052l-5.577-2.958a.5.5 0 0 1-.238-.275L1.954 7.042a.5.5 0 0 1 .564-.658l.959.18.006.001c.59.118 1.17.465 1.554 1.003l.82.916 4.28.705L7.96 5.042a.5.5 0 0 1 .528-.726M18 18a1 1 0 1 1 0 2H6a1 1 0 1 1 0-2z"/></svg>