<svg width="24" height="24" fill="none" xmlns="http://www.w3.org/2000/svg"><path d="M12.707 1.293a1 1 0 0 0-1.414 0l-3 3a1 1 0 1 0 1.414 1.414L11 4.414V11H4.414l1.293-1.293a1 1 0 0 0-1.414-1.414l-3 3a1 1 0 0 0 0 1.414l3 3a1 1 0 0 0 1.414-1.414L4.414 13H11v6.586l-1.293-1.293a1 1 0 0 0-1.414 1.414l3 3a1 1 0 0 0 1.414 0l3-3a1 1 0 0 0-1.414-1.414L13 19.586V13h6.586l-1.293 1.293a1 1 0 0 0 1.414 1.414l3-3a1 1 0 0 0 0-1.414l-3-3a1 1 0 1 0-1.414 1.414L19.586 11H13V4.414l1.293 1.293a1 1 0 1 0 1.414-1.414l-3-3Z" fill="#000"/></svg>