<svg xmlns="http://www.w3.org/2000/svg" width="24" height="24" fill="none" viewBox="0 0 24 24"><path fill="#000" d="M15 19a1 1 0 1 1 0 2H9a1 1 0 1 1 0-2z"/><path fill="#000" fill-rule="evenodd" d="M19.775 3.005A3.4 3.4 0 0 1 23 6.4v8.2a3.4 3.4 0 0 1-3.4 3.4H4.4A3.4 3.4 0 0 1 1 14.6V6.4A3.4 3.4 0 0 1 4.4 3h15.2zm-5.068 4.788a1 1 0 0 0-1.414 0L12 9.086l-1.293-1.293a1 1 0 1 0-1.414 1.414l1.293 1.293-1.293 1.293a1 1 0 1 0 1.414 1.414L12 11.914l1.293 1.293a1 1 0 1 0 1.414-1.414L13.414 10.5l1.293-1.293a1 1 0 0 0 0-1.414" clip-rule="evenodd"/></svg>