<svg xmlns="http://www.w3.org/2000/svg" width="24" height="24" fill="none" viewBox="0 0 24 24"><path fill="#000" fill-rule="evenodd" d="M12.388 3.007c1.934.067 3.819.636 5.463 1.654a10.9 10.9 0 0 1 4.061 4.484l.162.347a10.7 10.7 0 0 1 .855 5.586 10.77 10.77 0 0 1-2.346 5.553c-.19.233-.475.369-.776.369H4.193a1 1 0 0 1-.775-.37 10.77 10.77 0 0 1-2.347-5.552 10.7 10.7 0 0 1 1.017-5.933l.174-.342A10.9 10.9 0 0 1 6.149 4.66 11.1 11.1 0 0 1 12 3zm6.32 6.286a1 1 0 0 0-1.415 0l-4.777 4.776a2 2 0 1 0 1.414 1.414l4.777-4.776a1 1 0 0 0 0-1.414" clip-rule="evenodd"/></svg>