<svg xmlns="http://www.w3.org/2000/svg" width="24" height="24" fill="none"><path fill="#222" fill-rule="evenodd" d="M5 7a7 7 0 0 1 14 0v6a7.001 7.001 0 0 1-6 6.93V22h5a1 1 0 1 1 0 2H6a1 1 0 1 1 0-2h5v-2.07A7.001 7.001 0 0 1 5 13V7Zm7-4a1 1 0 1 0 0 2h.1a1 1 0 1 0 0-2H12Zm-1 4a1 1 0 0 1 1-1h.1a1 1 0 1 1 0 2H12a1 1 0 0 1-1-1Zm-3 3a1 1 0 0 1 1-1h.1a1 1 0 0 1 0 2H9a1 1 0 0 1-1-1Zm3 0a1 1 0 0 1 1-1h.1a1 1 0 1 1 0 2H12a1 1 0 0 1-1-1Zm4-1a1 1 0 1 0 0 2h.1a1 1 0 1 0 0-2H15Zm0-3a1 1 0 1 0 0 2h.1a1 1 0 1 0 0-2H15ZM9 6a1 1 0 0 0 0 2h.1a1 1 0 0 0 0-2H9Zm3 6a1 1 0 1 0 0 2h.1a1 1 0 1 0 0-2H12Zm0 3a1 1 0 1 0 0 2h.1a1 1 0 1 0 0-2H12Zm2-2a1 1 0 0 1 1-1h.1a1 1 0 1 1 0 2H15a1 1 0 0 1-1-1Zm-6 0a1 1 0 0 1 1-1h.1a1 1 0 1 1 0 2H9a1 1 0 0 1-1-1Z" clip-rule="evenodd"/></svg>