<svg width="24" height="24" fill="none" xmlns="http://www.w3.org/2000/svg"><path fill-rule="evenodd" clip-rule="evenodd" d="M11.533 14A1.533 1.533 0 0 1 10 12.467v-.934c0-.846.687-1.533 1.533-1.533h.934c.846 0 1.533.687 1.533 1.533v.934c0 .846-.687 1.533-1.533 1.533h-.934ZM18.533 14A1.533 1.533 0 0 1 17 12.467v-.934c0-.846.686-1.533 1.533-1.533h.934c.847 0 1.533.687 1.533 1.533v.934c0 .846-.686 1.533-1.533 1.533h-.934ZM4.533 14A1.533 1.533 0 0 1 3 12.467v-.934C3 10.687 3.687 10 4.533 10h.934C6.314 10 7 10.687 7 11.533v.934C7 13.313 6.314 14 5.467 14h-.934Z" fill="#000"/></svg>