<svg xmlns="http://www.w3.org/2000/svg" width="24" height="24" fill="none" viewBox="0 0 24 24"><path fill="#000" fill-rule="evenodd" d="M7.91 3.23 3.23 7.913v-.01a.8.8 0 0 0-.23.57v7.054c0 .22.08.42.23.57L7.9 20.77c.15.15.36.23.57.23h7.06c.22 0 .42-.08.57-.23l4.67-4.673a.8.8 0 0 0 .23-.57V8.473c0-.22-.08-.42-.23-.57L16.1 3.23a.8.8 0 0 0-.57-.23H8.48c-.22 0-.42.08-.57.23m8.904 6.351a1 1 0 1 0-1.628-1.162l-4.314 6.04-2.165-2.166a1 1 0 0 0-1.414 1.414l3 3a1 1 0 0 0 1.52-.126z" clip-rule="evenodd"/></svg>