<svg xmlns="http://www.w3.org/2000/svg" width="24" height="24" fill="none" viewBox="0 0 24 24"><path fill="#000" d="M15.742 15.737c1.911.204 3.599.563 4.838 1.05.615.24 1.176.534 1.6.897.418.358.82.89.82 1.588 0 .907-.66 1.527-1.244 1.903-.628.405-1.47.732-2.422.991-1.918.523-4.51.834-7.334.834s-5.416-.311-7.334-.834c-.952-.26-1.794-.586-2.422-.991C1.661 20.799 1 20.179 1 19.273c0-.7.402-1.231.82-1.59.424-.362.985-.656 1.6-.897 1.24-.486 2.927-.845 4.838-1.049a1 1 0 0 1 .212 1.99c-1.814.192-3.308.525-4.32.921-.51.2-.842.395-1.029.555a1 1 0 0 0-.072.069c.047.05.13.126.28.222.383.248 1.006.508 1.863.742C6.894 20.7 9.302 21 12 21c2.699 0 5.106-.3 6.808-.764.858-.234 1.48-.494 1.864-.742.148-.096.23-.173.278-.223q-.026-.028-.071-.068c-.187-.16-.52-.355-1.03-.555-1.01-.396-2.505-.729-4.319-.921a1 1 0 0 1 .212-1.99m2.712-8.283A6.456 6.456 0 0 1 13 13.831L13 18.363a1 1 0 0 1-2 .001l-.001-4.533a6.456 6.456 0 0 1 1-12.831 6.455 6.455 0 0 1 6.455 6.454"/></svg>