<svg width="24" height="24" fill="none" xmlns="http://www.w3.org/2000/svg"><path fill-rule="evenodd" clip-rule="evenodd" d="M14.5 5a3 3 0 1 1 6 0v1.025c.85.143 1.5.885 1.5 1.775v2c0 1.212-.988 2.2-2.2 2.2h-4.6c-1.212 0-2.2-.988-2.2-2.2v-2c0-.89.65-1.632 1.5-1.775V5Zm4 0v1h-2V5a1 1 0 1 1 2 0Z" fill="#000"/><path d="M13.684 16.73 7.18 10.27S13.684 5.537 6.25 3C6.252 3 3 3.115 3 7.846c0 2.308 1.626 4.846 3.716 6.808.368.348.76.735 1.17 1.142 2.317 2.292 5.26 5.204 8.12 5.204C20.768 21 21 17.654 21 17.654c-2.206-6.462-6.62-1.73-7.316-.923Z" fill="#000"/></svg>