<svg xmlns="http://www.w3.org/2000/svg" width="24" height="24" fill="none" viewBox="0 0 24 24"><path fill="#000" fill-rule="evenodd" d="M7 8.83a3.001 3.001 0 1 0-2 0v6.34a3.001 3.001 0 1 0 2 0zM6 5a1 1 0 1 0 0 2 1 1 0 0 0 0-2m0 12a1 1 0 1 0 0 2 1 1 0 0 0 0-2M17 15.17a3.001 3.001 0 1 0 2 0V10.4A5.4 5.4 0 0 0 13.6 5h-.186l.293-.293a1 1 0 0 0-1.414-1.414l-2 2a1 1 0 0 0 0 1.414l2 2a1 1 0 1 0 1.414-1.414L13.414 7h.186a3.4 3.4 0 0 1 3.4 3.4zM17 18a1 1 0 1 1 2 0 1 1 0 0 1-2 0" clip-rule="evenodd"/></svg>