<svg xmlns="http://www.w3.org/2000/svg" width="24" height="24" fill="none" viewBox="0 0 24 24"><path fill="#000" d="M6.938 4.501c2-.053 4.172 1.435 4.523 4.6l.027.313.001.006c.191 3.319-2.124 7.857-7.181 10.039a.5.5 0 0 1-.631-.209l-1.11-1.919a.5.5 0 0 1 .188-.686c1.71-.962 3.043-2.471 3.845-4.302-1.19-.21-2.045-.703-2.618-1.36-.667-.766-.905-1.7-.905-2.517 0-2.214 1.703-4.005 3.86-3.965m10 0c2-.053 4.172 1.435 4.523 4.6l.027.313.001.006c.191 3.319-2.124 7.857-7.181 10.039a.5.5 0 0 1-.631-.209l-1.11-1.919a.5.5 0 0 1 .188-.686c1.71-.962 3.043-2.471 3.845-4.302-1.19-.21-2.045-.703-2.618-1.36-.667-.766-.905-1.7-.905-2.517 0-2.214 1.704-4.005 3.86-3.965"/></svg>