<svg xmlns="http://www.w3.org/2000/svg" width="24" height="24" fill="none" viewBox="0 0 24 24"><path fill="#000" d="M16 16.773c0-.883-.218-1.492-.743-2.054-.511-.547-1.357-1.098-2.746-1.719H4a1 1 0 1 1 0-2h4.893C7.545 9.9 6.762 8.553 6.762 6.895c0-1.346.744-2.575 1.739-3.435C9.506 2.591 10.876 2 12.333 2h.031a9.6 9.6 0 0 1 4.786 1.483 1 1 0 1 1-1.063 1.694A7.6 7.6 0 0 0 12.313 4c-.916.005-1.824.386-2.504.974-.696.6-1.047 1.319-1.047 1.92 0 1.412 1.013 2.778 3.957 4.017l.206.089H20a1 1 0 1 1 0 2h-3.644q.194.172.363.354c.927.993 1.281 2.118 1.281 3.42 0 1.771-.935 3.109-2.167 3.966-1.212.843-2.75 1.26-4.166 1.26-1.858 0-3.677-.53-5.233-1.6a1 1 0 0 1 1.132-1.649c1.206.83 2.626 1.249 4.101 1.249 1.06 0 2.188-.32 3.023-.901.816-.568 1.31-1.343 1.31-2.326"/></svg>