<svg xmlns="http://www.w3.org/2000/svg" width="24" height="24" fill="none" viewBox="0 0 24 24"><path fill="#000" d="M16 20a1 1 0 1 1 0 2H8a1 1 0 1 1 0-2zM12 7c3.31 0 6 2.69 6 6a5.97 5.97 0 0 1-1.53 4H20a1 1 0 1 1 0 2H4a1 1 0 1 1 0-2h3.519A6 6 0 0 1 6 13c0-3.31 2.69-6 6-6M3 12a1 1 0 1 1 0 2H1a1 1 0 1 1 0-2zM23 12a1 1 0 1 1 0 2h-2a1 1 0 1 1 0-2zM3.515 4.515a1 1 0 0 1 1.414 0l1.414 1.414a1 1 0 1 1-1.414 1.414L3.515 5.929a1 1 0 0 1 0-1.414M19.071 4.515a1 1 0 0 1 1.414 1.414l-1.414 1.414a1 1 0 1 1-1.414-1.414zM12 1a1 1 0 0 1 1 1v2a1 1 0 1 1-2 0V2a1 1 0 0 1 1-1"/></svg>