<svg width="24" height="24" fill="none" xmlns="http://www.w3.org/2000/svg"><path d="M12 1a1 1 0 0 1 1 1v4a1 1 0 1 1-2 0V2a1 1 0 0 1 1-1ZM1 12a1 1 0 1 0 0 2h4a1 1 0 1 0 0-2H1ZM18 13a1 1 0 0 1 1-1h4a1 1 0 1 1 0 2h-4a1 1 0 0 1-1-1ZM4.929 4.515a1 1 0 0 0-1.414 1.414l2.828 2.828a1 1 0 0 0 1.414-1.414L4.93 4.515ZM20.485 5.929a1 1 0 0 0-1.414-1.414l-2.828 2.828a1 1 0 1 0 1.414 1.414l2.828-2.828ZM7 13c0-2.762 2.238-5 5-5s5 2.238 5 5a1 1 0 0 1-1 1H8a1 1 0 0 1-1-1ZM4 15a1 1 0 1 0 0 2h.1a1 1 0 1 0 0-2H4ZM7 16a1 1 0 0 1 1-1h.1a1 1 0 1 1 0 2H8a1 1 0 0 1-1-1ZM12 15a1 1 0 1 0 0 2h.1a1 1 0 1 0 0-2H12ZM15 16a1 1 0 0 1 1-1h.1a1 1 0 1 1 0 2H16a1 1 0 0 1-1-1ZM19 16a1 1 0 0 1 1-1h.1a1 1 0 1 1 0 2H20a1 1 0 0 1-1-1ZM12 18a1 1 0 1 0 0 2h.1a1 1 0 1 0 0-2H12ZM12 21a1 1 0 1 0 0 2h.1a1 1 0 1 0 0-2H12ZM16 18a1 1 0 1 0 0 2h.1a1 1 0 1 0 0-2H16ZM8 18a1 1 0 1 0 0 2h.1a1 1 0 1 0 0-2H8Z" fill="#000"/></svg>