<svg xmlns="http://www.w3.org/2000/svg" width="24" height="24" fill="none"><path fill="#000" fill-rule="evenodd" d="M18.51 9.49h1.87c.88 0 1.6.72 1.6 1.6v1.8c0 .88-.72 1.6-1.6 1.6h-1.87q-.047.136-.106.269l-.034.081 1.32 1.32c.62.62.62 1.64 0 2.26l-1.27 1.27c-.62.62-1.64.62-2.26 0l-1.32-1.32q-.096.043-.2.08l-.15.06v1.87c0 .88-.72 1.6-1.6 1.6h-1.8c-.88 0-1.6-.72-1.6-1.6v-1.87q-.136-.047-.269-.106l-.081-.034-1.32 1.32c-.62.62-1.64.62-2.26 0l-1.27-1.27c-.62-.62-.62-1.64 0-2.26l1.32-1.32q-.043-.096-.08-.2l-.06-.15H3.6c-.88 0-1.6-.72-1.6-1.6v-1.8c0-.88.72-1.6 1.6-1.6h1.87q.047-.136.106-.269l.034-.081-1.32-1.32c-.62-.62-.62-1.64 0-2.26l1.27-1.27c.62-.62 1.64-.62 2.26 0l1.32 1.32q.096-.043.2-.08l.15-.06V3.6c0-.88.72-1.6 1.6-1.6h1.8c.88 0 1.6.72 1.6 1.6v1.87q.136.047.269.106l.081.034 1.32-1.32c.62-.62 1.64-.62 2.26 0l1.27 1.27c.62.62.62 1.64 0 2.26l-1.32 1.32q.043.096.08.2zM16 12a4 4 0 1 1-8 0 4 4 0 0 1 8 0" clip-rule="evenodd"/></svg>