<svg xmlns="http://www.w3.org/2000/svg" width="24" height="24" fill="none" viewBox="0 0 24 24"><path fill="#000" fill-rule="evenodd" d="M12.89 2c.88 0 1.6.72 1.6 1.6v1.87c.093.03.18.067.269.105l.08.035 1.321-1.32c.62-.62 1.64-.62 2.26 0l1.27 1.27c.62.62.62 1.64 0 2.26l-1.32 1.32q.044.096.081.2.029.075.059.15h1.87c.88 0 1.6.72 1.6 1.6v1.8c0 .88-.72 1.6-1.6 1.6h-1.87a4 4 0 0 1-.14.35l1.32 1.32c.62.62.62 1.64 0 2.26l-1.27 1.27c-.62.62-1.64.62-2.26 0l-1.32-1.32q-.096.044-.2.081-.074.029-.15.059v1.87c0 .88-.72 1.6-1.6 1.6h-1.8c-.88 0-1.6-.72-1.6-1.6v-1.87a4 4 0 0 1-.268-.106l-.082-.034-1.32 1.32c-.62.62-1.64.62-2.26 0l-1.27-1.27c-.62-.62-.62-1.64 0-2.26l1.32-1.32a4 4 0 0 1-.08-.2l-.06-.15H3.6c-.88 0-1.6-.72-1.6-1.6v-1.8c0-.88.72-1.6 1.6-1.6h1.87q.047-.136.105-.268l.035-.082-1.32-1.32c-.62-.62-.62-1.64 0-2.26l1.27-1.27c.62-.62 1.64-.62 2.26 0l1.32 1.32q.096-.043.2-.08l.15-.06V3.6c0-.88.72-1.6 1.6-1.6zM12 8a4 4 0 1 0 0 8 4 4 0 0 0 0-8" clip-rule="evenodd"/></svg>