<svg width="24" height="24" fill="none" xmlns="http://www.w3.org/2000/svg"><path fill-rule="evenodd" clip-rule="evenodd" d="M20 9c1.66 0 3 1.34 3 3s-1.34 3-3 3h-.76l.54.54a3 3 0 0 1 0 4.24 3 3 0 0 1-4.24 0l-.54-.54V20c0 1.66-1.34 3-3 3s-3-1.34-3-3v-.76l-.54.54a3 3 0 0 1-4.24 0 3 3 0 0 1 0-4.24l.54-.54H4c-1.66 0-3-1.34-3-3s1.34-3 3-3h.76l-.54-.54a3 3 0 0 1 0-4.24 3 3 0 0 1 4.24 0l.54.54V4c0-1.66 1.34-3 3-3s3 1.34 3 3v.76l.54-.54a3 3 0 0 1 4.24 0 3 3 0 0 1 0 4.24l-.54.54H20Zm-4 3a4 4 0 1 1-8 0 4 4 0 0 1 8 0Z" fill="#000"/></svg>