<svg width="24" height="24" fill="none" xmlns="http://www.w3.org/2000/svg"><path fill-rule="evenodd" clip-rule="evenodd" d="M18.71 10H21v-.02c1.1 0 2 .9 2 2s-.9 2-2 2h-2.29c-.07.23-.15.46-.24.68-.1.22-.2.44-.31.65l1.62 1.62c.78.78.78 2.05 0 2.83-.78.78-2.05.78-2.83 0l-1.62-1.62c-.21.12-.43.22-.65.31-.22.09-.45.17-.68.24v2.29c0 1.1-.9 2-2 2s-2-.9-2-2v-2.29c-.23-.07-.46-.15-.68-.24-.22-.1-.44-.2-.65-.31l-1.62 1.62c-.78.78-2.05.78-2.83 0-.78-.78-.78-2.05 0-2.83l1.62-1.62c-.12-.21-.22-.43-.31-.65-.09-.22-.17-.45-.24-.68H3c-1.1 0-2-.9-2-2s.9-2 2-2h2.33a7.454 7.454 0 0 1 .54-1.32L4.25 7.04c-.78-.78-.78-2.05 0-2.83.78-.78 2.05-.78 2.83 0L8.7 5.83c.21-.11.42-.21.64-.3h.01c.22-.09.44-.17.67-.24V3c0-1.1.9-2 2-2s2 .9 2 2v2.31c.23.07.45.15.67.24h.01c.22.09.43.19.64.3l1.62-1.62c.78-.78 2.05-.78 2.83 0 .78.78.78 2.05 0 2.83l-1.62 1.62a7.454 7.454 0 0 1 .54 1.32ZM16 12a4 4 0 1 1-8 0 4 4 0 0 1 8 0Z" fill="#000"/></svg>