<svg xmlns="http://www.w3.org/2000/svg" width="24" height="24" fill="none"><path fill="#000" d="M12 1a1 1 0 0 1 1 1v4a1 1 0 1 1-2 0V2a1 1 0 0 1 1-1M1 12a1 1 0 1 0 0 2h4a1 1 0 1 0 0-2zM18 13a1 1 0 0 1 1-1h4a1 1 0 1 1 0 2h-4a1 1 0 0 1-1-1M4.929 4.515a1 1 0 0 0-1.414 1.414l2.828 2.828a1 1 0 0 0 1.414-1.414zM20.485 5.929a1 1 0 0 0-1.414-1.414l-2.828 2.828a1 1 0 1 0 1.414 1.414zM7 13c0-2.762 2.238-5 5-5s5 2.238 5 5a1 1 0 0 1-1 1H8a1 1 0 0 1-1-1M4 15a1 1 0 1 0 0 2h.1a1 1 0 1 0 0-2zM7 16a1 1 0 0 1 1-1h.1a1 1 0 1 1 0 2H8a1 1 0 0 1-1-1M12 15a1 1 0 1 0 0 2h.1a1 1 0 1 0 0-2zM15 16a1 1 0 0 1 1-1h.1a1 1 0 1 1 0 2H16a1 1 0 0 1-1-1M19 16a1 1 0 0 1 1-1h.1a1 1 0 1 1 0 2H20a1 1 0 0 1-1-1M12 18a1 1 0 1 0 0 2h.1a1 1 0 1 0 0-2zM12 21a1 1 0 1 0 0 2h.1a1 1 0 1 0 0-2zM16 18a1 1 0 1 0 0 2h.1a1 1 0 1 0 0-2zM8 18a1 1 0 1 0 0 2h.1a1 1 0 1 0 0-2z"/></svg>