<svg width="24" height="24" fill="none" xmlns="http://www.w3.org/2000/svg"><path fill-rule="evenodd" clip-rule="evenodd" d="M18.71 10h2.69c.88 0 1.6.72 1.6 1.6v.8c0 .88-.72 1.6-1.6 1.6h-2.69c-.14.47-.32.91-.55 1.33l1.9 1.9c.62.62.62 1.64 0 2.26l-.57.57c-.62.62-1.64.62-2.26 0l-1.9-1.9c-.42.23-.86.41-1.33.55v2.69c0 .88-.72 1.6-1.6 1.6h-.8c-.88 0-1.6-.72-1.6-1.6v-2.69a6.77 6.77 0 0 1-1.33-.55l-1.9 1.9c-.62.62-1.64.62-2.26 0l-.57-.57c-.62-.62-.62-1.64 0-2.26l1.9-1.9A6.77 6.77 0 0 1 5.29 14H2.6c-.88 0-1.6-.72-1.6-1.6v-.8c0-.88.72-1.6 1.6-1.6h2.69c.14-.47.32-.91.55-1.33l-1.9-1.9c-.62-.62-.62-1.64 0-2.26l.57-.57c.62-.62 1.64-.62 2.26 0l1.9 1.9c.42-.23.86-.41 1.33-.55V2.6c0-.88.72-1.6 1.6-1.6h.8c.88 0 1.6.72 1.6 1.6v2.69c.47.14.91.32 1.33.55l1.9-1.9c.62-.62 1.64-.62 2.26 0l.57.57c.62.62.62 1.64 0 2.26l-1.9 1.9c.23.42.41.86.55 1.33ZM16 12a4 4 0 1 1-8 0 4 4 0 0 1 8 0Z" fill="#000"/></svg>