<svg width="24" height="24" fill="none" xmlns="http://www.w3.org/2000/svg"><g clip-path="url(#a)" fill="#000"><path d="M12 0a1 1 0 0 1 1 1v2a1 1 0 1 1-2 0V1a1 1 0 0 1 1-1ZM0 12a1 1 0 0 1 1-1h2a1 1 0 1 1 0 2H1a1 1 0 0 1-1-1ZM21 11a1 1 0 1 0 0 2h2a1 1 0 1 0 0-2h-2ZM13 21a1 1 0 1 0-2 0v2a1 1 0 1 0 2 0v-2ZM6.343 17.657a1 1 0 0 1 0 1.414L4.93 20.485a1 1 0 1 1-1.414-1.414l1.414-1.414a1 1 0 0 1 1.414 0ZM20.485 3.515a1 1 0 0 1 0 1.414l-1.414 1.414a1 1 0 1 1-1.414-1.414l1.414-1.414a1 1 0 0 1 1.414 0ZM3.515 3.515a1 1 0 0 1 1.414 0l1.414 1.414A1 1 0 1 1 4.93 6.343L3.515 4.93a1 1 0 0 1 0-1.414ZM17.657 17.657a1 1 0 0 1 1.414 0l1.414 1.414a1 1 0 1 1-1.414 1.414l-1.414-1.414a1 1 0 0 1 0-1.414ZM5 12a7 7 0 1 1 14 0 7 7 0 0 1-14 0Z"/></g><defs><clipPath id="a"><path fill="#fff" d="M0 0h24v24H0z"/></clipPath></defs></svg>