<svg width="24" height="24" fill="none" xmlns="http://www.w3.org/2000/svg"><path fill-rule="evenodd" clip-rule="evenodd" d="M11.887 21.98c.076.026.15.027.226 0C13.084 21.65 20 19.018 20 11.253V4.304a.4.4 0 0 0-.303-.389l-7.6-1.903a.4.4 0 0 0-.194 0l-7.6 1.903A.4.4 0 0 0 4 4.304v6.948c0 7.687 6.918 10.387 7.887 10.728Zm3.649-13.101a1 1 0 1 0-1.415-1.415L12 9.586 9.879 7.464A1 1 0 0 0 8.464 8.88L10.586 11l-2.122 2.121a1 1 0 1 0 1.415 1.415L12 12.414l2.121 2.122a1 1 0 1 0 1.415-1.415L13.414 11l2.122-2.121Z" fill="#000"/></svg>