<svg xmlns="http://www.w3.org/2000/svg" width="24" height="24" fill="none" viewBox="0 0 24 24"><path fill="#000" d="M11 22v-4a1 1 0 0 1 2 0v4a1 1 0 0 1-2 0M7.06 15.54a1 1 0 1 1 1.414 1.413l-2.828 2.828a1 1 0 1 1-1.414-1.414zm8.478 0a1 1 0 0 1 1.414 0l2.828 2.827a1 1 0 0 1-1.413 1.414l-2.829-2.828a1 1 0 0 1 0-1.414m-9.532-4.535a1 1 0 0 1 0 2h-4a1 1 0 0 1 0-2zm16 0a1 1 0 0 1 0 2h-4a1 1 0 0 1 0-2zM4.224 4.225a1 1 0 0 1 1.414 0l2.828 2.829a1 1 0 0 1-1.414 1.414L4.224 5.64a1 1 0 0 1 0-1.414m14.148 0a1 1 0 0 1 1.414 1.415l-2.828 2.828a1 1 0 1 1-1.414-1.414zM11 6V2a1 1 0 0 1 2 0v4a1 1 0 0 1-2 0"/></svg>