<svg width="24" height="24" fill="none" xmlns="http://www.w3.org/2000/svg"><path d="M4 5.4A1.4 1.4 0 0 1 5.4 4h6.2A1.4 1.4 0 0 1 13 5.4V8a1 1 0 1 0 2 0V5.4A3.4 3.4 0 0 0 11.6 2H5.4A3.4 3.4 0 0 0 2 5.4v13.2A3.4 3.4 0 0 0 5.4 22h6.2a3.4 3.4 0 0 0 3.4-3.4V16a1 1 0 1 0-2 0v2.6a1.4 1.4 0 0 1-1.4 1.4H5.4A1.4 1.4 0 0 1 4 18.6V5.4Z" fill="#000"/><path d="M17.293 8.293a1 1 0 0 1 1.414 0l3 3a1 1 0 0 1 0 1.414l-3 3a1 1 0 0 1-1.414-1.414L18.586 13H7a1 1 0 1 1 0-2h11.586l-1.293-1.293a1 1 0 0 1 0-1.414Z" fill="#000"/></svg>