<svg xmlns="http://www.w3.org/2000/svg" width="24" height="24" fill="none" viewBox="0 0 24 24"><path fill="#000" fill-rule="evenodd" d="M13.583 1.005a1 1 0 0 1 .9.912l.144 1.722v.007a.8.8 0 0 0 .156.42.8.8 0 0 0 .297.246q.048.014.095.034a.85.85 0 0 0 .79-.07l.095-.072 1.3-1.136a1 1 0 0 1 1.366.047l2.117 2.122a1 1 0 0 1 .045 1.365l-1.139 1.303a.85.85 0 0 0-.139.881q.016.039.028.078c.06.123.15.23.26.31a.85.85 0 0 0 .436.159l1.738.126a1 1 0 0 1 .928.997v2.979a1 1 0 0 1-.925.997l-1.74.13-.012.002a.85.85 0 0 0-.71.48q-.014.05-.033.097a.85.85 0 0 0 .139.88l1.138 1.304a1 1 0 0 1-.044 1.364l-2.105 2.109a1 1 0 0 1-1.364.048l-1.3-1.131-.095-.07a.85.85 0 0 0-.79-.07q-.035.015-.072.026a.87.87 0 0 0-.477.71l-.126 1.76a1 1 0 0 1-.997.929H10.51a1 1 0 0 1-.996-.915l-.153-1.787v-.016a.885.885 0 0 0-.481-.726q-.035-.011-.067-.024a.85.85 0 0 0-.88.139L6.627 20.81a1 1 0 0 1-1.364-.046l-2.105-2.105a1 1 0 0 1-.046-1.365l1.139-1.304a.85.85 0 0 0 .139-.88l-.03-.083a.85.85 0 0 0-.694-.464h-.002l-1.74-.131A1 1 0 0 1 1 13.435v-2.979a1 1 0 0 1 .928-.997l1.736-.126a.85.85 0 0 0 .722-.546l.012-.032a.85.85 0 0 0-.142-.884l-1.135-1.3a1 1 0 0 1 .056-1.375L5.319 3.11a1 1 0 0 1 1.356-.036l1.3 1.135a.86.86 0 0 0 .884.143l.01-.004a.83.83 0 0 0 .517-.708l.126-1.712.011-.097A1 1 0 0 1 10.51 1h2.978zM12 8a4 4 0 1 0 0 8 4 4 0 0 0 0-8" clip-rule="evenodd"/></svg>