<svg xmlns="http://www.w3.org/2000/svg" width="24" height="24" fill="none" viewBox="0 0 24 24"><g fill="#000" clip-path="url(#a)"><path d="M12 20a1 1 0 0 1 1 1v2a1 1 0 1 1-2 0v-2a1 1 0 0 1 1-1M4.929 17.657a1 1 0 1 1 1.414 1.414l-1.414 1.414a1 1 0 0 1-1.414-1.414zM17.657 17.657a1 1 0 0 1 1.414 0l1.414 1.414a1 1 0 0 1-1.414 1.414l-1.414-1.414a1 1 0 0 1 0-1.414M12 6a6 6 0 1 1 0 12 6 6 0 0 1 0-12M3 11a1 1 0 1 1 0 2H1a1 1 0 1 1 0-2zM23 11a1 1 0 1 1 0 2h-2a1 1 0 1 1 0-2zM3.515 3.515a1 1 0 0 1 1.414 0l1.414 1.414a1 1 0 1 1-1.414 1.414L3.515 4.929a1 1 0 0 1 0-1.414M19.071 3.515a1 1 0 0 1 1.414 1.414l-1.414 1.414a1 1 0 1 1-1.414-1.414zM12 0a1 1 0 0 1 1 1v2a1 1 0 1 1-2 0V1a1 1 0 0 1 1-1"/></g><defs><clipPath id="a"><path fill="#fff" d="M0 0h24v24H0z"/></clipPath></defs></svg>