<svg xmlns="http://www.w3.org/2000/svg" width="24" height="24" fill="none" viewBox="0 0 24 24"><path fill="#000" d="M6.2 1c.757 0 1.403.468 1.67 1.13l7.496-1.077a5.1 5.1 0 0 1 3.504.765 5.26 5.26 0 0 1 2.172 2.883l1.762 5.753a4.48 4.48 0 0 1-.64 3.916 4.36 4.36 0 0 1-1.537 1.328 4.3 4.3 0 0 1-1.968.479h-2.27q.064.256.115.514l.079.466q.102.704.103 1.43v.002a4.45 4.45 0 0 1-1.264 3.111c-.812.83-1.92 1.3-3.077 1.3a4.3 4.3 0 0 1-3.076-1.3 4.45 4.45 0 0 1-1.264-3.111c0-.224-.116-.67-.483-1.173A1.8 1.8 0 0 1 6.2 18H2.8A1.8 1.8 0 0 1 1 16.2V2.8A1.8 1.8 0 0 1 2.8 1zm3.805 17.589c0 .646.251 1.261.692 1.712.44.45 1.034.699 1.648.699s1.207-.25 1.648-.7.692-1.064.692-1.71l-.01-.388a8 8 0 0 0-.134-1.128h-.001a8.7 8.7 0 0 0-.444-1.531 1 1 0 0 1 .93-1.366h3.633c.364 0 .723-.088 1.049-.256a2.36 2.36 0 0 0 .831-.719c.22-.305.367-.66.429-1.036a2.5 2.5 0 0 0-.076-1.126l-1.763-5.753A3.26 3.26 0 0 0 17.787 3.5a3.1 3.1 0 0 0-2.134-.467h-.002L8 4.132v10.94q.311.236.61.538c.927.948 1.395 2.067 1.395 2.979"/></svg>