<svg xmlns="http://www.w3.org/2000/svg" width="24" height="24" fill="none" viewBox="0 0 24 24"><path fill="#000" d="M7 13.174h1.665c.337 0 .652.17.837.451l4.578 6.981c.325-.314.502-.67.581-1.032.131-.604.009-1.33-.378-2.027l-.004-.007-.64-1.174-.02-.04c-.326-.669-.438-1.477-.031-2.174.416-.711 1.184-.987 1.932-.978h3.236c.238 0 .826-.042 1.32-.411.427-.32.992-1.043.917-2.85-.066-1.517-.73-2.784-1.47-3.685a6 6 0 0 0-1.038-1.011A2.5 2.5 0 0 0 18.148 5H7zM7 3h11.273c.321 0 .61.13.773.212.202.102.417.24.633.4.432.32.924.777 1.391 1.348.875 1.068 1.719 2.6 1.895 4.484l.026.382v.002c.096 2.304-.642 3.733-1.718 4.537-1.01.755-2.127.809-2.517.809H15.5a.7.7 0 0 0-.169.014.8.8 0 0 0 .082.253l.62 1.135.103.197c.5.988.718 2.128.48 3.225-.261 1.203-1.051 2.249-2.377 2.9a1 1 0 0 1-1.277-.35l-4.837-7.374H7v.026A1.8 1.8 0 0 1 5.2 17H2.8A1.8 1.8 0 0 1 1 15.2V2.8A1.8 1.8 0 0 1 2.8 1h2.4A1.8 1.8 0 0 1 7 2.8z"/></svg>