<svg xmlns="http://www.w3.org/2000/svg" width="24" height="24" fill="none" viewBox="0 0 24 24"><path fill="#000" d="M12.345 1c1.158 0 2.265.47 3.077 1.3a4.45 4.45 0 0 1 1.264 3.111v.002a10 10 0 0 1-.296 2.41h2.27c.684 0 1.358.164 1.967.479s1.135.77 1.536 1.328a4.482 4.482 0 0 1 .64 3.916l-1.761 5.753a5.25 5.25 0 0 1-2.172 2.883 5.1 5.1 0 0 1-3.504.764L7.87 21.87A1.8 1.8 0 0 1 6.2 23H2.8A1.8 1.8 0 0 1 1 21.2V7.8A1.8 1.8 0 0 1 2.8 6h3.4c.524 0 .994.226 1.322.583.366-.502.483-.948.483-1.172 0-1.163.452-2.282 1.264-3.111A4.3 4.3 0 0 1 12.345 1m-2.34 4.411c0 .911-.468 2.031-1.396 2.979A6 6 0 0 1 8 8.927v10.94l7.651 1.1h.002a3.1 3.1 0 0 0 2.134-.466 3.25 3.25 0 0 0 1.342-1.787l1.763-5.754c.111-.364.137-.75.076-1.126a2.45 2.45 0 0 0-.429-1.036 2.36 2.36 0 0 0-.831-.719 2.3 2.3 0 0 0-1.049-.256h-3.633a1.002 1.002 0 0 1-.93-1.366 8.7 8.7 0 0 0 .444-1.53l.001-.001q.143-.733.144-1.515c0-.646-.25-1.261-.692-1.712C13.553 3.25 12.96 3 12.345 3s-1.207.25-1.648.7a2.45 2.45 0 0 0-.692 1.711"/></svg>