<svg width="24" height="24" fill="none" xmlns="http://www.w3.org/2000/svg"><path d="M6.25 7c0-3.164 2.586-5.75 5.75-5.75S17.75 3.836 17.75 7v1.5c0 3.164-2.586 5.75-5.75 5.75S6.25 11.664 6.25 8.5V7Z" fill="#000"/><path d="M18.944 12.937a1 1 0 0 0-.668 1.886c.825.292 1.458.602 1.91.912.458.315.67.589.754.786.012.028.025.055.039.082l.001.147v3.65c0 .328-.272.6-.6.6H3.6a.605.605 0 0 1-.6-.6v-3.65l.001-.132v-.014a1.022 1.022 0 0 0 .036-.077c.09-.207.304-.479.759-.79.452-.31 1.084-.618 1.913-.916a1 1 0 1 0-.678-1.882c-.92.332-1.723.708-2.364 1.147-.63.43-1.16.96-1.454 1.622-.09.183-.153.366-.185.57-.028.175-.028.343-.028.45V20.4C1 21.832 2.168 23 3.6 23H20.433a2.605 2.605 0 0 0 2.547-2.6v-3.668c0-.108 0-.293-.024-.472a1.53 1.53 0 0 0-.232-.646c-.297-.615-.808-1.117-1.405-1.527-.643-.442-1.45-.822-2.375-1.15Z" fill="#000"/></svg>