<svg xmlns="http://www.w3.org/2000/svg" width="24" height="24" fill="none"><path fill="#222" d="M6.25 7a5.75 5.75 0 1 1 11.5 0 5.75 5.75 0 0 1-11.5 0ZM11.797 14.261a.755.755 0 0 1 .13-.011h.145c.043 0 .088.004.13.011l7.295 1.283a.621.621 0 0 1 .038.008c1.343.31 2.787 1.163 3.069 2.82l.004.029.114.877v.002c.264 2.009-1.33 3.47-3.21 3.47a.753.753 0 0 1-.124-.01h-14.9c-1.881 0-3.475-1.462-3.21-3.472l.114-.869a.735.735 0 0 1 .005-.03c.28-1.627 1.735-2.528 3.077-2.819a.726.726 0 0 1 .029-.006l7.294-1.283Z"/></svg>