<svg xmlns="http://www.w3.org/2000/svg" width="24" height="24" fill="none" viewBox="0 0 24 24"><path fill="#000" d="M13.25 21v-3a1 1 0 1 1 2 0v3a1 1 0 1 1-2 0m-6.191-9.706a1 1 0 0 1 1.416 1.412L5.729 15.46l-.003.004a2 2 0 0 0-.019 2.821 2 2 0 0 0 2.186.437c.243-.101.464-.25.65-.437l2.749-2.753a1.001 1.001 0 0 1 1.416 1.413l-2.749 2.75.001.001a4 4 0 0 1-5.67 0l-.003-.003a4 4 0 0 1 .026-5.646zm8.673 4.438c.39-.39 1.025-.39 1.416 0l2.122 2.124a1 1 0 1 1-1.415 1.413l-2.123-2.121a1 1 0 0 1 0-1.416M21 13.25a1 1 0 1 1 0 2h-3.187a1 1 0 1 1 0-2zM16.855 3.126a4.03 4.03 0 0 1 3.723 2.488 4 4 0 0 1-.017 3.087c-.206.488-.508.93-.887 1.3L19.673 10l-2.697 2.706a1 1 0 1 1-1.416-1.412l2.707-2.715.01-.01a2 2 0 0 0 .014-2.847l-.001-.001a2.03 2.03 0 0 0-2.871 0l-2.711 2.715a1 1 0 0 1-1.416-1.414l2.712-2.714a4.03 4.03 0 0 1 2.85-1.182M6.188 8.75a1 1 0 0 1 0 2H3a1 1 0 1 1 0-2zM4.73 4.67a1 1 0 0 1 1.415 0l2.123 2.123a1 1 0 0 1-1.415 1.414L4.73 6.085a1 1 0 0 1 0-1.415m4.02 1.518V3a1 1 0 0 1 2 0v3.188a1 1 0 1 1-2 0"/></svg>