<svg width="24" height="24" fill="none" xmlns="http://www.w3.org/2000/svg"><path fill-rule="evenodd" clip-rule="evenodd" d="M19.863 8.741C21.142 9.395 22 10.605 22 12c0 1.395-.858 2.605-2.137 3.258.45 1.357.195 2.83-.79 3.815-.985.985-2.458 1.23-3.815.79C14.615 21.142 13.396 22 12 22s-2.605-.858-3.259-2.137c-1.356.44-2.829.195-3.814-.79-.986-.985-1.23-2.458-.78-3.815C2.867 14.605 2 13.396 2 12s.868-2.605 2.146-3.259c-.448-1.356-.205-2.829.78-3.814.986-.986 2.46-1.24 3.825-.79C9.395 2.859 10.605 2 12 2s2.615.859 3.258 2.137c1.357-.45 2.83-.196 3.815.79.985.985 1.24 2.458.79 3.814Zm-3.05.84a1 1 0 1 0-1.627-1.162l-4.314 6.04-2.165-2.166a1 1 0 0 0-1.414 1.414l3 3a1 1 0 0 0 1.52-.126l5-7Z" fill="#000"/></svg>