<svg xmlns="http://www.w3.org/2000/svg" width="24" height="24" fill="none" viewBox="0 0 24 24"><path fill="#000" d="M9.2 13a1.8 1.8 0 0 1 1.8 1.8v5.4A1.8 1.8 0 0 1 9.2 22H3.8A1.8 1.8 0 0 1 2 20.2v-5.4A1.8 1.8 0 0 1 3.8 13zM17.5 13a4.5 4.5 0 1 1 0 9 4.5 4.5 0 0 1 0-9M5.325 2.492a1.8 1.8 0 0 1 2.409.124l3.111 3.111a1.8 1.8 0 0 1 0 2.545l-3.111 3.111a1.8 1.8 0 0 1-2.545 0l-3.112-3.11a1.8 1.8 0 0 1 0-2.546L5.19 2.616zM17.983 11.346a1 1 0 0 1-1.063.004l.529-.85zm2.354-5.714c0-.658-.505-1.132-1.062-1.132-.388 0-.746.227-.935.598a1 1 0 0 1-1.783 0 1.06 1.06 0 0 0-.934-.598c-.557 0-1.063.477-1.063 1.132 0 .774.477 1.607 1.316 2.42.403.391.922.79 1.36 1.1q.109.077.209.143.095-.063.198-.136c.432-.308.958-.711 1.39-1.117.916-.86 1.304-1.616 1.304-2.41m2 0c0 1.467-.71 2.654-1.727 3.668l-.207.2c-.526.494-1.134.955-1.597 1.286-.234.168-.438.306-.583.402l-.173.114-.048.031-.012.009-.005.002h-.001l-.535-.844-.529.85-.006-.004-.013-.01-.05-.031-.178-.115c-.15-.098-.357-.238-.595-.407-.47-.332-1.084-.799-1.594-1.294-.986-.956-1.924-2.28-1.924-3.857 0-1.697 1.34-3.132 3.063-3.132.69 0 1.32.235 1.826.621a3 3 0 0 1 1.826-.621c1.722 0 3.062 1.43 3.062 3.132"/></svg>