<svg width="24" height="24" viewBox="0 0 24 24" fill="none" xmlns="http://www.w3.org/2000/svg">
<path d="M19.7636 8.81867C19.6476 8.90868 17.5994 10.0628 17.5994 12.6291C17.5994 15.5973 20.2056 16.6475 20.2836 16.6735C20.2716 16.7375 19.8696 18.1116 18.9095 19.5117C18.0534 20.7439 17.1593 21.974 15.7992 21.974C14.439 21.974 14.089 21.1839 12.5189 21.1839C10.9887 21.1839 10.4446 22 9.20052 22C7.9564 22 7.08831 20.8599 6.09021 19.4597C4.93409 17.8156 4 15.2613 4 12.8371C4 8.94868 6.52825 6.88648 9.0165 6.88648C10.3386 6.88648 11.4407 7.75456 12.2708 7.75456C13.0609 7.75456 14.293 6.83447 15.7972 6.83447C16.3672 6.83447 18.4154 6.88648 19.7636 8.81867Z" fill="black" fill-opacity="0.16" stroke="black" stroke-width="1.5" stroke-miterlimit="10" stroke-linejoin="round"/>
<path d="M15.083 5.18832C15.7051 4.45024 16.1452 3.42614 16.1452 2.40204C16.1452 2.26003 16.1332 2.11601 16.1071 2C15.095 2.038 13.8909 2.67407 13.1649 3.51615C12.5948 4.16422 12.0627 5.18832 12.0627 6.22642C12.0627 6.38244 12.0887 6.53845 12.1007 6.58846C12.1648 6.60046 12.2688 6.61446 12.3728 6.61446C13.2809 6.61446 14.423 6.0064 15.083 5.18832Z" fill="white" stroke="black" stroke-width="1.5" stroke-miterlimit="10" stroke-linejoin="round"/>
</svg>
