<svg width="24" height="24" viewBox="0 0 24 24" fill="none" xmlns="http://www.w3.org/2000/svg">
<path d="M12 20C16.4183 20 20 16.4183 20 12C20 7.58172 16.4183 4 12 4C7.58172 4 4 7.58172 4 12C4 16.4183 7.58172 20 12 20Z" fill="black" fill-opacity="0.16" stroke="black" stroke-width="1.5" stroke-miterlimit="10"/>
<path d="M12 15C13.6569 15 15 13.6569 15 12C15 10.3431 13.6569 9 12 9C10.3431 9 9 10.3431 9 12C9 13.6569 10.3431 15 12 15Z" fill="white" stroke="black" stroke-width="1.5" stroke-miterlimit="10"/>
<path d="M2 12H6" stroke="black" stroke-width="1.5" stroke-miterlimit="10" stroke-linecap="round"/>
<path d="M18 12H22" stroke="black" stroke-width="1.5" stroke-miterlimit="10" stroke-linecap="round"/>
<path d="M12 22L12 18" stroke="black" stroke-width="1.5" stroke-miterlimit="10" stroke-linecap="round"/>
<path d="M12 6L12 2" stroke="black" stroke-width="1.5" stroke-miterlimit="10" stroke-linecap="round"/>
</svg>
