<svg width="24" height="24" viewBox="0 0 24 24" fill="none" xmlns="http://www.w3.org/2000/svg">
<g clip-path="url(#clip0_503_4781)">
<path d="M3.79765 8.88873L1.81775 10.8686C1.19291 11.4935 1.19291 12.5065 1.81775 13.1314L3.79765 15.1113C4.42249 15.7361 5.43555 15.7361 6.06039 15.1113L8.04029 13.1314C8.66513 12.5065 8.66513 11.4935 8.04029 10.8686L6.06039 8.88873C5.43555 8.2639 4.42249 8.2639 3.79765 8.88873Z" fill="black" fill-opacity="0.16" stroke="black" stroke-width="1.5" stroke-miterlimit="10"/>
<path d="M10.8687 1.81763L8.8888 3.79753C8.26396 4.42237 8.26396 5.43543 8.8888 6.06027L10.8687 8.04017C11.4935 8.66501 12.5066 8.66501 13.1314 8.04017L15.1113 6.06027C15.7362 5.43543 15.7362 4.42237 15.1113 3.79753L13.1314 1.81763C12.5066 1.19279 11.4935 1.19279 10.8687 1.81763Z" fill="white" stroke="black" stroke-width="1.5" stroke-miterlimit="10"/>
<path d="M10.8687 15.9598L8.8888 17.9397C8.26396 18.5645 8.26396 19.5776 8.8888 20.2024L10.8687 22.1823C11.4935 22.8072 12.5066 22.8072 13.1314 22.1823L15.1113 20.2024C15.7362 19.5776 15.7362 18.5645 15.1113 17.9397L13.1314 15.9598C12.5066 15.3349 11.4935 15.3349 10.8687 15.9598Z" fill="white" stroke="black" stroke-width="1.5" stroke-miterlimit="10"/>
<path d="M17.9397 8.88873L15.9598 10.8686C15.335 11.4935 15.335 12.5065 15.9598 13.1314L17.9397 15.1113C18.5646 15.7361 19.5776 15.7361 20.2025 15.1113L22.1824 13.1314C22.8072 12.5065 22.8072 11.4935 22.1824 10.8686L20.2025 8.88873C19.5776 8.2639 18.5646 8.2639 17.9397 8.88873Z" fill="black" fill-opacity="0.16" stroke="black" stroke-width="1.5" stroke-miterlimit="10"/>
</g>
<defs>
<clipPath id="clip0_503_4781">
<rect width="24" height="24" fill="white"/>
</clipPath>
</defs>
</svg>
