<svg width="24" height="24" viewBox="0 0 24 24" fill="none" xmlns="http://www.w3.org/2000/svg">
<path d="M8.4 3H5.6C4.71634 3 4 3.71634 4 4.6V9.4C4 10.2837 4.71634 11 5.6 11H8.4C9.28366 11 10 10.2837 10 9.4V4.6C10 3.71634 9.28366 3 8.4 3Z" fill="white" stroke="black" stroke-width="1.5" stroke-miterlimit="10"/>
<path d="M8.4 15H5.6C4.71634 15 4 15.7163 4 16.6V19.4C4 20.2837 4.71634 21 5.6 21H8.4C9.28366 21 10 20.2837 10 19.4V16.6C10 15.7163 9.28366 15 8.4 15Z" fill="black" fill-opacity="0.16" stroke="black" stroke-width="1.5" stroke-miterlimit="10"/>
<path d="M18.4 3H15.6C14.7163 3 14 3.71634 14 4.6V7.4C14 8.28366 14.7163 9 15.6 9H18.4C19.2837 9 20 8.28366 20 7.4V4.6C20 3.71634 19.2837 3 18.4 3Z" fill="black" fill-opacity="0.16" stroke="black" stroke-width="1.5" stroke-miterlimit="10"/>
<path d="M18.4 13H15.6C14.7163 13 14 13.7163 14 14.6V19.4C14 20.2837 14.7163 21 15.6 21H18.4C19.2837 21 20 20.2837 20 19.4V14.6C20 13.7163 19.2837 13 18.4 13Z" fill="white" stroke="black" stroke-width="1.5" stroke-miterlimit="10"/>
</svg>
