<svg width="24" height="24" viewBox="0 0 24 24" fill="none" xmlns="http://www.w3.org/2000/svg">
<path d="M18.6 22H5.4C4.07 22 3 20.9246 3 19.5879V8.33166C3 7.94975 3.18 7.59799 3.48 7.36683L11.26 2.24121C11.69 1.9196 12.27 1.9196 12.7 2.24121L20.52 7.36683C20.82 7.59799 21 7.94975 21 8.33166V19.5879C21 20.9246 19.93 22 18.6 22Z" fill="black" fill-opacity="0.16"/>
<path d="M1 9L11.26 2.24C11.69 1.92 12.27 1.92 12.7 2.24L23 9" stroke="black" stroke-width="1.5" stroke-linecap="round" stroke-linejoin="round"/>
<path d="M21 8V19.6C21 20.93 19.93 22 18.6 22H5.4C4.07 22 3 20.93 3 19.6V8" stroke="black" stroke-width="1.5" stroke-linecap="round" stroke-linejoin="round"/>
<path d="M9.8 12H14.2C14.64 12 15 12.36 15 12.8V22H9V12.8C9 12.36 9.36 12 9.8 12Z" fill="white" stroke="black" stroke-width="1.5" stroke-miterlimit="10"/>
<path d="M18 3V5" stroke="black" stroke-width="1.5" stroke-linecap="round" stroke-linejoin="round"/>
<path d="M15 8H9" stroke="black" stroke-width="1.5" stroke-miterlimit="10" stroke-linecap="round"/>
</svg>
