<svg width="24" height="24" viewBox="0 0 24 24" fill="none" xmlns="http://www.w3.org/2000/svg">
<path d="M8.57 17.93C7.01 16.85 6 15.04 6 13C6 9.69 8.69 7 12 7C15.31 7 18 9.69 18 13C18 15.05 16.97 16.86 15.4 17.94" fill="black" fill-opacity="0.16"/>
<path d="M8.57 17.93C7.01 16.85 6 15.04 6 13C6 9.69 8.69 7 12 7C15.31 7 18 9.69 18 13C18 15.05 16.97 16.86 15.4 17.94" stroke="black" stroke-width="1.5" stroke-miterlimit="10" stroke-linecap="round"/>
<path d="M12 4V2" stroke="black" stroke-width="1.5" stroke-miterlimit="10" stroke-linecap="round"/>
<path d="M3 13H1" stroke="black" stroke-width="1.5" stroke-miterlimit="10" stroke-linecap="round"/>
<path d="M23 13H21" stroke="black" stroke-width="1.5" stroke-miterlimit="10" stroke-linecap="round"/>
<path d="M19.7782 5.2218L18.364 6.63602" stroke="black" stroke-width="1.5" stroke-miterlimit="10" stroke-linecap="round"/>
<path d="M5.63589 6.63602L4.22168 5.2218" stroke="black" stroke-width="1.5" stroke-miterlimit="10" stroke-linecap="round"/>
<path d="M4 18H20" stroke="black" stroke-width="1.5" stroke-miterlimit="10" stroke-linecap="round"/>
<path d="M8 21H16" stroke="black" stroke-width="1.5" stroke-miterlimit="10" stroke-linecap="round"/>
</svg>
