<svg width="24" height="24" viewBox="0 0 24 24" fill="none" xmlns="http://www.w3.org/2000/svg">
<path d="M21.7475 10.5761L16.4442 14.8693L18.3382 21.0564C18.4645 21.309 18.3382 21.6878 18.0857 21.814C17.9594 21.9403 17.8331 21.9403 17.7069 21.9403C17.5806 21.9403 17.4543 21.9403 17.3281 21.814L12.151 18.026L6.84774 21.814C6.5952 21.9403 6.34266 21.9403 6.09012 21.814C5.83758 21.6878 5.71134 21.309 5.8376 21.0564L7.47908 14.743L2.30205 10.5761C2.04952 10.4499 1.92327 10.071 2.04954 9.81851C2.17581 9.56597 2.42835 9.31344 2.68088 9.31344H9.37312L11.3934 3.50507C11.5197 3.25253 11.7722 3 12.0248 3C12.2773 3 12.5298 3.25253 12.6561 3.50507L14.8027 9.31344H21.3687C21.6212 9.31344 21.8737 9.56597 22 9.81851C22 10.071 21.8738 10.3236 21.7475 10.5761Z" fill="black" fill-opacity="0.16" stroke="black" stroke-width="1.5" stroke-miterlimit="10" stroke-linejoin="round"/>
</svg>
