<svg width="24" height="24" viewBox="0 0 24 24" fill="none" xmlns="http://www.w3.org/2000/svg">
<path d="M20.38 9.49H18.51C18.46 9.37 18.42 9.25 18.37 9.14L19.69 7.82C20.31 7.2 20.31 6.18 19.69 5.56L18.42 4.29C17.8 3.67 16.78 3.67 16.16 4.29L14.84 5.61C14.72 5.56 14.61 5.51 14.49 5.47V3.6C14.49 2.72 13.77 2 12.89 2H11.09C10.21 2 9.49 2.72 9.49 3.6V5.47C9.37 5.52 9.25 5.56 9.14 5.61L7.82 4.29C7.2 3.67 6.18 3.67 5.56 4.29L4.29 5.56C3.67 6.18 3.67 7.2 4.29 7.82L5.61 9.14C5.56 9.26 5.51 9.37 5.47 9.49H3.6C2.72 9.49 2 10.21 2 11.09V12.89C2 13.77 2.72 14.49 3.6 14.49H5.47C5.52 14.61 5.56 14.73 5.61 14.84L4.29 16.16C3.67 16.78 3.67 17.8 4.29 18.42L5.56 19.69C6.18 20.31 7.2 20.31 7.82 19.69L9.14 18.37C9.26 18.42 9.37 18.47 9.49 18.51V20.38C9.49 21.26 10.21 21.98 11.09 21.98H12.89C13.77 21.98 14.49 21.26 14.49 20.38V18.51C14.61 18.46 14.73 18.42 14.84 18.37L16.16 19.69C16.78 20.31 17.8 20.31 18.42 19.69L19.69 18.42C20.31 17.8 20.31 16.78 19.69 16.16L18.37 14.84C18.42 14.72 18.47 14.61 18.51 14.49H20.38C21.26 14.49 21.98 13.77 21.98 12.89V11.09C21.98 10.21 21.26 9.49 20.38 9.49Z" fill="black" fill-opacity="0.16" stroke="black" stroke-width="1.5" stroke-linecap="round" stroke-linejoin="round"/>
<path d="M12 16C14.2091 16 16 14.2091 16 12C16 9.79086 14.2091 8 12 8C9.79086 8 8 9.79086 8 12C8 14.2091 9.79086 16 12 16Z" fill="white" stroke="black" stroke-width="1.5" stroke-miterlimit="10"/>
</svg>
