<svg width="24" height="24" viewBox="0 0 24 24" fill="none" xmlns="http://www.w3.org/2000/svg">
<path d="M20.4 22H3.6C2.72 22 2 21.28 2 20.4V15.75C2 15.5 2 15.37 2.12 15.13C2.5 14.25 3.62 13.51 5.37 12.88C6.62 15.26 9.12 16.88 11.99 16.88C14.86 16.88 17.37 15.26 18.61 12.88C20.36 13.5 21.49 14.26 21.86 15.13C21.98 15.25 21.98 15.51 21.98 15.75V20.4C21.98 21.28 21.26 22 20.38 22H20.4Z" fill="black" fill-opacity="0.16" stroke="black" stroke-width="1.5" stroke-linecap="round" stroke-linejoin="round"/>
<path d="M12 13.5C9.25 13.5 7 11.25 7 8.5V7C7 4.25 9.25 2 12 2C14.75 2 17 4.25 17 7V8.5C17 11.25 14.75 13.5 12 13.5Z" fill="white" stroke="black" stroke-width="1.5" stroke-linecap="round" stroke-linejoin="round"/>
</svg>
