<svg width="24" height="24" viewBox="0 0 24 24" fill="none" xmlns="http://www.w3.org/2000/svg">
<path d="M5.37 13.88C3.62 14.51 2.5 15.25 2.12 16.13C2 16.37 2 16.5 2 16.75V20.4C2 21.28 2.72 22 3.6 22H20.4H20.38C21.26 22 21.98 21.28 21.98 20.4V16.75C21.98 16.51 21.98 16.25 21.86 16.13C21.49 15.26 20.36 14.5 18.61 13.88" stroke="black" stroke-width="1.5" stroke-linecap="round" stroke-linejoin="round"/>
<path d="M12 13.5C9.25 13.5 7 11.25 7 8.5V7C7 4.25 9.25 2 12 2C14.75 2 17 4.25 17 7V8.5C17 11.25 14.75 13.5 12 13.5Z" fill="white" stroke="black" stroke-width="1.5" stroke-linecap="round" stroke-linejoin="round"/>
</svg>
