<svg width="24" height="24" viewBox="0 0 24 24" fill="none" xmlns="http://www.w3.org/2000/svg">
<path d="M20.595 4.4625C21.5413 4.7175 22.2875 5.4675 22.54 6.42C23 8.1475 23 11.75 23 11.75C23 11.75 23 15.3538 22.54 17.08C22.2875 18.0325 21.5413 18.7825 20.595 19.0375C18.88 19.5 12 19.5 12 19.5C12 19.5 5.12125 19.5 3.405 19.0375C2.45875 18.7825 1.7125 18.0325 1.46 17.08C1 15.3525 1 11.75 1 11.75C1 11.75 1 8.1475 1.46 6.42C1.7125 5.4675 2.45875 4.7175 3.405 4.4625C5.12 4 12 4 12 4C12 4 18.88 4 20.595 4.4625Z" fill="black" fill-opacity="0.16" stroke="black" stroke-width="1.5" stroke-miterlimit="10" stroke-linejoin="round"/>
<path d="M9.75 15.0213V8.47876L15.5 11.75L9.75 15.0213Z" fill="white" stroke="black" stroke-width="1.5" stroke-miterlimit="10" stroke-linejoin="round"/>
</svg>
