<svg xmlns="http://www.w3.org/2000/svg" width="24" height="24" fill="none" viewBox="0 0 24 24"><path stroke="#000" stroke-linecap="round" stroke-linejoin="round" stroke-miterlimit="10" stroke-width="1.5" d="M14 3a2 2 0 1 1-4 0m4 0a2 2 0 1 0-4 0m4 0h4.6A2.4 2.4 0 0 1 21 5.4v15.2a2.4 2.4 0 0 1-2.4 2.4H5.4A2.4 2.4 0 0 1 3 20.6V5.4A2.4 2.4 0 0 1 5.4 3H10M7 13h4m-4-3h10M7 16h2m5.306-2.224-.377 1.508a.2.2 0 0 1-.145.145l-1.508.377c-.202.05-.202.338 0 .388l1.508.377a.2.2 0 0 1 .145.145l.377 1.508c.05.202.338.202.388 0l.377-1.508a.2.2 0 0 1 .145-.145l1.508-.377c.202-.05.202-.337 0-.388l-1.508-.377a.2.2 0 0 1-.145-.145l-.377-1.508c-.05-.202-.338-.202-.388 0"/></svg>