<svg xmlns="http://www.w3.org/2000/svg" width="24" height="24" fill="none" viewBox="0 0 24 24"><path stroke="#000" stroke-linecap="round" stroke-linejoin="round" stroke-miterlimit="10" stroke-width="1.5" d="M10.292 7.043c0-3.478.424-5.043 1.698-5.043 1.273 0 1.708 1.565 1.708 5.043V8.74l6.238 3.957c.425.304.57.804.552 1.304v2l-6.532-2.62a.4.4 0 0 0-.548.345l-.304 4.753 2.376 1.348c.212.13.34.391.34.652L15.507 22l-3.517-1.174L8.483 22l-.313-1.522c0-.26.127-.522.34-.652l2.376-1.348-.304-4.753a.4.4 0 0 0-.548-.345L3.502 16v-2c-.019-.5.127-1 .551-1.304l6.239-3.957z"/></svg>