<svg xmlns="http://www.w3.org/2000/svg" width="24" height="24" fill="none" viewBox="0 0 24 24"><path stroke="#000" stroke-linecap="round" stroke-linejoin="round" stroke-miterlimit="10" stroke-width="1.5" d="M8.4 21H4.6A1.6 1.6 0 0 1 3 19.4v-3.8A1.6 1.6 0 0 1 4.6 14h3.8a1.6 1.6 0 0 1 1.6 1.6v3.8A1.6 1.6 0 0 1 8.4 21M19.4 21h-3.8a1.6 1.6 0 0 1-1.6-1.6v-3.8a1.6 1.6 0 0 1 1.6-1.6h3.8a1.6 1.6 0 0 1 1.6 1.6v3.8a1.6 1.6 0 0 1-1.6 1.6M8.4 10H4.6A1.6 1.6 0 0 1 3 8.4V4.6A1.6 1.6 0 0 1 4.6 3h3.8A1.6 1.6 0 0 1 10 4.6v3.8A1.6 1.6 0 0 1 8.4 10M16.83 7.316l.476 1.908c.05.202.337.202.388 0l.477-1.908a.2.2 0 0 1 .145-.145l1.908-.477c.202-.05.202-.338 0-.388l-1.908-.477a.2.2 0 0 1-.145-.145l-.477-1.908c-.05-.202-.337-.202-.388 0l-.477 1.908a.2.2 0 0 1-.145.145l-1.908.477c-.202.05-.202.338 0 .388l1.908.477a.2.2 0 0 1 .145.145"/></svg>