<svg xmlns="http://www.w3.org/2000/svg" width="24" height="24" fill="none" viewBox="0 0 24 24"><path stroke="#000" stroke-linecap="round" stroke-linejoin="round" stroke-miterlimit="10" stroke-width="1.5" d="m16.82 10.27-6.504 6.46c-.697-.807-5.11-5.538-7.316.924 0 0 .232 3.346 4.994 3.346 3.367 0 6.851-4.038 9.29-6.346 2.09-1.962 3.716-4.5 3.716-6.808C21 3.116 17.748 3 17.748 3c-7.432 2.538-.929 7.27-.929 7.27M7.742 5.967l-.354-1.415c-.1-.404-.675-.404-.776 0l-.354 1.415a.4.4 0 0 1-.29.291l-1.416.354c-.404.1-.404.675 0 .776l1.415.354a.4.4 0 0 1 .291.29l.354 1.416c.1.404.675.404.776 0l.354-1.415a.4.4 0 0 1 .29-.291l1.416-.354c.404-.1.404-.675 0-.776l-1.415-.354a.4.4 0 0 1-.291-.29"/></svg>