<svg xmlns="http://www.w3.org/2000/svg" width="24" height="24" fill="none" viewBox="0 0 24 24"><path stroke="#000" stroke-linecap="round" stroke-linejoin="round" stroke-miterlimit="10" stroke-width="1.5" d="m21 21-4-4m2-6a8 8 0 1 1-16 0 8 8 0 0 1 16 0m-8.194-2.224-.377 1.508a.2.2 0 0 1-.145.145l-1.508.377c-.202.05-.202.338 0 .388l1.508.377a.2.2 0 0 1 .145.145l.377 1.508c.05.202.338.202.388 0l.377-1.508a.2.2 0 0 1 .145-.145l1.508-.377c.202-.05.202-.338 0-.388l-1.508-.377a.2.2 0 0 1-.145-.145l-.377-1.508c-.05-.202-.338-.202-.388 0"/></svg>