<svg xmlns="http://www.w3.org/2000/svg" width="24" height="24" fill="none" viewBox="0 0 24 24"><path stroke="#000" stroke-linecap="round" stroke-linejoin="round" stroke-miterlimit="10" stroke-width="1.5" d="M19 16h-2.525a.99.99 0 0 0-.775.375l-2.925 3.65c-.4.5-1.162.5-1.562 0l-2.925-3.65A.99.99 0 0 0 7.512 16H5c-1.662 0-3-1.338-3-3V6c0-1.662 1.338-3 3-3h14c1.663 0 3 1.338 3 3v7c0 1.662-1.337 3-3 3"/><path stroke="#000" stroke-linecap="round" stroke-linejoin="round" stroke-miterlimit="10" stroke-width="1.5" d="m8.43 10.284.376-1.508c.05-.202.338-.202.388 0l.377 1.508a.2.2 0 0 0 .145.145l1.508.377c.202.05.202.338 0 .388l-1.508.377a.2.2 0 0 0-.145.145l-.377 1.508c-.05.202-.338.202-.388 0l-.377-1.508a.2.2 0 0 0-.145-.145l-1.508-.377c-.202-.05-.202-.338 0-.388l1.508-.377a.2.2 0 0 0 .145-.145M15.1 7.6l.4-1.6.4 1.6 1.6.4-1.6.4-.4 1.6-.4-1.6-1.6-.4z"/></svg>