<svg xmlns="http://www.w3.org/2000/svg" width="24" height="24" fill="none" viewBox="0 0 24 24"><path stroke="#000" stroke-linecap="round" stroke-linejoin="round" stroke-miterlimit="10" stroke-width="1.5" d="M15 7V4.8a.8.8 0 0 0-.8-.8H9.8a.8.8 0 0 0-.8.8V7M4.4 7h15.2A2.4 2.4 0 0 1 22 9.4v9.2a2.4 2.4 0 0 1-2.4 2.4H4.4A2.4 2.4 0 0 1 2 18.6V9.4A2.4 2.4 0 0 1 4.4 7m7.212 4.552-.354 1.415a.4.4 0 0 1-.29.291l-1.416.354c-.404.1-.404.675 0 .776l1.415.354a.4.4 0 0 1 .291.29l.354 1.416c.1.404.675.404.776 0l.354-1.415a.4.4 0 0 1 .29-.291l1.416-.354c.404-.1.404-.675 0-.776l-1.415-.354a.4.4 0 0 1-.291-.29l-.354-1.416c-.1-.404-.675-.404-.776 0"/></svg>