<svg width="24" height="24" fill="none" xmlns="http://www.w3.org/2000/svg"><path d="M19.6 7H4.4A2.4 2.4 0 0 0 2 9.4v9.2A2.4 2.4 0 0 0 4.4 21h15.2a2.4 2.4 0 0 0 2.4-2.4V9.4A2.4 2.4 0 0 0 19.6 7Z" stroke="#000" stroke-width="1.5" stroke-miterlimit="10"/><path d="M2 14h8M14 14h8" stroke="#000" stroke-width="1.5" stroke-miterlimit="10" stroke-linecap="round"/><path d="M13.2 12h-2.4a.8.8 0 0 0-.8.8v2.4a.8.8 0 0 0 .8.8h2.4a.8.8 0 0 0 .8-.8v-2.4a.8.8 0 0 0-.8-.8Z" stroke="#000" stroke-width="1.5" stroke-miterlimit="10"/><path d="M15 7V4.8a.8.8 0 0 0-.8-.8H9.8a.8.8 0 0 0-.8.8V7" stroke="#000" stroke-width="1.5" stroke-miterlimit="10" stroke-linecap="round"/></svg>