<svg width="24" height="24" fill="none" xmlns="http://www.w3.org/2000/svg"><g clip-path="url(#a)" stroke="#000" stroke-width="1.5" stroke-miterlimit="10"><path d="M5 23H3.4A2.4 2.4 0 0 1 1 20.6V19m18 4h1.6a2.4 2.4 0 0 0 2.4-2.4V19m0-14V3.4A2.4 2.4 0 0 0 20.6 1H19M5 1H3.4A2.4 2.4 0 0 0 1 3.4V5" stroke-linecap="round" stroke-linejoin="round"/><path d="M8.4 4H5.6A1.6 1.6 0 0 0 4 5.6v2.8A1.6 1.6 0 0 0 5.6 10h2.8A1.6 1.6 0 0 0 10 8.4V5.6A1.6 1.6 0 0 0 8.4 4ZM8.4 14H5.6A1.6 1.6 0 0 0 4 15.6v2.8A1.6 1.6 0 0 0 5.6 20h2.8a1.6 1.6 0 0 0 1.6-1.6v-2.8A1.6 1.6 0 0 0 8.4 14ZM18.4 4h-2.8A1.6 1.6 0 0 0 14 5.6v2.8a1.6 1.6 0 0 0 1.6 1.6h2.8A1.6 1.6 0 0 0 20 8.4V5.6A1.6 1.6 0 0 0 18.4 4ZM18.4 14h-2.8a1.6 1.6 0 0 0-1.6 1.6v2.8a1.6 1.6 0 0 0 1.6 1.6h2.8a1.6 1.6 0 0 0 1.6-1.6v-2.8a1.6 1.6 0 0 0-1.6-1.6Z"/></g><defs><clipPath id="a"><path fill="#fff" d="M0 0h24v24H0z"/></clipPath></defs></svg>