<svg xmlns="http://www.w3.org/2000/svg" width="24" height="24" fill="none"><path fill="#000" d="M11.25 4a.75.75 0 0 0 1.5 0h-1.5Zm1.5-2a.75.75 0 0 0-1.5 0h1.5Zm-1.5 20a.75.75 0 0 0 1.5 0h-1.5Zm1.5-2a.75.75 0 0 0-1.5 0h1.5ZM4 12.75a.75.75 0 0 0 0-1.5v1.5Zm-2-1.5a.75.75 0 0 0 0 1.5v-1.5Zm20 1.5a.75.75 0 0 0 0-1.5v1.5Zm-2-1.5a.75.75 0 0 0 0 1.5v-1.5ZM6.87 18.19a.75.75 0 1 0-1.06-1.06l1.06 1.06Zm-2.47.35a.75.75 0 1 0 1.06 1.06L4.4 18.54Zm13.79-1.41a.75.75 0 1 0-1.06 1.06l1.06-1.06Zm.35 2.47a.75.75 0 1 0 1.06-1.06l-1.06 1.06ZM5.46 4.4A.75.75 0 0 0 4.4 5.46L5.46 4.4Zm.35 2.47a.75.75 0 0 0 1.06-1.06L5.81 6.87ZM12.75 4V2h-1.5v2h1.5Zm0 18v-2h-1.5v2h1.5ZM4 11.25H2v1.5h2v-1.5Zm18 0h-2v1.5h2v-1.5ZM5.81 17.13 4.4 18.54l1.06 1.06 1.41-1.41-1.06-1.06ZM18.54 4.4l-1.41 1.41 1.06 1.06 1.41-1.41-1.06-1.06Zm-1.41 13.79 1.41 1.41 1.06-1.06-1.41-1.41-1.06 1.06ZM4.4 5.46l1.41 1.41 1.06-1.06L5.46 4.4 4.4 5.46ZM15.25 12A3.25 3.25 0 0 1 12 15.25v1.5A4.75 4.75 0 0 0 16.75 12h-1.5ZM12 15.25A3.25 3.25 0 0 1 8.75 12h-1.5A4.75 4.75 0 0 0 12 16.75v-1.5ZM8.75 12A3.25 3.25 0 0 1 12 8.75v-1.5A4.75 4.75 0 0 0 7.25 12h1.5ZM12 8.75A3.25 3.25 0 0 1 15.25 12h1.5A4.75 4.75 0 0 0 12 7.25v1.5Z"/></svg>