<svg xmlns="http://www.w3.org/2000/svg" width="24" height="24" fill="none" viewBox="0 0 24 24"><path stroke="#000" stroke-linecap="round" stroke-linejoin="round" stroke-miterlimit="10" stroke-width="1.5" d="M18 8V2.8a.8.8 0 0 0-.8-.8h-2.4a.8.8 0 0 0-.8.8V6h-4V2.8a.8.8 0 0 0-.8-.8H6.8a.8.8 0 0 0-.8.8V8m12 0v11.6a2.4 2.4 0 0 1-2.4 2.4M18 8h4m-6.4 14H14m1.6 0h4a2.4 2.4 0 0 0 2.4-2.4V8m-8 14h-4m4 0v-3.2a.8.8 0 0 0-.8-.8h-2.4a.8.8 0 0 0-.8.8V22m0 0H8.4m0 0A2.4 2.4 0 0 1 6 19.6V8m2.4 14H4.5C3.175 22 2 20.878 2 19.553V8m4 0H2m20 0h1M2 8H1m10 2h2m-3 4h4"/></svg>