<svg xmlns="http://www.w3.org/2000/svg" width="24" height="24" fill="none"><path fill="#000" d="M11.25 4a.75.75 0 0 0 1.5 0zm1.5-2a.75.75 0 0 0-1.5 0zm-1.5 20a.75.75 0 0 0 1.5 0zm1.5-2a.75.75 0 0 0-1.5 0zM4 12.75a.75.75 0 0 0 0-1.5zm-2-1.5a.75.75 0 0 0 0 1.5zm20 1.5a.75.75 0 0 0 0-1.5zm-2-1.5a.75.75 0 0 0 0 1.5zM6.87 18.19a.75.75 0 1 0-1.06-1.06zm-2.47.35a.75.75 0 1 0 1.06 1.06zm13.79-1.41a.75.75 0 1 0-1.06 1.06zm.35 2.47a.75.75 0 1 0 1.06-1.06zM5.46 4.4A.75.75 0 0 0 4.4 5.46zm.35 2.47a.75.75 0 0 0 1.06-1.06zM12.75 4V2h-1.5v2zm0 18v-2h-1.5v2zM4 11.25H2v1.5h2zm18 0h-2v1.5h2zM5.81 17.13 4.4 18.54l1.06 1.06 1.41-1.41zM18.54 4.4l-1.41 1.41 1.06 1.06 1.41-1.41zm-1.41 13.79 1.41 1.41 1.06-1.06-1.41-1.41zM4.4 5.46l1.41 1.41 1.06-1.06L5.46 4.4zM15.25 12A3.25 3.25 0 0 1 12 15.25v1.5A4.75 4.75 0 0 0 16.75 12zM12 15.25A3.25 3.25 0 0 1 8.75 12h-1.5A4.75 4.75 0 0 0 12 16.75zM8.75 12A3.25 3.25 0 0 1 12 8.75v-1.5A4.75 4.75 0 0 0 7.25 12zM12 8.75A3.25 3.25 0 0 1 15.25 12h1.5A4.75 4.75 0 0 0 12 7.25z"/></svg>