<svg width="24" height="24" fill="none" xmlns="http://www.w3.org/2000/svg"><path d="M8.4 3H5.6A1.6 1.6 0 0 0 4 4.6v4.8A1.6 1.6 0 0 0 5.6 11h2.8A1.6 1.6 0 0 0 10 9.4V4.6A1.6 1.6 0 0 0 8.4 3ZM8.4 15H5.6A1.6 1.6 0 0 0 4 16.6v2.8A1.6 1.6 0 0 0 5.6 21h2.8a1.6 1.6 0 0 0 1.6-1.6v-2.8A1.6 1.6 0 0 0 8.4 15ZM18.4 3h-2.8A1.6 1.6 0 0 0 14 4.6v2.8A1.6 1.6 0 0 0 15.6 9h2.8A1.6 1.6 0 0 0 20 7.4V4.6A1.6 1.6 0 0 0 18.4 3ZM18.4 13h-2.8a1.6 1.6 0 0 0-1.6 1.6v4.8a1.6 1.6 0 0 0 1.6 1.6h2.8a1.6 1.6 0 0 0 1.6-1.6v-4.8a1.6 1.6 0 0 0-1.6-1.6Z" stroke="#000" stroke-width="1.5" stroke-miterlimit="10"/></svg>