<svg xmlns="http://www.w3.org/2000/svg" width="24" height="24" fill="none"><g stroke="#000" stroke-linejoin="round" stroke-miterlimit="10" stroke-width="1.5" clip-path="url(#a)"><path d="m3.798 8.889-1.98 1.98a1.6 1.6 0 0 0 0 2.262l1.98 1.98a1.6 1.6 0 0 0 2.262 0l1.98-1.98a1.6 1.6 0 0 0 0-2.262l-1.98-1.98a1.6 1.6 0 0 0-2.262 0Zm7.071-7.071-1.98 1.98a1.6 1.6 0 0 0 0 2.262l1.98 1.98a1.6 1.6 0 0 0 2.262 0l1.98-1.98a1.6 1.6 0 0 0 0-2.262l-1.98-1.98a1.6 1.6 0 0 0-2.262 0Zm0 14.142-1.98 1.98a1.6 1.6 0 0 0 0 2.262l1.98 1.98a1.6 1.6 0 0 0 2.262 0l1.98-1.98a1.6 1.6 0 0 0 0-2.262l-1.98-1.98a1.6 1.6 0 0 0-2.262 0Zm7.071-7.071-1.98 1.98a1.6 1.6 0 0 0 0 2.262l1.98 1.98a1.6 1.6 0 0 0 2.262 0l1.98-1.98a1.6 1.6 0 0 0 0-2.262l-1.98-1.98a1.6 1.6 0 0 0-2.262 0Z"/></g><defs><clipPath id="a"><path fill="#fff" d="M0 0h24v24H0z"/></clipPath></defs></svg>