<svg width="24" height="24" fill="none" xmlns="http://www.w3.org/2000/svg"><g clip-path="url(#a)" stroke="#000" stroke-width="1.5" stroke-miterlimit="10"><path d="m3.798 8.889-1.98 1.98a1.6 1.6 0 0 0 0 2.262l1.98 1.98a1.6 1.6 0 0 0 2.262 0l1.98-1.98a1.6 1.6 0 0 0 0-2.262l-1.98-1.98a1.6 1.6 0 0 0-2.262 0ZM10.869 1.818l-1.98 1.98a1.6 1.6 0 0 0 0 2.262l1.98 1.98a1.6 1.6 0 0 0 2.262 0l1.98-1.98a1.6 1.6 0 0 0 0-2.262l-1.98-1.98a1.6 1.6 0 0 0-2.262 0ZM10.869 15.96l-1.98 1.98a1.6 1.6 0 0 0 0 2.262l1.98 1.98a1.6 1.6 0 0 0 2.262 0l1.98-1.98a1.6 1.6 0 0 0 0-2.262l-1.98-1.98a1.6 1.6 0 0 0-2.262 0ZM17.94 8.889l-1.98 1.98a1.6 1.6 0 0 0 0 2.262l1.98 1.98a1.6 1.6 0 0 0 2.262 0l1.98-1.98a1.6 1.6 0 0 0 0-2.262l-1.98-1.98a1.6 1.6 0 0 0-2.262 0Z"/></g><defs><clipPath id="a"><path fill="#fff" d="M0 0h24v24H0z"/></clipPath></defs></svg>