<svg width="24" height="24" fill="none" xmlns="http://www.w3.org/2000/svg"><path d="M7 20a2 2 0 1 0 0-4 2 2 0 0 0 0 4ZM7 8a2 2 0 1 0 0-4 2 2 0 0 0 0 4Z" stroke="#000" stroke-width="1.5" stroke-miterlimit="10"/><path d="M7 16V8" stroke="#000" stroke-width="1.5" stroke-miterlimit="10" stroke-linecap="round"/><path d="M17 20a2 2 0 1 0 0-4 2 2 0 0 0 0 4ZM17 8a2 2 0 1 0 0-4 2 2 0 0 0 0 4Z" stroke="#000" stroke-width="1.5" stroke-miterlimit="10"/><path d="M17 16V8" stroke="#000" stroke-width="1.5" stroke-miterlimit="10" stroke-linecap="round"/></svg>