<svg xmlns="http://www.w3.org/2000/svg" width="24" height="24" fill="none" viewBox="0 0 24 24"><path fill="#000" d="M.587 9.374a.75.75 0 1 0 .826 1.252L1 10zM11.26 3.24l.413.626.035-.024zm1.44 0-.448.602.037.025zm9.889 7.387a.75.75 0 1 0 .823-1.254L23 10zm-.839-1.94a.75.75 0 0 0-1.5 0h1.5m-18-.005a.75.75 0 0 0-1.5 0h1.5M17.25 21a.75.75 0 0 0 1.5 0h-1.5m-12 0a.75.75 0 0 0 1.5 0h-1.5M6 17.25a.75.75 0 0 0 0 1.5v-1.5m12 1.5a.75.75 0 0 0 0-1.5v1.5M12.75 15a.75.75 0 0 0-1.5 0h1.5m-1.5 6a.75.75 0 0 0 1.5 0h-1.5M11 11.25a.75.75 0 0 0 0 1.5v-1.5m2 1.5a.75.75 0 0 0 0-1.5v1.5M1 10l.413.626 10.26-6.76-.413-.626-.413-.626-10.26 6.76zm10.26-6.76.448.602a.45.45 0 0 1 .544 0l.448-.602.448-.602a1.95 1.95 0 0 0-2.336 0zm1.44 0-.411.627 10.3 6.76L23 10l.412-.627-10.3-6.76zM21 8.687h-.75V18.6h1.5V8.687zm0 9.913h-.75c0 .916-.734 1.65-1.65 1.65v1.5a3.144 3.144 0 0 0 3.15-3.15zM18.6 21v-.75H5.4v1.5h13.2zM5.4 21v-.75c-.916 0-1.65-.734-1.65-1.65h-1.5a3.144 3.144 0 0 0 3.15 3.15zM3 18.6h.75V8.682h-1.5V18.6zM15 21v-.75H9v1.5h6zm-8.2-6v.75h10.4v-1.5H6.8zm10.4 0v.75a.05.05 0 0 1 .05.05h1.5a1.55 1.55 0 0 0-1.55-1.55zm.8.8h-.75V21h1.5v-5.2zM6 21h.75v-5.2h-1.5V21zm0-5.2h.75a.05.05 0 0 1 .05-.05v-1.5a1.55 1.55 0 0 0-1.55 1.55zM6 18v.75h12v-1.5H6zm6-3h-.75v6h1.5v-6zm-1-3v.75h2v-1.5h-2z"/></svg>