<svg xmlns="http://www.w3.org/2000/svg" width="24" height="24" fill="none"><path fill="#000" d="M10.674 22.145a.75.75 0 1 0 1.193-.91l-1.194.91Zm1.393-.914a.75.75 0 1 0 1.186.918l-1.186-.918ZM21.25 12A9.25 9.25 0 0 1 12 21.25v1.5c5.937 0 10.75-4.813 10.75-10.75h-1.5ZM12 21.25A9.25 9.25 0 0 1 2.75 12h-1.5c0 5.937 4.813 10.75 10.75 10.75v-1.5ZM2.75 12A9.25 9.25 0 0 1 12 2.75v-1.5C6.063 1.25 1.25 6.063 1.25 12h1.5ZM12 2.75A9.25 9.25 0 0 1 21.25 12h1.5c0-5.937-4.813-10.75-10.75-10.75v1.5Zm-10 10h20v-1.5H2v1.5Zm9.867 8.485A15.188 15.188 0 0 1 8.75 12h-1.5a16.69 16.69 0 0 0 3.424 10.145l1.193-.91ZM8.75 12a15.23 15.23 0 0 1 3.183-9.32l-1.186-.92A16.737 16.737 0 0 0 7.25 12h1.5Zm3.383-9.325a15.188 15.188 0 0 1 3.117 9.235h1.5c0-3.81-1.278-7.329-3.423-10.145l-1.194.91Zm3.117 9.235a15.23 15.23 0 0 1-3.183 9.32l1.186.92a16.737 16.737 0 0 0 3.497-10.24h-1.5ZM12 16.75c2.59 0 4.92 1.062 6.605 2.776l1.07-1.052A10.726 10.726 0 0 0 12 15.25v1.5Zm6.604-12.274A9.209 9.209 0 0 1 12 7.25v1.5c3.01 0 5.73-1.237 7.676-3.226l-1.072-1.048ZM12 7.25a9.226 9.226 0 0 1-6.605-2.776l-1.07 1.052A10.726 10.726 0 0 0 12 8.75v-1.5ZM5.396 19.524A9.21 9.21 0 0 1 12 16.75v-1.5c-3.01 0-5.73 1.237-7.676 3.226l1.072 1.049Z"/></svg>