<svg width="24" height="24" fill="none" xmlns="http://www.w3.org/2000/svg"><path d="M8.4 3H4.6A1.6 1.6 0 0 0 3 4.6v3.8A1.6 1.6 0 0 0 4.6 10h3.8A1.6 1.6 0 0 0 10 8.4V4.6A1.6 1.6 0 0 0 8.4 3ZM19.4 3h-3.8A1.6 1.6 0 0 0 14 4.6v3.8a1.6 1.6 0 0 0 1.6 1.6h3.8A1.6 1.6 0 0 0 21 8.4V4.6A1.6 1.6 0 0 0 19.4 3ZM8.4 14H4.6A1.6 1.6 0 0 0 3 15.6v3.8A1.6 1.6 0 0 0 4.6 21h3.8a1.6 1.6 0 0 0 1.6-1.6v-3.8A1.6 1.6 0 0 0 8.4 14ZM19.4 14h-3.8a1.6 1.6 0 0 0-1.6 1.6v3.8a1.6 1.6 0 0 0 1.6 1.6h3.8a1.6 1.6 0 0 0 1.6-1.6v-3.8a1.6 1.6 0 0 0-1.6-1.6Z" stroke="#000" stroke-width="1.5" stroke-miterlimit="10"/></svg>