<svg width="24" height="24" fill="none" xmlns="http://www.w3.org/2000/svg"><path d="M12 22c5.523 0 10-4.477 10-10S17.523 2 12 2 2 6.477 2 12s4.477 10 10 10Z" stroke="#000" stroke-width="1.5" stroke-miterlimit="10"/><path d="M2 12h20M11.27 21.69A15.938 15.938 0 0 1 8 12c0-3.64 1.24-7.07 3.34-9.78M12.73 2.22C14.78 4.91 16 8.27 16 11.91c0 3.64-1.24 7.07-3.34 9.78" stroke="#000" stroke-width="1.5" stroke-miterlimit="10" stroke-linecap="round"/><path d="M19.14 19c-1.82-1.85-4.34-3-7.14-3s-5.33 1.15-7.14 3M19.14 5C17.33 6.85 14.8 8 12 8S6.68 6.85 4.86 5" stroke="#000" stroke-width="1.5" stroke-miterlimit="10"/></svg>