<svg xmlns="http://www.w3.org/2000/svg" width="24" height="24" fill="none" viewBox="0 0 24 24"><path stroke="#000" stroke-linejoin="round" stroke-miterlimit="10" stroke-width="1.5" d="M8.4 4H5.6A1.6 1.6 0 0 0 4 5.6v2.8A1.6 1.6 0 0 0 5.6 10h2.8A1.6 1.6 0 0 0 10 8.4V5.6A1.6 1.6 0 0 0 8.4 4ZM8.4 14H5.6A1.6 1.6 0 0 0 4 15.6v2.8A1.6 1.6 0 0 0 5.6 20h2.8a1.6 1.6 0 0 0 1.6-1.6v-2.8A1.6 1.6 0 0 0 8.4 14ZM18.4 4h-2.8A1.6 1.6 0 0 0 14 5.6v2.8a1.6 1.6 0 0 0 1.6 1.6h2.8A1.6 1.6 0 0 0 20 8.4V5.6A1.6 1.6 0 0 0 18.4 4ZM18.4 14h-2.8a1.6 1.6 0 0 0-1.6 1.6v2.8a1.6 1.6 0 0 0 1.6 1.6h2.8a1.6 1.6 0 0 0 1.6-1.6v-2.8a1.6 1.6 0 0 0-1.6-1.6Z"/></svg>