<svg width="24" height="24" fill="none" xmlns="http://www.w3.org/2000/svg"><path d="M18.92 4.79A9.978 9.978 0 0 1 22 12a9.94 9.94 0 0 1-3.08 7.21M12 2.27a12.05 12.05 0 0 1 3.63 4.17c1.19-.38 2.3-.94 3.29-1.65a9.991 9.991 0 0 0-6.58-2.78c-.12.08-.23.17-.34.25v.01ZM12 21.73l.34.25a9.943 9.943 0 0 0 6.58-2.78c-1-.71-2.1-1.27-3.29-1.65A12.05 12.05 0 0 1 12 21.72v.01ZM5.08 19.21A9.978 9.978 0 0 1 2 12a9.94 9.94 0 0 1 3.08-7.21" stroke="#000" stroke-width="1.5" stroke-miterlimit="10" stroke-linejoin="round"/><path d="m12 2.27-.34-.25A9.943 9.943 0 0 0 5.08 4.8c1 .71 2.1 1.27 3.29 1.65A12.05 12.05 0 0 1 12 2.28v-.01ZM8.37 17.56c-1.19.38-2.3.94-3.29 1.65a9.991 9.991 0 0 0 6.58 2.78c.12-.08.23-.17.34-.25a12.05 12.05 0 0 1-3.63-4.17v-.01Z" stroke="#000" stroke-width="1.5" stroke-miterlimit="10" stroke-linejoin="round"/><path d="M8.37 6.44C7.5 8.1 7 9.99 7 12s.5 3.9 1.37 5.56a12.04 12.04 0 0 1 7.26 0C16.5 15.9 17 14.01 17 12s-.5-3.9-1.37-5.56a12.04 12.04 0 0 1-7.26 0Z" stroke="#000" stroke-width="1.5" stroke-miterlimit="10" stroke-linejoin="round"/><path d="M2 12h20" stroke="#000" stroke-width="1.5" stroke-miterlimit="10" stroke-linecap="round" stroke-linejoin="round"/><path d="M12 22c5.523 0 10-4.477 10-10S17.523 2 12 2 2 6.477 2 12s4.477 10 10 10Z" stroke="#000" stroke-width="1.5" stroke-miterlimit="10" stroke-linejoin="round"/></svg>