<svg xmlns="http://www.w3.org/2000/svg" width="24" height="24" fill="none" viewBox="0 0 24 24"><path stroke="#000" stroke-linecap="round" stroke-linejoin="round" stroke-miterlimit="10" stroke-width="1.5" d="m18.657 6.657-1.414-1.414m-3.536 6.364-8.061 9.475a1.6 1.6 0 0 1-2.263 0l-.565-.566a1.6 1.6 0 0 1 0-2.262l9.475-8.062m3.535 3.536 3.536-3.536m-9.192-2.12 3.535-3.536m-5.091.848L11.02 2.98a.8.8 0 0 1 1.131 0l8.769 8.768a.8.8 0 0 1 0 1.131l-2.405 2.405a.8.8 0 0 1-1.131 0L8.616 6.515a.8.8 0 0 1 0-1.13"/></svg>