<svg xmlns="http://www.w3.org/2000/svg" width="24" height="24" fill="none" viewBox="0 0 24 24"><path fill="#000" d="m14.657 11.586.53-.53a.75.75 0 0 0-1.06 0zm-2.121 2.121.53.53zm-9.617 7.354-.53.53zm-.566-.566.53-.53zm0-2.262.53.53zm7.354-7.354-.53-.53zm2.122-2.122.53.53a.75.75 0 0 0 0-1.06zm9.475 2.405.53-.53zm-3.536 3.535-.53.53zm-2.404-9.475.53-.53zM3.52 4.692a.75.75 0 0 0 1.06 1.06l-.53-.53zm11.137 6.894-.53-.53-2.122 2.12.53.531.53.53 2.122-2.121zm-2.121 2.121-.53-.53L4.65 20.53l.53.53.531.53 7.354-7.354zm-7.354 7.354-.53-.53a.85.85 0 0 1-1.203 0l-.53.53-.53.53a2.35 2.35 0 0 0 3.323 0zm-2.263 0 .53-.53-.565-.566-.53.53-.531.53.566.566zm-.566-.566.53-.53a.85.85 0 0 1 0-1.202l-.53-.53-.53-.53a2.35 2.35 0 0 0 0 3.323zm0-2.262.53.53 7.355-7.354-.53-.53-.531-.53-7.354 7.353zm7.354-7.354.53.53 2.122-2.121-.53-.53-.53-.531-2.122 2.121zm11.597.283-.53.53a.85.85 0 0 1 0 1.202l.53.53.53.53a2.35 2.35 0 0 0 0-3.323zm0 2.262-.53-.53-1.273 1.273.53.53.53.53 1.273-1.272zm-1.273 1.273-.53-.53a.85.85 0 0 1-1.203 0l-.53.53-.53.53a2.35 2.35 0 0 0 3.323 0zm-4.667-9.475-.53.53 4.95 4.95.53-.53.53-.53-4.95-4.95zm4.95 4.95-.53.53.99.99.53-.53.53-.53-.99-.99zm-2.546 4.525.53-.53-.99-.99-.53.53-.53.53.99.99zm-.99-.99.53-.53-2.12-2.122-.531.53-.53.531 2.12 2.121zm0 0 .53.53 3.536-3.535-.53-.53-.53-.53-3.536 3.535zm-4.95-4.95.53-.53-4.949-4.95-.53.53-.53.53 4.95 4.95zm.708 4.95.53-.53-2.828-2.829-.53.53-.531.531 2.828 2.828zM4.05 5.222l.53.53a7.25 7.25 0 0 1 10.254 0l.53-.53.53-.53a8.75 8.75 0 0 0-12.374 0z"/></svg>