<svg xmlns="http://www.w3.org/2000/svg" width="24" height="24" fill="none" viewBox="0 0 24 24"><path stroke="#000" stroke-linecap="round" stroke-linejoin="round" stroke-width="1.5" d="M11.998 15a22 22 0 0 1-.492 1.624q-.3.876-.662 1.73A39 39 0 0 1 10.16 20M6.835 4q-.747.022-1.297.242a1.86 1.86 0 0 0-.857.66q-.285.438-.285 1.164V9.23q0 1.12-.594 1.802-.593.66-1.802.88v.131q1.23.22 1.802.901.594.66.594 1.78v3.231q0 .704.285 1.143.286.461.835.66.55.219 1.32.241M17.164 4q.747.022 1.297.242.55.219.857.66.285.438.285 1.164V9.23q0 1.12.594 1.802.593.66 1.802.88v.131q-1.23.22-1.802.901-.594.66-.594 1.78v3.231q0 .704-.285 1.143-.286.461-.835.66-.55.219-1.32.241M13 10a1 1 0 1 1-2 0 1 1 0 0 1 2 0"/></svg>