<svg xmlns="http://www.w3.org/2000/svg" width="24" height="24" fill="none" viewBox="0 0 24 24"><path fill="#000" d="M2 11v-.75a.75.75 0 0 0-.75.75zm2.474-.393-.54-.52zm.306-1.393-.748.057.001.012zM4.51 5.68l-.749.047.001.01zm.252-1.447L4.1 3.88l-.004.008zm.954-.91.326.675.015-.007zM8.2 3.75a.75.75 0 0 0 0-1.5v1.5M2 13h-.75c0 .414.336.75.75.75zm2.474.393-.54.52zm.306 1.393-.747-.069v.012zm-.27 3.535-.748-.057v.01zm.252 1.447-.666.345.004.008zm.954.91.34-.668-.014-.007zM8.2 21.75a.75.75 0 0 0 0-1.5v1.5M22.2 11h.75a.75.75 0 0 0-.75-.75zm-2.474-.393.54-.52zm-.306-1.393.747.069V9.27zm.27-3.535.748.057v-.01zm-.252-1.447.666-.346-.004-.007zm-.954-.91-.34.668.014.007zM16 2.25a.75.75 0 0 0 0 1.5v-1.5M22.2 13v.75a.75.75 0 0 0 .75-.75zm-2.474.393.54.52zm-.306 1.393.748-.057-.001-.012zm.27 3.535.749-.047-.001-.01zm-.252 1.447.662.353.004-.008zm-.954.91-.326-.675-.015.008zM16 20.25a.75.75 0 0 0 0 1.5v-1.5m-3.276-6.063a.75.75 0 0 0-1.453-.374l.726.187zm-1.88 3.168-.69-.294-.005.01-.004.011zm-1.37 1.34a.75.75 0 0 0 1.371.61L10.16 19zM2 11v.75h.98v-1.5H2zm.98 0v.75c.41 0 .79-.036 1.122-.123.33-.087.66-.237.912-.5l-.54-.52-.54-.52c0-.001-.045.045-.213.09a3 3 0 0 1-.741.073zm1.494-.393.54.52c.496-.513.579-1.26.513-1.981l-.747.068-.747.069c.054.588-.067.77-.099.804zm.306-1.393.748-.057-.27-3.536-.748.058-.748.057.27 3.535zM4.51 5.68l.749-.048c-.03-.474.043-.812.169-1.053l-.666-.346-.666-.345c-.282.544-.377 1.17-.335 1.839zm.252-1.447.662.353c.14-.262.339-.453.618-.588l-.326-.676-.326-.675c-.56.27-.997.685-1.29 1.233zm.954-.91.34.668c.294-.15.67-.24 1.154-.24v-1.5c-.669 0-1.288.125-1.835.403zM7.21 3v.75h.99v-1.5h-.99zM2 13v.75h.98v-1.5H2zm.98 0v.75c.333 0 .575.03.74.074.17.044.215.09.214.089l.54-.52.54-.52c-.253-.263-.582-.413-.912-.5a4.5 4.5 0 0 0-1.122-.123zm1.494.393-.54.52c.032.034.153.216.1.804l.746.069.747.068c.066-.721-.017-1.468-.513-1.982zm.306 1.393-.748-.057-.27 3.535.748.057.748.057.27-3.535zm-.27 3.535-.749-.047c-.042.669.053 1.295.335 1.84l.666-.346.666-.346c-.126-.241-.2-.579-.17-1.053zm.252 1.447-.662.353c.293.548.73.963 1.29 1.233l.326-.675.326-.676a1.32 1.32 0 0 1-.618-.588zm.954.91-.34.669c.546.278 1.165.403 1.834.403v-1.5c-.483 0-.86-.09-1.153-.24zM7.21 21v.75h.99v-1.5h-.99zM2 13h.75v-2h-1.5v2zm20.2-2v-.75h-.98v1.5h.98zm-.98 0v-.75c-.333 0-.575-.03-.74-.074-.17-.044-.215-.09-.213-.089l-.541.52-.54.52c.253.263.582.413.912.5.332.087.712.123 1.122.123zm-1.494-.393.54-.52c-.032-.034-.153-.216-.1-.804l-.746-.069-.747-.068c-.066.721.018 1.468.513 1.982zm-.306-1.393.748.057.27-3.535-.748-.057-.748-.058-.27 3.536zm.27-3.535.749.047c.042-.669-.053-1.295-.335-1.84l-.666.346-.666.346c.126.241.2.579.17 1.053zm-.252-1.447.662-.353a2.82 2.82 0 0 0-1.29-1.233l-.326.675-.326.676c.28.135.479.326.618.588zm-.954-.91.34-.669c-.546-.278-1.165-.403-1.834-.403v1.5c.483 0 .86.09 1.153.24zM16.99 3v-.75H16v1.5h.99zm5.21 10v-.75h-.98v1.5h.98zm-.98 0v-.75c-.41 0-.79.036-1.122.123-.33.087-.66.237-.912.5l.54.52.54.52c0 .001.045-.045.213-.09.166-.043.408-.073.741-.073zm-1.494.393-.54-.52c-.495.513-.579 1.26-.513 1.981l.747-.068.747-.069c-.054-.588.066-.77.099-.804zm-.306 1.393-.748.057.27 3.535.748-.057.748-.057-.27-3.535zm.27 3.535-.748.048c.03.474-.044.812-.17 1.053l.666.346.666.345c.282-.544.377-1.17.335-1.839zm-.252 1.447-.662-.353c-.14.262-.338.454-.618.588l.326.676.326.675c.56-.27.997-.685 1.29-1.233zm-.954.91-.34-.668c-.294.15-.67.24-1.154.24v1.5c.669 0 1.289-.125 1.835-.403zM16.99 21v-.75H16v1.5h.99zm5.21-8h.75v-2h-1.5v2zm-10.202 1-.727-.187q-.183.716-.475 1.569l.71.242.71.242q.307-.899.508-1.68zm-.492 1.624-.71-.242a25 25 0 0 1-.643 1.68l.69.293.69.293q.375-.879.683-1.782zm-.662 1.73-.699-.272a38 38 0 0 1-.67 1.613l.685.305.685.305a40 40 0 0 0 .697-1.678zM13 9h-.75a.25.25 0 0 1-.25.25v1.5A1.75 1.75 0 0 0 13.75 9zm-1 1v-.75a.25.25 0 0 1-.25-.25h-1.5c0 .966.784 1.75 1.75 1.75zm-1-1h.75a.25.25 0 0 1 .25-.25v-1.5A1.75 1.75 0 0 0 10.25 9zm1-1v.75a.25.25 0 0 1 .25.25h1.5A1.75 1.75 0 0 0 12 7.25z"/></svg>