<svg width="24" height="24" fill="none" xmlns="http://www.w3.org/2000/svg"><path d="M6.6 10h10.8c.88 0 1.6.72 1.6 1.6v7c0 1.32-1.08 2.4-2.4 2.4H7.4C6.08 21 5 19.92 5 18.6v-7c0-.88.72-1.6 1.6-1.6Z" stroke="#000" stroke-width="1.5" stroke-miterlimit="10"/><path d="M8 10V7c0-2.21 1.79-4 4-4s4 1.79 4 4v3" stroke="#000" stroke-width="1.5" stroke-miterlimit="10" stroke-linecap="round"/><path d="M12 15a1 1 0 1 0 0-2 1 1 0 0 0 0 2Z" stroke="#000" stroke-width="1.5" stroke-miterlimit="10"/><path d="M12 18v-3" stroke="#000" stroke-width="1.5" stroke-miterlimit="10" stroke-linecap="round"/></svg>