<svg width="24" height="24" fill="none" xmlns="http://www.w3.org/2000/svg"><path d="M6 23h12M12 23v-4" stroke="#000" stroke-width="1.5" stroke-miterlimit="10" stroke-linecap="round"/><path d="M12 1a6 6 0 0 0-6 6v6a6 6 0 0 0 12 0V7a6 6 0 0 0-6-6Z" stroke="#000" stroke-width="1.5" stroke-miterlimit="10" stroke-linejoin="round"/><path d="M12 10h.1M15 10h.1M9 10h.1M12 7h.1M15 7h.1M9 7h.1M12 13h.1M12 16h.1M12 4h.1M15 13h.1M9 13h.1" stroke="#000" stroke-width="1.5" stroke-linecap="round" stroke-linejoin="round"/></svg>