<svg xmlns="http://www.w3.org/2000/svg" width="24" height="24" fill="none" viewBox="0 0 24 24"><path stroke="#000" stroke-linecap="round" stroke-linejoin="round" stroke-miterlimit="10" stroke-width="1.5" d="M15 18a3 3 0 1 1-6 0m-2.957 0a2.03 2.03 0 0 1-1.718-.95 2.08 2.08 0 0 1-.142-1.972l.545-1.212A13.5 13.5 0 0 0 5.882 9.23l.031-.473A6.19 6.19 0 0 1 7.83 4.666 6.07 6.07 0 0 1 11.998 3a6.07 6.07 0 0 1 4.168 1.666 6.19 6.19 0 0 1 1.917 4.09l.031.474a13.5 13.5 0 0 0 1.154 4.636l.546 1.211a2.08 2.08 0 0 1-.138 1.976 2.027 2.027 0 0 1-1.723.947z"/></svg>