<svg width="24" height="24" fill="none" xmlns="http://www.w3.org/2000/svg"><path d="M3.23 7.913 7.91 3.23c.15-.15.35-.23.57-.23h7.05c.21 0 .42.08.57.23l4.67 4.673c.15.15.23.35.23.57v7.054c0 .21-.08.42-.23.57L16.1 20.77c-.15.15-.35.23-.57.23H8.47a.81.81 0 0 1-.57-.23l-4.67-4.673a.793.793 0 0 1-.23-.57V8.473c0-.21.08-.42.23-.57v.01Z" stroke="#000" stroke-width="1.5" stroke-miterlimit="10"/><path d="m8 13 3 3 5-7" stroke="#000" stroke-width="1.5" stroke-linecap="round" stroke-linejoin="round"/></svg>