<svg xmlns="http://www.w3.org/2000/svg" width="24" height="24" fill="none" viewBox="0 0 24 24"><path fill="#000" d="m21 12 .43.614a.75.75 0 0 0 0-1.228zM11 5l.43-.614A.75.75 0 0 0 10.25 5zm0 14h-.75a.75.75 0 0 0 1.18.614zm.75-4.867a.75.75 0 0 0-1.5 0h1.5M14 12l.43.614a.75.75 0 0 0 0-1.228zM4 5l.43-.614A.75.75 0 0 0 3.25 5zm0 14h-.75a.75.75 0 0 0 1.18.614zm17-7 .43-.614-10-7L11 5l-.43.614 10 7zm-10 7 .43.614 10-7L21 12l-.43-.614-10 7zm0-14h-.75v4.688h1.5V5zm0 9.133h-.75V19h1.5v-4.867zM14 12l.43-.614-10-7L4 5l-.43.614 10 7zM4 5h-.75v14h1.5V5zm0 14 .43.614 10-7L14 12l-.43-.614-10 7z"/></svg>