<svg width="24" height="24" fill="none" xmlns="http://www.w3.org/2000/svg"><path d="m7.18 10.27 6.504 6.46c.697-.807 5.11-5.538 7.316.924 0 0-.232 3.346-4.994 3.346-3.367 0-6.851-4.038-9.29-6.346C4.626 12.692 3 10.154 3 7.846 3 3.116 6.252 3 6.252 3c7.432 2.538.929 7.27.929 7.27Z" stroke="#000" stroke-width="1.5" stroke-miterlimit="10" stroke-linejoin="round"/><path d="M14.8 7h5.4c.44 0 .8.36.8.8v2c0 .66-.54 1.2-1.2 1.2h-4.6c-.66 0-1.2-.54-1.2-1.2v-2c0-.44.36-.8.8-.8Z" stroke="#000" stroke-width="1.5" stroke-miterlimit="10"/><path d="M15.5 6.5V5a2 2 0 1 1 4 0v1.5" stroke="#000" stroke-width="1.5" stroke-miterlimit="10" stroke-linecap="round"/></svg>