<svg xmlns="http://www.w3.org/2000/svg" width="24" height="24" fill="none" viewBox="0 0 24 24"><path fill="#000" d="M12 12h-.75c0 .414.336.75.75.75zm4.971-8.432a.75.75 0 1 0-1.06-1.06l.53.53zm-5.501 3.38a.75.75 0 0 0 1.06 1.06l-.53-.53zm10.066 1.23a.75.75 0 0 0-1.061-1.062l.53.53zm-5.414 3.292a.75.75 0 0 0 1.06 1.06l-.53-.53zM22 12h.75c0-5.937-4.813-10.75-10.75-10.75v1.5A9.25 9.25 0 0 1 21.25 12zM12 2v-.75C6.063 1.25 1.25 6.063 1.25 12h1.5A9.25 9.25 0 0 1 12 2.75zM2 12h-.75c0 5.937 4.813 10.75 10.75 10.75v-1.5A9.25 9.25 0 0 1 2.75 12zm10 10v.75c5.937 0 10.75-4.813 10.75-10.75h-1.5A9.25 9.25 0 0 1 12 21.25zm-7.071-2.929.53.53L19.601 5.46l-.53-.53-.53-.53L4.399 18.54zM12 12v.75h10v-1.5H12zm0 0h.75V2h-1.5v10zm4.44-8.962-.53-.53-4.44 4.44.53.53.53.53 4.441-4.44zm4.565 4.609-.53-.53-4.353 4.353.53.53.53.53 4.354-4.353z"/></svg>