<svg xmlns="http://www.w3.org/2000/svg" width="24" height="24" fill="none" viewBox="0 0 24 24"><path fill="#000" d="m3 12-.43-.614a.75.75 0 0 0 0 1.228zm10-7h.75a.75.75 0 0 0-1.18-.614zm0 14-.43.614A.75.75 0 0 0 13.75 19zm.75-4.867a.75.75 0 0 0-1.5 0h1.5M10 12l-.43-.614a.75.75 0 0 0 0 1.228zm10-7h.75a.75.75 0 0 0-1.18-.614zm0 14-.43.614A.75.75 0 0 0 20.75 19zM3 12l.43.614 10-7L13 5l-.43-.614-10 7zm10 7 .43-.614-10-7L3 12l-.43.614 10 7zm0-14h-.75v4.688h1.5V5zm0 9.133h-.75V19h1.5v-4.867zM10 12l.43.614 10-7L20 5l-.43-.614-10 7zm10-7h-.75v14h1.5V5zm0 14 .43-.614-10-7L10 12l-.43.614 10 7z"/></svg>