<svg xmlns="http://www.w3.org/2000/svg" width="24" height="24" fill="none"><path fill="#000" d="m21 12 .43.614a.75.75 0 0 0 0-1.228zM11 5l.43-.614A.75.75 0 0 0 10.25 5zm0 14h-.75a.75.75 0 0 0 1.18.614zm.75-4.867a.75.75 0 0 0-1.5 0zM14 12l.43.614a.75.75 0 0 0 0-1.228zM4 5l.43-.614A.75.75 0 0 0 3.25 5zm0 14h-.75a.75.75 0 0 0 1.18.614zm17.43-7.614-10-7-.86 1.228 10 7zm-10 8.228 10-7-.86-1.228-10 7zM10.25 5v4.688h1.5V5zm0 9.133V19h1.5v-4.867zm4.18-2.747-10-7-.86 1.228 10 7zM3.25 5v14h1.5V5zm1.18 14.614 10-7-.86-1.228-10 7z"/></svg>