<svg xmlns="http://www.w3.org/2000/svg" width="24" height="24" fill="none" viewBox="0 0 24 24"><path stroke="#000" stroke-linecap="round" stroke-linejoin="round" stroke-miterlimit="10" stroke-width="1.5" d="M10.99 9.449c.178 3.09-1.998 7.444-6.88 9.551L3 17.08c1.997-1.123 3.507-2.95 4.306-5.15-2.886-.234-3.729-2.013-3.729-3.464 0-1.967 1.51-3.512 3.374-3.465 1.775-.047 3.817 1.311 4.039 4.448M20.99 9.449c.178 3.09-1.997 7.444-6.88 9.551L13 17.08c1.998-1.123 3.507-2.95 4.306-5.15-2.886-.234-3.729-2.013-3.729-3.464 0-1.967 1.51-3.512 3.374-3.465 1.775-.047 3.817 1.311 4.039 4.448"/></svg>