<svg width="24" height="24" fill="none" xmlns="http://www.w3.org/2000/svg"><path d="m21.747 10.576-5.303 4.293 1.894 6.187c.127.253 0 .632-.252.758-.127.126-.253.126-.38.126-.125 0-.252 0-.378-.126l-5.177-3.788-5.303 3.788a.805.805 0 0 1-.758 0c-.252-.126-.379-.505-.252-.758l1.641-6.313-5.177-4.167c-.252-.126-.379-.505-.252-.757.126-.253.378-.506.63-.506h6.693l2.02-5.808c.127-.252.38-.505.632-.505s.505.253.631.505l2.147 5.808h6.566c.252 0 .505.253.631.506 0 .252-.126.505-.253.757Z" stroke="#000" stroke-width="1.5" stroke-miterlimit="10" stroke-linejoin="round"/></svg>