<svg xmlns="http://www.w3.org/2000/svg" width="24" height="24" fill="none" viewBox="0 0 24 24"><path fill="#000" d="M4.277 20.8a.75.75 0 1 0 1.446.4zM9.84 3.59l-.721-.206-.002.005zm4.32 0 .723-.2-.002-.006zm4.117 17.61a.75.75 0 1 0 1.446-.4zm-2.5-10.793a.75.75 0 0 0-.274-1.474zM8.369 8.908l-.737-.139-.277 1.475.737.138zm9.024 7.296a.75.75 0 1 0-.304-1.468zm-10.6-1.488a.75.75 0 0 0-.305 1.468zM2 20.25a.75.75 0 0 0 0 1.5zm20 1.5a.75.75 0 0 0 0-1.5zM5.723 21.2l4.84-17.41-1.446-.4-4.84 17.41zM10.56 3.797a.07.07 0 0 1 .024-.038.04.04 0 0 1 .025-.008v-1.5c-.706 0-1.302.473-1.491 1.134zm.049-.046h2.78v-1.5h-2.78zm2.78 0a.04.04 0 0 1 .025.008.07.07 0 0 1 .024.038l1.442-.412A1.55 1.55 0 0 0 13.39 2.25zm.047.04 4.84 17.41 1.446-.4-4.84-17.41zm2.066 5.143A19 19 0 0 1 12 9.25v1.5c1.284 0 2.55-.114 3.778-.343zM12 9.25c-1.243 0-2.45-.12-3.632-.342l-.277 1.474c1.268.239 2.568.368 3.909.368zm5.088 5.486q-2.462.512-5.088.514v1.5c1.85 0 3.651-.185 5.392-.546zM12 15.25c-1.749 0-3.527-.185-5.207-.534l-.306 1.468c1.78.37 3.662.566 5.513.566zm-10 6.5h20v-1.5H2z"/></svg>