<svg xmlns="http://www.w3.org/2000/svg" width="24" height="24" fill="none" viewBox="0 0 24 24"><path fill="#000" d="M4.277 20.8a.75.75 0 1 0 1.446.4L5 21zM9.84 3.59l-.721-.206-.002.005zm4.32 0 .723-.2-.002-.006zm4.117 17.61a.75.75 0 1 0 1.446-.4L19 21zm-2.5-10.793a.75.75 0 0 0-.274-1.474l.137.737zM8.369 8.908l-.737-.139-.277 1.475.737.138.139-.737zm9.024 7.296a.75.75 0 1 0-.304-1.468l.152.734zm-10.6-1.488a.75.75 0 0 0-.305 1.468l.153-.734zM2 20.25a.75.75 0 0 0 0 1.5v-1.5m20 1.5a.75.75 0 0 0 0-1.5v1.5M5 21l.723.2 4.84-17.41-.723-.2-.723-.2-4.84 17.41zM9.84 3.59l.721.206a.07.07 0 0 1 .024-.038.04.04 0 0 1 .025-.008v-1.5c-.706 0-1.302.473-1.491 1.134zm.77-.59v.75h2.78v-1.5h-2.78zm2.78 0v.75a.04.04 0 0 1 .025.008.07.07 0 0 1 .024.038l.721-.206.721-.206A1.55 1.55 0 0 0 13.39 2.25zm.77.59-.723.2 4.84 17.41L19 21l.723-.2-4.84-17.41zm1.48 6.08-.137-.737A19 19 0 0 1 12 9.25v1.5c1.284 0 2.55-.114 3.778-.343zM12 10v-.75c-1.243 0-2.45-.12-3.632-.342l-.138.737-.139.737c1.268.239 2.568.368 3.909.368zm5.24 5.47-.152-.734q-2.462.512-5.088.514v1.5c1.85 0 3.651-.185 5.392-.546zM12 16v-.75c-1.749 0-3.527-.185-5.207-.534l-.153.734-.153.734c1.78.37 3.662.566 5.513.566zM2 21v.75h20v-1.5H2z"/></svg>