<svg xmlns="http://www.w3.org/2000/svg" width="24" height="24" fill="none"><path stroke="#000" stroke-linejoin="round" stroke-miterlimit="10" stroke-width="1.5" d="M7.91 20.889c8.302 0 12.845-6.885 12.845-12.845 0-.193 0-.387-.009-.58A9.2 9.2 0 0 0 23 5.121a9.2 9.2 0 0 1-2.597.713 4.54 4.54 0 0 0 1.99-2.5 9 9 0 0 1-2.87 1.091A4.5 4.5 0 0 0 16.23 3a4.52 4.52 0 0 0-4.516 4.516c0 .352.044.696.114 1.03-3.75-.185-7.078-1.99-9.305-4.718a4.526 4.526 0 0 0 1.4 6.03 4.6 4.6 0 0 1-2.043-.563v.061A4.524 4.524 0 0 0 5.5 13.784a4.4 4.4 0 0 1-1.189.159q-.435 0-.845-.08a4.51 4.51 0 0 0 4.217 3.135 9.05 9.05 0 0 1-5.608 1.936A9 9 0 0 1 1 18.873a12.84 12.84 0 0 0 6.91 2.016Z"/></svg>