<svg xmlns="http://www.w3.org/2000/svg" width="24" height="24" fill="none" viewBox="0 0 24 24"><path stroke="#000" stroke-linejoin="round" stroke-miterlimit="10" stroke-width="1.5" d="M7 3h11.025c.357 0 .704.118.99.337s.499.527.604.88l2.307 7.756a1.78 1.78 0 0 1-.252 1.53 1.7 1.7 0 0 1-.59.515c-.232.122-.489.185-.75.185h-5.833v3.448c0 2.044-1.043 3.01-2.304 3.326a.81.81 0 0 1-.712-.164.9.9 0 0 1-.234-.302.9.9 0 0 1-.084-.378V16.79L7 11.618M2.8 14h3.4a.8.8 0 0 0 .8-.8V2.8a.8.8 0 0 0-.8-.8H2.8a.8.8 0 0 0-.8.8v10.4a.8.8 0 0 0 .8.8Z"/></svg>