<svg xmlns="http://www.w3.org/2000/svg" width="24" height="24" fill="none" viewBox="0 0 24 24"><path stroke="#000" stroke-linecap="round" stroke-linejoin="round" stroke-miterlimit="10" stroke-width="1.5" d="M5.4 21h13.2c.636 0 1.247-.24 1.697-.67.45-.428.703-1.01.703-1.616 0-1.515-.632-2.969-1.757-4.04A6.16 6.16 0 0 0 15 13H9a6.16 6.16 0 0 0-4.243 1.674C3.632 15.745 3 17.199 3 18.714c0 .607.253 1.188.703 1.617.45.428 1.06.669 1.697.669" clip-rule="evenodd"/><path stroke="#000" stroke-linecap="round" stroke-linejoin="round" stroke-miterlimit="10" stroke-width="1.5" d="M16 6a4 4 0 1 1-8 0 4 4 0 0 1 8 0"/></svg>