<svg width="24" height="24" fill="none" xmlns="http://www.w3.org/2000/svg"><path d="M21 9V6.4c0-1.325-.88-2.4-1.964-2.4H2.964C1.879 4 1 5.075 1 6.4v11.2c0 1.325.88 2.4 1.964 2.4h16.072C20.121 20 21 18.925 21 17.6V15" stroke="#000" stroke-width="1.5" stroke-miterlimit="10" stroke-linecap="round" stroke-linejoin="round"/><path d="M21.4 9h-4.8a1.6 1.6 0 0 0-1.6 1.6v2.8a1.6 1.6 0 0 0 1.6 1.6h4.8a1.6 1.6 0 0 0 1.6-1.6v-2.8A1.6 1.6 0 0 0 21.4 9Z" stroke="#000" stroke-width="1.5" stroke-miterlimit="10"/><path d="M20 12h.01" stroke="#000" stroke-width="1.5" stroke-linecap="round" stroke-linejoin="round"/></svg>