<svg xmlns="http://www.w3.org/2000/svg" width="24" height="24" fill="none" viewBox="0 0 24 24"><path stroke="#000" stroke-linecap="round" stroke-linejoin="round" stroke-miterlimit="10" stroke-width="1.5" d="M9.2 14H3.8a.8.8 0 0 0-.8.8v5.4a.8.8 0 0 0 .8.8h5.4a.8.8 0 0 0 .8-.8v-5.4a.8.8 0 0 0-.8-.8M10.138 6.434 7.027 3.323a.8.8 0 0 0-1.131 0L2.784 6.434a.8.8 0 0 0 0 1.132l3.112 3.11a.8.8 0 0 0 1.131 0l3.111-3.11a.8.8 0 0 0 0-1.132M17.5 21a3.5 3.5 0 1 0 0-7 3.5 3.5 0 0 0 0 7M19.275 3.5c-.795 0-1.481.466-1.826 1.144-.345-.679-1.032-1.144-1.826-1.144-1.14 0-2.063.955-2.063 2.132 0 1.176.707 2.254 1.62 3.139s2.269 1.729 2.269 1.729 1.312-.83 2.269-1.729c1.021-.959 1.62-1.96 1.62-3.14 0-1.179-.923-2.131-2.063-2.131"/></svg>