<svg xmlns="http://www.w3.org/2000/svg" width="24" height="24" fill="none" viewBox="0 0 24 24"><path fill="#000" d="M11.25 22a.75.75 0 0 0 1.5 0zM6 22.75h12v-1.5H6zm6.75-.75v-4h-1.5v4zm6.5-12A7.25 7.25 0 0 1 12 17.25v1.5A8.75 8.75 0 0 0 20.75 10zM12 17.25A7.25 7.25 0 0 1 4.75 10h-1.5A8.75 8.75 0 0 0 12 18.75zM4.75 10A7.25 7.25 0 0 1 12 2.75v-1.5A8.75 8.75 0 0 0 3.25 10zM12 2.75A7.25 7.25 0 0 1 19.25 10h1.5A8.75 8.75 0 0 0 12 1.25zM13.25 10c0 .69-.56 1.25-1.25 1.25v1.5A2.75 2.75 0 0 0 14.75 10zM12 11.25c-.69 0-1.25-.56-1.25-1.25h-1.5A2.75 2.75 0 0 0 12 12.75zM10.75 10c0-.69.56-1.25 1.25-1.25v-1.5A2.75 2.75 0 0 0 9.25 10zM12 8.75c.69 0 1.25.56 1.25 1.25h1.5A2.75 2.75 0 0 0 12 7.25z"/></svg>