<svg width="24" height="24" fill="none" xmlns="http://www.w3.org/2000/svg"><path d="M22.54 6.42a2.765 2.765 0 0 0-1.945-1.957C18.88 4 12 4 12 4s-6.88 0-8.595.463A2.765 2.765 0 0 0 1.46 6.42C1 8.148 1 11.75 1 11.75s0 3.602.46 5.33a2.765 2.765 0 0 0 1.945 1.958C5.121 19.5 12 19.5 12 19.5s6.88 0 8.595-.462a2.765 2.765 0 0 0 1.945-1.958c.46-1.726.46-5.33.46-5.33s0-3.602-.46-5.33ZM9.75 15.021V8.48l5.75 3.271-5.75 3.271Z" stroke="#000" stroke-width="1.5" stroke-miterlimit="10" stroke-linejoin="round"/></svg>